<?xml version="1.0" encoding="UTF-8" standalone="no"?>
<svg width="103px" height="20px" viewBox="0 0 103 20" version="1.1" xmlns="http://www.w3.org/2000/svg" xmlns:xlink="http://www.w3.org/1999/xlink" xmlns:sketch="http://www.bohemiancoding.com/sketch/ns">
    <!-- Generator: Sketch 3.3.2 (12043) - http://www.bohemiancoding.com/sketch -->
    <title>5-stars</title>
    <desc>Created with Sketch.</desc>
    <defs></defs>
    <g id="Page-1" stroke="none" stroke-width="1" fill="none" fill-rule="evenodd" sketch:type="MSPage">
        <g id="5-stars" sketch:type="MSLayerGroup" transform="translate(3.000000, 2.000000)">
            <path d="M8,0.412698413 L10.4761905,5.42857143 L16,6.25396825 L12,10.1269841 L12.952381,15.6507937 L8,13.047619 L3.04761905,15.6507937 L4,10.1269841 L-8.8817842e-16,6.25396825 L5.52380952,5.42857143 L8,0.412698413 Z" id="Shape" fill="#FFCA28" sketch:type="MSShapeGroup"></path>
            <path d="M28,0.412698413 L30.4761905,5.42857143 L36,6.25396825 L32,10.1269841 L32.952381,15.6507937 L28,13.047619 L23.047619,15.6507937 L24,10.1269841 L20,6.25396825 L25.5238095,5.42857143 L28,0.412698413 Z" id="Shape-Copy" fill="#F9C218" sketch:type="MSShapeGroup"></path>
            <path d="M48,0.412698413 L50.4761905,5.42857143 L56,6.25396825 L52,10.1269841 L52.952381,15.6507937 L48,13.047619 L43.047619,15.6507937 L44,10.1269841 L40,6.25396825 L45.5238095,5.42857143 L48,0.412698413 Z" id="Shape-Copy-2" fill="#FFCA28" sketch:type="MSShapeGroup"></path>
            <path d="M68,0.412698413 L70.4761905,5.42857143 L76,6.25396825 L72,10.1269841 L72.952381,15.6507937 L68,13.047619 L63.047619,15.6507937 L64,10.1269841 L60,6.25396825 L65.5238095,5.42857143 L68,0.412698413 Z" id="Shape-Copy-3" fill="#FAC218" sketch:type="MSShapeGroup"></path>
            <path d="M88,0.412698413 L90.4761905,5.42857143 L96,6.25396825 L92,10.1269841 L92.952381,15.6507937 L88,13.047619 L83.047619,15.6507937 L84,10.1269841 L80,6.25396825 L85.5238095,5.42857143 L88,0.412698413 Z" id="Shape-Copy-4" fill="#FFCA28" sketch:type="MSShapeGroup"></path>
        </g>
    </g>
</svg>