<?xml version="1.0" encoding="UTF-8" standalone="no"?>
<svg width="186px" height="55px" viewBox="0 0 186 55" version="1.1" xmlns="http://www.w3.org/2000/svg" xmlns:xlink="http://www.w3.org/1999/xlink" xmlns:sketch="http://www.bohemiancoding.com/sketch/ns">
    <!-- Generator: Sketch 3.3.2 (12043) - http://www.bohemiancoding.com/sketch -->
    <title>soon-header-server-time</title>
    <desc>Created with Sketch.</desc>
    <defs></defs>
    <g id="Page-1" stroke="none" stroke-width="1" fill="none" fill-rule="evenodd" sketch:type="MSPage">
        <g id="soon-header-server-time" sketch:type="MSLayerGroup" transform="translate(5.000000, 30.000000)">
            <g id="entering_heaven_alive" fill="#8CBCD6" sketch:type="MSShapeGroup">
                <path d="M33.0277778,9.09090909 C32.5722222,9.09090909 32.1166667,9.09090909 31.6611111,9.20454545 C30.6361111,3.97727273 26.0805556,0 20.5,0 C15.8305556,0 11.8444444,2.84090909 10.0222222,6.81818182 L9.11111111,6.81818182 C4.1,6.81818182 0,10.9090909 0,15.9090909 C0,20.9090909 4.1,25 9.11111111,25 L33.0277778,25 C37.4694444,25 41,21.4772727 41,17.0454545 C41,12.6136364 37.4694444,9.09090909 33.0277778,9.09090909 L33.0277778,9.09090909 Z" id="Shape"></path>
            </g>
            <path d="M59.496,17.36 L57.864,17.36 C57.8159998,18.4160053 57.9559984,19.3199962 58.284,20.072 C58.6120016,20.8240038 59.079997,21.4399976 59.688,21.92 C60.296003,22.4000024 61.0319957,22.7559988 61.896,22.988 C62.7600043,23.2200012 63.695995,23.336 64.704,23.336 C65.712005,23.336 66.5759964,23.2440009 67.296,23.06 C68.0160036,22.8759991 68.6199976,22.6360015 69.108,22.34 C69.5960024,22.0439985 69.9799986,21.7120018 70.26,21.344 C70.5400014,20.9759982 70.7559992,20.6120018 70.908,20.252 C71.0600008,19.8919982 71.1559998,19.5520016 71.196,19.232 C71.2360002,18.9119984 71.256,18.656001 71.256,18.464 C71.256,17.7599965 71.1400012,17.1600025 70.908,16.664 C70.6759988,16.1679975 70.356002,15.7480017 69.948,15.404 C69.539998,15.0599983 69.0680027,14.7720012 68.532,14.54 C67.9959973,14.3079988 67.424003,14.1120008 66.816,13.952 L62.64,12.92 C62.2879982,12.8399996 61.9560016,12.7360006 61.644,12.608 C61.3319984,12.4799994 61.0560012,12.312001 60.816,12.104 C60.5759988,11.895999 60.3880007,11.6440015 60.252,11.348 C60.1159993,11.0519985 60.048,10.704002 60.048,10.304 C60.048,9.6639968 60.1679988,9.12800216 60.408,8.696 C60.6480012,8.26399784 60.963998,7.91600132 61.356,7.652 C61.748002,7.38799868 62.2039974,7.1960006 62.724,7.076 C63.2440026,6.9559994 63.7839972,6.896 64.344,6.896 C64.952003,6.896 65.5319972,6.97999916 66.084,7.148 C66.6360028,7.31600084 67.1239979,7.56399836 67.548,7.892 C67.9720021,8.22000164 68.3159987,8.62799756 68.58,9.116 C68.8440013,9.60400244 68.9919998,10.1759967 69.024,10.832 L70.656,10.832 C70.656,9.9519956 70.4840017,9.18000332 70.14,8.516 C69.7959983,7.85199668 69.3360029,7.29600224 68.76,6.848 C68.1839971,6.39999776 67.5120038,6.06400112 66.744,5.84 C65.9759962,5.61599888 65.1680042,5.504 64.32,5.504 C63.119994,5.504 62.1360038,5.67599828 61.368,6.02 C60.5999962,6.36400172 59.9960022,6.78399752 59.556,7.28 C59.1159978,7.77600248 58.8160008,8.3039972 58.656,8.864 C58.4959992,9.4240028 58.416,9.91199792 58.416,10.328 C58.416,11.0000034 58.5239989,11.5679977 58.74,12.032 C58.9560011,12.4960023 59.2399982,12.8879984 59.592,13.208 C59.9440018,13.5280016 60.3559976,13.783999 60.828,13.976 C61.3000024,14.168001 61.7839975,14.3279994 62.28,14.456 L66.096,15.392 C66.496002,15.4880005 66.9039979,15.6119992 67.32,15.764 C67.7360021,15.9160008 68.1159983,16.1119988 68.46,16.352 C68.8040017,16.5920012 69.0839989,16.8879982 69.3,17.24 C69.5160011,17.5920018 69.624,18.0079976 69.624,18.488 C69.624,19.1120031 69.4720015,19.6439978 69.168,20.084 C68.8639985,20.5240022 68.4840023,20.8839986 68.028,21.164 C67.5719977,21.4440014 67.0800026,21.6479994 66.552,21.776 C66.0239974,21.9040006 65.5360022,21.968 65.088,21.968 C64.3039961,21.968 63.5680034,21.8920008 62.88,21.74 C62.1919966,21.5879992 61.5960025,21.3360018 61.092,20.984 C60.5879975,20.6319982 60.1920014,20.160003 59.904,19.568 C59.6159986,18.975997 59.4799999,18.2400044 59.496,17.36 L59.496,17.36 Z M82.464,15.944 L74.448,15.944 C74.5120003,15.3839972 74.643999,14.8360027 74.844,14.3 C75.044001,13.7639973 75.3119983,13.292002 75.648,12.884 C75.9840017,12.475998 76.3919976,12.1480012 76.872,11.9 C77.3520024,11.6519988 77.9039969,11.528 78.528,11.528 C79.136003,11.528 79.6799976,11.6519988 80.16,11.9 C80.6400024,12.1480012 81.0479983,12.475998 81.384,12.884 C81.7200017,13.292002 81.9799991,13.7599974 82.164,14.288 C82.3480009,14.8160026 82.4479999,15.3679971 82.464,15.944 L82.464,15.944 Z M74.448,17.216 L83.976,17.216 C84.0080002,16.3519957 83.928001,15.5000042 83.736,14.66 C83.543999,13.8199958 83.2280022,13.0760032 82.788,12.428 C82.3479978,11.7799968 81.7760035,11.256002 81.072,10.856 C80.3679965,10.455998 79.520005,10.256 78.528,10.256 C77.5519951,10.256 76.7080036,10.4439981 75.996,10.82 C75.2839964,11.1960019 74.7040022,11.6919969 74.256,12.308 C73.8079978,12.9240031 73.4760011,13.6239961 73.26,14.408 C73.0439989,15.1920039 72.936,15.9919959 72.936,16.808 C72.936,17.6880044 73.0439989,18.523996 73.26,19.316 C73.4760011,20.108004 73.8079978,20.803997 74.256,21.404 C74.7040022,22.004003 75.2839964,22.4759983 75.996,22.82 C76.7080036,23.1640017 77.5519951,23.336 78.528,23.336 C80.0960078,23.336 81.3079957,22.9520038 82.164,22.184 C83.0200043,21.4159962 83.6079984,20.328007 83.928,18.92 L82.416,18.92 C82.1759988,19.8800048 81.7440031,20.6479971 81.12,21.224 C80.4959969,21.8000029 79.6320055,22.088 78.528,22.088 C77.8079964,22.088 77.1920026,21.9360015 76.68,21.632 C76.1679974,21.3279985 75.7440017,20.9440023 75.408,20.48 C75.0719983,20.0159977 74.8280008,19.4920029 74.676,18.908 C74.5239992,18.3239971 74.448,17.7600027 74.448,17.216 L74.448,17.216 Z M86.016,10.616 L86.016,23 L87.528,23 L87.528,16.4 C87.528,15.7439967 87.6399989,15.1400028 87.864,14.588 C88.0880011,14.0359972 88.403998,13.560002 88.812,13.16 C89.220002,12.759998 89.7039972,12.4520011 90.264,12.236 C90.8240028,12.0199989 91.4479966,11.9279998 92.136,11.96 L92.136,10.448 C91.0159944,10.3999998 90.052004,10.6479973 89.244,11.192 C88.435996,11.7360027 87.8400019,12.511995 87.456,13.52 L87.408,13.52 L87.408,10.616 L86.016,10.616 Z M92.184,10.616 L96.96,23 L98.568,23 L103.2,10.616 L101.64,10.616 L97.8,21.488 L97.752,21.488 L93.864,10.616 L92.184,10.616 Z M113.592,15.944 L105.576,15.944 C105.64,15.3839972 105.771999,14.8360027 105.972,14.3 C106.172001,13.7639973 106.439998,13.292002 106.776,12.884 C107.112002,12.475998 107.519998,12.1480012 108,11.9 C108.480002,11.6519988 109.031997,11.528 109.656,11.528 C110.264003,11.528 110.807998,11.6519988 111.288,11.9 C111.768002,12.1480012 112.175998,12.475998 112.512,12.884 C112.848002,13.292002 113.107999,13.7599974 113.292,14.288 C113.476001,14.8160026 113.576,15.3679971 113.592,15.944 L113.592,15.944 Z M105.576,17.216 L115.104,17.216 C115.136,16.3519957 115.056001,15.5000042 114.864,14.66 C114.671999,13.8199958 114.356002,13.0760032 113.916,12.428 C113.475998,11.7799968 112.904004,11.256002 112.2,10.856 C111.495996,10.455998 110.648005,10.256 109.656,10.256 C108.679995,10.256 107.836004,10.4439981 107.124,10.82 C106.411996,11.1960019 105.832002,11.6919969 105.384,12.308 C104.935998,12.9240031 104.604001,13.6239961 104.388,14.408 C104.171999,15.1920039 104.064,15.9919959 104.064,16.808 C104.064,17.6880044 104.171999,18.523996 104.388,19.316 C104.604001,20.108004 104.935998,20.803997 105.384,21.404 C105.832002,22.004003 106.411996,22.4759983 107.124,22.82 C107.836004,23.1640017 108.679995,23.336 109.656,23.336 C111.224008,23.336 112.435996,22.9520038 113.292,22.184 C114.148004,21.4159962 114.735998,20.328007 115.056,18.92 L113.544,18.92 C113.303999,19.8800048 112.872003,20.6479971 112.248,21.224 C111.623997,21.8000029 110.760006,22.088 109.656,22.088 C108.935996,22.088 108.320003,21.9360015 107.808,21.632 C107.295997,21.3279985 106.872002,20.9440023 106.536,20.48 C106.199998,20.0159977 105.956001,19.4920029 105.804,18.908 C105.651999,18.3239971 105.576,17.7600027 105.576,17.216 L105.576,17.216 Z M117.144,10.616 L117.144,23 L118.656,23 L118.656,16.4 C118.656,15.7439967 118.767999,15.1400028 118.992,14.588 C119.216001,14.0359972 119.531998,13.560002 119.94,13.16 C120.348002,12.759998 120.831997,12.4520011 121.392,12.236 C121.952003,12.0199989 122.575997,11.9279998 123.264,11.96 L123.264,10.448 C122.143994,10.3999998 121.180004,10.6479973 120.372,11.192 C119.563996,11.7360027 118.968002,12.511995 118.584,13.52 L118.536,13.52 L118.536,10.616 L117.144,10.616 Z M129.84,5.864 L129.84,7.256 L135.792,7.256 L135.792,23 L137.424,23 L137.424,7.256 L143.4,7.256 L143.4,5.864 L129.84,5.864 Z M145.32,5.864 L145.32,8.288 L146.832,8.288 L146.832,5.864 L145.32,5.864 Z M145.32,10.616 L145.32,23 L146.832,23 L146.832,10.616 L145.32,10.616 Z M149.736,10.616 L149.736,23 L151.248,23 L151.248,16.088 C151.248,15.4319967 151.319999,14.8280028 151.464,14.276 C151.608001,13.7239972 151.827999,13.244002 152.124,12.836 C152.420001,12.427998 152.803998,12.1080012 153.276,11.876 C153.748002,11.6439988 154.303997,11.528 154.944,11.528 C155.424002,11.528 155.831998,11.6079992 156.168,11.768 C156.504002,11.9280008 156.771999,12.1479986 156.972,12.428 C157.172001,12.7080014 157.316,13.0359981 157.404,13.412 C157.492,13.7880019 157.536,14.1839979 157.536,14.6 L157.536,23 L159.048,23 L159.048,15.992 C159.048,15.4159971 159.099999,14.8600027 159.204,14.324 C159.308001,13.7879973 159.487999,13.3120021 159.744,12.896 C160.000001,12.4799979 160.343998,12.1480012 160.776,11.9 C161.208002,11.6519988 161.751997,11.528 162.408,11.528 C163.496005,11.528 164.255998,11.7959973 164.688,12.332 C165.120002,12.8680027 165.336,13.6479949 165.336,14.672 L165.336,23 L166.848,23 L166.848,14.6 C166.848,11.7039855 165.480014,10.256 162.744,10.256 C161.927996,10.256 161.160004,10.455998 160.44,10.856 C159.719996,11.256002 159.176002,11.8639959 158.808,12.68 C158.583999,11.8639959 158.140003,11.256002 157.476,10.856 C156.811997,10.455998 156.072004,10.256 155.256,10.256 C154.247995,10.256 153.420003,10.4719978 152.772,10.904 C152.123997,11.3360022 151.600002,11.9359962 151.2,12.704 L151.128,12.704 L151.128,10.616 L149.736,10.616 Z M178.632,15.944 L170.616,15.944 C170.68,15.3839972 170.811999,14.8360027 171.012,14.3 C171.212001,13.7639973 171.479998,13.292002 171.816,12.884 C172.152002,12.475998 172.559998,12.1480012 173.04,11.9 C173.520002,11.6519988 174.071997,11.528 174.696,11.528 C175.304003,11.528 175.847998,11.6519988 176.328,11.9 C176.808002,12.1480012 177.215998,12.475998 177.552,12.884 C177.888002,13.292002 178.147999,13.7599974 178.332,14.288 C178.516001,14.8160026 178.616,15.3679971 178.632,15.944 L178.632,15.944 Z M170.616,17.216 L180.144,17.216 C180.176,16.3519957 180.096001,15.5000042 179.904,14.66 C179.711999,13.8199958 179.396002,13.0760032 178.956,12.428 C178.515998,11.7799968 177.944004,11.256002 177.24,10.856 C176.535996,10.455998 175.688005,10.256 174.696,10.256 C173.719995,10.256 172.876004,10.4439981 172.164,10.82 C171.451996,11.1960019 170.872002,11.6919969 170.424,12.308 C169.975998,12.9240031 169.644001,13.6239961 169.428,14.408 C169.211999,15.1920039 169.104,15.9919959 169.104,16.808 C169.104,17.6880044 169.211999,18.523996 169.428,19.316 C169.644001,20.108004 169.975998,20.803997 170.424,21.404 C170.872002,22.004003 171.451996,22.4759983 172.164,22.82 C172.876004,23.1640017 173.719995,23.336 174.696,23.336 C176.264008,23.336 177.475996,22.9520038 178.332,22.184 C179.188004,21.4159962 179.775998,20.328007 180.096,18.92 L178.584,18.92 C178.343999,19.8800048 177.912003,20.6479971 177.288,21.224 C176.663997,21.8000029 175.800006,22.088 174.696,22.088 C173.975996,22.088 173.360003,21.9360015 172.848,21.632 C172.335997,21.3279985 171.912002,20.9440023 171.576,20.48 C171.239998,20.0159977 170.996001,19.4920029 170.844,18.908 C170.691999,18.3239971 170.616,17.7600027 170.616,17.216 L170.616,17.216 Z" id="Server-Time-Copy" fill="#4A4A4A" sketch:type="MSShapeGroup"></path>
        </g>
    </g>
</svg>