<?xml version="1.0" standalone="no"?>
<!DOCTYPE svg PUBLIC "-//W3C//DTD SVG 1.1//EN" "http://www.w3.org/Graphics/SVG/1.1/DTD/svg11.dtd">
<svg width="100%" height="100%" viewBox="0 0 617 100" version="1.1" xmlns="http://www.w3.org/2000/svg" xmlns:xlink="http://www.w3.org/1999/xlink" xml:space="preserve" style="fill-rule:evenodd;clip-rule:evenodd;stroke-linejoin:round;stroke-miterlimit:1.41421;">
    <rect x="0" y="0" width="617" height="100" style="fill:rgb(68,68,68);"/>
    <g transform="matrix(1,0,0,1,-25,-39.1262)">
        <path d="M129.16,76.607L127.528,76.607C127.48,77.663 127.62,78.567 127.948,79.319C128.276,80.071 128.744,80.687 129.352,81.167C129.96,81.647 130.696,82.003 131.56,82.235C132.424,82.467 133.36,82.583 134.368,82.583C135.376,82.583 136.24,82.491 136.96,82.307C137.68,82.123 138.284,81.883 138.772,81.587C139.26,81.291 139.644,80.959 139.924,80.591C140.204,80.223 140.42,79.859 140.572,79.499C140.724,79.139 140.82,78.799 140.86,78.479C140.9,78.159 140.92,77.903 140.92,77.711C140.92,77.007 140.804,76.407 140.572,75.911C140.34,75.415 140.02,74.995 139.612,74.651C139.204,74.307 138.732,74.019 138.196,73.787C137.66,73.555 137.088,73.359 136.48,73.199L132.304,72.167C131.952,72.087 131.62,71.983 131.308,71.855C130.996,71.727 130.72,71.559 130.48,71.351C130.24,71.143 130.052,70.891 129.916,70.595C129.78,70.299 129.712,69.951 129.712,69.551C129.712,68.911 129.832,68.375 130.072,67.943C130.312,67.511 130.628,67.163 131.02,66.899C131.412,66.635 131.868,66.443 132.388,66.323C132.908,66.203 133.448,66.143 134.008,66.143C134.616,66.143 135.196,66.227 135.748,66.395C136.3,66.563 136.788,66.811 137.212,67.139C137.636,67.467 137.98,67.875 138.244,68.363C138.508,68.851 138.656,69.423 138.688,70.079L140.32,70.079C140.32,69.199 140.148,68.427 139.804,67.763C139.46,67.099 139,66.543 138.424,66.095C137.848,65.647 137.176,65.311 136.408,65.087C135.64,64.863 134.832,64.751 133.984,64.751C132.784,64.751 131.8,64.923 131.032,65.267C130.264,65.611 129.66,66.031 129.22,66.527C128.78,67.023 128.48,67.551 128.32,68.111C128.16,68.671 128.08,69.159 128.08,69.575C128.08,70.247 128.188,70.815 128.404,71.279C128.62,71.743 128.904,72.135 129.256,72.455C129.608,72.775 130.02,73.031 130.492,73.223C130.964,73.415 131.448,73.575 131.944,73.703L135.76,74.639C136.16,74.735 136.568,74.859 136.984,75.011C137.4,75.163 137.78,75.359 138.124,75.599C138.468,75.839 138.748,76.135 138.964,76.487C139.18,76.839 139.288,77.255 139.288,77.735C139.288,78.359 139.136,78.891 138.832,79.331C138.528,79.771 138.148,80.131 137.692,80.411C137.236,80.691 136.744,80.895 136.216,81.023C135.688,81.151 135.2,81.215 134.752,81.215C133.968,81.215 133.232,81.139 132.544,80.987C131.856,80.835 131.26,80.583 130.756,80.231C130.252,79.879 129.856,79.407 129.568,78.815C129.28,78.223 129.144,77.487 129.16,76.607Z" style="fill:white;fill-rule:nonzero;"/>
        <path d="M148.456,70.775C149.176,70.775 149.808,70.927 150.352,71.231C150.896,71.535 151.348,71.935 151.708,72.431C152.068,72.927 152.34,73.491 152.524,74.123C152.708,74.755 152.8,75.399 152.8,76.055C152.8,76.711 152.708,77.355 152.524,77.987C152.34,78.619 152.068,79.183 151.708,79.679C151.348,80.175 150.896,80.575 150.352,80.879C149.808,81.183 149.176,81.335 148.456,81.335C147.736,81.335 147.104,81.183 146.56,80.879C146.016,80.575 145.564,80.175 145.204,79.679C144.844,79.183 144.572,78.619 144.388,77.987C144.204,77.355 144.112,76.711 144.112,76.055C144.112,75.399 144.204,74.755 144.388,74.123C144.572,73.491 144.844,72.927 145.204,72.431C145.564,71.935 146.016,71.535 146.56,71.231C147.104,70.927 147.736,70.775 148.456,70.775ZM148.456,69.503C147.512,69.503 146.676,69.679 145.948,70.031C145.22,70.383 144.608,70.855 144.112,71.447C143.616,72.039 143.24,72.731 142.984,73.523C142.728,74.315 142.6,75.159 142.6,76.055C142.6,76.951 142.728,77.795 142.984,78.587C143.24,79.379 143.616,80.071 144.112,80.663C144.608,81.255 145.22,81.723 145.948,82.067C146.676,82.411 147.512,82.583 148.456,82.583C149.4,82.583 150.236,82.411 150.964,82.067C151.692,81.723 152.304,81.255 152.8,80.663C153.296,80.071 153.672,79.379 153.928,78.587C154.184,77.795 154.312,76.951 154.312,76.055C154.312,75.159 154.184,74.315 153.928,73.523C153.672,72.731 153.296,72.039 152.8,71.447C152.304,70.855 151.692,70.383 150.964,70.031C150.236,69.679 149.4,69.503 148.456,69.503Z" style="fill:white;fill-rule:nonzero;"/>
        <path d="M161.8,70.775C162.52,70.775 163.152,70.927 163.696,71.231C164.24,71.535 164.692,71.935 165.052,72.431C165.412,72.927 165.684,73.491 165.868,74.123C166.052,74.755 166.144,75.399 166.144,76.055C166.144,76.711 166.052,77.355 165.868,77.987C165.684,78.619 165.412,79.183 165.052,79.679C164.692,80.175 164.24,80.575 163.696,80.879C163.152,81.183 162.52,81.335 161.8,81.335C161.08,81.335 160.448,81.183 159.904,80.879C159.36,80.575 158.908,80.175 158.548,79.679C158.188,79.183 157.916,78.619 157.732,77.987C157.548,77.355 157.456,76.711 157.456,76.055C157.456,75.399 157.548,74.755 157.732,74.123C157.916,73.491 158.188,72.927 158.548,72.431C158.908,71.935 159.36,71.535 159.904,71.231C160.448,70.927 161.08,70.775 161.8,70.775ZM161.8,69.503C160.856,69.503 160.02,69.679 159.292,70.031C158.564,70.383 157.952,70.855 157.456,71.447C156.96,72.039 156.584,72.731 156.328,73.523C156.072,74.315 155.944,75.159 155.944,76.055C155.944,76.951 156.072,77.795 156.328,78.587C156.584,79.379 156.96,80.071 157.456,80.663C157.952,81.255 158.564,81.723 159.292,82.067C160.02,82.411 160.856,82.583 161.8,82.583C162.744,82.583 163.58,82.411 164.308,82.067C165.036,81.723 165.648,81.255 166.144,80.663C166.64,80.071 167.016,79.379 167.272,78.587C167.528,77.795 167.656,76.951 167.656,76.055C167.656,75.159 167.528,74.315 167.272,73.523C167.016,72.731 166.64,72.039 166.144,71.447C165.648,70.855 165.036,70.383 164.308,70.031C163.58,69.679 162.744,69.503 161.8,69.503Z" style="fill:white;fill-rule:nonzero;"/>
        <path d="M169.888,69.863L169.888,82.247L171.4,82.247L171.4,75.023C171.416,74.415 171.516,73.851 171.7,73.331C171.884,72.811 172.14,72.363 172.468,71.987C172.796,71.611 173.196,71.315 173.668,71.099C174.14,70.883 174.68,70.775 175.288,70.775C175.896,70.775 176.404,70.871 176.812,71.063C177.22,71.255 177.544,71.519 177.784,71.855C178.024,72.191 178.192,72.587 178.288,73.043C178.384,73.499 178.432,73.991 178.432,74.519L178.432,82.247L179.944,82.247L179.944,74.279C179.944,73.543 179.872,72.879 179.728,72.287C179.584,71.695 179.336,71.195 178.984,70.787C178.632,70.379 178.164,70.063 177.58,69.839C176.996,69.615 176.272,69.503 175.408,69.503C174.528,69.503 173.72,69.731 172.984,70.187C172.248,70.643 171.736,71.247 171.448,71.999L171.4,71.999L171.4,69.863L169.888,69.863Z" style="fill:white;fill-rule:nonzero;"/>
        <path d="M194.248,71.135L194.248,69.863L191.8,69.863L191.8,68.783C191.8,68.447 191.808,68.135 191.824,67.847C191.84,67.559 191.9,67.307 192.004,67.091C192.108,66.875 192.272,66.703 192.496,66.575C192.72,66.447 193.04,66.383 193.456,66.383C193.632,66.383 193.808,66.395 193.984,66.419C194.16,66.443 194.352,66.471 194.56,66.503L194.56,65.207C194.32,65.175 194.104,65.151 193.912,65.135C193.72,65.119 193.512,65.111 193.288,65.111C192.68,65.111 192.18,65.199 191.788,65.375C191.396,65.551 191.088,65.799 190.864,66.119C190.64,66.439 190.488,66.823 190.408,67.271C190.328,67.719 190.288,68.207 190.288,68.735L190.288,69.863L188.176,69.863L188.176,71.135L190.288,71.135L190.288,82.247L191.8,82.247L191.8,71.135L194.248,71.135Z" style="fill:white;fill-rule:nonzero;"/>
        <path d="M200.92,70.775C201.64,70.775 202.272,70.927 202.816,71.231C203.36,71.535 203.812,71.935 204.172,72.431C204.532,72.927 204.804,73.491 204.988,74.123C205.172,74.755 205.264,75.399 205.264,76.055C205.264,76.711 205.172,77.355 204.988,77.987C204.804,78.619 204.532,79.183 204.172,79.679C203.812,80.175 203.36,80.575 202.816,80.879C202.272,81.183 201.64,81.335 200.92,81.335C200.2,81.335 199.568,81.183 199.024,80.879C198.48,80.575 198.028,80.175 197.668,79.679C197.308,79.183 197.036,78.619 196.852,77.987C196.668,77.355 196.576,76.711 196.576,76.055C196.576,75.399 196.668,74.755 196.852,74.123C197.036,73.491 197.308,72.927 197.668,72.431C198.028,71.935 198.48,71.535 199.024,71.231C199.568,70.927 200.2,70.775 200.92,70.775ZM200.92,69.503C199.976,69.503 199.14,69.679 198.412,70.031C197.684,70.383 197.072,70.855 196.576,71.447C196.08,72.039 195.704,72.731 195.448,73.523C195.192,74.315 195.064,75.159 195.064,76.055C195.064,76.951 195.192,77.795 195.448,78.587C195.704,79.379 196.08,80.071 196.576,80.663C197.072,81.255 197.684,81.723 198.412,82.067C199.14,82.411 199.976,82.583 200.92,82.583C201.864,82.583 202.7,82.411 203.428,82.067C204.156,81.723 204.768,81.255 205.264,80.663C205.76,80.071 206.136,79.379 206.392,78.587C206.648,77.795 206.776,76.951 206.776,76.055C206.776,75.159 206.648,74.315 206.392,73.523C206.136,72.731 205.76,72.039 205.264,71.447C204.768,70.855 204.156,70.383 203.428,70.031C202.7,69.679 201.864,69.503 200.92,69.503Z" style="fill:white;fill-rule:nonzero;"/>
        <path d="M209.032,69.863L209.032,82.247L210.544,82.247L210.544,75.647C210.544,74.991 210.656,74.387 210.88,73.835C211.104,73.283 211.42,72.807 211.828,72.407C212.236,72.007 212.72,71.699 213.28,71.483C213.84,71.267 214.464,71.175 215.152,71.207L215.152,69.695C214.032,69.647 213.068,69.895 212.26,70.439C211.452,70.983 210.856,71.759 210.472,72.767L210.424,72.767L210.424,69.863L209.032,69.863Z" style="fill:white;fill-rule:nonzero;"/>
        <path d="M223.288,65.111L223.288,67.535L224.8,67.535L224.8,65.111L223.288,65.111ZM223.288,69.863L223.288,83.735C223.288,84.247 223.208,84.675 223.048,85.019C222.888,85.363 222.512,85.535 221.92,85.535C221.808,85.551 221.68,85.555 221.536,85.547C221.392,85.539 221.256,85.527 221.128,85.511L221.128,86.759C221.304,86.759 221.476,86.767 221.644,86.783C221.812,86.799 221.984,86.807 222.16,86.807C222.688,86.807 223.124,86.715 223.468,86.531C223.812,86.347 224.084,86.099 224.284,85.787C224.484,85.475 224.62,85.111 224.692,84.695C224.764,84.279 224.8,83.839 224.8,83.375L224.8,69.863L223.288,69.863Z" style="fill:white;fill-rule:nonzero;"/>
        <path d="M242.272,83.327L243.088,82.319L240.64,80.471C241.504,79.639 242.152,78.635 242.584,77.459C243.016,76.283 243.232,75.023 243.232,73.679C243.232,72.495 243.064,71.367 242.728,70.295C242.392,69.223 241.888,68.275 241.216,67.451C240.544,66.627 239.704,65.971 238.696,65.483C237.688,64.995 236.512,64.751 235.168,64.751C233.824,64.751 232.644,64.995 231.628,65.483C230.612,65.971 229.768,66.627 229.096,67.451C228.424,68.275 227.92,69.223 227.584,70.295C227.248,71.367 227.08,72.495 227.08,73.679C227.08,74.863 227.248,75.991 227.584,77.063C227.92,78.135 228.424,79.079 229.096,79.895C229.768,80.711 230.612,81.363 231.628,81.851C232.644,82.339 233.824,82.583 235.168,82.583C236.96,82.583 238.44,82.167 239.608,81.335L242.272,83.327ZM239.416,79.535L236.92,77.639L236.08,78.671L238.336,80.375C237.44,80.935 236.384,81.215 235.168,81.215C234.032,81.215 233.056,80.999 232.24,80.567C231.424,80.135 230.756,79.563 230.236,78.851C229.716,78.139 229.332,77.331 229.084,76.427C228.836,75.523 228.712,74.607 228.712,73.679C228.712,72.735 228.836,71.815 229.084,70.919C229.332,70.023 229.716,69.219 230.236,68.507C230.756,67.795 231.424,67.223 232.24,66.791C233.056,66.359 234.032,66.143 235.168,66.143C236.304,66.143 237.276,66.359 238.084,66.791C238.892,67.223 239.556,67.795 240.076,68.507C240.596,69.219 240.98,70.023 241.228,70.919C241.476,71.815 241.6,72.735 241.6,73.679C241.6,74.783 241.428,75.855 241.084,76.895C240.74,77.935 240.184,78.815 239.416,79.535Z" style="fill:white;fill-rule:nonzero;"/>
        <path d="M255.52,82.247L255.52,69.863L254.008,69.863L254.008,76.367C254.008,76.991 253.936,77.603 253.792,78.203C253.648,78.803 253.424,79.335 253.12,79.799C252.816,80.263 252.432,80.635 251.968,80.915C251.504,81.195 250.944,81.335 250.288,81.335C249.088,81.335 248.244,81.047 247.756,80.471C247.268,79.895 247.008,79.047 246.976,77.927L246.976,69.863L245.464,69.863L245.464,77.903C245.464,78.639 245.544,79.295 245.704,79.871C245.864,80.447 246.116,80.935 246.46,81.335C246.804,81.735 247.252,82.043 247.804,82.259C248.356,82.475 249.024,82.583 249.808,82.583C250.736,82.583 251.58,82.363 252.34,81.923C253.1,81.483 253.68,80.847 254.08,80.015L254.128,80.015L254.128,82.247L255.52,82.247Z" style="fill:white;fill-rule:nonzero;"/>
        <path d="M267.28,75.191L259.264,75.191C259.328,74.631 259.46,74.083 259.66,73.547C259.86,73.011 260.128,72.539 260.464,72.131C260.8,71.723 261.208,71.395 261.688,71.147C262.168,70.899 262.72,70.775 263.344,70.775C263.952,70.775 264.496,70.899 264.976,71.147C265.456,71.395 265.864,71.723 266.2,72.131C266.536,72.539 266.796,73.007 266.98,73.535C267.164,74.063 267.264,74.615 267.28,75.191ZM259.264,76.463L268.792,76.463C268.824,75.599 268.744,74.747 268.552,73.907C268.36,73.067 268.044,72.323 267.604,71.675C267.164,71.027 266.592,70.503 265.888,70.103C265.184,69.703 264.336,69.503 263.344,69.503C262.368,69.503 261.524,69.691 260.812,70.067C260.1,70.443 259.52,70.939 259.072,71.555C258.624,72.171 258.292,72.871 258.076,73.655C257.86,74.439 257.752,75.239 257.752,76.055C257.752,76.935 257.86,77.771 258.076,78.563C258.292,79.355 258.624,80.051 259.072,80.651C259.52,81.251 260.1,81.723 260.812,82.067C261.524,82.411 262.368,82.583 263.344,82.583C264.912,82.583 266.124,82.199 266.98,81.431C267.836,80.663 268.424,79.575 268.744,78.167L267.232,78.167C266.992,79.127 266.56,79.895 265.936,80.471C265.312,81.047 264.448,81.335 263.344,81.335C262.624,81.335 262.008,81.183 261.496,80.879C260.984,80.575 260.56,80.191 260.224,79.727C259.888,79.263 259.644,78.739 259.492,78.155C259.34,77.571 259.264,77.007 259.264,76.463Z" style="fill:white;fill-rule:nonzero;"/>
        <path d="M270.832,69.863L270.832,82.247L272.344,82.247L272.344,75.647C272.344,74.991 272.456,74.387 272.68,73.835C272.904,73.283 273.22,72.807 273.628,72.407C274.036,72.007 274.52,71.699 275.08,71.483C275.64,71.267 276.264,71.175 276.952,71.207L276.952,69.695C275.832,69.647 274.868,69.895 274.06,70.439C273.252,70.983 272.656,71.759 272.272,72.767L272.224,72.767L272.224,69.863L270.832,69.863Z" style="fill:white;fill-rule:nonzero;"/>
        <path d="M277,69.863L281.944,82.199L281.416,83.591C281.288,83.879 281.168,84.143 281.056,84.383C280.944,84.623 280.808,84.827 280.648,84.995C280.488,85.163 280.3,85.295 280.084,85.391C279.868,85.487 279.592,85.535 279.256,85.535C279.08,85.535 278.908,85.523 278.74,85.499C278.572,85.475 278.4,85.447 278.224,85.415L278.224,86.687C278.352,86.735 278.5,86.763 278.668,86.771C278.836,86.779 279.072,86.791 279.376,86.807C279.856,86.807 280.252,86.763 280.564,86.675C280.876,86.587 281.148,86.443 281.38,86.243C281.612,86.043 281.824,85.771 282.016,85.427C282.208,85.083 282.416,84.647 282.64,84.119L288.016,69.863L286.504,69.863L282.688,80.423L278.608,69.863L277,69.863Z" style="fill:white;fill-rule:nonzero;"/>
        <path d="M296.2,65.111L296.2,67.535L297.712,67.535L297.712,65.111L296.2,65.111ZM296.2,69.863L296.2,82.247L297.712,82.247L297.712,69.863L296.2,69.863Z" style="fill:white;fill-rule:nonzero;"/>
        <path d="M308.032,73.487L309.544,73.487C309.512,72.815 309.376,72.231 309.136,71.735C308.896,71.239 308.572,70.823 308.164,70.487C307.756,70.151 307.284,69.903 306.748,69.743C306.212,69.583 305.632,69.503 305.008,69.503C304.464,69.503 303.916,69.567 303.364,69.695C302.812,69.823 302.312,70.023 301.864,70.295C301.416,70.567 301.052,70.927 300.772,71.375C300.492,71.823 300.352,72.359 300.352,72.983C300.352,73.511 300.44,73.955 300.616,74.315C300.792,74.675 301.036,74.979 301.348,75.227C301.66,75.475 302.024,75.683 302.44,75.851C302.856,76.019 303.312,76.167 303.808,76.295L305.752,76.727C306.088,76.807 306.42,76.903 306.748,77.015C307.076,77.127 307.368,77.267 307.624,77.435C307.88,77.603 308.084,77.811 308.236,78.059C308.388,78.307 308.464,78.615 308.464,78.983C308.464,79.415 308.356,79.779 308.14,80.075C307.924,80.371 307.648,80.615 307.312,80.807C306.976,80.999 306.612,81.135 306.22,81.215C305.828,81.295 305.448,81.335 305.08,81.335C304.072,81.335 303.228,81.075 302.548,80.555C301.868,80.035 301.496,79.263 301.432,78.239L299.92,78.239C300.048,79.759 300.564,80.863 301.468,81.551C302.372,82.239 303.552,82.583 305.008,82.583C305.584,82.583 306.168,82.519 306.76,82.391C307.352,82.263 307.884,82.051 308.356,81.755C308.828,81.459 309.216,81.075 309.52,80.603C309.824,80.131 309.976,79.559 309.976,78.887C309.976,78.343 309.872,77.871 309.664,77.471C309.456,77.071 309.188,76.735 308.86,76.463C308.532,76.191 308.156,75.971 307.732,75.803C307.308,75.635 306.88,75.519 306.448,75.455L304.432,74.999C304.176,74.935 303.896,74.851 303.592,74.747C303.288,74.643 303.008,74.511 302.752,74.351C302.496,74.191 302.284,73.995 302.116,73.763C301.948,73.531 301.864,73.247 301.864,72.911C301.864,72.511 301.952,72.175 302.128,71.903C302.304,71.631 302.536,71.411 302.824,71.243C303.112,71.075 303.428,70.955 303.772,70.883C304.116,70.811 304.456,70.775 304.792,70.775C305.224,70.775 305.632,70.827 306.016,70.931C306.4,71.035 306.74,71.199 307.036,71.423C307.332,71.647 307.568,71.931 307.744,72.275C307.92,72.619 308.016,73.023 308.032,73.487Z" style="fill:white;fill-rule:nonzero;"/>
        <path d="M318.688,73.655L320.2,73.655C320.232,72.647 320.552,71.915 321.16,71.459C321.768,71.003 322.552,70.775 323.512,70.775C323.96,70.775 324.38,70.811 324.772,70.883C325.164,70.955 325.508,71.087 325.804,71.279C326.1,71.471 326.332,71.731 326.5,72.059C326.668,72.387 326.752,72.807 326.752,73.319C326.752,73.655 326.708,73.927 326.62,74.135C326.532,74.343 326.408,74.507 326.248,74.627C326.088,74.747 325.888,74.831 325.648,74.879C325.408,74.927 325.128,74.967 324.808,74.999C323.992,75.095 323.188,75.195 322.396,75.299C321.604,75.403 320.892,75.583 320.26,75.839C319.628,76.095 319.12,76.467 318.736,76.955C318.352,77.443 318.16,78.119 318.16,78.983C318.16,79.607 318.268,80.147 318.484,80.603C318.7,81.059 318.996,81.435 319.372,81.731C319.748,82.027 320.188,82.243 320.692,82.379C321.196,82.515 321.736,82.583 322.312,82.583C322.92,82.583 323.444,82.527 323.884,82.415C324.324,82.303 324.716,82.143 325.06,81.935C325.404,81.727 325.716,81.467 325.996,81.155C326.276,80.843 326.552,80.487 326.824,80.087L326.872,80.087C326.872,80.407 326.892,80.699 326.932,80.963C326.972,81.227 327.056,81.455 327.184,81.647C327.312,81.839 327.492,81.987 327.724,82.091C327.956,82.195 328.264,82.247 328.648,82.247C328.856,82.247 329.028,82.239 329.164,82.223C329.3,82.207 329.456,82.183 329.632,82.151L329.632,80.879C329.488,80.943 329.328,80.975 329.152,80.975C328.56,80.975 328.264,80.671 328.264,80.063L328.264,73.487C328.264,72.655 328.128,71.979 327.856,71.459C327.584,70.939 327.232,70.535 326.8,70.247C326.368,69.959 325.88,69.763 325.336,69.659C324.792,69.555 324.248,69.503 323.704,69.503C322.984,69.503 322.328,69.583 321.736,69.743C321.144,69.903 320.628,70.151 320.188,70.487C319.748,70.823 319.4,71.255 319.144,71.783C318.888,72.311 318.736,72.935 318.688,73.655ZM326.752,75.479L326.752,77.447C326.752,78.055 326.636,78.599 326.404,79.079C326.172,79.559 325.86,79.967 325.468,80.303C325.076,80.639 324.616,80.895 324.088,81.071C323.56,81.247 323.008,81.335 322.432,81.335C322.08,81.335 321.736,81.279 321.4,81.167C321.064,81.055 320.768,80.891 320.512,80.675C320.256,80.459 320.052,80.203 319.9,79.907C319.748,79.611 319.672,79.271 319.672,78.887C319.672,78.279 319.852,77.811 320.212,77.483C320.572,77.155 321.032,76.903 321.592,76.727C322.152,76.551 322.772,76.419 323.452,76.331C324.132,76.243 324.792,76.143 325.432,76.031C325.64,75.999 325.88,75.943 326.152,75.863C326.424,75.783 326.608,75.655 326.704,75.479L326.752,75.479Z" style="fill:white;fill-rule:nonzero;"/>
        <path d="M329.896,69.863L334.672,82.247L336.28,82.247L340.912,69.863L339.352,69.863L335.512,80.735L335.464,80.735L331.576,69.863L329.896,69.863Z" style="fill:white;fill-rule:nonzero;"/>
        <path d="M342.256,73.655L343.768,73.655C343.8,72.647 344.12,71.915 344.728,71.459C345.336,71.003 346.12,70.775 347.08,70.775C347.528,70.775 347.948,70.811 348.34,70.883C348.732,70.955 349.076,71.087 349.372,71.279C349.668,71.471 349.9,71.731 350.068,72.059C350.236,72.387 350.32,72.807 350.32,73.319C350.32,73.655 350.276,73.927 350.188,74.135C350.1,74.343 349.976,74.507 349.816,74.627C349.656,74.747 349.456,74.831 349.216,74.879C348.976,74.927 348.696,74.967 348.376,74.999C347.56,75.095 346.756,75.195 345.964,75.299C345.172,75.403 344.46,75.583 343.828,75.839C343.196,76.095 342.688,76.467 342.304,76.955C341.92,77.443 341.728,78.119 341.728,78.983C341.728,79.607 341.836,80.147 342.052,80.603C342.268,81.059 342.564,81.435 342.94,81.731C343.316,82.027 343.756,82.243 344.26,82.379C344.764,82.515 345.304,82.583 345.88,82.583C346.488,82.583 347.012,82.527 347.452,82.415C347.892,82.303 348.284,82.143 348.628,81.935C348.972,81.727 349.284,81.467 349.564,81.155C349.844,80.843 350.12,80.487 350.392,80.087L350.44,80.087C350.44,80.407 350.46,80.699 350.5,80.963C350.54,81.227 350.624,81.455 350.752,81.647C350.88,81.839 351.06,81.987 351.292,82.091C351.524,82.195 351.832,82.247 352.216,82.247C352.424,82.247 352.596,82.239 352.732,82.223C352.868,82.207 353.024,82.183 353.2,82.151L353.2,80.879C353.056,80.943 352.896,80.975 352.72,80.975C352.128,80.975 351.832,80.671 351.832,80.063L351.832,73.487C351.832,72.655 351.696,71.979 351.424,71.459C351.152,70.939 350.8,70.535 350.368,70.247C349.936,69.959 349.448,69.763 348.904,69.659C348.36,69.555 347.816,69.503 347.272,69.503C346.552,69.503 345.896,69.583 345.304,69.743C344.712,69.903 344.196,70.151 343.756,70.487C343.316,70.823 342.968,71.255 342.712,71.783C342.456,72.311 342.304,72.935 342.256,73.655ZM350.32,75.479L350.32,77.447C350.32,78.055 350.204,78.599 349.972,79.079C349.74,79.559 349.428,79.967 349.036,80.303C348.644,80.639 348.184,80.895 347.656,81.071C347.128,81.247 346.576,81.335 346,81.335C345.648,81.335 345.304,81.279 344.968,81.167C344.632,81.055 344.336,80.891 344.08,80.675C343.824,80.459 343.62,80.203 343.468,79.907C343.316,79.611 343.24,79.271 343.24,78.887C343.24,78.279 343.42,77.811 343.78,77.483C344.14,77.155 344.6,76.903 345.16,76.727C345.72,76.551 346.34,76.419 347.02,76.331C347.7,76.243 348.36,76.143 349,76.031C349.208,75.999 349.448,75.943 349.72,75.863C349.992,75.783 350.176,75.655 350.272,75.479L350.32,75.479Z" style="fill:white;fill-rule:nonzero;"/>
        <path d="M354.88,65.111L354.88,67.535L356.392,67.535L356.392,65.111L354.88,65.111ZM354.88,69.863L354.88,82.247L356.392,82.247L356.392,69.863L354.88,69.863Z" style="fill:white;fill-rule:nonzero;"/>
        <rect x="359.32" y="65.111" width="1.512" height="17.136" style="fill:white;fill-rule:nonzero;"/>
        <path d="M363.592,73.655L365.104,73.655C365.136,72.647 365.456,71.915 366.064,71.459C366.672,71.003 367.456,70.775 368.416,70.775C368.864,70.775 369.284,70.811 369.676,70.883C370.068,70.955 370.412,71.087 370.708,71.279C371.004,71.471 371.236,71.731 371.404,72.059C371.572,72.387 371.656,72.807 371.656,73.319C371.656,73.655 371.612,73.927 371.524,74.135C371.436,74.343 371.312,74.507 371.152,74.627C370.992,74.747 370.792,74.831 370.552,74.879C370.312,74.927 370.032,74.967 369.712,74.999C368.896,75.095 368.092,75.195 367.3,75.299C366.508,75.403 365.796,75.583 365.164,75.839C364.532,76.095 364.024,76.467 363.64,76.955C363.256,77.443 363.064,78.119 363.064,78.983C363.064,79.607 363.172,80.147 363.388,80.603C363.604,81.059 363.9,81.435 364.276,81.731C364.652,82.027 365.092,82.243 365.596,82.379C366.1,82.515 366.64,82.583 367.216,82.583C367.824,82.583 368.348,82.527 368.788,82.415C369.228,82.303 369.62,82.143 369.964,81.935C370.308,81.727 370.62,81.467 370.9,81.155C371.18,80.843 371.456,80.487 371.728,80.087L371.776,80.087C371.776,80.407 371.796,80.699 371.836,80.963C371.876,81.227 371.96,81.455 372.088,81.647C372.216,81.839 372.396,81.987 372.628,82.091C372.86,82.195 373.168,82.247 373.552,82.247C373.76,82.247 373.932,82.239 374.068,82.223C374.204,82.207 374.36,82.183 374.536,82.151L374.536,80.879C374.392,80.943 374.232,80.975 374.056,80.975C373.464,80.975 373.168,80.671 373.168,80.063L373.168,73.487C373.168,72.655 373.032,71.979 372.76,71.459C372.488,70.939 372.136,70.535 371.704,70.247C371.272,69.959 370.784,69.763 370.24,69.659C369.696,69.555 369.152,69.503 368.608,69.503C367.888,69.503 367.232,69.583 366.64,69.743C366.048,69.903 365.532,70.151 365.092,70.487C364.652,70.823 364.304,71.255 364.048,71.783C363.792,72.311 363.64,72.935 363.592,73.655ZM371.656,75.479L371.656,77.447C371.656,78.055 371.54,78.599 371.308,79.079C371.076,79.559 370.764,79.967 370.372,80.303C369.98,80.639 369.52,80.895 368.992,81.071C368.464,81.247 367.912,81.335 367.336,81.335C366.984,81.335 366.64,81.279 366.304,81.167C365.968,81.055 365.672,80.891 365.416,80.675C365.16,80.459 364.956,80.203 364.804,79.907C364.652,79.611 364.576,79.271 364.576,78.887C364.576,78.279 364.756,77.811 365.116,77.483C365.476,77.155 365.936,76.903 366.496,76.727C367.056,76.551 367.676,76.419 368.356,76.331C369.036,76.243 369.696,76.143 370.336,76.031C370.544,75.999 370.784,75.943 371.056,75.863C371.328,75.783 371.512,75.655 371.608,75.479L371.656,75.479Z" style="fill:white;fill-rule:nonzero;"/>
        <path d="M376.192,65.111L376.192,82.247L377.584,82.247L377.584,79.895L377.632,79.895C377.984,80.759 378.556,81.423 379.348,81.887C380.14,82.351 381.04,82.583 382.048,82.583C382.992,82.583 383.812,82.411 384.508,82.067C385.204,81.723 385.784,81.251 386.248,80.651C386.712,80.051 387.056,79.355 387.28,78.563C387.504,77.771 387.616,76.935 387.616,76.055C387.616,75.175 387.504,74.339 387.28,73.547C387.056,72.755 386.712,72.059 386.248,71.459C385.784,70.859 385.204,70.383 384.508,70.031C383.812,69.679 382.992,69.503 382.048,69.503C381.6,69.503 381.152,69.559 380.704,69.671C380.256,69.783 379.84,69.955 379.456,70.187C379.072,70.419 378.732,70.703 378.436,71.039C378.14,71.375 377.912,71.767 377.752,72.215L377.704,72.215L377.704,65.111L376.192,65.111ZM386.104,76.055C386.104,76.695 386.028,77.331 385.876,77.963C385.724,78.595 385.484,79.159 385.156,79.655C384.828,80.151 384.408,80.555 383.896,80.867C383.384,81.179 382.768,81.335 382.048,81.335C381.248,81.335 380.572,81.179 380.02,80.867C379.468,80.555 379.02,80.151 378.676,79.655C378.332,79.159 378.084,78.595 377.932,77.963C377.78,77.331 377.704,76.695 377.704,76.055C377.704,75.415 377.78,74.779 377.932,74.147C378.084,73.515 378.332,72.951 378.676,72.455C379.02,71.959 379.468,71.555 380.02,71.243C380.572,70.931 381.248,70.775 382.048,70.775C382.768,70.775 383.384,70.931 383.896,71.243C384.408,71.555 384.828,71.959 385.156,72.455C385.484,72.951 385.724,73.515 385.876,74.147C386.028,74.779 386.104,75.415 386.104,76.055Z" style="fill:white;fill-rule:nonzero;"/>
        <rect x="389.992" y="65.111" width="1.512" height="17.136" style="fill:white;fill-rule:nonzero;"/>
        <path d="M403.312,75.191L395.296,75.191C395.36,74.631 395.492,74.083 395.692,73.547C395.892,73.011 396.16,72.539 396.496,72.131C396.832,71.723 397.24,71.395 397.72,71.147C398.2,70.899 398.752,70.775 399.376,70.775C399.984,70.775 400.528,70.899 401.008,71.147C401.488,71.395 401.896,71.723 402.232,72.131C402.568,72.539 402.828,73.007 403.012,73.535C403.196,74.063 403.296,74.615 403.312,75.191ZM395.296,76.463L404.824,76.463C404.856,75.599 404.776,74.747 404.584,73.907C404.392,73.067 404.076,72.323 403.636,71.675C403.196,71.027 402.624,70.503 401.92,70.103C401.216,69.703 400.368,69.503 399.376,69.503C398.4,69.503 397.556,69.691 396.844,70.067C396.132,70.443 395.552,70.939 395.104,71.555C394.656,72.171 394.324,72.871 394.108,73.655C393.892,74.439 393.784,75.239 393.784,76.055C393.784,76.935 393.892,77.771 394.108,78.563C394.324,79.355 394.656,80.051 395.104,80.651C395.552,81.251 396.132,81.723 396.844,82.067C397.556,82.411 398.4,82.583 399.376,82.583C400.944,82.583 402.156,82.199 403.012,81.431C403.868,80.663 404.456,79.575 404.776,78.167L403.264,78.167C403.024,79.127 402.592,79.895 401.968,80.471C401.344,81.047 400.48,81.335 399.376,81.335C398.656,81.335 398.04,81.183 397.528,80.879C397.016,80.575 396.592,80.191 396.256,79.727C395.92,79.263 395.676,78.739 395.524,78.155C395.372,77.571 395.296,77.007 395.296,76.463Z" style="fill:white;fill-rule:nonzero;"/>
        <path d="M413.392,73.655L414.904,73.655C414.936,72.647 415.256,71.915 415.864,71.459C416.472,71.003 417.256,70.775 418.216,70.775C418.664,70.775 419.084,70.811 419.476,70.883C419.868,70.955 420.212,71.087 420.508,71.279C420.804,71.471 421.036,71.731 421.204,72.059C421.372,72.387 421.456,72.807 421.456,73.319C421.456,73.655 421.412,73.927 421.324,74.135C421.236,74.343 421.112,74.507 420.952,74.627C420.792,74.747 420.592,74.831 420.352,74.879C420.112,74.927 419.832,74.967 419.512,74.999C418.696,75.095 417.892,75.195 417.1,75.299C416.308,75.403 415.596,75.583 414.964,75.839C414.332,76.095 413.824,76.467 413.44,76.955C413.056,77.443 412.864,78.119 412.864,78.983C412.864,79.607 412.972,80.147 413.188,80.603C413.404,81.059 413.7,81.435 414.076,81.731C414.452,82.027 414.892,82.243 415.396,82.379C415.9,82.515 416.44,82.583 417.016,82.583C417.624,82.583 418.148,82.527 418.588,82.415C419.028,82.303 419.42,82.143 419.764,81.935C420.108,81.727 420.42,81.467 420.7,81.155C420.98,80.843 421.256,80.487 421.528,80.087L421.576,80.087C421.576,80.407 421.596,80.699 421.636,80.963C421.676,81.227 421.76,81.455 421.888,81.647C422.016,81.839 422.196,81.987 422.428,82.091C422.66,82.195 422.968,82.247 423.352,82.247C423.56,82.247 423.732,82.239 423.868,82.223C424.004,82.207 424.16,82.183 424.336,82.151L424.336,80.879C424.192,80.943 424.032,80.975 423.856,80.975C423.264,80.975 422.968,80.671 422.968,80.063L422.968,73.487C422.968,72.655 422.832,71.979 422.56,71.459C422.288,70.939 421.936,70.535 421.504,70.247C421.072,69.959 420.584,69.763 420.04,69.659C419.496,69.555 418.952,69.503 418.408,69.503C417.688,69.503 417.032,69.583 416.44,69.743C415.848,69.903 415.332,70.151 414.892,70.487C414.452,70.823 414.104,71.255 413.848,71.783C413.592,72.311 413.44,72.935 413.392,73.655ZM421.456,75.479L421.456,77.447C421.456,78.055 421.34,78.599 421.108,79.079C420.876,79.559 420.564,79.967 420.172,80.303C419.78,80.639 419.32,80.895 418.792,81.071C418.264,81.247 417.712,81.335 417.136,81.335C416.784,81.335 416.44,81.279 416.104,81.167C415.768,81.055 415.472,80.891 415.216,80.675C414.96,80.459 414.756,80.203 414.604,79.907C414.452,79.611 414.376,79.271 414.376,78.887C414.376,78.279 414.556,77.811 414.916,77.483C415.276,77.155 415.736,76.903 416.296,76.727C416.856,76.551 417.476,76.419 418.156,76.331C418.836,76.243 419.496,76.143 420.136,76.031C420.344,75.999 420.584,75.943 420.856,75.863C421.128,75.783 421.312,75.655 421.408,75.479L421.456,75.479Z" style="fill:white;fill-rule:nonzero;"/>
        <path d="M433.408,73.487L434.92,73.487C434.888,72.815 434.752,72.231 434.512,71.735C434.272,71.239 433.948,70.823 433.54,70.487C433.132,70.151 432.66,69.903 432.124,69.743C431.588,69.583 431.008,69.503 430.384,69.503C429.84,69.503 429.292,69.567 428.74,69.695C428.188,69.823 427.688,70.023 427.24,70.295C426.792,70.567 426.428,70.927 426.148,71.375C425.868,71.823 425.728,72.359 425.728,72.983C425.728,73.511 425.816,73.955 425.992,74.315C426.168,74.675 426.412,74.979 426.724,75.227C427.036,75.475 427.4,75.683 427.816,75.851C428.232,76.019 428.688,76.167 429.184,76.295L431.128,76.727C431.464,76.807 431.796,76.903 432.124,77.015C432.452,77.127 432.744,77.267 433,77.435C433.256,77.603 433.46,77.811 433.612,78.059C433.764,78.307 433.84,78.615 433.84,78.983C433.84,79.415 433.732,79.779 433.516,80.075C433.3,80.371 433.024,80.615 432.688,80.807C432.352,80.999 431.988,81.135 431.596,81.215C431.204,81.295 430.824,81.335 430.456,81.335C429.448,81.335 428.604,81.075 427.924,80.555C427.244,80.035 426.872,79.263 426.808,78.239L425.296,78.239C425.424,79.759 425.94,80.863 426.844,81.551C427.748,82.239 428.928,82.583 430.384,82.583C430.96,82.583 431.544,82.519 432.136,82.391C432.728,82.263 433.26,82.051 433.732,81.755C434.204,81.459 434.592,81.075 434.896,80.603C435.2,80.131 435.352,79.559 435.352,78.887C435.352,78.343 435.248,77.871 435.04,77.471C434.832,77.071 434.564,76.735 434.236,76.463C433.908,76.191 433.532,75.971 433.108,75.803C432.684,75.635 432.256,75.519 431.824,75.455L429.808,74.999C429.552,74.935 429.272,74.851 428.968,74.747C428.664,74.643 428.384,74.511 428.128,74.351C427.872,74.191 427.66,73.995 427.492,73.763C427.324,73.531 427.24,73.247 427.24,72.911C427.24,72.511 427.328,72.175 427.504,71.903C427.68,71.631 427.912,71.411 428.2,71.243C428.488,71.075 428.804,70.955 429.148,70.883C429.492,70.811 429.832,70.775 430.168,70.775C430.6,70.775 431.008,70.827 431.392,70.931C431.776,71.035 432.116,71.199 432.412,71.423C432.708,71.647 432.944,71.931 433.12,72.275C433.296,72.619 433.392,73.023 433.408,73.487Z" style="fill:white;fill-rule:nonzero;"/>
        <path d="M442.96,69.863L446.944,82.247L448.6,82.247L451.624,71.831L451.672,71.831L454.72,82.247L456.376,82.247L460.36,69.863L458.752,69.863L455.584,80.471L455.536,80.471L452.512,69.863L450.808,69.863L447.784,80.471L447.736,80.471L444.568,69.863L442.96,69.863Z" style="fill:white;fill-rule:nonzero;"/>
        <path d="M470.896,75.191L462.88,75.191C462.944,74.631 463.076,74.083 463.276,73.547C463.476,73.011 463.744,72.539 464.08,72.131C464.416,71.723 464.824,71.395 465.304,71.147C465.784,70.899 466.336,70.775 466.96,70.775C467.568,70.775 468.112,70.899 468.592,71.147C469.072,71.395 469.48,71.723 469.816,72.131C470.152,72.539 470.412,73.007 470.596,73.535C470.78,74.063 470.88,74.615 470.896,75.191ZM462.88,76.463L472.408,76.463C472.44,75.599 472.36,74.747 472.168,73.907C471.976,73.067 471.66,72.323 471.22,71.675C470.78,71.027 470.208,70.503 469.504,70.103C468.8,69.703 467.952,69.503 466.96,69.503C465.984,69.503 465.14,69.691 464.428,70.067C463.716,70.443 463.136,70.939 462.688,71.555C462.24,72.171 461.908,72.871 461.692,73.655C461.476,74.439 461.368,75.239 461.368,76.055C461.368,76.935 461.476,77.771 461.692,78.563C461.908,79.355 462.24,80.051 462.688,80.651C463.136,81.251 463.716,81.723 464.428,82.067C465.14,82.411 465.984,82.583 466.96,82.583C468.528,82.583 469.74,82.199 470.596,81.431C471.452,80.663 472.04,79.575 472.36,78.167L470.848,78.167C470.608,79.127 470.176,79.895 469.552,80.471C468.928,81.047 468.064,81.335 466.96,81.335C466.24,81.335 465.624,81.183 465.112,80.879C464.6,80.575 464.176,80.191 463.84,79.727C463.504,79.263 463.26,78.739 463.108,78.155C462.956,77.571 462.88,77.007 462.88,76.463Z" style="fill:white;fill-rule:nonzero;"/>
        <rect x="474.472" y="65.111" width="1.512" height="17.136" style="fill:white;fill-rule:nonzero;"/>
        <rect x="478.912" y="65.111" width="1.512" height="17.136" style="fill:white;fill-rule:nonzero;"/>
        <path d="M483.784,82.247L485.8,82.247L485.8,79.703L483.784,79.703L483.784,82.247ZM483.976,70.223L484.336,77.975L485.248,77.975L485.608,70.223L485.608,65.111L483.976,65.111L483.976,70.223Z" style="fill:white;fill-rule:nonzero;"/>
    </g>
    <g transform="matrix(1,0,0,1,-25,-9.12624)">
        <path d="M139.744,70.871L143.392,70.871C143.28,69.879 143.008,68.999 142.576,68.231C142.144,67.463 141.596,66.819 140.932,66.299C140.268,65.779 139.516,65.383 138.676,65.111C137.836,64.839 136.944,64.703 136,64.703C134.688,64.703 133.508,64.935 132.46,65.399C131.412,65.863 130.528,66.503 129.808,67.319C129.088,68.135 128.536,69.091 128.152,70.187C127.768,71.283 127.576,72.471 127.576,73.751C127.576,74.999 127.768,76.163 128.152,77.243C128.536,78.323 129.088,79.263 129.808,80.063C130.528,80.863 131.412,81.491 132.46,81.947C133.508,82.403 134.688,82.631 136,82.631C137.056,82.631 138.024,82.471 138.904,82.151C139.784,81.831 140.552,81.367 141.208,80.759C141.864,80.151 142.392,79.415 142.792,78.551C143.192,77.687 143.44,76.719 143.536,75.647L139.888,75.647C139.744,76.799 139.348,77.727 138.7,78.431C138.052,79.135 137.152,79.487 136,79.487C135.152,79.487 134.432,79.323 133.84,78.995C133.248,78.667 132.768,78.231 132.4,77.687C132.032,77.143 131.764,76.531 131.596,75.851C131.428,75.171 131.344,74.471 131.344,73.751C131.344,72.999 131.428,72.271 131.596,71.567C131.764,70.863 132.032,70.235 132.4,69.683C132.768,69.131 133.248,68.691 133.84,68.363C134.432,68.035 135.152,67.871 136,67.871C136.464,67.871 136.908,67.947 137.332,68.099C137.756,68.251 138.136,68.463 138.472,68.735C138.808,69.007 139.088,69.323 139.312,69.683C139.536,70.043 139.68,70.439 139.744,70.871Z" style="fill:white;fill-rule:nonzero;"/>
        <rect x="145.84" y="65.111" width="3.408" height="17.136" style="fill:white;fill-rule:nonzero;"/>
        <path d="M155.44,67.919L155.44,65.111L152.032,65.111L152.032,67.919L155.44,67.919ZM152.032,69.839L152.032,82.247L155.44,82.247L155.44,69.839L152.032,69.839Z" style="fill:white;fill-rule:nonzero;"/>
        <path d="M166.576,74.207L169.912,74.207C169.864,73.407 169.672,72.715 169.336,72.131C169,71.547 168.564,71.059 168.028,70.667C167.492,70.275 166.884,69.983 166.204,69.791C165.524,69.599 164.816,69.503 164.08,69.503C163.072,69.503 162.176,69.671 161.392,70.007C160.608,70.343 159.944,70.811 159.4,71.411C158.856,72.011 158.444,72.723 158.164,73.547C157.884,74.371 157.744,75.263 157.744,76.223C157.744,77.151 157.896,78.003 158.2,78.779C158.504,79.555 158.928,80.223 159.472,80.783C160.016,81.343 160.676,81.779 161.452,82.091C162.228,82.403 163.08,82.559 164.008,82.559C165.656,82.559 167.008,82.127 168.064,81.263C169.12,80.399 169.76,79.143 169.984,77.495L166.696,77.495C166.584,78.263 166.308,78.875 165.868,79.331C165.428,79.787 164.8,80.015 163.984,80.015C163.456,80.015 163.008,79.895 162.64,79.655C162.272,79.415 161.98,79.107 161.764,78.731C161.548,78.355 161.392,77.935 161.296,77.471C161.2,77.007 161.152,76.551 161.152,76.103C161.152,75.639 161.2,75.171 161.296,74.699C161.392,74.227 161.556,73.795 161.788,73.403C162.02,73.011 162.32,72.691 162.688,72.443C163.056,72.195 163.512,72.071 164.056,72.071C165.512,72.071 166.352,72.783 166.576,74.207Z" style="fill:white;fill-rule:nonzero;"/>
        <path d="M172.216,65.111L172.216,82.247L175.624,82.247L175.624,77.975L176.944,76.703L180.352,82.247L184.48,82.247L179.272,74.399L183.952,69.839L179.92,69.839L175.624,74.303L175.624,65.111L172.216,65.111Z" style="fill:white;fill-rule:nonzero;"/>
        <path d="M192.712,65.111L192.712,82.247L196.48,82.247L196.48,74.855L203.416,74.855L203.416,82.247L207.184,82.247L207.184,65.111L203.416,65.111L203.416,71.687L196.48,71.687L196.48,65.111L192.712,65.111Z" style="fill:white;fill-rule:nonzero;"/>
        <path d="M218.488,74.711L212.944,74.711C212.96,74.471 213.012,74.199 213.1,73.895C213.188,73.591 213.34,73.303 213.556,73.031C213.772,72.759 214.06,72.531 214.42,72.347C214.78,72.163 215.232,72.071 215.776,72.071C216.608,72.071 217.228,72.295 217.636,72.743C218.044,73.191 218.328,73.847 218.488,74.711ZM212.944,76.871L221.896,76.871C221.96,75.911 221.88,74.991 221.656,74.111C221.432,73.231 221.068,72.447 220.564,71.759C220.06,71.071 219.416,70.523 218.632,70.115C217.848,69.707 216.928,69.503 215.872,69.503C214.928,69.503 214.068,69.671 213.292,70.007C212.516,70.343 211.848,70.803 211.288,71.387C210.728,71.971 210.296,72.663 209.992,73.463C209.688,74.263 209.536,75.127 209.536,76.055C209.536,77.015 209.684,77.895 209.98,78.695C210.276,79.495 210.696,80.183 211.24,80.759C211.784,81.335 212.448,81.779 213.232,82.091C214.016,82.403 214.896,82.559 215.872,82.559C217.28,82.559 218.48,82.239 219.472,81.599C220.464,80.959 221.2,79.895 221.68,78.407L218.68,78.407C218.568,78.791 218.264,79.155 217.768,79.499C217.272,79.843 216.68,80.015 215.992,80.015C215.032,80.015 214.296,79.767 213.784,79.271C213.272,78.775 212.992,77.975 212.944,76.871Z" style="fill:white;fill-rule:nonzero;"/>
        <path d="M223.912,69.839L223.912,82.247L227.32,82.247L227.32,76.655C227.32,76.095 227.376,75.575 227.488,75.095C227.6,74.615 227.788,74.195 228.052,73.835C228.316,73.475 228.664,73.191 229.096,72.983C229.528,72.775 230.056,72.671 230.68,72.671C230.888,72.671 231.104,72.683 231.328,72.707C231.552,72.731 231.744,72.759 231.904,72.791L231.904,69.623C231.632,69.543 231.384,69.503 231.16,69.503C230.728,69.503 230.312,69.567 229.912,69.695C229.512,69.823 229.136,70.003 228.784,70.235C228.432,70.467 228.12,70.747 227.848,71.075C227.576,71.403 227.36,71.759 227.2,72.143L227.152,72.143L227.152,69.839L223.912,69.839Z" style="fill:white;fill-rule:nonzero;"/>
        <path d="M241.168,74.711L235.624,74.711C235.64,74.471 235.692,74.199 235.78,73.895C235.868,73.591 236.02,73.303 236.236,73.031C236.452,72.759 236.74,72.531 237.1,72.347C237.46,72.163 237.912,72.071 238.456,72.071C239.288,72.071 239.908,72.295 240.316,72.743C240.724,73.191 241.008,73.847 241.168,74.711ZM235.624,76.871L244.576,76.871C244.64,75.911 244.56,74.991 244.336,74.111C244.112,73.231 243.748,72.447 243.244,71.759C242.74,71.071 242.096,70.523 241.312,70.115C240.528,69.707 239.608,69.503 238.552,69.503C237.608,69.503 236.748,69.671 235.972,70.007C235.196,70.343 234.528,70.803 233.968,71.387C233.408,71.971 232.976,72.663 232.672,73.463C232.368,74.263 232.216,75.127 232.216,76.055C232.216,77.015 232.364,77.895 232.66,78.695C232.956,79.495 233.376,80.183 233.92,80.759C234.464,81.335 235.128,81.779 235.912,82.091C236.696,82.403 237.576,82.559 238.552,82.559C239.96,82.559 241.16,82.239 242.152,81.599C243.144,80.959 243.88,79.895 244.36,78.407L241.36,78.407C241.248,78.791 240.944,79.155 240.448,79.499C239.952,79.843 239.36,80.015 238.672,80.015C237.712,80.015 236.976,79.767 236.464,79.271C235.952,78.775 235.672,77.975 235.624,76.871Z" style="fill:white;fill-rule:nonzero;"/>
    </g>
    <g transform="matrix(0.664612,0,0,0.664612,-88.0148,2.75152)">
        <path d="M177.81,52.32C171.14,61.68 171.82,73.97 176.72,84.05C176.84,84.29 176.96,84.53 177.08,84.77C177.16,84.92 177.23,85.08 177.31,85.23C177.35,85.32 177.41,85.4 177.46,85.49C177.53,85.65 177.62,85.8 177.71,85.96C177.86,86.24 178.02,86.52 178.18,86.79C178.26,86.94 178.35,87.09 178.44,87.24C178.62,87.53 178.81,87.82 178.98,88.11C179.06,88.24 179.14,88.36 179.22,88.48C179.47,88.87 179.73,89.26 180.01,89.65C180.01,89.66 180.03,89.67 180.03,89.68C180.07,89.74 180.12,89.8 180.16,89.86C180.4,90.19 180.64,90.52 180.88,90.84C180.98,90.96 181.06,91.07 181.15,91.19C181.37,91.47 181.59,91.75 181.82,92.03C181.9,92.13 181.99,92.24 182.08,92.34C182.38,92.71 182.69,93.07 183.02,93.43C183.02,93.44 183.03,93.44 183.03,93.45C183.04,93.47 183.06,93.48 183.07,93.49C183.38,93.83 183.7,94.17 184.02,94.51C184.12,94.61 184.23,94.72 184.33,94.82C184.58,95.08 184.83,95.33 185.09,95.58C185.2,95.68 185.3,95.78 185.4,95.88C185.74,96.21 186.09,96.53 186.44,96.85C186.45,96.86 186.45,96.86 186.46,96.87C186.52,96.92 186.58,96.97 186.63,97.02C186.94,97.3 187.26,97.57 187.59,97.84C187.71,97.95 187.84,98.05 187.98,98.16C188.24,98.37 188.5,98.58 188.77,98.79C188.9,98.9 189.04,99.01 189.18,99.12C189.47,99.34 189.78,99.55 190.07,99.77C190.18,99.85 190.28,99.93 190.38,100.01C190.41,100.03 190.44,100.05 190.47,100.07C190.75,100.27 191.04,100.46 191.33,100.65C191.46,100.73 191.58,100.82 191.7,100.9C192.14,101.19 192.59,101.47 193.05,101.75C193.17,101.82 193.29,101.89 193.42,101.97C193.75,102.17 194.09,102.36 194.43,102.55C194.62,102.65 194.81,102.75 194.98,102.85C195.23,102.98 195.46,103.11 195.71,103.24C195.76,103.27 195.82,103.29 195.88,103.32C195.97,103.37 196.07,103.42 196.17,103.47C196.55,103.66 196.93,103.84 197.31,104.02C197.39,104.06 197.47,104.1 197.56,104.13C198,104.33 198.45,104.52 198.9,104.71C199.01,104.76 199.12,104.8 199.23,104.84C199.65,105.01 200.08,105.17 200.49,105.33C200.55,105.35 200.6,105.37 200.65,105.39C201.12,105.56 201.59,105.72 202.06,105.87C202.17,105.9 202.28,105.94 202.4,105.97C202.88,106.12 203.35,106.3 203.85,106.4C235.54,112.56 245.05,87.79 245.05,87.79C237.19,97.79 223.41,100.3 210.42,97.19C209.93,97.07 209.45,96.91 208.97,96.76C208.85,96.72 208.73,96.68 208.61,96.65C208.15,96.5 207.68,96.34 207.22,96.18C207.16,96.16 207.09,96.14 207.03,96.11C206.62,95.96 206.21,95.8 205.8,95.64C205.68,95.59 205.58,95.55 205.46,95.5C205.01,95.32 204.57,95.13 204.14,94.93C204.04,94.89 203.96,94.85 203.87,94.81C203.49,94.63 203.12,94.46 202.75,94.27C202.64,94.22 202.53,94.17 202.42,94.11C202.13,93.96 201.84,93.8 201.55,93.65C201.36,93.54 201.17,93.45 200.98,93.34C200.63,93.15 200.29,92.95 199.94,92.75C199.83,92.68 199.71,92.62 199.6,92.55C199.14,92.28 198.69,91.99 198.24,91.71C198.12,91.63 198,91.54 197.88,91.46C197.56,91.25 197.24,91.03 196.92,90.81C196.81,90.74 196.71,90.66 196.62,90.59C196.31,90.37 196.01,90.14 195.71,89.92C195.57,89.82 195.44,89.72 195.31,89.61C195.03,89.39 194.76,89.17 194.5,88.95C194.38,88.85 194.25,88.75 194.13,88.65C193.79,88.36 193.45,88.07 193.11,87.77C193.08,87.74 193.04,87.71 193,87.67C192.64,87.34 192.29,87.01 191.93,86.68C191.83,86.58 191.73,86.48 191.63,86.38C191.37,86.13 191.11,85.87 190.87,85.61C190.76,85.51 190.66,85.41 190.56,85.3C190.25,84.97 189.93,84.63 189.62,84.29C189.6,84.27 189.58,84.26 189.58,84.24C189.25,83.88 188.94,83.51 188.63,83.13C188.54,83.03 188.46,82.93 188.37,82.83C188.15,82.54 187.92,82.25 187.69,81.96C187.6,81.86 187.52,81.75 187.44,81.64C187.16,81.28 186.9,80.93 186.65,80.56C179.53,70.61 177.09,56.97 182.99,45.87" style="fill:white;fill-rule:nonzero;"/>
    </g>
    <g transform="matrix(0.664612,0,0,0.664612,-88.0148,2.75152)">
        <path d="M198.29,44.6C193.46,51.38 193.61,60.53 197.23,67.8C197.84,69.02 198.52,70.2 199.29,71.33C199.99,72.36 200.76,73.58 201.71,74.41C202.05,74.79 202.39,75.16 202.75,75.53C202.85,75.62 202.93,75.71 203.03,75.81C203.38,76.16 203.74,76.5 204.11,76.84C204.13,76.85 204.14,76.87 204.15,76.88C204.16,76.88 204.16,76.89 204.16,76.89C204.56,77.26 204.99,77.61 205.41,77.96C205.51,78.03 205.61,78.11 205.7,78.19C206.13,78.52 206.57,78.86 207.02,79.17C207.03,79.18 207.05,79.19 207.06,79.2C207.26,79.34 207.46,79.48 207.66,79.61C207.76,79.67 207.85,79.74 207.95,79.8C208.27,80.01 208.6,80.22 208.93,80.41C208.98,80.44 209.02,80.47 209.07,80.49C209.36,80.66 209.65,80.82 209.94,80.99C210.04,81.05 210.15,81.1 210.25,81.15C210.45,81.26 210.65,81.37 210.85,81.47C210.88,81.49 210.91,81.5 210.94,81.51C211.36,81.72 211.78,81.93 212.2,82.12C212.29,82.16 212.39,82.2 212.48,82.24C212.82,82.39 213.17,82.53 213.52,82.67C213.67,82.73 213.82,82.79 213.96,82.84C214.27,82.96 214.59,83.07 214.92,83.18C215.06,83.23 215.2,83.28 215.35,83.32C215.8,83.47 216.25,83.65 216.73,83.74C241.2,88.08 247.07,69.27 247.07,69.27C241.88,76.56 231.97,79.95 221.45,77.09C220.99,76.96 220.52,76.82 220.07,76.67C219.93,76.63 219.79,76.58 219.65,76.53C219.33,76.42 219.01,76.3 218.69,76.19C218.54,76.13 218.4,76.08 218.26,76.02C217.91,75.89 217.56,75.74 217.22,75.59C217.12,75.55 217.03,75.51 216.94,75.47C216.51,75.28 216.08,75.07 215.67,74.86C215.45,74.76 215.24,74.64 215.02,74.53C214.9,74.47 214.78,74.4 214.66,74.33C214.38,74.18 214.12,74.02 213.85,73.87C213.79,73.83 213.72,73.79 213.66,73.76C213.33,73.56 213,73.36 212.68,73.15C212.59,73.09 212.49,73.02 212.39,72.95C212.17,72.81 211.96,72.66 211.76,72.52C211.31,72.21 210.87,71.87 210.45,71.54C210.35,71.46 210.25,71.38 210.15,71.3C205.58,67.6 201.98,62.58 200.3,56.92C198.54,51.04 199.01,44.48 202.24,39.18" style="fill:white;fill-rule:nonzero;"/>
    </g>
    <g transform="matrix(0.664612,0,0,0.664612,-88.0148,2.75152)">
        <path d="M215.1,38.8C212.3,42.92 212.03,48.03 213.97,52.58C216.02,57.41 220.21,61.2 225.11,63C225.31,63.07 225.51,63.14 225.72,63.21C225.81,63.24 225.9,63.27 225.98,63.3C226.27,63.39 226.56,63.5 226.86,63.55C240.4,66.17 244.07,56.6 245.04,55.2C241.83,59.83 236.42,60.94 229.79,59.33C229.27,59.2 228.69,59.02 228.19,58.84C227.55,58.61 226.91,58.35 226.28,58.05C225.1,57.49 223.98,56.8 222.94,56.01C217,51.51 213.32,42.92 217.19,35.92" style="fill:white;fill-rule:nonzero;"/>
    </g>
</svg>
