<?xml version="1.0" standalone="no"?>
<!DOCTYPE svg PUBLIC "-//W3C//DTD SVG 1.1//EN" "http://www.w3.org/Graphics/SVG/1.1/DTD/svg11.dtd">
<svg width="100%" height="100%" viewBox="0 0 617 100" version="1.1" xmlns="http://www.w3.org/2000/svg" xmlns:xlink="http://www.w3.org/1999/xlink" xml:space="preserve" style="fill-rule:evenodd;clip-rule:evenodd;stroke-linejoin:round;stroke-miterlimit:1.41421;">
    <g>
        <rect x="0" y="0" width="617" height="100" style="fill:rgb(34,119,160);"/>
        <g transform="matrix(1,0,0,1,-25,-39.1262)">
            <path d="M129.16,76.607L127.528,76.607C127.48,77.663 127.62,78.567 127.948,79.319C128.276,80.071 128.744,80.687 129.352,81.167C129.96,81.647 130.696,82.003 131.56,82.235C132.424,82.467 133.36,82.583 134.368,82.583C135.376,82.583 136.24,82.491 136.96,82.307C137.68,82.123 138.284,81.883 138.772,81.587C139.26,81.291 139.644,80.959 139.924,80.591C140.204,80.223 140.42,79.859 140.572,79.499C140.724,79.139 140.82,78.799 140.86,78.479C140.9,78.159 140.92,77.903 140.92,77.711C140.92,77.007 140.804,76.407 140.572,75.911C140.34,75.415 140.02,74.995 139.612,74.651C139.204,74.307 138.732,74.019 138.196,73.787C137.66,73.555 137.088,73.359 136.48,73.199L132.304,72.167C131.952,72.087 131.62,71.983 131.308,71.855C130.996,71.727 130.72,71.559 130.48,71.351C130.24,71.143 130.052,70.891 129.916,70.595C129.78,70.299 129.712,69.951 129.712,69.551C129.712,68.911 129.832,68.375 130.072,67.943C130.312,67.511 130.628,67.163 131.02,66.899C131.412,66.635 131.868,66.443 132.388,66.323C132.908,66.203 133.448,66.143 134.008,66.143C134.616,66.143 135.196,66.227 135.748,66.395C136.3,66.563 136.788,66.811 137.212,67.139C137.636,67.467 137.98,67.875 138.244,68.363C138.508,68.851 138.656,69.423 138.688,70.079L140.32,70.079C140.32,69.199 140.148,68.427 139.804,67.763C139.46,67.099 139,66.543 138.424,66.095C137.848,65.647 137.176,65.311 136.408,65.087C135.64,64.863 134.832,64.751 133.984,64.751C132.784,64.751 131.8,64.923 131.032,65.267C130.264,65.611 129.66,66.031 129.22,66.527C128.78,67.023 128.48,67.551 128.32,68.111C128.16,68.671 128.08,69.159 128.08,69.575C128.08,70.247 128.188,70.815 128.404,71.279C128.62,71.743 128.904,72.135 129.256,72.455C129.608,72.775 130.02,73.031 130.492,73.223C130.964,73.415 131.448,73.575 131.944,73.703L135.76,74.639C136.16,74.735 136.568,74.859 136.984,75.011C137.4,75.163 137.78,75.359 138.124,75.599C138.468,75.839 138.748,76.135 138.964,76.487C139.18,76.839 139.288,77.255 139.288,77.735C139.288,78.359 139.136,78.891 138.832,79.331C138.528,79.771 138.148,80.131 137.692,80.411C137.236,80.691 136.744,80.895 136.216,81.023C135.688,81.151 135.2,81.215 134.752,81.215C133.968,81.215 133.232,81.139 132.544,80.987C131.856,80.835 131.26,80.583 130.756,80.231C130.252,79.879 129.856,79.407 129.568,78.815C129.28,78.223 129.144,77.487 129.16,76.607Z" style="fill:white;fill-rule:nonzero;"/>
            <path d="M148.456,70.775C149.176,70.775 149.808,70.927 150.352,71.231C150.896,71.535 151.348,71.935 151.708,72.431C152.068,72.927 152.34,73.491 152.524,74.123C152.708,74.755 152.8,75.399 152.8,76.055C152.8,76.711 152.708,77.355 152.524,77.987C152.34,78.619 152.068,79.183 151.708,79.679C151.348,80.175 150.896,80.575 150.352,80.879C149.808,81.183 149.176,81.335 148.456,81.335C147.736,81.335 147.104,81.183 146.56,80.879C146.016,80.575 145.564,80.175 145.204,79.679C144.844,79.183 144.572,78.619 144.388,77.987C144.204,77.355 144.112,76.711 144.112,76.055C144.112,75.399 144.204,74.755 144.388,74.123C144.572,73.491 144.844,72.927 145.204,72.431C145.564,71.935 146.016,71.535 146.56,71.231C147.104,70.927 147.736,70.775 148.456,70.775ZM148.456,69.503C147.512,69.503 146.676,69.679 145.948,70.031C145.22,70.383 144.608,70.855 144.112,71.447C143.616,72.039 143.24,72.731 142.984,73.523C142.728,74.315 142.6,75.159 142.6,76.055C142.6,76.951 142.728,77.795 142.984,78.587C143.24,79.379 143.616,80.071 144.112,80.663C144.608,81.255 145.22,81.723 145.948,82.067C146.676,82.411 147.512,82.583 148.456,82.583C149.4,82.583 150.236,82.411 150.964,82.067C151.692,81.723 152.304,81.255 152.8,80.663C153.296,80.071 153.672,79.379 153.928,78.587C154.184,77.795 154.312,76.951 154.312,76.055C154.312,75.159 154.184,74.315 153.928,73.523C153.672,72.731 153.296,72.039 152.8,71.447C152.304,70.855 151.692,70.383 150.964,70.031C150.236,69.679 149.4,69.503 148.456,69.503Z" style="fill:white;fill-rule:nonzero;"/>
            <path d="M161.8,70.775C162.52,70.775 163.152,70.927 163.696,71.231C164.24,71.535 164.692,71.935 165.052,72.431C165.412,72.927 165.684,73.491 165.868,74.123C166.052,74.755 166.144,75.399 166.144,76.055C166.144,76.711 166.052,77.355 165.868,77.987C165.684,78.619 165.412,79.183 165.052,79.679C164.692,80.175 164.24,80.575 163.696,80.879C163.152,81.183 162.52,81.335 161.8,81.335C161.08,81.335 160.448,81.183 159.904,80.879C159.36,80.575 158.908,80.175 158.548,79.679C158.188,79.183 157.916,78.619 157.732,77.987C157.548,77.355 157.456,76.711 157.456,76.055C157.456,75.399 157.548,74.755 157.732,74.123C157.916,73.491 158.188,72.927 158.548,72.431C158.908,71.935 159.36,71.535 159.904,71.231C160.448,70.927 161.08,70.775 161.8,70.775ZM161.8,69.503C160.856,69.503 160.02,69.679 159.292,70.031C158.564,70.383 157.952,70.855 157.456,71.447C156.96,72.039 156.584,72.731 156.328,73.523C156.072,74.315 155.944,75.159 155.944,76.055C155.944,76.951 156.072,77.795 156.328,78.587C156.584,79.379 156.96,80.071 157.456,80.663C157.952,81.255 158.564,81.723 159.292,82.067C160.02,82.411 160.856,82.583 161.8,82.583C162.744,82.583 163.58,82.411 164.308,82.067C165.036,81.723 165.648,81.255 166.144,80.663C166.64,80.071 167.016,79.379 167.272,78.587C167.528,77.795 167.656,76.951 167.656,76.055C167.656,75.159 167.528,74.315 167.272,73.523C167.016,72.731 166.64,72.039 166.144,71.447C165.648,70.855 165.036,70.383 164.308,70.031C163.58,69.679 162.744,69.503 161.8,69.503Z" style="fill:white;fill-rule:nonzero;"/>
            <path d="M169.888,69.863L169.888,82.247L171.4,82.247L171.4,75.023C171.416,74.415 171.516,73.851 171.7,73.331C171.884,72.811 172.14,72.363 172.468,71.987C172.796,71.611 173.196,71.315 173.668,71.099C174.14,70.883 174.68,70.775 175.288,70.775C175.896,70.775 176.404,70.871 176.812,71.063C177.22,71.255 177.544,71.519 177.784,71.855C178.024,72.191 178.192,72.587 178.288,73.043C178.384,73.499 178.432,73.991 178.432,74.519L178.432,82.247L179.944,82.247L179.944,74.279C179.944,73.543 179.872,72.879 179.728,72.287C179.584,71.695 179.336,71.195 178.984,70.787C178.632,70.379 178.164,70.063 177.58,69.839C176.996,69.615 176.272,69.503 175.408,69.503C174.528,69.503 173.72,69.731 172.984,70.187C172.248,70.643 171.736,71.247 171.448,71.999L171.4,71.999L171.4,69.863L169.888,69.863Z" style="fill:white;fill-rule:nonzero;"/>
            <path d="M194.248,71.135L194.248,69.863L191.8,69.863L191.8,68.783C191.8,68.447 191.808,68.135 191.824,67.847C191.84,67.559 191.9,67.307 192.004,67.091C192.108,66.875 192.272,66.703 192.496,66.575C192.72,66.447 193.04,66.383 193.456,66.383C193.632,66.383 193.808,66.395 193.984,66.419C194.16,66.443 194.352,66.471 194.56,66.503L194.56,65.207C194.32,65.175 194.104,65.151 193.912,65.135C193.72,65.119 193.512,65.111 193.288,65.111C192.68,65.111 192.18,65.199 191.788,65.375C191.396,65.551 191.088,65.799 190.864,66.119C190.64,66.439 190.488,66.823 190.408,67.271C190.328,67.719 190.288,68.207 190.288,68.735L190.288,69.863L188.176,69.863L188.176,71.135L190.288,71.135L190.288,82.247L191.8,82.247L191.8,71.135L194.248,71.135Z" style="fill:white;fill-rule:nonzero;"/>
            <path d="M200.92,70.775C201.64,70.775 202.272,70.927 202.816,71.231C203.36,71.535 203.812,71.935 204.172,72.431C204.532,72.927 204.804,73.491 204.988,74.123C205.172,74.755 205.264,75.399 205.264,76.055C205.264,76.711 205.172,77.355 204.988,77.987C204.804,78.619 204.532,79.183 204.172,79.679C203.812,80.175 203.36,80.575 202.816,80.879C202.272,81.183 201.64,81.335 200.92,81.335C200.2,81.335 199.568,81.183 199.024,80.879C198.48,80.575 198.028,80.175 197.668,79.679C197.308,79.183 197.036,78.619 196.852,77.987C196.668,77.355 196.576,76.711 196.576,76.055C196.576,75.399 196.668,74.755 196.852,74.123C197.036,73.491 197.308,72.927 197.668,72.431C198.028,71.935 198.48,71.535 199.024,71.231C199.568,70.927 200.2,70.775 200.92,70.775ZM200.92,69.503C199.976,69.503 199.14,69.679 198.412,70.031C197.684,70.383 197.072,70.855 196.576,71.447C196.08,72.039 195.704,72.731 195.448,73.523C195.192,74.315 195.064,75.159 195.064,76.055C195.064,76.951 195.192,77.795 195.448,78.587C195.704,79.379 196.08,80.071 196.576,80.663C197.072,81.255 197.684,81.723 198.412,82.067C199.14,82.411 199.976,82.583 200.92,82.583C201.864,82.583 202.7,82.411 203.428,82.067C204.156,81.723 204.768,81.255 205.264,80.663C205.76,80.071 206.136,79.379 206.392,78.587C206.648,77.795 206.776,76.951 206.776,76.055C206.776,75.159 206.648,74.315 206.392,73.523C206.136,72.731 205.76,72.039 205.264,71.447C204.768,70.855 204.156,70.383 203.428,70.031C202.7,69.679 201.864,69.503 200.92,69.503Z" style="fill:white;fill-rule:nonzero;"/>
            <path d="M209.032,69.863L209.032,82.247L210.544,82.247L210.544,75.647C210.544,74.991 210.656,74.387 210.88,73.835C211.104,73.283 211.42,72.807 211.828,72.407C212.236,72.007 212.72,71.699 213.28,71.483C213.84,71.267 214.464,71.175 215.152,71.207L215.152,69.695C214.032,69.647 213.068,69.895 212.26,70.439C211.452,70.983 210.856,71.759 210.472,72.767L210.424,72.767L210.424,69.863L209.032,69.863Z" style="fill:white;fill-rule:nonzero;"/>
            <path d="M221.824,65.111L226.576,82.247L228.352,82.247L232.672,66.911L232.72,66.911L237.064,82.247L238.792,82.247L243.52,65.111L241.888,65.111L237.976,80.111L237.928,80.111L233.728,65.111L231.688,65.111L227.512,80.111L227.464,80.111L223.576,65.111L221.824,65.111Z" style="fill:white;fill-rule:nonzero;"/>
            <path d="M249.832,70.775C250.552,70.775 251.184,70.927 251.728,71.231C252.272,71.535 252.724,71.935 253.084,72.431C253.444,72.927 253.716,73.491 253.9,74.123C254.084,74.755 254.176,75.399 254.176,76.055C254.176,76.711 254.084,77.355 253.9,77.987C253.716,78.619 253.444,79.183 253.084,79.679C252.724,80.175 252.272,80.575 251.728,80.879C251.184,81.183 250.552,81.335 249.832,81.335C249.112,81.335 248.48,81.183 247.936,80.879C247.392,80.575 246.94,80.175 246.58,79.679C246.22,79.183 245.948,78.619 245.764,77.987C245.58,77.355 245.488,76.711 245.488,76.055C245.488,75.399 245.58,74.755 245.764,74.123C245.948,73.491 246.22,72.927 246.58,72.431C246.94,71.935 247.392,71.535 247.936,71.231C248.48,70.927 249.112,70.775 249.832,70.775ZM249.832,69.503C248.888,69.503 248.052,69.679 247.324,70.031C246.596,70.383 245.984,70.855 245.488,71.447C244.992,72.039 244.616,72.731 244.36,73.523C244.104,74.315 243.976,75.159 243.976,76.055C243.976,76.951 244.104,77.795 244.36,78.587C244.616,79.379 244.992,80.071 245.488,80.663C245.984,81.255 246.596,81.723 247.324,82.067C248.052,82.411 248.888,82.583 249.832,82.583C250.776,82.583 251.612,82.411 252.34,82.067C253.068,81.723 253.68,81.255 254.176,80.663C254.672,80.071 255.048,79.379 255.304,78.587C255.56,77.795 255.688,76.951 255.688,76.055C255.688,75.159 255.56,74.315 255.304,73.523C255.048,72.731 254.672,72.039 254.176,71.447C253.68,70.855 253.068,70.383 252.34,70.031C251.612,69.679 250.776,69.503 249.832,69.503Z" style="fill:white;fill-rule:nonzero;"/>
            <path d="M257.944,69.863L257.944,82.247L259.456,82.247L259.456,75.647C259.456,74.991 259.568,74.387 259.792,73.835C260.016,73.283 260.332,72.807 260.74,72.407C261.148,72.007 261.632,71.699 262.192,71.483C262.752,71.267 263.376,71.175 264.064,71.207L264.064,69.695C262.944,69.647 261.98,69.895 261.172,70.439C260.364,70.983 259.768,71.759 259.384,72.767L259.336,72.767L259.336,69.863L257.944,69.863Z" style="fill:white;fill-rule:nonzero;"/>
            <path d="M275.968,82.247L275.968,65.111L274.456,65.111L274.456,72.215L274.408,72.215C274.248,71.767 274.02,71.375 273.724,71.039C273.428,70.703 273.088,70.419 272.704,70.187C272.32,69.955 271.908,69.783 271.468,69.671C271.028,69.559 270.576,69.503 270.112,69.503C269.168,69.503 268.348,69.679 267.652,70.031C266.956,70.383 266.376,70.859 265.912,71.459C265.448,72.059 265.104,72.755 264.88,73.547C264.656,74.339 264.544,75.175 264.544,76.055C264.544,76.935 264.656,77.771 264.88,78.563C265.104,79.355 265.448,80.051 265.912,80.651C266.376,81.251 266.956,81.723 267.652,82.067C268.348,82.411 269.168,82.583 270.112,82.583C270.56,82.583 271.012,82.519 271.468,82.391C271.924,82.263 272.352,82.083 272.752,81.851C273.152,81.619 273.508,81.335 273.82,80.999C274.132,80.663 274.368,80.295 274.528,79.895L274.576,79.895L274.576,82.247L275.968,82.247ZM266.056,76.055C266.056,75.415 266.132,74.779 266.284,74.147C266.436,73.515 266.676,72.951 267.004,72.455C267.332,71.959 267.752,71.555 268.264,71.243C268.776,70.931 269.392,70.775 270.112,70.775C270.912,70.775 271.588,70.931 272.14,71.243C272.692,71.555 273.14,71.959 273.484,72.455C273.828,72.951 274.076,73.515 274.228,74.147C274.38,74.779 274.456,75.415 274.456,76.055C274.456,76.695 274.38,77.331 274.228,77.963C274.076,78.595 273.828,79.159 273.484,79.655C273.14,80.151 272.692,80.555 272.14,80.867C271.588,81.179 270.912,81.335 270.112,81.335C269.392,81.335 268.776,81.179 268.264,80.867C267.752,80.555 267.332,80.151 267.004,79.655C266.676,79.159 266.436,78.595 266.284,77.963C266.132,77.331 266.056,76.695 266.056,76.055Z" style="fill:white;fill-rule:nonzero;"/>
            <path d="M280.768,73.511L280.768,66.503L286.384,66.503C287.52,66.503 288.44,66.791 289.144,67.367C289.848,67.943 290.2,68.823 290.2,70.007C290.2,71.191 289.848,72.071 289.144,72.647C288.44,73.223 287.52,73.511 286.384,73.511L280.768,73.511ZM279.136,65.111L279.136,82.247L280.768,82.247L280.768,74.903L286.744,74.903C287.512,74.903 288.208,74.795 288.832,74.579C289.456,74.363 289.992,74.043 290.44,73.619C290.888,73.195 291.232,72.679 291.472,72.071C291.712,71.463 291.832,70.775 291.832,70.007C291.832,69.239 291.712,68.551 291.472,67.943C291.232,67.335 290.888,66.819 290.44,66.395C289.992,65.971 289.456,65.651 288.832,65.435C288.208,65.219 287.512,65.111 286.744,65.111L279.136,65.111Z" style="fill:white;fill-rule:nonzero;"/>
            <path d="M293.968,69.863L293.968,82.247L295.48,82.247L295.48,75.647C295.48,74.991 295.592,74.387 295.816,73.835C296.04,73.283 296.356,72.807 296.764,72.407C297.172,72.007 297.656,71.699 298.216,71.483C298.776,71.267 299.4,71.175 300.088,71.207L300.088,69.695C298.968,69.647 298.004,69.895 297.196,70.439C296.388,70.983 295.792,71.759 295.408,72.767L295.36,72.767L295.36,69.863L293.968,69.863Z" style="fill:white;fill-rule:nonzero;"/>
            <path d="M310,75.191L301.984,75.191C302.048,74.631 302.18,74.083 302.38,73.547C302.58,73.011 302.848,72.539 303.184,72.131C303.52,71.723 303.928,71.395 304.408,71.147C304.888,70.899 305.44,70.775 306.064,70.775C306.672,70.775 307.216,70.899 307.696,71.147C308.176,71.395 308.584,71.723 308.92,72.131C309.256,72.539 309.516,73.007 309.7,73.535C309.884,74.063 309.984,74.615 310,75.191ZM301.984,76.463L311.512,76.463C311.544,75.599 311.464,74.747 311.272,73.907C311.08,73.067 310.764,72.323 310.324,71.675C309.884,71.027 309.312,70.503 308.608,70.103C307.904,69.703 307.056,69.503 306.064,69.503C305.088,69.503 304.244,69.691 303.532,70.067C302.82,70.443 302.24,70.939 301.792,71.555C301.344,72.171 301.012,72.871 300.796,73.655C300.58,74.439 300.472,75.239 300.472,76.055C300.472,76.935 300.58,77.771 300.796,78.563C301.012,79.355 301.344,80.051 301.792,80.651C302.24,81.251 302.82,81.723 303.532,82.067C304.244,82.411 305.088,82.583 306.064,82.583C307.632,82.583 308.844,82.199 309.7,81.431C310.556,80.663 311.144,79.575 311.464,78.167L309.952,78.167C309.712,79.127 309.28,79.895 308.656,80.471C308.032,81.047 307.168,81.335 306.064,81.335C305.344,81.335 304.728,81.183 304.216,80.879C303.704,80.575 303.28,80.191 302.944,79.727C302.608,79.263 302.364,78.739 302.212,78.155C302.06,77.571 301.984,77.007 301.984,76.463Z" style="fill:white;fill-rule:nonzero;"/>
            <path d="M320.968,73.487L322.48,73.487C322.448,72.815 322.312,72.231 322.072,71.735C321.832,71.239 321.508,70.823 321.1,70.487C320.692,70.151 320.22,69.903 319.684,69.743C319.148,69.583 318.568,69.503 317.944,69.503C317.4,69.503 316.852,69.567 316.3,69.695C315.748,69.823 315.248,70.023 314.8,70.295C314.352,70.567 313.988,70.927 313.708,71.375C313.428,71.823 313.288,72.359 313.288,72.983C313.288,73.511 313.376,73.955 313.552,74.315C313.728,74.675 313.972,74.979 314.284,75.227C314.596,75.475 314.96,75.683 315.376,75.851C315.792,76.019 316.248,76.167 316.744,76.295L318.688,76.727C319.024,76.807 319.356,76.903 319.684,77.015C320.012,77.127 320.304,77.267 320.56,77.435C320.816,77.603 321.02,77.811 321.172,78.059C321.324,78.307 321.4,78.615 321.4,78.983C321.4,79.415 321.292,79.779 321.076,80.075C320.86,80.371 320.584,80.615 320.248,80.807C319.912,80.999 319.548,81.135 319.156,81.215C318.764,81.295 318.384,81.335 318.016,81.335C317.008,81.335 316.164,81.075 315.484,80.555C314.804,80.035 314.432,79.263 314.368,78.239L312.856,78.239C312.984,79.759 313.5,80.863 314.404,81.551C315.308,82.239 316.488,82.583 317.944,82.583C318.52,82.583 319.104,82.519 319.696,82.391C320.288,82.263 320.82,82.051 321.292,81.755C321.764,81.459 322.152,81.075 322.456,80.603C322.76,80.131 322.912,79.559 322.912,78.887C322.912,78.343 322.808,77.871 322.6,77.471C322.392,77.071 322.124,76.735 321.796,76.463C321.468,76.191 321.092,75.971 320.668,75.803C320.244,75.635 319.816,75.519 319.384,75.455L317.368,74.999C317.112,74.935 316.832,74.851 316.528,74.747C316.224,74.643 315.944,74.511 315.688,74.351C315.432,74.191 315.22,73.995 315.052,73.763C314.884,73.531 314.8,73.247 314.8,72.911C314.8,72.511 314.888,72.175 315.064,71.903C315.24,71.631 315.472,71.411 315.76,71.243C316.048,71.075 316.364,70.955 316.708,70.883C317.052,70.811 317.392,70.775 317.728,70.775C318.16,70.775 318.568,70.827 318.952,70.931C319.336,71.035 319.676,71.199 319.972,71.423C320.268,71.647 320.504,71.931 320.68,72.275C320.856,72.619 320.952,73.023 320.968,73.487Z" style="fill:white;fill-rule:nonzero;"/>
            <path d="M332.512,73.487L334.024,73.487C333.992,72.815 333.856,72.231 333.616,71.735C333.376,71.239 333.052,70.823 332.644,70.487C332.236,70.151 331.764,69.903 331.228,69.743C330.692,69.583 330.112,69.503 329.488,69.503C328.944,69.503 328.396,69.567 327.844,69.695C327.292,69.823 326.792,70.023 326.344,70.295C325.896,70.567 325.532,70.927 325.252,71.375C324.972,71.823 324.832,72.359 324.832,72.983C324.832,73.511 324.92,73.955 325.096,74.315C325.272,74.675 325.516,74.979 325.828,75.227C326.14,75.475 326.504,75.683 326.92,75.851C327.336,76.019 327.792,76.167 328.288,76.295L330.232,76.727C330.568,76.807 330.9,76.903 331.228,77.015C331.556,77.127 331.848,77.267 332.104,77.435C332.36,77.603 332.564,77.811 332.716,78.059C332.868,78.307 332.944,78.615 332.944,78.983C332.944,79.415 332.836,79.779 332.62,80.075C332.404,80.371 332.128,80.615 331.792,80.807C331.456,80.999 331.092,81.135 330.7,81.215C330.308,81.295 329.928,81.335 329.56,81.335C328.552,81.335 327.708,81.075 327.028,80.555C326.348,80.035 325.976,79.263 325.912,78.239L324.4,78.239C324.528,79.759 325.044,80.863 325.948,81.551C326.852,82.239 328.032,82.583 329.488,82.583C330.064,82.583 330.648,82.519 331.24,82.391C331.832,82.263 332.364,82.051 332.836,81.755C333.308,81.459 333.696,81.075 334,80.603C334.304,80.131 334.456,79.559 334.456,78.887C334.456,78.343 334.352,77.871 334.144,77.471C333.936,77.071 333.668,76.735 333.34,76.463C333.012,76.191 332.636,75.971 332.212,75.803C331.788,75.635 331.36,75.519 330.928,75.455L328.912,74.999C328.656,74.935 328.376,74.851 328.072,74.747C327.768,74.643 327.488,74.511 327.232,74.351C326.976,74.191 326.764,73.995 326.596,73.763C326.428,73.531 326.344,73.247 326.344,72.911C326.344,72.511 326.432,72.175 326.608,71.903C326.784,71.631 327.016,71.411 327.304,71.243C327.592,71.075 327.908,70.955 328.252,70.883C328.596,70.811 328.936,70.775 329.272,70.775C329.704,70.775 330.112,70.827 330.496,70.931C330.88,71.035 331.22,71.199 331.516,71.423C331.812,71.647 332.048,71.931 332.224,72.275C332.4,72.619 332.496,73.023 332.512,73.487Z" style="fill:white;fill-rule:nonzero;"/>
            <path d="M343.336,65.111L343.336,67.535L344.848,67.535L344.848,65.111L343.336,65.111ZM343.336,69.863L343.336,82.247L344.848,82.247L344.848,69.863L343.336,69.863Z" style="fill:white;fill-rule:nonzero;"/>
            <path d="M355.168,73.487L356.68,73.487C356.648,72.815 356.512,72.231 356.272,71.735C356.032,71.239 355.708,70.823 355.3,70.487C354.892,70.151 354.42,69.903 353.884,69.743C353.348,69.583 352.768,69.503 352.144,69.503C351.6,69.503 351.052,69.567 350.5,69.695C349.948,69.823 349.448,70.023 349,70.295C348.552,70.567 348.188,70.927 347.908,71.375C347.628,71.823 347.488,72.359 347.488,72.983C347.488,73.511 347.576,73.955 347.752,74.315C347.928,74.675 348.172,74.979 348.484,75.227C348.796,75.475 349.16,75.683 349.576,75.851C349.992,76.019 350.448,76.167 350.944,76.295L352.888,76.727C353.224,76.807 353.556,76.903 353.884,77.015C354.212,77.127 354.504,77.267 354.76,77.435C355.016,77.603 355.22,77.811 355.372,78.059C355.524,78.307 355.6,78.615 355.6,78.983C355.6,79.415 355.492,79.779 355.276,80.075C355.06,80.371 354.784,80.615 354.448,80.807C354.112,80.999 353.748,81.135 353.356,81.215C352.964,81.295 352.584,81.335 352.216,81.335C351.208,81.335 350.364,81.075 349.684,80.555C349.004,80.035 348.632,79.263 348.568,78.239L347.056,78.239C347.184,79.759 347.7,80.863 348.604,81.551C349.508,82.239 350.688,82.583 352.144,82.583C352.72,82.583 353.304,82.519 353.896,82.391C354.488,82.263 355.02,82.051 355.492,81.755C355.964,81.459 356.352,81.075 356.656,80.603C356.96,80.131 357.112,79.559 357.112,78.887C357.112,78.343 357.008,77.871 356.8,77.471C356.592,77.071 356.324,76.735 355.996,76.463C355.668,76.191 355.292,75.971 354.868,75.803C354.444,75.635 354.016,75.519 353.584,75.455L351.568,74.999C351.312,74.935 351.032,74.851 350.728,74.747C350.424,74.643 350.144,74.511 349.888,74.351C349.632,74.191 349.42,73.995 349.252,73.763C349.084,73.531 349,73.247 349,72.911C349,72.511 349.088,72.175 349.264,71.903C349.44,71.631 349.672,71.411 349.96,71.243C350.248,71.075 350.564,70.955 350.908,70.883C351.252,70.811 351.592,70.775 351.928,70.775C352.36,70.775 352.768,70.827 353.152,70.931C353.536,71.035 353.876,71.199 354.172,71.423C354.468,71.647 354.704,71.931 354.88,72.275C355.056,72.619 355.152,73.023 355.168,73.487Z" style="fill:white;fill-rule:nonzero;"/>
            <path d="M365.824,73.655L367.336,73.655C367.368,72.647 367.688,71.915 368.296,71.459C368.904,71.003 369.688,70.775 370.648,70.775C371.096,70.775 371.516,70.811 371.908,70.883C372.3,70.955 372.644,71.087 372.94,71.279C373.236,71.471 373.468,71.731 373.636,72.059C373.804,72.387 373.888,72.807 373.888,73.319C373.888,73.655 373.844,73.927 373.756,74.135C373.668,74.343 373.544,74.507 373.384,74.627C373.224,74.747 373.024,74.831 372.784,74.879C372.544,74.927 372.264,74.967 371.944,74.999C371.128,75.095 370.324,75.195 369.532,75.299C368.74,75.403 368.028,75.583 367.396,75.839C366.764,76.095 366.256,76.467 365.872,76.955C365.488,77.443 365.296,78.119 365.296,78.983C365.296,79.607 365.404,80.147 365.62,80.603C365.836,81.059 366.132,81.435 366.508,81.731C366.884,82.027 367.324,82.243 367.828,82.379C368.332,82.515 368.872,82.583 369.448,82.583C370.056,82.583 370.58,82.527 371.02,82.415C371.46,82.303 371.852,82.143 372.196,81.935C372.54,81.727 372.852,81.467 373.132,81.155C373.412,80.843 373.688,80.487 373.96,80.087L374.008,80.087C374.008,80.407 374.028,80.699 374.068,80.963C374.108,81.227 374.192,81.455 374.32,81.647C374.448,81.839 374.628,81.987 374.86,82.091C375.092,82.195 375.4,82.247 375.784,82.247C375.992,82.247 376.164,82.239 376.3,82.223C376.436,82.207 376.592,82.183 376.768,82.151L376.768,80.879C376.624,80.943 376.464,80.975 376.288,80.975C375.696,80.975 375.4,80.671 375.4,80.063L375.4,73.487C375.4,72.655 375.264,71.979 374.992,71.459C374.72,70.939 374.368,70.535 373.936,70.247C373.504,69.959 373.016,69.763 372.472,69.659C371.928,69.555 371.384,69.503 370.84,69.503C370.12,69.503 369.464,69.583 368.872,69.743C368.28,69.903 367.764,70.151 367.324,70.487C366.884,70.823 366.536,71.255 366.28,71.783C366.024,72.311 365.872,72.935 365.824,73.655ZM373.888,75.479L373.888,77.447C373.888,78.055 373.772,78.599 373.54,79.079C373.308,79.559 372.996,79.967 372.604,80.303C372.212,80.639 371.752,80.895 371.224,81.071C370.696,81.247 370.144,81.335 369.568,81.335C369.216,81.335 368.872,81.279 368.536,81.167C368.2,81.055 367.904,80.891 367.648,80.675C367.392,80.459 367.188,80.203 367.036,79.907C366.884,79.611 366.808,79.271 366.808,78.887C366.808,78.279 366.988,77.811 367.348,77.483C367.708,77.155 368.168,76.903 368.728,76.727C369.288,76.551 369.908,76.419 370.588,76.331C371.268,76.243 371.928,76.143 372.568,76.031C372.776,75.999 373.016,75.943 373.288,75.863C373.56,75.783 373.744,75.655 373.84,75.479L373.888,75.479Z" style="fill:white;fill-rule:nonzero;"/>
            <path d="M377.032,69.863L381.808,82.247L383.416,82.247L388.048,69.863L386.488,69.863L382.648,80.735L382.6,80.735L378.712,69.863L377.032,69.863Z" style="fill:white;fill-rule:nonzero;"/>
            <path d="M389.392,73.655L390.904,73.655C390.936,72.647 391.256,71.915 391.864,71.459C392.472,71.003 393.256,70.775 394.216,70.775C394.664,70.775 395.084,70.811 395.476,70.883C395.868,70.955 396.212,71.087 396.508,71.279C396.804,71.471 397.036,71.731 397.204,72.059C397.372,72.387 397.456,72.807 397.456,73.319C397.456,73.655 397.412,73.927 397.324,74.135C397.236,74.343 397.112,74.507 396.952,74.627C396.792,74.747 396.592,74.831 396.352,74.879C396.112,74.927 395.832,74.967 395.512,74.999C394.696,75.095 393.892,75.195 393.1,75.299C392.308,75.403 391.596,75.583 390.964,75.839C390.332,76.095 389.824,76.467 389.44,76.955C389.056,77.443 388.864,78.119 388.864,78.983C388.864,79.607 388.972,80.147 389.188,80.603C389.404,81.059 389.7,81.435 390.076,81.731C390.452,82.027 390.892,82.243 391.396,82.379C391.9,82.515 392.44,82.583 393.016,82.583C393.624,82.583 394.148,82.527 394.588,82.415C395.028,82.303 395.42,82.143 395.764,81.935C396.108,81.727 396.42,81.467 396.7,81.155C396.98,80.843 397.256,80.487 397.528,80.087L397.576,80.087C397.576,80.407 397.596,80.699 397.636,80.963C397.676,81.227 397.76,81.455 397.888,81.647C398.016,81.839 398.196,81.987 398.428,82.091C398.66,82.195 398.968,82.247 399.352,82.247C399.56,82.247 399.732,82.239 399.868,82.223C400.004,82.207 400.16,82.183 400.336,82.151L400.336,80.879C400.192,80.943 400.032,80.975 399.856,80.975C399.264,80.975 398.968,80.671 398.968,80.063L398.968,73.487C398.968,72.655 398.832,71.979 398.56,71.459C398.288,70.939 397.936,70.535 397.504,70.247C397.072,69.959 396.584,69.763 396.04,69.659C395.496,69.555 394.952,69.503 394.408,69.503C393.688,69.503 393.032,69.583 392.44,69.743C391.848,69.903 391.332,70.151 390.892,70.487C390.452,70.823 390.104,71.255 389.848,71.783C389.592,72.311 389.44,72.935 389.392,73.655ZM397.456,75.479L397.456,77.447C397.456,78.055 397.34,78.599 397.108,79.079C396.876,79.559 396.564,79.967 396.172,80.303C395.78,80.639 395.32,80.895 394.792,81.071C394.264,81.247 393.712,81.335 393.136,81.335C392.784,81.335 392.44,81.279 392.104,81.167C391.768,81.055 391.472,80.891 391.216,80.675C390.96,80.459 390.756,80.203 390.604,79.907C390.452,79.611 390.376,79.271 390.376,78.887C390.376,78.279 390.556,77.811 390.916,77.483C391.276,77.155 391.736,76.903 392.296,76.727C392.856,76.551 393.476,76.419 394.156,76.331C394.836,76.243 395.496,76.143 396.136,76.031C396.344,75.999 396.584,75.943 396.856,75.863C397.128,75.783 397.312,75.655 397.408,75.479L397.456,75.479Z" style="fill:white;fill-rule:nonzero;"/>
            <path d="M402.016,65.111L402.016,67.535L403.528,67.535L403.528,65.111L402.016,65.111ZM402.016,69.863L402.016,82.247L403.528,82.247L403.528,69.863L402.016,69.863Z" style="fill:white;fill-rule:nonzero;"/>
            <rect x="406.456" y="65.111" width="1.512" height="17.136" style="fill:white;fill-rule:nonzero;"/>
            <path d="M410.728,73.655L412.24,73.655C412.272,72.647 412.592,71.915 413.2,71.459C413.808,71.003 414.592,70.775 415.552,70.775C416,70.775 416.42,70.811 416.812,70.883C417.204,70.955 417.548,71.087 417.844,71.279C418.14,71.471 418.372,71.731 418.54,72.059C418.708,72.387 418.792,72.807 418.792,73.319C418.792,73.655 418.748,73.927 418.66,74.135C418.572,74.343 418.448,74.507 418.288,74.627C418.128,74.747 417.928,74.831 417.688,74.879C417.448,74.927 417.168,74.967 416.848,74.999C416.032,75.095 415.228,75.195 414.436,75.299C413.644,75.403 412.932,75.583 412.3,75.839C411.668,76.095 411.16,76.467 410.776,76.955C410.392,77.443 410.2,78.119 410.2,78.983C410.2,79.607 410.308,80.147 410.524,80.603C410.74,81.059 411.036,81.435 411.412,81.731C411.788,82.027 412.228,82.243 412.732,82.379C413.236,82.515 413.776,82.583 414.352,82.583C414.96,82.583 415.484,82.527 415.924,82.415C416.364,82.303 416.756,82.143 417.1,81.935C417.444,81.727 417.756,81.467 418.036,81.155C418.316,80.843 418.592,80.487 418.864,80.087L418.912,80.087C418.912,80.407 418.932,80.699 418.972,80.963C419.012,81.227 419.096,81.455 419.224,81.647C419.352,81.839 419.532,81.987 419.764,82.091C419.996,82.195 420.304,82.247 420.688,82.247C420.896,82.247 421.068,82.239 421.204,82.223C421.34,82.207 421.496,82.183 421.672,82.151L421.672,80.879C421.528,80.943 421.368,80.975 421.192,80.975C420.6,80.975 420.304,80.671 420.304,80.063L420.304,73.487C420.304,72.655 420.168,71.979 419.896,71.459C419.624,70.939 419.272,70.535 418.84,70.247C418.408,69.959 417.92,69.763 417.376,69.659C416.832,69.555 416.288,69.503 415.744,69.503C415.024,69.503 414.368,69.583 413.776,69.743C413.184,69.903 412.668,70.151 412.228,70.487C411.788,70.823 411.44,71.255 411.184,71.783C410.928,72.311 410.776,72.935 410.728,73.655ZM418.792,75.479L418.792,77.447C418.792,78.055 418.676,78.599 418.444,79.079C418.212,79.559 417.9,79.967 417.508,80.303C417.116,80.639 416.656,80.895 416.128,81.071C415.6,81.247 415.048,81.335 414.472,81.335C414.12,81.335 413.776,81.279 413.44,81.167C413.104,81.055 412.808,80.891 412.552,80.675C412.296,80.459 412.092,80.203 411.94,79.907C411.788,79.611 411.712,79.271 411.712,78.887C411.712,78.279 411.892,77.811 412.252,77.483C412.612,77.155 413.072,76.903 413.632,76.727C414.192,76.551 414.812,76.419 415.492,76.331C416.172,76.243 416.832,76.143 417.472,76.031C417.68,75.999 417.92,75.943 418.192,75.863C418.464,75.783 418.648,75.655 418.744,75.479L418.792,75.479Z" style="fill:white;fill-rule:nonzero;"/>
            <path d="M423.328,65.111L423.328,82.247L424.72,82.247L424.72,79.895L424.768,79.895C425.12,80.759 425.692,81.423 426.484,81.887C427.276,82.351 428.176,82.583 429.184,82.583C430.128,82.583 430.948,82.411 431.644,82.067C432.34,81.723 432.92,81.251 433.384,80.651C433.848,80.051 434.192,79.355 434.416,78.563C434.64,77.771 434.752,76.935 434.752,76.055C434.752,75.175 434.64,74.339 434.416,73.547C434.192,72.755 433.848,72.059 433.384,71.459C432.92,70.859 432.34,70.383 431.644,70.031C430.948,69.679 430.128,69.503 429.184,69.503C428.736,69.503 428.288,69.559 427.84,69.671C427.392,69.783 426.976,69.955 426.592,70.187C426.208,70.419 425.868,70.703 425.572,71.039C425.276,71.375 425.048,71.767 424.888,72.215L424.84,72.215L424.84,65.111L423.328,65.111ZM433.24,76.055C433.24,76.695 433.164,77.331 433.012,77.963C432.86,78.595 432.62,79.159 432.292,79.655C431.964,80.151 431.544,80.555 431.032,80.867C430.52,81.179 429.904,81.335 429.184,81.335C428.384,81.335 427.708,81.179 427.156,80.867C426.604,80.555 426.156,80.151 425.812,79.655C425.468,79.159 425.22,78.595 425.068,77.963C424.916,77.331 424.84,76.695 424.84,76.055C424.84,75.415 424.916,74.779 425.068,74.147C425.22,73.515 425.468,72.951 425.812,72.455C426.156,71.959 426.604,71.555 427.156,71.243C427.708,70.931 428.384,70.775 429.184,70.775C429.904,70.775 430.52,70.931 431.032,71.243C431.544,71.555 431.964,71.959 432.292,72.455C432.62,72.951 432.86,73.515 433.012,74.147C433.164,74.779 433.24,75.415 433.24,76.055Z" style="fill:white;fill-rule:nonzero;"/>
            <rect x="437.128" y="65.111" width="1.512" height="17.136" style="fill:white;fill-rule:nonzero;"/>
            <path d="M450.448,75.191L442.432,75.191C442.496,74.631 442.628,74.083 442.828,73.547C443.028,73.011 443.296,72.539 443.632,72.131C443.968,71.723 444.376,71.395 444.856,71.147C445.336,70.899 445.888,70.775 446.512,70.775C447.12,70.775 447.664,70.899 448.144,71.147C448.624,71.395 449.032,71.723 449.368,72.131C449.704,72.539 449.964,73.007 450.148,73.535C450.332,74.063 450.432,74.615 450.448,75.191ZM442.432,76.463L451.96,76.463C451.992,75.599 451.912,74.747 451.72,73.907C451.528,73.067 451.212,72.323 450.772,71.675C450.332,71.027 449.76,70.503 449.056,70.103C448.352,69.703 447.504,69.503 446.512,69.503C445.536,69.503 444.692,69.691 443.98,70.067C443.268,70.443 442.688,70.939 442.24,71.555C441.792,72.171 441.46,72.871 441.244,73.655C441.028,74.439 440.92,75.239 440.92,76.055C440.92,76.935 441.028,77.771 441.244,78.563C441.46,79.355 441.792,80.051 442.24,80.651C442.688,81.251 443.268,81.723 443.98,82.067C444.692,82.411 445.536,82.583 446.512,82.583C448.08,82.583 449.292,82.199 450.148,81.431C451.004,80.663 451.592,79.575 451.912,78.167L450.4,78.167C450.16,79.127 449.728,79.895 449.104,80.471C448.48,81.047 447.616,81.335 446.512,81.335C445.792,81.335 445.176,81.183 444.664,80.879C444.152,80.575 443.728,80.191 443.392,79.727C443.056,79.263 442.812,78.739 442.66,78.155C442.508,77.571 442.432,77.007 442.432,76.463Z" style="fill:white;fill-rule:nonzero;"/>
            <path d="M460.528,73.655L462.04,73.655C462.072,72.647 462.392,71.915 463,71.459C463.608,71.003 464.392,70.775 465.352,70.775C465.8,70.775 466.22,70.811 466.612,70.883C467.004,70.955 467.348,71.087 467.644,71.279C467.94,71.471 468.172,71.731 468.34,72.059C468.508,72.387 468.592,72.807 468.592,73.319C468.592,73.655 468.548,73.927 468.46,74.135C468.372,74.343 468.248,74.507 468.088,74.627C467.928,74.747 467.728,74.831 467.488,74.879C467.248,74.927 466.968,74.967 466.648,74.999C465.832,75.095 465.028,75.195 464.236,75.299C463.444,75.403 462.732,75.583 462.1,75.839C461.468,76.095 460.96,76.467 460.576,76.955C460.192,77.443 460,78.119 460,78.983C460,79.607 460.108,80.147 460.324,80.603C460.54,81.059 460.836,81.435 461.212,81.731C461.588,82.027 462.028,82.243 462.532,82.379C463.036,82.515 463.576,82.583 464.152,82.583C464.76,82.583 465.284,82.527 465.724,82.415C466.164,82.303 466.556,82.143 466.9,81.935C467.244,81.727 467.556,81.467 467.836,81.155C468.116,80.843 468.392,80.487 468.664,80.087L468.712,80.087C468.712,80.407 468.732,80.699 468.772,80.963C468.812,81.227 468.896,81.455 469.024,81.647C469.152,81.839 469.332,81.987 469.564,82.091C469.796,82.195 470.104,82.247 470.488,82.247C470.696,82.247 470.868,82.239 471.004,82.223C471.14,82.207 471.296,82.183 471.472,82.151L471.472,80.879C471.328,80.943 471.168,80.975 470.992,80.975C470.4,80.975 470.104,80.671 470.104,80.063L470.104,73.487C470.104,72.655 469.968,71.979 469.696,71.459C469.424,70.939 469.072,70.535 468.64,70.247C468.208,69.959 467.72,69.763 467.176,69.659C466.632,69.555 466.088,69.503 465.544,69.503C464.824,69.503 464.168,69.583 463.576,69.743C462.984,69.903 462.468,70.151 462.028,70.487C461.588,70.823 461.24,71.255 460.984,71.783C460.728,72.311 460.576,72.935 460.528,73.655ZM468.592,75.479L468.592,77.447C468.592,78.055 468.476,78.599 468.244,79.079C468.012,79.559 467.7,79.967 467.308,80.303C466.916,80.639 466.456,80.895 465.928,81.071C465.4,81.247 464.848,81.335 464.272,81.335C463.92,81.335 463.576,81.279 463.24,81.167C462.904,81.055 462.608,80.891 462.352,80.675C462.096,80.459 461.892,80.203 461.74,79.907C461.588,79.611 461.512,79.271 461.512,78.887C461.512,78.279 461.692,77.811 462.052,77.483C462.412,77.155 462.872,76.903 463.432,76.727C463.992,76.551 464.612,76.419 465.292,76.331C465.972,76.243 466.632,76.143 467.272,76.031C467.48,75.999 467.72,75.943 467.992,75.863C468.264,75.783 468.448,75.655 468.544,75.479L468.592,75.479Z" style="fill:white;fill-rule:nonzero;"/>
            <path d="M480.544,73.487L482.056,73.487C482.024,72.815 481.888,72.231 481.648,71.735C481.408,71.239 481.084,70.823 480.676,70.487C480.268,70.151 479.796,69.903 479.26,69.743C478.724,69.583 478.144,69.503 477.52,69.503C476.976,69.503 476.428,69.567 475.876,69.695C475.324,69.823 474.824,70.023 474.376,70.295C473.928,70.567 473.564,70.927 473.284,71.375C473.004,71.823 472.864,72.359 472.864,72.983C472.864,73.511 472.952,73.955 473.128,74.315C473.304,74.675 473.548,74.979 473.86,75.227C474.172,75.475 474.536,75.683 474.952,75.851C475.368,76.019 475.824,76.167 476.32,76.295L478.264,76.727C478.6,76.807 478.932,76.903 479.26,77.015C479.588,77.127 479.88,77.267 480.136,77.435C480.392,77.603 480.596,77.811 480.748,78.059C480.9,78.307 480.976,78.615 480.976,78.983C480.976,79.415 480.868,79.779 480.652,80.075C480.436,80.371 480.16,80.615 479.824,80.807C479.488,80.999 479.124,81.135 478.732,81.215C478.34,81.295 477.96,81.335 477.592,81.335C476.584,81.335 475.74,81.075 475.06,80.555C474.38,80.035 474.008,79.263 473.944,78.239L472.432,78.239C472.56,79.759 473.076,80.863 473.98,81.551C474.884,82.239 476.064,82.583 477.52,82.583C478.096,82.583 478.68,82.519 479.272,82.391C479.864,82.263 480.396,82.051 480.868,81.755C481.34,81.459 481.728,81.075 482.032,80.603C482.336,80.131 482.488,79.559 482.488,78.887C482.488,78.343 482.384,77.871 482.176,77.471C481.968,77.071 481.7,76.735 481.372,76.463C481.044,76.191 480.668,75.971 480.244,75.803C479.82,75.635 479.392,75.519 478.96,75.455L476.944,74.999C476.688,74.935 476.408,74.851 476.104,74.747C475.8,74.643 475.52,74.511 475.264,74.351C475.008,74.191 474.796,73.995 474.628,73.763C474.46,73.531 474.376,73.247 474.376,72.911C474.376,72.511 474.464,72.175 474.64,71.903C474.816,71.631 475.048,71.411 475.336,71.243C475.624,71.075 475.94,70.955 476.284,70.883C476.628,70.811 476.968,70.775 477.304,70.775C477.736,70.775 478.144,70.827 478.528,70.931C478.912,71.035 479.252,71.199 479.548,71.423C479.844,71.647 480.08,71.931 480.256,72.275C480.432,72.619 480.528,73.023 480.544,73.487Z" style="fill:white;fill-rule:nonzero;"/>
            <path d="M490.096,69.863L494.08,82.247L495.736,82.247L498.76,71.831L498.808,71.831L501.856,82.247L503.512,82.247L507.496,69.863L505.888,69.863L502.72,80.471L502.672,80.471L499.648,69.863L497.944,69.863L494.92,80.471L494.872,80.471L491.704,69.863L490.096,69.863Z" style="fill:white;fill-rule:nonzero;"/>
            <path d="M518.032,75.191L510.016,75.191C510.08,74.631 510.212,74.083 510.412,73.547C510.612,73.011 510.88,72.539 511.216,72.131C511.552,71.723 511.96,71.395 512.44,71.147C512.92,70.899 513.472,70.775 514.096,70.775C514.704,70.775 515.248,70.899 515.728,71.147C516.208,71.395 516.616,71.723 516.952,72.131C517.288,72.539 517.548,73.007 517.732,73.535C517.916,74.063 518.016,74.615 518.032,75.191ZM510.016,76.463L519.544,76.463C519.576,75.599 519.496,74.747 519.304,73.907C519.112,73.067 518.796,72.323 518.356,71.675C517.916,71.027 517.344,70.503 516.64,70.103C515.936,69.703 515.088,69.503 514.096,69.503C513.12,69.503 512.276,69.691 511.564,70.067C510.852,70.443 510.272,70.939 509.824,71.555C509.376,72.171 509.044,72.871 508.828,73.655C508.612,74.439 508.504,75.239 508.504,76.055C508.504,76.935 508.612,77.771 508.828,78.563C509.044,79.355 509.376,80.051 509.824,80.651C510.272,81.251 510.852,81.723 511.564,82.067C512.276,82.411 513.12,82.583 514.096,82.583C515.664,82.583 516.876,82.199 517.732,81.431C518.588,80.663 519.176,79.575 519.496,78.167L517.984,78.167C517.744,79.127 517.312,79.895 516.688,80.471C516.064,81.047 515.2,81.335 514.096,81.335C513.376,81.335 512.76,81.183 512.248,80.879C511.736,80.575 511.312,80.191 510.976,79.727C510.64,79.263 510.396,78.739 510.244,78.155C510.092,77.571 510.016,77.007 510.016,76.463Z" style="fill:white;fill-rule:nonzero;"/>
            <rect x="521.608" y="65.111" width="1.512" height="17.136" style="fill:white;fill-rule:nonzero;"/>
            <rect x="526.048" y="65.111" width="1.512" height="17.136" style="fill:white;fill-rule:nonzero;"/>
            <path d="M530.92,82.247L532.936,82.247L532.936,79.703L530.92,79.703L530.92,82.247ZM531.112,70.223L531.472,77.975L532.384,77.975L532.744,70.223L532.744,65.111L531.112,65.111L531.112,70.223Z" style="fill:white;fill-rule:nonzero;"/>
        </g>
        <g transform="matrix(1,0,0,1,-25,-9.12624)">
            <path d="M139.744,70.871L143.392,70.871C143.28,69.879 143.008,68.999 142.576,68.231C142.144,67.463 141.596,66.819 140.932,66.299C140.268,65.779 139.516,65.383 138.676,65.111C137.836,64.839 136.944,64.703 136,64.703C134.688,64.703 133.508,64.935 132.46,65.399C131.412,65.863 130.528,66.503 129.808,67.319C129.088,68.135 128.536,69.091 128.152,70.187C127.768,71.283 127.576,72.471 127.576,73.751C127.576,74.999 127.768,76.163 128.152,77.243C128.536,78.323 129.088,79.263 129.808,80.063C130.528,80.863 131.412,81.491 132.46,81.947C133.508,82.403 134.688,82.631 136,82.631C137.056,82.631 138.024,82.471 138.904,82.151C139.784,81.831 140.552,81.367 141.208,80.759C141.864,80.151 142.392,79.415 142.792,78.551C143.192,77.687 143.44,76.719 143.536,75.647L139.888,75.647C139.744,76.799 139.348,77.727 138.7,78.431C138.052,79.135 137.152,79.487 136,79.487C135.152,79.487 134.432,79.323 133.84,78.995C133.248,78.667 132.768,78.231 132.4,77.687C132.032,77.143 131.764,76.531 131.596,75.851C131.428,75.171 131.344,74.471 131.344,73.751C131.344,72.999 131.428,72.271 131.596,71.567C131.764,70.863 132.032,70.235 132.4,69.683C132.768,69.131 133.248,68.691 133.84,68.363C134.432,68.035 135.152,67.871 136,67.871C136.464,67.871 136.908,67.947 137.332,68.099C137.756,68.251 138.136,68.463 138.472,68.735C138.808,69.007 139.088,69.323 139.312,69.683C139.536,70.043 139.68,70.439 139.744,70.871Z" style="fill:white;fill-rule:nonzero;"/>
            <rect x="145.84" y="65.111" width="3.408" height="17.136" style="fill:white;fill-rule:nonzero;"/>
            <path d="M155.44,67.919L155.44,65.111L152.032,65.111L152.032,67.919L155.44,67.919ZM152.032,69.839L152.032,82.247L155.44,82.247L155.44,69.839L152.032,69.839Z" style="fill:white;fill-rule:nonzero;"/>
            <path d="M166.576,74.207L169.912,74.207C169.864,73.407 169.672,72.715 169.336,72.131C169,71.547 168.564,71.059 168.028,70.667C167.492,70.275 166.884,69.983 166.204,69.791C165.524,69.599 164.816,69.503 164.08,69.503C163.072,69.503 162.176,69.671 161.392,70.007C160.608,70.343 159.944,70.811 159.4,71.411C158.856,72.011 158.444,72.723 158.164,73.547C157.884,74.371 157.744,75.263 157.744,76.223C157.744,77.151 157.896,78.003 158.2,78.779C158.504,79.555 158.928,80.223 159.472,80.783C160.016,81.343 160.676,81.779 161.452,82.091C162.228,82.403 163.08,82.559 164.008,82.559C165.656,82.559 167.008,82.127 168.064,81.263C169.12,80.399 169.76,79.143 169.984,77.495L166.696,77.495C166.584,78.263 166.308,78.875 165.868,79.331C165.428,79.787 164.8,80.015 163.984,80.015C163.456,80.015 163.008,79.895 162.64,79.655C162.272,79.415 161.98,79.107 161.764,78.731C161.548,78.355 161.392,77.935 161.296,77.471C161.2,77.007 161.152,76.551 161.152,76.103C161.152,75.639 161.2,75.171 161.296,74.699C161.392,74.227 161.556,73.795 161.788,73.403C162.02,73.011 162.32,72.691 162.688,72.443C163.056,72.195 163.512,72.071 164.056,72.071C165.512,72.071 166.352,72.783 166.576,74.207Z" style="fill:white;fill-rule:nonzero;"/>
            <path d="M172.216,65.111L172.216,82.247L175.624,82.247L175.624,77.975L176.944,76.703L180.352,82.247L184.48,82.247L179.272,74.399L183.952,69.839L179.92,69.839L175.624,74.303L175.624,65.111L172.216,65.111Z" style="fill:white;fill-rule:nonzero;"/>
            <path d="M192.712,65.111L192.712,82.247L196.48,82.247L196.48,74.855L203.416,74.855L203.416,82.247L207.184,82.247L207.184,65.111L203.416,65.111L203.416,71.687L196.48,71.687L196.48,65.111L192.712,65.111Z" style="fill:white;fill-rule:nonzero;"/>
            <path d="M218.488,74.711L212.944,74.711C212.96,74.471 213.012,74.199 213.1,73.895C213.188,73.591 213.34,73.303 213.556,73.031C213.772,72.759 214.06,72.531 214.42,72.347C214.78,72.163 215.232,72.071 215.776,72.071C216.608,72.071 217.228,72.295 217.636,72.743C218.044,73.191 218.328,73.847 218.488,74.711ZM212.944,76.871L221.896,76.871C221.96,75.911 221.88,74.991 221.656,74.111C221.432,73.231 221.068,72.447 220.564,71.759C220.06,71.071 219.416,70.523 218.632,70.115C217.848,69.707 216.928,69.503 215.872,69.503C214.928,69.503 214.068,69.671 213.292,70.007C212.516,70.343 211.848,70.803 211.288,71.387C210.728,71.971 210.296,72.663 209.992,73.463C209.688,74.263 209.536,75.127 209.536,76.055C209.536,77.015 209.684,77.895 209.98,78.695C210.276,79.495 210.696,80.183 211.24,80.759C211.784,81.335 212.448,81.779 213.232,82.091C214.016,82.403 214.896,82.559 215.872,82.559C217.28,82.559 218.48,82.239 219.472,81.599C220.464,80.959 221.2,79.895 221.68,78.407L218.68,78.407C218.568,78.791 218.264,79.155 217.768,79.499C217.272,79.843 216.68,80.015 215.992,80.015C215.032,80.015 214.296,79.767 213.784,79.271C213.272,78.775 212.992,77.975 212.944,76.871Z" style="fill:white;fill-rule:nonzero;"/>
            <path d="M223.912,69.839L223.912,82.247L227.32,82.247L227.32,76.655C227.32,76.095 227.376,75.575 227.488,75.095C227.6,74.615 227.788,74.195 228.052,73.835C228.316,73.475 228.664,73.191 229.096,72.983C229.528,72.775 230.056,72.671 230.68,72.671C230.888,72.671 231.104,72.683 231.328,72.707C231.552,72.731 231.744,72.759 231.904,72.791L231.904,69.623C231.632,69.543 231.384,69.503 231.16,69.503C230.728,69.503 230.312,69.567 229.912,69.695C229.512,69.823 229.136,70.003 228.784,70.235C228.432,70.467 228.12,70.747 227.848,71.075C227.576,71.403 227.36,71.759 227.2,72.143L227.152,72.143L227.152,69.839L223.912,69.839Z" style="fill:white;fill-rule:nonzero;"/>
            <path d="M241.168,74.711L235.624,74.711C235.64,74.471 235.692,74.199 235.78,73.895C235.868,73.591 236.02,73.303 236.236,73.031C236.452,72.759 236.74,72.531 237.1,72.347C237.46,72.163 237.912,72.071 238.456,72.071C239.288,72.071 239.908,72.295 240.316,72.743C240.724,73.191 241.008,73.847 241.168,74.711ZM235.624,76.871L244.576,76.871C244.64,75.911 244.56,74.991 244.336,74.111C244.112,73.231 243.748,72.447 243.244,71.759C242.74,71.071 242.096,70.523 241.312,70.115C240.528,69.707 239.608,69.503 238.552,69.503C237.608,69.503 236.748,69.671 235.972,70.007C235.196,70.343 234.528,70.803 233.968,71.387C233.408,71.971 232.976,72.663 232.672,73.463C232.368,74.263 232.216,75.127 232.216,76.055C232.216,77.015 232.364,77.895 232.66,78.695C232.956,79.495 233.376,80.183 233.92,80.759C234.464,81.335 235.128,81.779 235.912,82.091C236.696,82.403 237.576,82.559 238.552,82.559C239.96,82.559 241.16,82.239 242.152,81.599C243.144,80.959 243.88,79.895 244.36,78.407L241.36,78.407C241.248,78.791 240.944,79.155 240.448,79.499C239.952,79.843 239.36,80.015 238.672,80.015C237.712,80.015 236.976,79.767 236.464,79.271C235.952,78.775 235.672,77.975 235.624,76.871Z" style="fill:white;fill-rule:nonzero;"/>
        </g>
        <g id="Fixed" transform="matrix(0.246476,0,0,0.246476,21.2163,18.6355)">
            <path d="M41.647,126.607C41.647,160.236 61.189,189.302 89.533,203.071L49.004,92.029C44.29,102.595 41.647,114.289 41.647,126.607" style="fill:white;fill-rule:nonzero;"/>
            <path d="M183.965,122.322C183.965,111.818 180.192,104.549 176.96,98.89C172.654,91.888 168.614,85.965 168.614,78.963C168.614,71.154 174.536,63.884 182.882,63.884C183.259,63.884 183.616,63.929 183.983,63.952C168.867,50.102 148.728,41.645 126.609,41.645C96.925,41.645 70.813,56.876 55.621,79.94C57.616,80.004 59.495,80.043 61.089,80.043C69.974,80.043 83.733,78.963 83.733,78.963C88.311,78.695 88.852,85.423 84.277,85.965C84.277,85.965 79.672,86.503 74.553,86.772L105.491,178.804L124.087,123.041L110.851,86.772C106.273,86.503 101.939,85.965 101.939,85.965C97.36,85.694 97.897,78.695 102.478,78.963C102.478,78.963 116.507,80.043 124.855,80.043C133.738,80.043 147.5,78.963 147.5,78.963C152.08,78.695 152.62,85.423 148.042,85.965C148.042,85.965 143.433,86.503 138.319,86.772L169.024,178.103L177.5,149.788C181.168,138.031 183.965,129.593 183.965,122.322" style="fill:white;fill-rule:nonzero;"/>
            <path d="M128.101,134.039L102.606,208.113C110.22,210.352 118.27,211.575 126.609,211.575C136.503,211.575 145.993,209.867 154.824,206.759C154.598,206.394 154.387,206.008 154.215,205.588L128.101,134.039Z" style="fill:white;fill-rule:nonzero;"/>
            <path d="M201.164,85.847C201.529,88.553 201.735,91.456 201.735,94.584C201.735,103.202 200.121,112.894 195.274,125.015L169.324,200.045C194.583,185.318 211.57,157.952 211.57,126.607C211.57,111.835 207.796,97.948 201.164,85.847" style="fill:white;fill-rule:nonzero;"/>
            <path d="M126.609,221.11C74.503,221.11 32.11,178.714 32.11,126.607C32.11,74.501 74.503,32.11 126.609,32.11C178.715,32.11 221.109,74.501 221.109,126.607C221.109,178.714 178.715,221.11 126.609,221.11M126.609,27.568C71.997,27.568 27.568,71.996 27.568,126.607C27.568,181.221 71.997,225.651 126.609,225.651C181.221,225.651 225.652,181.221 225.652,126.607C225.652,71.996 181.221,27.568 126.609,27.568" style="fill:white;fill-rule:nonzero;"/>
        </g>
    </g>
</svg>
