<?xml version="1.0" encoding="UTF-8" standalone="no"?>
<svg width="238px" height="42px" viewBox="0 0 238 42" version="1.1" xmlns="http://www.w3.org/2000/svg" xmlns:xlink="http://www.w3.org/1999/xlink" xmlns:sketch="http://www.bohemiancoding.com/sketch/ns">
    <!-- Generator: Sketch 3.3.2 (12043) - http://www.bohemiancoding.com/sketch -->
    <title>soon-product-page@2x</title>
    <desc>Created with Sketch.</desc>
    <defs></defs>
    <g id="Page-1" stroke="none" stroke-width="1" fill="none" fill-rule="evenodd" sketch:type="MSPage">
        <g id="Premium-Support-+-assistant-Copy" sketch:type="MSLayerGroup">
            <g id="assistant" sketch:type="MSShapeGroup">
                <g id="Group" transform="translate(0.000000, 20.000000)" fill="#FFA726">
                    <circle id="Oval" cx="4" cy="4" r="4"></circle>
                    <circle id="Oval" cx="32" cy="4" r="4"></circle>
                </g>
                <path d="M33,17 C33,4.3 3,8.7 3,17 L3,27 C3,35.3 9.7,42 18,42 C26.3,42 33,35.3 33,27 L33,17 L33,17 Z" id="Shape" fill="#FFB74D"></path>
                <path d="M18,1 C8.6,1 1,8.6 1,18 L1,21.4 L3,23 L3,20 L24,10.2 L33,20 L33,23 L35,21.4 L35,18 C35,10 29.3,1 18,1 L18,1 Z" id="Shape" fill="#FF5722"></path>
                <g id="Group" transform="translate(9.000000, 22.000000)" fill="#784719">
                    <circle id="Oval" cx="16" cy="2" r="2"></circle>
                    <circle id="Oval" cx="2" cy="2" r="2"></circle>
                </g>
                <path d="M37,22 C36.4,22 36,22.4 36,23 L36,16 C36,7.2 28.8,0 20,0 L13,0 C12.4,0 12,0.4 12,1 C12,1.6 12.4,2 13,2 L20,2 C27.7,2 34,8.3 34,16 L34,26 C34,26.6 34.4,27 35,27 C35.6,27 36,26.6 36,26 L36,28 C36,31.9 32.9,35 29,35 L18,35 C17.4,35 17,35.4 17,36 C17,36.6 17.4,37 18,37 L29,37 C34,37 38,33 38,28 L38,23 C38,22.4 37.6,22 37,22 L37,22 Z" id="Shape" fill="#757575"></path>
                <g id="Group" transform="translate(16.000000, 20.000000)" fill="#37474F">
                    <path d="M21,0 L20,0 C18.9,0 18,0.9 18,2 L18,6 C18,7.1 18.9,8 20,8 L21,8 C22.1,8 23,7.1 23,6 L23,2 C23,0.9 22.1,0 21,0 L21,0 Z" id="Shape"></path>
                    <circle id="Oval" cx="2" cy="16" r="2"></circle>
                </g>
            </g>
            <path d="M58.36,21.264 L58.36,14.256 L63.976,14.256 C65.1120057,14.256 66.0319965,14.5439971 66.736,15.12 C67.4400035,15.6960029 67.792,16.5759941 67.792,17.76 C67.792,18.9440059 67.4400035,19.8239971 66.736,20.4 C66.0319965,20.9760029 65.1120057,21.264 63.976,21.264 L58.36,21.264 Z M56.728,12.864 L56.728,30 L58.36,30 L58.36,22.656 L64.336,22.656 C65.1040038,22.656 65.7999969,22.5480011 66.424,22.332 C67.0480031,22.1159989 67.5839978,21.7960021 68.032,21.372 C68.4800022,20.9479979 68.8239988,20.432003 69.064,19.824 C69.3040012,19.215997 69.424,18.5280038 69.424,17.76 C69.424,16.9919962 69.3040012,16.304003 69.064,15.696 C68.8239988,15.087997 68.4800022,14.5720021 68.032,14.148 C67.5839978,13.7239979 67.0480031,13.4040011 66.424,13.188 C65.7999969,12.9719989 65.1040038,12.864 64.336,12.864 L56.728,12.864 Z M71.56,17.616 L71.56,30 L73.072,30 L73.072,23.4 C73.072,22.7439967 73.1839989,22.1400028 73.408,21.588 C73.6320011,21.0359972 73.947998,20.560002 74.356,20.16 C74.764002,19.759998 75.2479972,19.4520011 75.808,19.236 C76.3680028,19.0199989 76.9919966,18.9279998 77.68,18.96 L77.68,17.448 C76.5599944,17.3999998 75.596004,17.6479973 74.788,18.192 C73.979996,18.7360027 73.3840019,19.511995 73,20.52 L72.952,20.52 L72.952,17.616 L71.56,17.616 Z M87.592,22.944 L79.576,22.944 C79.6400003,22.3839972 79.771999,21.8360027 79.972,21.3 C80.172001,20.7639973 80.4399983,20.292002 80.776,19.884 C81.1120017,19.475998 81.5199976,19.1480012 82,18.9 C82.4800024,18.6519988 83.0319969,18.528 83.656,18.528 C84.264003,18.528 84.8079976,18.6519988 85.288,18.9 C85.7680024,19.1480012 86.1759983,19.475998 86.512,19.884 C86.8480017,20.292002 87.1079991,20.7599974 87.292,21.288 C87.4760009,21.8160026 87.5759999,22.3679971 87.592,22.944 L87.592,22.944 Z M79.576,24.216 L89.104,24.216 C89.1360002,23.3519957 89.056001,22.5000042 88.864,21.66 C88.671999,20.8199958 88.3560022,20.0760032 87.916,19.428 C87.4759978,18.7799968 86.9040035,18.256002 86.2,17.856 C85.4959965,17.455998 84.648005,17.256 83.656,17.256 C82.6799951,17.256 81.8360036,17.4439981 81.124,17.82 C80.4119964,18.1960019 79.8320022,18.6919969 79.384,19.308 C78.9359978,19.9240031 78.6040011,20.6239961 78.388,21.408 C78.1719989,22.1920039 78.064,22.9919959 78.064,23.808 C78.064,24.6880044 78.1719989,25.523996 78.388,26.316 C78.6040011,27.108004 78.9359978,27.803997 79.384,28.404 C79.8320022,29.004003 80.4119964,29.4759983 81.124,29.82 C81.8360036,30.1640017 82.6799951,30.336 83.656,30.336 C85.2240078,30.336 86.4359957,29.9520038 87.292,29.184 C88.1480043,28.4159962 88.7359984,27.328007 89.056,25.92 L87.544,25.92 C87.3039988,26.8800048 86.8720031,27.6479971 86.248,28.224 C85.6239969,28.8000029 84.7600055,29.088 83.656,29.088 C82.9359964,29.088 82.3200026,28.9360015 81.808,28.632 C81.2959974,28.3279985 80.8720017,27.9440023 80.536,27.48 C80.1999983,27.0159977 79.9560008,26.4920029 79.804,25.908 C79.6519992,25.3239971 79.576,24.7600027 79.576,24.216 L79.576,24.216 Z M91.144,17.616 L91.144,30 L92.656,30 L92.656,23.088 C92.656,22.4319967 92.7279993,21.8280028 92.872,21.276 C93.0160007,20.7239972 93.2359985,20.244002 93.532,19.836 C93.8280015,19.427998 94.2119976,19.1080012 94.684,18.876 C95.1560024,18.6439988 95.7119968,18.528 96.352,18.528 C96.8320024,18.528 97.2399983,18.6079992 97.576,18.768 C97.9120017,18.9280008 98.179999,19.1479986 98.38,19.428 C98.580001,19.7080014 98.7239996,20.0359981 98.812,20.412 C98.9000004,20.7880019 98.944,21.1839979 98.944,21.6 L98.944,30 L100.456,30 L100.456,22.992 C100.456,22.4159971 100.507999,21.8600027 100.612,21.324 C100.716001,20.7879973 100.895999,20.3120021 101.152,19.896 C101.408001,19.4799979 101.751998,19.1480012 102.184,18.9 C102.616002,18.6519988 103.159997,18.528 103.816,18.528 C104.904005,18.528 105.663998,18.7959973 106.096,19.332 C106.528002,19.8680027 106.744,20.6479949 106.744,21.672 L106.744,30 L108.256,30 L108.256,21.6 C108.256,18.7039855 106.888014,17.256 104.152,17.256 C103.335996,17.256 102.568004,17.455998 101.848,17.856 C101.127996,18.256002 100.584002,18.8639959 100.216,19.68 C99.9919989,18.8639959 99.5480033,18.256002 98.884,17.856 C98.2199967,17.455998 97.4800041,17.256 96.664,17.256 C95.655995,17.256 94.8280032,17.4719978 94.18,17.904 C93.5319968,18.3360022 93.008002,18.9359962 92.608,19.704 L92.536,19.704 L92.536,17.616 L91.144,17.616 Z M111.16,12.864 L111.16,15.288 L112.672,15.288 L112.672,12.864 L111.16,12.864 Z M111.16,17.616 L111.16,30 L112.672,30 L112.672,17.616 L111.16,17.616 Z M125.608,30 L125.608,17.616 L124.096,17.616 L124.096,24.12 C124.096,24.7440031 124.024001,25.355997 123.88,25.956 C123.735999,26.556003 123.512002,27.0879977 123.208,27.552 C122.903998,28.0160023 122.520002,28.3879986 122.056,28.668 C121.591998,28.9480014 121.032003,29.088 120.376,29.088 C119.175994,29.088 118.332002,28.8000029 117.844,28.224 C117.355998,27.6479971 117.096,26.8000056 117.064,25.68 L117.064,17.616 L115.552,17.616 L115.552,25.656 C115.552,26.3920037 115.631999,27.0479971 115.792,27.624 C115.952001,28.2000029 116.203998,28.687998 116.548,29.088 C116.892002,29.488002 117.339997,29.7959989 117.892,30.012 C118.444003,30.2280011 119.111996,30.336 119.896,30.336 C120.824005,30.336 121.667996,30.1160022 122.428,29.676 C123.188004,29.2359978 123.767998,28.6000042 124.168,27.768 L124.216,27.768 L124.216,30 L125.608,30 Z M128.464,17.616 L128.464,30 L129.976,30 L129.976,23.088 C129.976,22.4319967 130.047999,21.8280028 130.192,21.276 C130.336001,20.7239972 130.555999,20.244002 130.852,19.836 C131.148001,19.427998 131.531998,19.1080012 132.004,18.876 C132.476002,18.6439988 133.031997,18.528 133.672,18.528 C134.152002,18.528 134.559998,18.6079992 134.896,18.768 C135.232002,18.9280008 135.499999,19.1479986 135.7,19.428 C135.900001,19.7080014 136.044,20.0359981 136.132,20.412 C136.22,20.7880019 136.264,21.1839979 136.264,21.6 L136.264,30 L137.776,30 L137.776,22.992 C137.776,22.4159971 137.827999,21.8600027 137.932,21.324 C138.036001,20.7879973 138.215999,20.3120021 138.472,19.896 C138.728001,19.4799979 139.071998,19.1480012 139.504,18.9 C139.936002,18.6519988 140.479997,18.528 141.136,18.528 C142.224005,18.528 142.983998,18.7959973 143.416,19.332 C143.848002,19.8680027 144.064,20.6479949 144.064,21.672 L144.064,30 L145.576,30 L145.576,21.6 C145.576,18.7039855 144.208014,17.256 141.472,17.256 C140.655996,17.256 139.888004,17.455998 139.168,17.856 C138.447996,18.256002 137.904002,18.8639959 137.536,19.68 C137.311999,18.8639959 136.868003,18.256002 136.204,17.856 C135.539997,17.455998 134.800004,17.256 133.984,17.256 C132.975995,17.256 132.148003,17.4719978 131.5,17.904 C130.851997,18.3360022 130.328002,18.9359962 129.928,19.704 L129.856,19.704 L129.856,17.616 L128.464,17.616 Z M156.184,24.36 L154.552,24.36 C154.504,25.4160053 154.643998,26.3199962 154.972,27.072 C155.300002,27.8240038 155.767997,28.4399976 156.376,28.92 C156.984003,29.4000024 157.719996,29.7559988 158.584,29.988 C159.448004,30.2200012 160.383995,30.336 161.392,30.336 C162.400005,30.336 163.263996,30.2440009 163.984,30.06 C164.704004,29.8759991 165.307998,29.6360015 165.796,29.34 C166.284002,29.0439985 166.667999,28.7120018 166.948,28.344 C167.228001,27.9759982 167.443999,27.6120018 167.596,27.252 C167.748001,26.8919982 167.844,26.5520016 167.884,26.232 C167.924,25.9119984 167.944,25.656001 167.944,25.464 C167.944,24.7599965 167.828001,24.1600025 167.596,23.664 C167.363999,23.1679975 167.044002,22.7480017 166.636,22.404 C166.227998,22.0599983 165.756003,21.7720012 165.22,21.54 C164.683997,21.3079988 164.112003,21.1120008 163.504,20.952 L159.328,19.92 C158.975998,19.8399996 158.644002,19.7360006 158.332,19.608 C158.019998,19.4799994 157.744001,19.312001 157.504,19.104 C157.263999,18.895999 157.076001,18.6440015 156.94,18.348 C156.803999,18.0519985 156.736,17.704002 156.736,17.304 C156.736,16.6639968 156.855999,16.1280022 157.096,15.696 C157.336001,15.2639978 157.651998,14.9160013 158.044,14.652 C158.436002,14.3879987 158.891997,14.1960006 159.412,14.076 C159.932003,13.9559994 160.471997,13.896 161.032,13.896 C161.640003,13.896 162.219997,13.9799992 162.772,14.148 C163.324003,14.3160008 163.811998,14.5639984 164.236,14.892 C164.660002,15.2200016 165.003999,15.6279976 165.268,16.116 C165.532001,16.6040024 165.68,17.1759967 165.712,17.832 L167.344,17.832 C167.344,16.9519956 167.172002,16.1800033 166.828,15.516 C166.483998,14.8519967 166.024003,14.2960022 165.448,13.848 C164.871997,13.3999978 164.200004,13.0640011 163.432,12.84 C162.663996,12.6159989 161.856004,12.504 161.008,12.504 C159.807994,12.504 158.824004,12.6759983 158.056,13.02 C157.287996,13.3640017 156.684002,13.7839975 156.244,14.28 C155.803998,14.7760025 155.504001,15.3039972 155.344,15.864 C155.183999,16.4240028 155.104,16.9119979 155.104,17.328 C155.104,18.0000034 155.211999,18.5679977 155.428,19.032 C155.644001,19.4960023 155.927998,19.8879984 156.28,20.208 C156.632002,20.5280016 157.043998,20.783999 157.516,20.976 C157.988002,21.168001 158.471998,21.3279994 158.968,21.456 L162.784,22.392 C163.184002,22.4880005 163.591998,22.6119992 164.008,22.764 C164.424002,22.9160008 164.803998,23.1119988 165.148,23.352 C165.492002,23.5920012 165.771999,23.8879982 165.988,24.24 C166.204001,24.5920018 166.312,25.0079976 166.312,25.488 C166.312,26.1120031 166.160002,26.6439978 165.856,27.084 C165.551998,27.5240022 165.172002,27.8839986 164.716,28.164 C164.259998,28.4440014 163.768003,28.6479994 163.24,28.776 C162.711997,28.9040006 162.224002,28.968 161.776,28.968 C160.991996,28.968 160.256003,28.8920008 159.568,28.74 C158.879997,28.5879992 158.284003,28.3360018 157.78,27.984 C157.275997,27.6319982 156.880001,27.160003 156.592,26.568 C156.303999,25.975997 156.168,25.2400044 156.184,24.36 L156.184,24.36 Z M180.28,30 L180.28,17.616 L178.768,17.616 L178.768,24.12 C178.768,24.7440031 178.696001,25.355997 178.552,25.956 C178.407999,26.556003 178.184002,27.0879977 177.88,27.552 C177.575998,28.0160023 177.192002,28.3879986 176.728,28.668 C176.263998,28.9480014 175.704003,29.088 175.048,29.088 C173.847994,29.088 173.004002,28.8000029 172.516,28.224 C172.027998,27.6479971 171.768,26.8000056 171.736,25.68 L171.736,17.616 L170.224,17.616 L170.224,25.656 C170.224,26.3920037 170.303999,27.0479971 170.464,27.624 C170.624001,28.2000029 170.875998,28.687998 171.22,29.088 C171.564002,29.488002 172.011997,29.7959989 172.564,30.012 C173.116003,30.2280011 173.783996,30.336 174.568,30.336 C175.496005,30.336 176.339996,30.1160022 177.1,29.676 C177.860004,29.2359978 178.439998,28.6000042 178.84,27.768 L178.888,27.768 L178.888,30 L180.28,30 Z M183.136,17.616 L183.136,34.56 L184.648,34.56 L184.648,27.648 L184.696,27.648 C184.856001,28.0960022 185.083999,28.4879983 185.38,28.824 C185.676001,29.1600017 186.015998,29.4399989 186.4,29.664 C186.784002,29.8880011 187.199998,30.0559994 187.648,30.168 C188.096002,30.2800006 188.543998,30.336 188.992,30.336 C189.936005,30.336 190.755997,30.1640017 191.452,29.82 C192.148003,29.4759983 192.727998,29.004003 193.192,28.404 C193.656002,27.803997 193.999999,27.108004 194.224,26.316 C194.448001,25.523996 194.56,24.6880044 194.56,23.808 C194.56,22.9279956 194.448001,22.092004 194.224,21.3 C193.999999,20.507996 193.656002,19.812003 193.192,19.212 C192.727998,18.611997 192.148003,18.1360018 191.452,17.784 C190.755997,17.4319982 189.936005,17.256 188.992,17.256 C187.983995,17.256 187.084004,17.4919976 186.292,17.964 C185.499996,18.4360024 184.928002,19.1039957 184.576,19.968 L184.528,19.968 L184.528,17.616 L183.136,17.616 Z M193.048,23.808 C193.048,24.4480032 192.972001,25.0839968 192.82,25.716 C192.667999,26.3480032 192.428002,26.9119975 192.1,27.408 C191.771998,27.9040025 191.352003,28.3079984 190.84,28.62 C190.327997,28.9320016 189.712004,29.088 188.992,29.088 C188.191996,29.088 187.516003,28.9320016 186.964,28.62 C186.411997,28.3079984 185.964002,27.9040025 185.62,27.408 C185.275998,26.9119975 185.028001,26.3480032 184.876,25.716 C184.723999,25.0839968 184.648,24.4480032 184.648,23.808 C184.648,23.1039965 184.715999,22.4320032 184.852,21.792 C184.988001,21.1519968 185.223998,20.5920024 185.56,20.112 C185.896002,19.6319976 186.343997,19.2480014 186.904,18.96 C187.464003,18.6719986 188.159996,18.528 188.992,18.528 C189.712004,18.528 190.327997,18.6839984 190.84,18.996 C191.352003,19.3080016 191.771998,19.7119975 192.1,20.208 C192.428002,20.7040025 192.667999,21.2679968 192.82,21.9 C192.972001,22.5320032 193.048,23.1679968 193.048,23.808 L193.048,23.808 Z M196.912,17.616 L196.912,34.56 L198.424,34.56 L198.424,27.648 L198.472,27.648 C198.632001,28.0960022 198.859999,28.4879983 199.156,28.824 C199.452001,29.1600017 199.791998,29.4399989 200.176,29.664 C200.560002,29.8880011 200.975998,30.0559994 201.424,30.168 C201.872002,30.2800006 202.319998,30.336 202.768,30.336 C203.712005,30.336 204.531997,30.1640017 205.228,29.82 C205.924003,29.4759983 206.503998,29.004003 206.968,28.404 C207.432002,27.803997 207.775999,27.108004 208,26.316 C208.224001,25.523996 208.336,24.6880044 208.336,23.808 C208.336,22.9279956 208.224001,22.092004 208,21.3 C207.775999,20.507996 207.432002,19.812003 206.968,19.212 C206.503998,18.611997 205.924003,18.1360018 205.228,17.784 C204.531997,17.4319982 203.712005,17.256 202.768,17.256 C201.759995,17.256 200.860004,17.4919976 200.068,17.964 C199.275996,18.4360024 198.704002,19.1039957 198.352,19.968 L198.304,19.968 L198.304,17.616 L196.912,17.616 Z M206.824,23.808 C206.824,24.4480032 206.748001,25.0839968 206.596,25.716 C206.443999,26.3480032 206.204002,26.9119975 205.876,27.408 C205.547998,27.9040025 205.128003,28.3079984 204.616,28.62 C204.103997,28.9320016 203.488004,29.088 202.768,29.088 C201.967996,29.088 201.292003,28.9320016 200.74,28.62 C200.187997,28.3079984 199.740002,27.9040025 199.396,27.408 C199.051998,26.9119975 198.804001,26.3480032 198.652,25.716 C198.499999,25.0839968 198.424,24.4480032 198.424,23.808 C198.424,23.1039965 198.491999,22.4320032 198.628,21.792 C198.764001,21.1519968 198.999998,20.5920024 199.336,20.112 C199.672002,19.6319976 200.119997,19.2480014 200.68,18.96 C201.240003,18.6719986 201.935996,18.528 202.768,18.528 C203.488004,18.528 204.103997,18.6839984 204.616,18.996 C205.128003,19.3080016 205.547998,19.7119975 205.876,20.208 C206.204002,20.7040025 206.443999,21.2679968 206.596,21.9 C206.748001,22.5320032 206.824,23.1679968 206.824,23.808 L206.824,23.808 Z M215.92,18.528 C216.640004,18.528 217.271997,18.6799985 217.816,18.984 C218.360003,19.2880015 218.811998,19.6879975 219.172,20.184 C219.532002,20.6800025 219.803999,21.2439968 219.988,21.876 C220.172001,22.5080032 220.264,23.1519967 220.264,23.808 C220.264,24.4640033 220.172001,25.1079968 219.988,25.74 C219.803999,26.3720032 219.532002,26.9359975 219.172,27.432 C218.811998,27.9280025 218.360003,28.3279985 217.816,28.632 C217.271997,28.9360015 216.640004,29.088 215.92,29.088 C215.199996,29.088 214.568003,28.9360015 214.024,28.632 C213.479997,28.3279985 213.028002,27.9280025 212.668,27.432 C212.307998,26.9359975 212.036001,26.3720032 211.852,25.74 C211.667999,25.1079968 211.576,24.4640033 211.576,23.808 C211.576,23.1519967 211.667999,22.5080032 211.852,21.876 C212.036001,21.2439968 212.307998,20.6800025 212.668,20.184 C213.028002,19.6879975 213.479997,19.2880015 214.024,18.984 C214.568003,18.6799985 215.199996,18.528 215.92,18.528 L215.92,18.528 Z M215.92,17.256 C214.975995,17.256 214.140004,17.4319982 213.412,17.784 C212.683996,18.1360018 212.072002,18.607997 211.576,19.2 C211.079998,19.792003 210.704001,20.483996 210.448,21.276 C210.191999,22.068004 210.064,22.9119955 210.064,23.808 C210.064,24.7040045 210.191999,25.547996 210.448,26.34 C210.704001,27.132004 211.079998,27.823997 211.576,28.416 C212.072002,29.008003 212.683996,29.4759983 213.412,29.82 C214.140004,30.1640017 214.975995,30.336 215.92,30.336 C216.864005,30.336 217.699996,30.1640017 218.428,29.82 C219.156004,29.4759983 219.767998,29.008003 220.264,28.416 C220.760002,27.823997 221.135999,27.132004 221.392,26.34 C221.648001,25.547996 221.776,24.7040045 221.776,23.808 C221.776,22.9119955 221.648001,22.068004 221.392,21.276 C221.135999,20.483996 220.760002,19.792003 220.264,19.2 C219.767998,18.607997 219.156004,18.1360018 218.428,17.784 C217.699996,17.4319982 216.864005,17.256 215.92,17.256 L215.92,17.256 Z M224.032,17.616 L224.032,30 L225.544,30 L225.544,23.4 C225.544,22.7439967 225.655999,22.1400028 225.88,21.588 C226.104001,21.0359972 226.419998,20.560002 226.828,20.16 C227.236002,19.759998 227.719997,19.4520011 228.28,19.236 C228.840003,19.0199989 229.463997,18.9279998 230.152,18.96 L230.152,17.448 C229.031994,17.3999998 228.068004,17.6479973 227.26,18.192 C226.451996,18.7360027 225.856002,19.511995 225.472,20.52 L225.424,20.52 L225.424,17.616 L224.032,17.616 Z M233.992,17.616 L233.992,13.896 L232.48,13.896 L232.48,17.616 L230.32,17.616 L230.32,18.888 L232.48,18.888 L232.48,27.36 C232.464,28.4160053 232.655998,29.139998 233.056,29.532 C233.456002,29.924002 234.159995,30.12 235.168,30.12 C235.392001,30.12 235.615999,30.1120001 235.84,30.096 C236.064001,30.0799999 236.287999,30.072 236.512,30.072 L236.512,28.8 C236.079998,28.8480002 235.648002,28.872 235.216,28.872 C234.671997,28.8399998 234.332001,28.6840014 234.196,28.404 C234.059999,28.1239986 233.992,27.7360025 233.992,27.24 L233.992,18.888 L236.512,18.888 L236.512,17.616 L233.992,17.616 Z" id="Premium-Support" fill="#4A4A4A" sketch:type="MSShapeGroup"></path>
        </g>
    </g>
</svg>