<?xml version="1.0" encoding="UTF-8" standalone="no"?>
<svg width="226px" height="65px" viewBox="0 0 226 65" version="1.1" xmlns="http://www.w3.org/2000/svg" xmlns:xlink="http://www.w3.org/1999/xlink" xmlns:sketch="http://www.bohemiancoding.com/sketch/ns">
    <!-- Generator: Sketch 3.3.2 (12043) - http://www.bohemiancoding.com/sketch -->
    <title>soon-header-duration-modes</title>
    <desc>Created with Sketch.</desc>
    <defs></defs>
    <g id="Page-1" stroke="none" stroke-width="1" fill="none" fill-rule="evenodd" sketch:type="MSPage">
        <g id="soon-header-duration-modes" sketch:type="MSLayerGroup" transform="translate(4.000000, 24.000000)">
            <g id="overtime" sketch:type="MSShapeGroup">
                <path d="M8,37 L8,17 L40,17 L40,37 C40,39.2 38.2,41 36,41 L12,41 C9.8,41 8,39.2 8,37 L8,37 Z" id="Shape" fill="#CFD8DC"></path>
                <path d="M40,13 L40,19 L8,19 L8,13 C8,10.8 9.8,9 12,9 L36,9 C38.2,9 40,10.8 40,13 L40,13 Z" id="Shape" fill="#78909C"></path>
                <g id="Group" transform="translate(13.000000, 10.000000)" fill="#37474F">
                    <circle id="Oval" cx="20" cy="3" r="3"></circle>
                    <circle id="Oval" cx="3" cy="3" r="3"></circle>
                </g>
                <g id="Group" transform="translate(14.000000, 7.000000)" fill="#B0BEC5">
                    <path d="M19,0 C17.9,0 17,0.9 17,2 L17,6 C17,7.1 17.9,8 19,8 C20.1,8 21,7.1 21,6 L21,2 C21,0.9 20.1,0 19,0 L19,0 Z" id="Shape"></path>
                    <path d="M2,0 C0.9,0 0,0.9 0,2 L0,6 C0,7.1 0.9,8 2,8 C3.1,8 4,7.1 4,6 L4,2 C4,0.9 3.1,0 2,0 L2,0 Z" id="Shape"></path>
                </g>
                <rect id="Rectangle-path" fill="#90A4AE" x="28" y="31" width="4" height="4"></rect>
                <rect id="Rectangle-path" fill="#90A4AE" x="22" y="31" width="4" height="4"></rect>
                <rect id="Rectangle-path" fill="#90A4AE" x="16" y="31" width="4" height="4"></rect>
                <rect id="Rectangle-path" fill="#90A4AE" x="28" y="25" width="4" height="4"></rect>
                <rect id="Rectangle-path" fill="#90A4AE" x="22" y="25" width="4" height="4"></rect>
                <rect id="Rectangle-path" fill="#90A4AE" x="16" y="25" width="4" height="4"></rect>
                <circle id="Oval" fill="#F44336" cx="12" cy="12" r="12"></circle>
                <circle id="Oval" fill="#F8F8F8" cx="12" cy="12" r="9"></circle>
                <rect id="Rectangle-path" fill="#000000" x="11" y="5" width="2" height="7"></rect>
                <rect id="Rectangle-path" fill="#000000" transform="translate(13.937750, 13.863650) rotate(135.000000) translate(-13.937750, -13.863650) " x="12.9878935" y="11.1640577" width="1.89971308" height="5.39918454"></rect>
                <circle id="Oval" fill="#000000" cx="12" cy="12" r="1.5"></circle>
            </g>
            <path d="M59.728,15.864 L59.728,33 L65.656,33 C68.264013,32.9359997 70.2279934,32.204007 71.548,30.804 C72.8680066,29.403993 73.528,27.2800142 73.528,24.432 C73.528,21.5839858 72.8680066,19.460007 71.548,18.06 C70.2279934,16.659993 68.264013,15.9280003 65.656,15.864 L59.728,15.864 Z M61.36,31.608 L61.36,17.256 L64.84,17.256 C66.0720062,17.256 67.1319956,17.3879987 68.02,17.652 C68.9080044,17.9160013 69.6399971,18.3359971 70.216,18.912 C70.7920029,19.4880029 71.2159986,20.2319954 71.488,21.144 C71.7600014,22.0560046 71.896,23.1519936 71.896,24.432 C71.896,25.7120064 71.7600014,26.8079954 71.488,27.72 C71.2159986,28.6320046 70.7920029,29.3759971 70.216,29.952 C69.6399971,30.5280029 68.9080044,30.9479987 68.02,31.212 C67.1319956,31.4760013 66.0720062,31.608 64.84,31.608 L61.36,31.608 Z M85.912,33 L85.912,20.616 L84.4,20.616 L84.4,27.12 C84.4,27.7440031 84.3280007,28.355997 84.184,28.956 C84.0399993,29.556003 83.8160015,30.0879977 83.512,30.552 C83.2079985,31.0160023 82.8240023,31.3879986 82.36,31.668 C81.8959977,31.9480014 81.3360033,32.088 80.68,32.088 C79.479994,32.088 78.6360024,31.8000029 78.148,31.224 C77.6599976,30.6479971 77.4000002,29.8000056 77.368,28.68 L77.368,20.616 L75.856,20.616 L75.856,28.656 C75.856,29.3920037 75.9359992,30.0479971 76.096,30.624 C76.2560008,31.2000029 76.5079983,31.687998 76.852,32.088 C77.1960017,32.488002 77.6439972,32.7959989 78.196,33.012 C78.7480028,33.2280011 79.4159961,33.336 80.2,33.336 C81.1280046,33.336 81.9719962,33.1160022 82.732,32.676 C83.4920038,32.2359978 84.071998,31.6000042 84.472,30.768 L84.52,30.768 L84.52,33 L85.912,33 Z M88.768,20.616 L88.768,33 L90.28,33 L90.28,26.4 C90.28,25.7439967 90.3919989,25.1400028 90.616,24.588 C90.8400011,24.0359972 91.155998,23.560002 91.564,23.16 C91.972002,22.759998 92.4559972,22.4520011 93.016,22.236 C93.5760028,22.0199989 94.1999966,21.9279998 94.888,21.96 L94.888,20.448 C93.7679944,20.3999998 92.804004,20.6479973 91.996,21.192 C91.187996,21.7360027 90.5920019,22.511995 90.208,23.52 L90.16,23.52 L90.16,20.616 L88.768,20.616 Z M96.184,24.408 L97.696,24.408 C97.7280002,23.399995 98.047997,22.6680023 98.656,22.212 C99.264003,21.7559977 100.047995,21.528 101.008,21.528 C101.456002,21.528 101.875998,21.5639996 102.268,21.636 C102.660002,21.7080004 103.003999,21.839999 103.3,22.032 C103.596001,22.224001 103.827999,22.4839984 103.996,22.812 C104.164001,23.1400016 104.248,23.5599974 104.248,24.072 C104.248,24.4080017 104.204,24.679999 104.116,24.888 C104.028,25.096001 103.904001,25.2599994 103.744,25.38 C103.583999,25.5000006 103.384001,25.5839998 103.144,25.632 C102.903999,25.6800002 102.624002,25.7199998 102.304,25.752 C101.487996,25.8480005 100.684004,25.9479995 99.892,26.052 C99.099996,26.1560005 98.3880032,26.3359987 97.756,26.592 C97.1239968,26.8480013 96.6160019,27.2199976 96.232,27.708 C95.8479981,28.1960024 95.656,28.8719957 95.656,29.736 C95.656,30.3600031 95.7639989,30.8999977 95.98,31.356 C96.1960011,31.8120023 96.4919981,32.1879985 96.868,32.484 C97.2440019,32.7800015 97.6839975,32.9959993 98.188,33.132 C98.6920025,33.2680007 99.2319971,33.336 99.808,33.336 C100.416003,33.336 100.939998,33.2800006 101.38,33.168 C101.820002,33.0559994 102.211998,32.896001 102.556,32.688 C102.900002,32.479999 103.211999,32.2200016 103.492,31.908 C103.772001,31.5959984 104.047999,31.240002 104.32,30.84 L104.368,30.84 C104.368,31.1600016 104.388,31.4519987 104.428,31.716 C104.468,31.9800013 104.551999,32.207999 104.68,32.4 C104.808001,32.592001 104.987999,32.7399995 105.22,32.844 C105.452001,32.9480005 105.759998,33 106.144,33 C106.352001,33 106.523999,32.9920001 106.66,32.976 C106.796001,32.9599999 106.951999,32.9360002 107.128,32.904 L107.128,31.632 C106.983999,31.6960003 106.824001,31.728 106.648,31.728 C106.055997,31.728 105.76,31.424003 105.76,30.816 L105.76,24.24 C105.76,23.4079958 105.624001,22.7320026 105.352,22.212 C105.079999,21.6919974 104.728002,21.2880014 104.296,21 C103.863998,20.7119986 103.376003,20.5160005 102.832,20.412 C102.287997,20.3079995 101.744003,20.256 101.2,20.256 C100.479996,20.256 99.824003,20.3359992 99.232,20.496 C98.639997,20.6560008 98.1240022,20.9039983 97.684,21.24 C97.2439978,21.5760017 96.8960013,22.0079974 96.64,22.536 C96.3839987,23.0640026 96.2320002,23.6879964 96.184,24.408 L96.184,24.408 Z M104.248,26.232 L104.248,28.2 C104.248,28.808003 104.132001,29.3519976 103.9,29.832 C103.667999,30.3120024 103.356002,30.7199983 102.964,31.056 C102.571998,31.3920017 102.112003,31.6479991 101.584,31.824 C101.055997,32.0000009 100.504003,32.088 99.928,32.088 C99.5759982,32.088 99.2320017,32.0320006 98.896,31.92 C98.5599983,31.8079994 98.2640013,31.6440011 98.008,31.428 C97.7519987,31.2119989 97.5480008,30.9560015 97.396,30.66 C97.2439992,30.3639985 97.168,30.0240019 97.168,29.64 C97.168,29.031997 97.3479982,28.5640016 97.708,28.236 C98.0680018,27.9079984 98.5279972,27.6560009 99.088,27.48 C99.6480028,27.3039991 100.267997,27.1720004 100.948,27.084 C101.628003,26.9959996 102.287997,26.8960006 102.928,26.784 C103.136001,26.7519998 103.375999,26.6960004 103.648,26.616 C103.920001,26.5359996 104.104,26.4080009 104.2,26.232 L104.248,26.232 Z M111.184,20.616 L111.184,16.896 L109.672,16.896 L109.672,20.616 L107.512,20.616 L107.512,21.888 L109.672,21.888 L109.672,30.36 C109.656,31.4160053 109.847998,32.139998 110.248,32.532 C110.648002,32.924002 111.351995,33.12 112.36,33.12 C112.584001,33.12 112.807999,33.1120001 113.032,33.096 C113.256001,33.0799999 113.479999,33.072 113.704,33.072 L113.704,31.8 C113.271998,31.8480002 112.840002,31.872 112.408,31.872 C111.863997,31.8399998 111.524001,31.6840014 111.388,31.404 C111.251999,31.1239986 111.184,30.7360025 111.184,30.24 L111.184,21.888 L113.704,21.888 L113.704,20.616 L111.184,20.616 Z M115.912,15.864 L115.912,18.288 L117.424,18.288 L117.424,15.864 L115.912,15.864 Z M115.912,20.616 L115.912,33 L117.424,33 L117.424,20.616 L115.912,20.616 Z M125.56,21.528 C126.280004,21.528 126.911997,21.6799985 127.456,21.984 C128.000003,22.2880015 128.451998,22.6879975 128.812,23.184 C129.172002,23.6800025 129.443999,24.2439968 129.628,24.876 C129.812001,25.5080032 129.904,26.1519967 129.904,26.808 C129.904,27.4640033 129.812001,28.1079968 129.628,28.74 C129.443999,29.3720032 129.172002,29.9359975 128.812,30.432 C128.451998,30.9280025 128.000003,31.3279985 127.456,31.632 C126.911997,31.9360015 126.280004,32.088 125.56,32.088 C124.839996,32.088 124.208003,31.9360015 123.664,31.632 C123.119997,31.3279985 122.668002,30.9280025 122.308,30.432 C121.947998,29.9359975 121.676001,29.3720032 121.492,28.74 C121.307999,28.1079968 121.216,27.4640033 121.216,26.808 C121.216,26.1519967 121.307999,25.5080032 121.492,24.876 C121.676001,24.2439968 121.947998,23.6800025 122.308,23.184 C122.668002,22.6879975 123.119997,22.2880015 123.664,21.984 C124.208003,21.6799985 124.839996,21.528 125.56,21.528 L125.56,21.528 Z M125.56,20.256 C124.615995,20.256 123.780004,20.4319982 123.052,20.784 C122.323996,21.1360018 121.712002,21.607997 121.216,22.2 C120.719998,22.792003 120.344001,23.483996 120.088,24.276 C119.831999,25.068004 119.704,25.9119955 119.704,26.808 C119.704,27.7040045 119.831999,28.547996 120.088,29.34 C120.344001,30.132004 120.719998,30.823997 121.216,31.416 C121.712002,32.008003 122.323996,32.4759983 123.052,32.82 C123.780004,33.1640017 124.615995,33.336 125.56,33.336 C126.504005,33.336 127.339996,33.1640017 128.068,32.82 C128.796004,32.4759983 129.407998,32.008003 129.904,31.416 C130.400002,30.823997 130.775999,30.132004 131.032,29.34 C131.288001,28.547996 131.416,27.7040045 131.416,26.808 C131.416,25.9119955 131.288001,25.068004 131.032,24.276 C130.775999,23.483996 130.400002,22.792003 129.904,22.2 C129.407998,21.607997 128.796004,21.1360018 128.068,20.784 C127.339996,20.4319982 126.504005,20.256 125.56,20.256 L125.56,20.256 Z M133.648,20.616 L133.648,33 L135.16,33 L135.16,25.776 C135.176,25.167997 135.275999,24.6040026 135.46,24.084 C135.644001,23.5639974 135.899998,23.1160019 136.228,22.74 C136.556002,22.3639981 136.955998,22.0680011 137.428,21.852 C137.900002,21.6359989 138.439997,21.528 139.048,21.528 C139.656003,21.528 140.163998,21.623999 140.572,21.816 C140.980002,22.008001 141.303999,22.2719983 141.544,22.608 C141.784001,22.9440017 141.952,23.3399977 142.048,23.796 C142.144,24.2520023 142.192,24.7439974 142.192,25.272 L142.192,33 L143.704,33 L143.704,25.032 C143.704,24.2959963 143.632001,23.632003 143.488,23.04 C143.343999,22.447997 143.096002,21.948002 142.744,21.54 C142.391998,21.131998 141.924003,20.8160011 141.34,20.592 C140.755997,20.3679989 140.032004,20.256 139.168,20.256 C138.287996,20.256 137.480004,20.4839977 136.744,20.94 C136.007996,21.3960023 135.496001,21.9999962 135.208,22.752 L135.16,22.752 L135.16,20.616 L133.648,20.616 Z M155.872,15.864 L161.56,30.888 L167.464,15.864 L169.864,15.864 L169.864,33 L168.232,33 L168.232,18.192 L168.184,18.192 L162.328,33 L160.792,33 L155.152,18.192 L155.104,18.192 L155.104,33 L153.472,33 L153.472,15.864 L155.872,15.864 Z M178.168,21.528 C178.888004,21.528 179.519997,21.6799985 180.064,21.984 C180.608003,22.2880015 181.059998,22.6879975 181.42,23.184 C181.780002,23.6800025 182.051999,24.2439968 182.236,24.876 C182.420001,25.5080032 182.512,26.1519967 182.512,26.808 C182.512,27.4640033 182.420001,28.1079968 182.236,28.74 C182.051999,29.3720032 181.780002,29.9359975 181.42,30.432 C181.059998,30.9280025 180.608003,31.3279985 180.064,31.632 C179.519997,31.9360015 178.888004,32.088 178.168,32.088 C177.447996,32.088 176.816003,31.9360015 176.272,31.632 C175.727997,31.3279985 175.276002,30.9280025 174.916,30.432 C174.555998,29.9359975 174.284001,29.3720032 174.1,28.74 C173.915999,28.1079968 173.824,27.4640033 173.824,26.808 C173.824,26.1519967 173.915999,25.5080032 174.1,24.876 C174.284001,24.2439968 174.555998,23.6800025 174.916,23.184 C175.276002,22.6879975 175.727997,22.2880015 176.272,21.984 C176.816003,21.6799985 177.447996,21.528 178.168,21.528 L178.168,21.528 Z M178.168,20.256 C177.223995,20.256 176.388004,20.4319982 175.66,20.784 C174.931996,21.1360018 174.320002,21.607997 173.824,22.2 C173.327998,22.792003 172.952001,23.483996 172.696,24.276 C172.439999,25.068004 172.312,25.9119955 172.312,26.808 C172.312,27.7040045 172.439999,28.547996 172.696,29.34 C172.952001,30.132004 173.327998,30.823997 173.824,31.416 C174.320002,32.008003 174.931996,32.4759983 175.66,32.82 C176.388004,33.1640017 177.223995,33.336 178.168,33.336 C179.112005,33.336 179.947996,33.1640017 180.676,32.82 C181.404004,32.4759983 182.015998,32.008003 182.512,31.416 C183.008002,30.823997 183.383999,30.132004 183.64,29.34 C183.896001,28.547996 184.024,27.7040045 184.024,26.808 C184.024,25.9119955 183.896001,25.068004 183.64,24.276 C183.383999,23.483996 183.008002,22.792003 182.512,22.2 C182.015998,21.607997 181.404004,21.1360018 180.676,20.784 C179.947996,20.4319982 179.112005,20.256 178.168,20.256 L178.168,20.256 Z M197.176,33 L197.176,15.864 L195.664,15.864 L195.664,22.968 L195.616,22.968 C195.455999,22.5199978 195.228001,22.1280017 194.932,21.792 C194.635999,21.4559983 194.296002,21.1720012 193.912,20.94 C193.527998,20.7079988 193.116002,20.5360006 192.676,20.424 C192.235998,20.3119994 191.784002,20.256 191.32,20.256 C190.375995,20.256 189.556003,20.4319982 188.86,20.784 C188.163997,21.1360018 187.584002,21.611997 187.12,22.212 C186.655998,22.812003 186.312001,23.507996 186.088,24.3 C185.863999,25.092004 185.752,25.9279956 185.752,26.808 C185.752,27.6880044 185.863999,28.523996 186.088,29.316 C186.312001,30.108004 186.655998,30.803997 187.12,31.404 C187.584002,32.004003 188.163997,32.4759983 188.86,32.82 C189.556003,33.1640017 190.375995,33.336 191.32,33.336 C191.768002,33.336 192.219998,33.2720006 192.676,33.144 C193.132002,33.0159994 193.559998,32.8360012 193.96,32.604 C194.360002,32.3719988 194.715998,32.0880017 195.028,31.752 C195.340002,31.4159983 195.575999,31.048002 195.736,30.648 L195.784,30.648 L195.784,33 L197.176,33 Z M187.264,26.808 C187.264,26.1679968 187.339999,25.5320032 187.492,24.9 C187.644001,24.2679968 187.883998,23.7040025 188.212,23.208 C188.540002,22.7119975 188.959997,22.3080016 189.472,21.996 C189.984003,21.6839984 190.599996,21.528 191.32,21.528 C192.120004,21.528 192.795997,21.6839984 193.348,21.996 C193.900003,22.3080016 194.347998,22.7119975 194.692,23.208 C195.036002,23.7040025 195.283999,24.2679968 195.436,24.9 C195.588001,25.5320032 195.664,26.1679968 195.664,26.808 C195.664,27.4480032 195.588001,28.0839968 195.436,28.716 C195.283999,29.3480032 195.036002,29.9119975 194.692,30.408 C194.347998,30.9040025 193.900003,31.3079984 193.348,31.62 C192.795997,31.9320016 192.120004,32.088 191.32,32.088 C190.599996,32.088 189.984003,31.9320016 189.472,31.62 C188.959997,31.3079984 188.540002,30.9040025 188.212,30.408 C187.883998,29.9119975 187.644001,29.3480032 187.492,28.716 C187.339999,28.0839968 187.264,27.4480032 187.264,26.808 L187.264,26.808 Z M208.96,25.944 L200.944,25.944 C201.008,25.3839972 201.139999,24.8360027 201.34,24.3 C201.540001,23.7639973 201.807998,23.292002 202.144,22.884 C202.480002,22.475998 202.887998,22.1480012 203.368,21.9 C203.848002,21.6519988 204.399997,21.528 205.024,21.528 C205.632003,21.528 206.175998,21.6519988 206.656,21.9 C207.136002,22.1480012 207.543998,22.475998 207.88,22.884 C208.216002,23.292002 208.475999,23.7599974 208.66,24.288 C208.844001,24.8160026 208.944,25.3679971 208.96,25.944 L208.96,25.944 Z M200.944,27.216 L210.472,27.216 C210.504,26.3519957 210.424001,25.5000042 210.232,24.66 C210.039999,23.8199958 209.724002,23.0760032 209.284,22.428 C208.843998,21.7799968 208.272004,21.256002 207.568,20.856 C206.863996,20.455998 206.016005,20.256 205.024,20.256 C204.047995,20.256 203.204004,20.4439981 202.492,20.82 C201.779996,21.1960019 201.200002,21.6919969 200.752,22.308 C200.303998,22.9240031 199.972001,23.6239961 199.756,24.408 C199.539999,25.1920039 199.432,25.9919959 199.432,26.808 C199.432,27.6880044 199.539999,28.523996 199.756,29.316 C199.972001,30.108004 200.303998,30.803997 200.752,31.404 C201.200002,32.004003 201.779996,32.4759983 202.492,32.82 C203.204004,33.1640017 204.047995,33.336 205.024,33.336 C206.592008,33.336 207.803996,32.9520038 208.66,32.184 C209.516004,31.4159962 210.103998,30.328007 210.424,28.92 L208.912,28.92 C208.671999,29.8800048 208.240003,30.6479971 207.616,31.224 C206.991997,31.8000029 206.128006,32.088 205.024,32.088 C204.303996,32.088 203.688003,31.9360015 203.176,31.632 C202.663997,31.3279985 202.240002,30.9440023 201.904,30.48 C201.567998,30.0159977 201.324001,29.4920029 201.172,28.908 C201.019999,28.3239971 200.944,27.7600027 200.944,27.216 L200.944,27.216 Z M219.928,24.24 L221.44,24.24 C221.408,23.5679966 221.272001,22.9840025 221.032,22.488 C220.791999,21.9919975 220.468002,21.5760017 220.06,21.24 C219.651998,20.9039983 219.180003,20.6560008 218.644,20.496 C218.107997,20.3359992 217.528003,20.256 216.904,20.256 C216.359997,20.256 215.812003,20.3199994 215.26,20.448 C214.707997,20.5760006 214.208002,20.7759986 213.76,21.048 C213.311998,21.3200014 212.948001,21.6799978 212.668,22.128 C212.387999,22.5760022 212.248,23.1119969 212.248,23.736 C212.248,24.2640026 212.335999,24.7079982 212.512,25.068 C212.688001,25.4280018 212.931998,25.7319988 213.244,25.98 C213.556002,26.2280012 213.919998,26.4359992 214.336,26.604 C214.752002,26.7720008 215.207998,26.9199994 215.704,27.048 L217.648,27.48 C217.984002,27.5600004 218.315998,27.6559994 218.644,27.768 C218.972002,27.8800006 219.263999,28.0199992 219.52,28.188 C219.776001,28.3560008 219.979999,28.5639988 220.132,28.812 C220.284001,29.0600012 220.36,29.3679982 220.36,29.736 C220.36,30.1680022 220.252001,30.5319985 220.036,30.828 C219.819999,31.1240015 219.544002,31.367999 219.208,31.56 C218.871998,31.752001 218.508002,31.8879996 218.116,31.968 C217.723998,32.0480004 217.344002,32.088 216.976,32.088 C215.967995,32.088 215.124003,31.8280026 214.444,31.308 C213.763997,30.7879974 213.392,30.0160051 213.328,28.992 L211.816,28.992 C211.944001,30.5120076 212.459995,31.6159966 213.364,32.304 C214.268005,32.9920034 215.447993,33.336 216.904,33.336 C217.480003,33.336 218.063997,33.2720006 218.656,33.144 C219.248003,33.0159994 219.779998,32.8040015 220.252,32.508 C220.724002,32.2119985 221.111998,31.8280024 221.416,31.356 C221.720002,30.8839976 221.872,30.3120034 221.872,29.64 C221.872,29.0959973 221.768001,28.624002 221.56,28.224 C221.351999,27.823998 221.084002,27.4880014 220.756,27.216 C220.427998,26.9439986 220.052002,26.7240008 219.628,26.556 C219.203998,26.3879992 218.776002,26.2720003 218.344,26.208 L216.328,25.752 C216.071999,25.6879997 215.792002,25.6040005 215.488,25.5 C215.183998,25.3959995 214.904001,25.2640008 214.648,25.104 C214.391999,24.9439992 214.180001,24.7480012 214.012,24.516 C213.843999,24.2839988 213.76,24.0000017 213.76,23.664 C213.76,23.263998 213.847999,22.9280014 214.024,22.656 C214.200001,22.3839986 214.431999,22.1640008 214.72,21.996 C215.008001,21.8279992 215.323998,21.7080004 215.668,21.636 C216.012002,21.5639996 216.351998,21.528 216.688,21.528 C217.120002,21.528 217.527998,21.5799995 217.912,21.684 C218.296002,21.7880005 218.635999,21.9519989 218.932,22.176 C219.228001,22.4000011 219.463999,22.6839983 219.64,23.028 C219.816001,23.3720017 219.912,23.7759977 219.928,24.24 L219.928,24.24 Z" id="Duration-Modes-Copy" fill="#4A4A4A" sketch:type="MSShapeGroup"></path>
        </g>
    </g>
</svg>