<?xml version="1.0" encoding="UTF-8" standalone="no"?>
<svg width="243px" height="34px" viewBox="0 0 243 34" version="1.1" xmlns="http://www.w3.org/2000/svg" xmlns:xlink="http://www.w3.org/1999/xlink" xmlns:sketch="http://www.bohemiancoding.com/sketch/ns">
    <!-- Generator: Sketch 3.3.2 (12043) - http://www.bohemiancoding.com/sketch -->
    <title>soon-header-style-presets</title>
    <desc>Created with Sketch.</desc>
    <defs></defs>
    <g id="Page-1" stroke="none" stroke-width="1" fill="none" fill-rule="evenodd" sketch:type="MSPage">
        <g id="soon-header-style-presets" sketch:type="MSLayerGroup" transform="translate(3.000000, 0.000000)">
            <g id="gallery" sketch:type="MSShapeGroup">
                <path d="M38,34 L10,34 C7.8,34 6,32.2 6,30 L6,10 C6,7.8 7.8,6 10,6 L38,6 C40.2,6 42,7.8 42,10 L42,30 C42,32.2 40.2,34 38,34 L38,34 Z" id="Shape" fill="#E65100"></path>
                <path d="M32,28 L4,28 C1.8,28 0,26.2 0,24 L0,4 C0,1.8 1.8,0 4,0 L32,0 C34.2,0 36,1.8 36,4 L36,24 C36,26.2 34.2,28 32,28 L32,28 Z" id="Shape" fill="#F57C00"></path>
                <circle id="Oval" fill="#FFF9C4" cx="27" cy="8" r="3"></circle>
                <path d="M14,9.9 L5,23 L23,23 L14,9.9 Z" id="Shape" fill="#942A09"></path>
                <path d="M25,15.5 L19,23 L31,23 L25,15.5 Z" id="Shape" fill="#BF360C"></path>
            </g>
            <path d="M60.328,14.44 L60.328,15.52 L64.768,15.52 L64.768,28 L66.28,28 L66.28,11.2 L65.056,11.2 C64.9439994,11.9680038 64.7560013,12.5639979 64.492,12.988 C64.2279987,13.4120021 63.900002,13.727999 63.508,13.936 C63.115998,14.144001 62.6520027,14.2759997 62.116,14.332 C61.5799973,14.3880003 60.9840033,14.4239999 60.328,14.44 L60.328,14.44 Z M73.72,23.2 L72.208,23.2 C72.2240001,24.000004 72.3759986,24.7199968 72.664,25.36 C72.9520014,26.0000032 73.3399976,26.5399978 73.828,26.98 C74.3160024,27.4200022 74.8919967,27.7559988 75.556,27.988 C76.2200033,28.2200012 76.9439961,28.336 77.728,28.336 C78.528004,28.336 79.2839964,28.1960014 79.996,27.916 C80.7080036,27.6359986 81.3279974,27.2440025 81.856,26.74 C82.3840026,26.2359975 82.7999985,25.6360035 83.104,24.94 C83.4080015,24.2439965 83.56,23.4880041 83.56,22.672 C83.56,21.8239958 83.4280013,21.0440036 83.164,20.332 C82.8999987,19.6199964 82.5240024,19.0080026 82.036,18.496 C81.5479976,17.9839974 80.9560035,17.5840014 80.26,17.296 C79.5639965,17.0079986 78.7840043,16.864 77.92,16.864 C77.2479966,16.864 76.5920032,16.9999986 75.952,17.272 C75.3119968,17.5440014 74.7840021,17.9279975 74.368,18.424 L74.32,18.376 L75.4,12.808 L82.744,12.808 L82.744,11.416 L74.344,11.416 L72.712,20.128 L74.008,20.128 C74.4240021,19.4879968 74.9599967,18.9960017 75.616,18.652 C76.2720033,18.3079983 76.9839962,18.136 77.752,18.136 C78.3760031,18.136 78.9519974,18.2479989 79.48,18.472 C80.0080026,18.6960011 80.4599981,19.003998 80.836,19.396 C81.2120019,19.788002 81.5079989,20.2479974 81.724,20.776 C81.9400011,21.3040026 82.048,21.8799969 82.048,22.504 C82.048,23.112003 81.952001,23.6919972 81.76,24.244 C81.567999,24.7960028 81.2880018,25.2839979 80.92,25.708 C80.5519982,26.1320021 80.1120026,26.4679988 79.6,26.716 C79.0879974,26.9640012 78.5040033,27.088 77.848,27.088 C77.2719971,27.088 76.7360025,26.9960009 76.24,26.812 C75.7439975,26.6279991 75.3120018,26.3640017 74.944,26.02 C74.5759982,25.6759983 74.2840011,25.2640024 74.068,24.784 C73.8519989,24.3039976 73.7360001,23.7760029 73.72,23.2 L73.72,23.2 Z M91.264,15.928 L91.264,21.328 L85.864,21.328 L85.864,22.6 L91.264,22.6 L91.264,28 L92.536,28 L92.536,22.6 L97.936,22.6 L97.936,21.328 L92.536,21.328 L92.536,15.928 L91.264,15.928 Z M108.256,22.36 L106.624,22.36 C106.576,23.4160053 106.715998,24.3199962 107.044,25.072 C107.372002,25.8240038 107.839997,26.4399976 108.448,26.92 C109.056003,27.4000024 109.791996,27.7559988 110.656,27.988 C111.520004,28.2200012 112.455995,28.336 113.464,28.336 C114.472005,28.336 115.335996,28.2440009 116.056,28.06 C116.776004,27.8759991 117.379998,27.6360015 117.868,27.34 C118.356002,27.0439985 118.739999,26.7120018 119.02,26.344 C119.300001,25.9759982 119.515999,25.6120018 119.668,25.252 C119.820001,24.8919982 119.916,24.5520016 119.956,24.232 C119.996,23.9119984 120.016,23.656001 120.016,23.464 C120.016,22.7599965 119.900001,22.1600025 119.668,21.664 C119.435999,21.1679975 119.116002,20.7480017 118.708,20.404 C118.299998,20.0599983 117.828003,19.7720012 117.292,19.54 C116.755997,19.3079988 116.184003,19.1120008 115.576,18.952 L111.4,17.92 C111.047998,17.8399996 110.716002,17.7360006 110.404,17.608 C110.091998,17.4799994 109.816001,17.312001 109.576,17.104 C109.335999,16.895999 109.148001,16.6440015 109.012,16.348 C108.875999,16.0519985 108.808,15.704002 108.808,15.304 C108.808,14.6639968 108.927999,14.1280022 109.168,13.696 C109.408001,13.2639978 109.723998,12.9160013 110.116,12.652 C110.508002,12.3879987 110.963997,12.1960006 111.484,12.076 C112.004003,11.9559994 112.543997,11.896 113.104,11.896 C113.712003,11.896 114.291997,11.9799992 114.844,12.148 C115.396003,12.3160008 115.883998,12.5639984 116.308,12.892 C116.732002,13.2200016 117.075999,13.6279976 117.34,14.116 C117.604001,14.6040024 117.752,15.1759967 117.784,15.832 L119.416,15.832 C119.416,14.9519956 119.244002,14.1800033 118.9,13.516 C118.555998,12.8519967 118.096003,12.2960022 117.52,11.848 C116.943997,11.3999978 116.272004,11.0640011 115.504,10.84 C114.735996,10.6159989 113.928004,10.504 113.08,10.504 C111.879994,10.504 110.896004,10.6759983 110.128,11.02 C109.359996,11.3640017 108.756002,11.7839975 108.316,12.28 C107.875998,12.7760025 107.576001,13.3039972 107.416,13.864 C107.255999,14.4240028 107.176,14.9119979 107.176,15.328 C107.176,16.0000034 107.283999,16.5679977 107.5,17.032 C107.716001,17.4960023 107.999998,17.8879984 108.352,18.208 C108.704002,18.5280016 109.115998,18.783999 109.588,18.976 C110.060002,19.168001 110.543998,19.3279994 111.04,19.456 L114.856,20.392 C115.256002,20.4880005 115.663998,20.6119992 116.08,20.764 C116.496002,20.9160008 116.875998,21.1119988 117.22,21.352 C117.564002,21.5920012 117.843999,21.8879982 118.06,22.24 C118.276001,22.5920018 118.384,23.0079976 118.384,23.488 C118.384,24.1120031 118.232002,24.6439978 117.928,25.084 C117.623998,25.5240022 117.244002,25.8839986 116.788,26.164 C116.331998,26.4440014 115.840003,26.6479994 115.312,26.776 C114.783997,26.9040006 114.296002,26.968 113.848,26.968 C113.063996,26.968 112.328003,26.8920008 111.64,26.74 C110.951997,26.5879992 110.356003,26.3360018 109.852,25.984 C109.347997,25.6319982 108.952001,25.160003 108.664,24.568 C108.375999,23.975997 108.24,23.2400044 108.256,22.36 L108.256,22.36 Z M124.72,15.616 L124.72,11.896 L123.208,11.896 L123.208,15.616 L121.048,15.616 L121.048,16.888 L123.208,16.888 L123.208,25.36 C123.192,26.4160053 123.383998,27.139998 123.784,27.532 C124.184002,27.924002 124.887995,28.12 125.896,28.12 C126.120001,28.12 126.343999,28.1120001 126.568,28.096 C126.792001,28.0799999 127.015999,28.072 127.24,28.072 L127.24,26.8 C126.807998,26.8480002 126.376002,26.872 125.944,26.872 C125.399997,26.8399998 125.060001,26.6840014 124.924,26.404 C124.787999,26.1239986 124.72,25.7360025 124.72,25.24 L124.72,16.888 L127.24,16.888 L127.24,15.616 L124.72,15.616 Z M128.032,15.616 L132.976,27.952 L132.448,29.344 C132.319999,29.6320014 132.200001,29.8959988 132.088,30.136 C131.975999,30.3760012 131.840001,30.5799992 131.68,30.748 C131.519999,30.9160008 131.332001,31.0479995 131.116,31.144 C130.899999,31.2400005 130.624002,31.288 130.288,31.288 C130.111999,31.288 129.940001,31.2760001 129.772,31.252 C129.603999,31.2279999 129.432001,31.2000002 129.256,31.168 L129.256,32.44 C129.384001,32.4880002 129.531999,32.516 129.7,32.524 C129.868001,32.532 130.103998,32.5439999 130.408,32.56 C130.888002,32.56 131.283998,32.5160004 131.596,32.428 C131.908002,32.3399996 132.179999,32.196001 132.412,31.996 C132.644001,31.795999 132.855999,31.5240017 133.048,31.18 C133.240001,30.8359983 133.447999,30.4000026 133.672,29.872 L139.048,15.616 L137.536,15.616 L133.72,26.176 L129.64,15.616 L128.032,15.616 Z M140.56,10.864 L140.56,28 L142.072,28 L142.072,10.864 L140.56,10.864 Z M153.88,20.944 L145.864,20.944 C145.928,20.3839972 146.059999,19.8360027 146.26,19.3 C146.460001,18.7639973 146.727998,18.292002 147.064,17.884 C147.400002,17.475998 147.807998,17.1480012 148.288,16.9 C148.768002,16.6519988 149.319997,16.528 149.944,16.528 C150.552003,16.528 151.095998,16.6519988 151.576,16.9 C152.056002,17.1480012 152.463998,17.475998 152.8,17.884 C153.136002,18.292002 153.395999,18.7599974 153.58,19.288 C153.764001,19.8160026 153.864,20.3679971 153.88,20.944 L153.88,20.944 Z M145.864,22.216 L155.392,22.216 C155.424,21.3519957 155.344001,20.5000042 155.152,19.66 C154.959999,18.8199958 154.644002,18.0760032 154.204,17.428 C153.763998,16.7799968 153.192004,16.256002 152.488,15.856 C151.783996,15.455998 150.936005,15.256 149.944,15.256 C148.967995,15.256 148.124004,15.4439981 147.412,15.82 C146.699996,16.1960019 146.120002,16.6919969 145.672,17.308 C145.223998,17.9240031 144.892001,18.6239961 144.676,19.408 C144.459999,20.1920039 144.352,20.9919959 144.352,21.808 C144.352,22.6880044 144.459999,23.523996 144.676,24.316 C144.892001,25.108004 145.223998,25.803997 145.672,26.404 C146.120002,27.004003 146.699996,27.4759983 147.412,27.82 C148.124004,28.1640017 148.967995,28.336 149.944,28.336 C151.512008,28.336 152.723996,27.9520038 153.58,27.184 C154.436004,26.4159962 155.023998,25.328007 155.344,23.92 L153.832,23.92 C153.591999,24.8800048 153.160003,25.6479971 152.536,26.224 C151.911997,26.8000029 151.048006,27.088 149.944,27.088 C149.223996,27.088 148.608003,26.9360015 148.096,26.632 C147.583997,26.3279985 147.160002,25.9440023 146.824,25.48 C146.487998,25.0159977 146.244001,24.4920029 146.092,23.908 C145.939999,23.3239971 145.864,22.7600027 145.864,22.216 L145.864,22.216 Z M166.024,19.264 L166.024,12.256 L171.64,12.256 C172.776006,12.256 173.695996,12.5439971 174.4,13.12 C175.104004,13.6960029 175.456,14.5759941 175.456,15.76 C175.456,16.9440059 175.104004,17.8239971 174.4,18.4 C173.695996,18.9760029 172.776006,19.264 171.64,19.264 L166.024,19.264 Z M164.392,10.864 L164.392,28 L166.024,28 L166.024,20.656 L172,20.656 C172.768004,20.656 173.463997,20.5480011 174.088,20.332 C174.712003,20.1159989 175.247998,19.7960021 175.696,19.372 C176.144002,18.9479979 176.487999,18.432003 176.728,17.824 C176.968001,17.215997 177.088,16.5280038 177.088,15.76 C177.088,14.9919962 176.968001,14.304003 176.728,13.696 C176.487999,13.087997 176.144002,12.5720021 175.696,12.148 C175.247998,11.7239979 174.712003,11.4040011 174.088,11.188 C173.463997,10.9719989 172.768004,10.864 172,10.864 L164.392,10.864 Z M179.224,15.616 L179.224,28 L180.736,28 L180.736,21.4 C180.736,20.7439967 180.847999,20.1400028 181.072,19.588 C181.296001,19.0359972 181.611998,18.560002 182.02,18.16 C182.428002,17.759998 182.911997,17.4520011 183.472,17.236 C184.032003,17.0199989 184.655997,16.9279998 185.344,16.96 L185.344,15.448 C184.223994,15.3999998 183.260004,15.6479973 182.452,16.192 C181.643996,16.7360027 181.048002,17.511995 180.664,18.52 L180.616,18.52 L180.616,15.616 L179.224,15.616 Z M195.256,20.944 L187.24,20.944 C187.304,20.3839972 187.435999,19.8360027 187.636,19.3 C187.836001,18.7639973 188.103998,18.292002 188.44,17.884 C188.776002,17.475998 189.183998,17.1480012 189.664,16.9 C190.144002,16.6519988 190.695997,16.528 191.32,16.528 C191.928003,16.528 192.471998,16.6519988 192.952,16.9 C193.432002,17.1480012 193.839998,17.475998 194.176,17.884 C194.512002,18.292002 194.771999,18.7599974 194.956,19.288 C195.140001,19.8160026 195.24,20.3679971 195.256,20.944 L195.256,20.944 Z M187.24,22.216 L196.768,22.216 C196.8,21.3519957 196.720001,20.5000042 196.528,19.66 C196.335999,18.8199958 196.020002,18.0760032 195.58,17.428 C195.139998,16.7799968 194.568004,16.256002 193.864,15.856 C193.159996,15.455998 192.312005,15.256 191.32,15.256 C190.343995,15.256 189.500004,15.4439981 188.788,15.82 C188.075996,16.1960019 187.496002,16.6919969 187.048,17.308 C186.599998,17.9240031 186.268001,18.6239961 186.052,19.408 C185.835999,20.1920039 185.728,20.9919959 185.728,21.808 C185.728,22.6880044 185.835999,23.523996 186.052,24.316 C186.268001,25.108004 186.599998,25.803997 187.048,26.404 C187.496002,27.004003 188.075996,27.4759983 188.788,27.82 C189.500004,28.1640017 190.343995,28.336 191.32,28.336 C192.888008,28.336 194.099996,27.9520038 194.956,27.184 C195.812004,26.4159962 196.399998,25.328007 196.72,23.92 L195.208,23.92 C194.967999,24.8800048 194.536003,25.6479971 193.912,26.224 C193.287997,26.8000029 192.424006,27.088 191.32,27.088 C190.599996,27.088 189.984003,26.9360015 189.472,26.632 C188.959997,26.3279985 188.536002,25.9440023 188.2,25.48 C187.863998,25.0159977 187.620001,24.4920029 187.468,23.908 C187.315999,23.3239971 187.24,22.7600027 187.24,22.216 L187.24,22.216 Z M206.224,19.24 L207.736,19.24 C207.704,18.5679966 207.568001,17.9840025 207.328,17.488 C207.087999,16.9919975 206.764002,16.5760017 206.356,16.24 C205.947998,15.9039983 205.476003,15.6560008 204.94,15.496 C204.403997,15.3359992 203.824003,15.256 203.2,15.256 C202.655997,15.256 202.108003,15.3199994 201.556,15.448 C201.003997,15.5760006 200.504002,15.7759986 200.056,16.048 C199.607998,16.3200014 199.244001,16.6799978 198.964,17.128 C198.683999,17.5760022 198.544,18.1119969 198.544,18.736 C198.544,19.2640026 198.631999,19.7079982 198.808,20.068 C198.984001,20.4280018 199.227998,20.7319988 199.54,20.98 C199.852002,21.2280012 200.215998,21.4359992 200.632,21.604 C201.048002,21.7720008 201.503998,21.9199994 202,22.048 L203.944,22.48 C204.280002,22.5600004 204.611998,22.6559994 204.94,22.768 C205.268002,22.8800006 205.559999,23.0199992 205.816,23.188 C206.072001,23.3560008 206.275999,23.5639988 206.428,23.812 C206.580001,24.0600012 206.656,24.3679982 206.656,24.736 C206.656,25.1680022 206.548001,25.5319985 206.332,25.828 C206.115999,26.1240015 205.840002,26.367999 205.504,26.56 C205.167998,26.752001 204.804002,26.8879996 204.412,26.968 C204.019998,27.0480004 203.640002,27.088 203.272,27.088 C202.263995,27.088 201.420003,26.8280026 200.74,26.308 C200.059997,25.7879974 199.688,25.0160051 199.624,23.992 L198.112,23.992 C198.240001,25.5120076 198.755995,26.6159966 199.66,27.304 C200.564005,27.9920034 201.743993,28.336 203.2,28.336 C203.776003,28.336 204.359997,28.2720006 204.952,28.144 C205.544003,28.0159994 206.075998,27.8040015 206.548,27.508 C207.020002,27.2119985 207.407998,26.8280024 207.712,26.356 C208.016002,25.8839976 208.168,25.3120034 208.168,24.64 C208.168,24.0959973 208.064001,23.624002 207.856,23.224 C207.647999,22.823998 207.380002,22.4880014 207.052,22.216 C206.723998,21.9439986 206.348002,21.7240008 205.924,21.556 C205.499998,21.3879992 205.072002,21.2720003 204.64,21.208 L202.624,20.752 C202.367999,20.6879997 202.088002,20.6040005 201.784,20.5 C201.479998,20.3959995 201.200001,20.2640008 200.944,20.104 C200.687999,19.9439992 200.476001,19.7480012 200.308,19.516 C200.139999,19.2839988 200.056,19.0000017 200.056,18.664 C200.056,18.263998 200.143999,17.9280014 200.32,17.656 C200.496001,17.3839986 200.727999,17.1640008 201.016,16.996 C201.304001,16.8279992 201.619998,16.7080004 201.964,16.636 C202.308002,16.5639996 202.647998,16.528 202.984,16.528 C203.416002,16.528 203.823998,16.5799995 204.208,16.684 C204.592002,16.7880005 204.931999,16.9519989 205.228,17.176 C205.524001,17.4000011 205.759999,17.6839983 205.936,18.028 C206.112001,18.3720017 206.208,18.7759977 206.224,19.24 L206.224,19.24 Z M219.256,20.944 L211.24,20.944 C211.304,20.3839972 211.435999,19.8360027 211.636,19.3 C211.836001,18.7639973 212.103998,18.292002 212.44,17.884 C212.776002,17.475998 213.183998,17.1480012 213.664,16.9 C214.144002,16.6519988 214.695997,16.528 215.32,16.528 C215.928003,16.528 216.471998,16.6519988 216.952,16.9 C217.432002,17.1480012 217.839998,17.475998 218.176,17.884 C218.512002,18.292002 218.771999,18.7599974 218.956,19.288 C219.140001,19.8160026 219.24,20.3679971 219.256,20.944 L219.256,20.944 Z M211.24,22.216 L220.768,22.216 C220.8,21.3519957 220.720001,20.5000042 220.528,19.66 C220.335999,18.8199958 220.020002,18.0760032 219.58,17.428 C219.139998,16.7799968 218.568004,16.256002 217.864,15.856 C217.159996,15.455998 216.312005,15.256 215.32,15.256 C214.343995,15.256 213.500004,15.4439981 212.788,15.82 C212.075996,16.1960019 211.496002,16.6919969 211.048,17.308 C210.599998,17.9240031 210.268001,18.6239961 210.052,19.408 C209.835999,20.1920039 209.728,20.9919959 209.728,21.808 C209.728,22.6880044 209.835999,23.523996 210.052,24.316 C210.268001,25.108004 210.599998,25.803997 211.048,26.404 C211.496002,27.004003 212.075996,27.4759983 212.788,27.82 C213.500004,28.1640017 214.343995,28.336 215.32,28.336 C216.888008,28.336 218.099996,27.9520038 218.956,27.184 C219.812004,26.4159962 220.399998,25.328007 220.72,23.92 L219.208,23.92 C218.967999,24.8800048 218.536003,25.6479971 217.912,26.224 C217.287997,26.8000029 216.424006,27.088 215.32,27.088 C214.599996,27.088 213.984003,26.9360015 213.472,26.632 C212.959997,26.3279985 212.536002,25.9440023 212.2,25.48 C211.863998,25.0159977 211.620001,24.4920029 211.468,23.908 C211.315999,23.3239971 211.24,22.7600027 211.24,22.216 L211.24,22.216 Z M225.208,15.616 L225.208,11.896 L223.696,11.896 L223.696,15.616 L221.536,15.616 L221.536,16.888 L223.696,16.888 L223.696,25.36 C223.68,26.4160053 223.871998,27.139998 224.272,27.532 C224.672002,27.924002 225.375995,28.12 226.384,28.12 C226.608001,28.12 226.831999,28.1120001 227.056,28.096 C227.280001,28.0799999 227.503999,28.072 227.728,28.072 L227.728,26.8 C227.295998,26.8480002 226.864002,26.872 226.432,26.872 C225.887997,26.8399998 225.548001,26.6840014 225.412,26.404 C225.275999,26.1239986 225.208,25.7360025 225.208,25.24 L225.208,16.888 L227.728,16.888 L227.728,15.616 L225.208,15.616 Z M237.328,19.24 L238.84,19.24 C238.808,18.5679966 238.672001,17.9840025 238.432,17.488 C238.191999,16.9919975 237.868002,16.5760017 237.46,16.24 C237.051998,15.9039983 236.580003,15.6560008 236.044,15.496 C235.507997,15.3359992 234.928003,15.256 234.304,15.256 C233.759997,15.256 233.212003,15.3199994 232.66,15.448 C232.107997,15.5760006 231.608002,15.7759986 231.16,16.048 C230.711998,16.3200014 230.348001,16.6799978 230.068,17.128 C229.787999,17.5760022 229.648,18.1119969 229.648,18.736 C229.648,19.2640026 229.735999,19.7079982 229.912,20.068 C230.088001,20.4280018 230.331998,20.7319988 230.644,20.98 C230.956002,21.2280012 231.319998,21.4359992 231.736,21.604 C232.152002,21.7720008 232.607998,21.9199994 233.104,22.048 L235.048,22.48 C235.384002,22.5600004 235.715998,22.6559994 236.044,22.768 C236.372002,22.8800006 236.663999,23.0199992 236.92,23.188 C237.176001,23.3560008 237.379999,23.5639988 237.532,23.812 C237.684001,24.0600012 237.76,24.3679982 237.76,24.736 C237.76,25.1680022 237.652001,25.5319985 237.436,25.828 C237.219999,26.1240015 236.944002,26.367999 236.608,26.56 C236.271998,26.752001 235.908002,26.8879996 235.516,26.968 C235.123998,27.0480004 234.744002,27.088 234.376,27.088 C233.367995,27.088 232.524003,26.8280026 231.844,26.308 C231.163997,25.7879974 230.792,25.0160051 230.728,23.992 L229.216,23.992 C229.344001,25.5120076 229.859995,26.6159966 230.764,27.304 C231.668005,27.9920034 232.847993,28.336 234.304,28.336 C234.880003,28.336 235.463997,28.2720006 236.056,28.144 C236.648003,28.0159994 237.179998,27.8040015 237.652,27.508 C238.124002,27.2119985 238.511998,26.8280024 238.816,26.356 C239.120002,25.8839976 239.272,25.3120034 239.272,24.64 C239.272,24.0959973 239.168001,23.624002 238.96,23.224 C238.751999,22.823998 238.484002,22.4880014 238.156,22.216 C237.827998,21.9439986 237.452002,21.7240008 237.028,21.556 C236.603998,21.3879992 236.176002,21.2720003 235.744,21.208 L233.728,20.752 C233.471999,20.6879997 233.192002,20.6040005 232.888,20.5 C232.583998,20.3959995 232.304001,20.2640008 232.048,20.104 C231.791999,19.9439992 231.580001,19.7480012 231.412,19.516 C231.243999,19.2839988 231.16,19.0000017 231.16,18.664 C231.16,18.263998 231.247999,17.9280014 231.424,17.656 C231.600001,17.3839986 231.831999,17.1640008 232.12,16.996 C232.408001,16.8279992 232.723998,16.7080004 233.068,16.636 C233.412002,16.5639996 233.751998,16.528 234.088,16.528 C234.520002,16.528 234.927998,16.5799995 235.312,16.684 C235.696002,16.7880005 236.035999,16.9519989 236.332,17.176 C236.628001,17.4000011 236.863999,17.6839983 237.04,18.028 C237.216001,18.3720017 237.312,18.7759977 237.328,19.24 L237.328,19.24 Z" id="15+-Style-Presets-Copy" fill="#4A4A4A" sketch:type="MSShapeGroup"></path>
        </g>
    </g>
</svg>