<?xml version="1.0" encoding="UTF-8" standalone="no"?>
<svg width="231px" height="40px" viewBox="0 0 231 40" version="1.1" xmlns="http://www.w3.org/2000/svg" xmlns:xlink="http://www.w3.org/1999/xlink" xmlns:sketch="http://www.bohemiancoding.com/sketch/ns">
    <!-- Generator: Sketch 3.3.2 (12043) - http://www.bohemiancoding.com/sketch -->
    <title>soon-header-supurb-quality</title>
    <desc>Created with Sketch.</desc>
    <defs></defs>
    <g id="Page-1" stroke="none" stroke-width="1" fill="none" fill-rule="evenodd" sketch:type="MSPage">
        <g id="soon-header-supurb-quality" sketch:type="MSLayerGroup" transform="translate(5.000000, 0.000000)">
            <g id="rating" sketch:type="MSShapeGroup">
                <circle id="Oval" fill="#F44336" cx="20" cy="20" r="20"></circle>
                <path d="M20,7.61904762 L23.7142857,15.1428571 L32,16.3809524 L26,22.1904762 L27.4285714,30.4761905 L20,26.5714286 L12.5714286,30.4761905 L14,22.1904762 L8,16.3809524 L16.2857143,15.1428571 L20,7.61904762 Z" id="Shape" fill="#FFCA28"></path>
            </g>
            <path d="M60.36,21.264 L60.36,14.256 L65.976,14.256 C67.1120057,14.256 68.0319965,14.5439971 68.736,15.12 C69.4400035,15.6960029 69.792,16.5759941 69.792,17.76 C69.792,18.9440059 69.4400035,19.8239971 68.736,20.4 C68.0319965,20.9760029 67.1120057,21.264 65.976,21.264 L60.36,21.264 Z M58.728,12.864 L58.728,30 L60.36,30 L60.36,22.656 L66.336,22.656 C67.1040038,22.656 67.7999969,22.5480011 68.424,22.332 C69.0480031,22.1159989 69.5839978,21.7960021 70.032,21.372 C70.4800022,20.9479979 70.8239988,20.432003 71.064,19.824 C71.3040012,19.215997 71.424,18.5280038 71.424,17.76 C71.424,16.9919962 71.3040012,16.304003 71.064,15.696 C70.8239988,15.087997 70.4800022,14.5720021 70.032,14.148 C69.5839978,13.7239979 69.0480031,13.4040011 68.424,13.188 C67.7999969,12.9719989 67.1040038,12.864 66.336,12.864 L58.728,12.864 Z M73.56,17.616 L73.56,30 L75.072,30 L75.072,23.4 C75.072,22.7439967 75.1839989,22.1400028 75.408,21.588 C75.6320011,21.0359972 75.947998,20.560002 76.356,20.16 C76.764002,19.759998 77.2479972,19.4520011 77.808,19.236 C78.3680028,19.0199989 78.9919966,18.9279998 79.68,18.96 L79.68,17.448 C78.5599944,17.3999998 77.596004,17.6479973 76.788,18.192 C75.979996,18.7360027 75.3840019,19.511995 75,20.52 L74.952,20.52 L74.952,17.616 L73.56,17.616 Z M89.592,22.944 L81.576,22.944 C81.6400003,22.3839972 81.771999,21.8360027 81.972,21.3 C82.172001,20.7639973 82.4399983,20.292002 82.776,19.884 C83.1120017,19.475998 83.5199976,19.1480012 84,18.9 C84.4800024,18.6519988 85.0319969,18.528 85.656,18.528 C86.264003,18.528 86.8079976,18.6519988 87.288,18.9 C87.7680024,19.1480012 88.1759983,19.475998 88.512,19.884 C88.8480017,20.292002 89.1079991,20.7599974 89.292,21.288 C89.4760009,21.8160026 89.5759999,22.3679971 89.592,22.944 L89.592,22.944 Z M81.576,24.216 L91.104,24.216 C91.1360002,23.3519957 91.056001,22.5000042 90.864,21.66 C90.671999,20.8199958 90.3560022,20.0760032 89.916,19.428 C89.4759978,18.7799968 88.9040035,18.256002 88.2,17.856 C87.4959965,17.455998 86.648005,17.256 85.656,17.256 C84.6799951,17.256 83.8360036,17.4439981 83.124,17.82 C82.4119964,18.1960019 81.8320022,18.6919969 81.384,19.308 C80.9359978,19.9240031 80.6040011,20.6239961 80.388,21.408 C80.1719989,22.1920039 80.064,22.9919959 80.064,23.808 C80.064,24.6880044 80.1719989,25.523996 80.388,26.316 C80.6040011,27.108004 80.9359978,27.803997 81.384,28.404 C81.8320022,29.004003 82.4119964,29.4759983 83.124,29.82 C83.8360036,30.1640017 84.6799951,30.336 85.656,30.336 C87.2240078,30.336 88.4359957,29.9520038 89.292,29.184 C90.1480043,28.4159962 90.7359984,27.328007 91.056,25.92 L89.544,25.92 C89.3039988,26.8800048 88.8720031,27.6479971 88.248,28.224 C87.6239969,28.8000029 86.7600055,29.088 85.656,29.088 C84.9359964,29.088 84.3200026,28.9360015 83.808,28.632 C83.2959974,28.3279985 82.8720017,27.9440023 82.536,27.48 C82.1999983,27.0159977 81.9560008,26.4920029 81.804,25.908 C81.6519992,25.3239971 81.576,24.7600027 81.576,24.216 L81.576,24.216 Z M93.144,17.616 L93.144,30 L94.656,30 L94.656,23.088 C94.656,22.4319967 94.7279993,21.8280028 94.872,21.276 C95.0160007,20.7239972 95.2359985,20.244002 95.532,19.836 C95.8280015,19.427998 96.2119976,19.1080012 96.684,18.876 C97.1560024,18.6439988 97.7119968,18.528 98.352,18.528 C98.8320024,18.528 99.2399983,18.6079992 99.576,18.768 C99.9120017,18.9280008 100.179999,19.1479986 100.38,19.428 C100.580001,19.7080014 100.724,20.0359981 100.812,20.412 C100.9,20.7880019 100.944,21.1839979 100.944,21.6 L100.944,30 L102.456,30 L102.456,22.992 C102.456,22.4159971 102.507999,21.8600027 102.612,21.324 C102.716001,20.7879973 102.895999,20.3120021 103.152,19.896 C103.408001,19.4799979 103.751998,19.1480012 104.184,18.9 C104.616002,18.6519988 105.159997,18.528 105.816,18.528 C106.904005,18.528 107.663998,18.7959973 108.096,19.332 C108.528002,19.8680027 108.744,20.6479949 108.744,21.672 L108.744,30 L110.256,30 L110.256,21.6 C110.256,18.7039855 108.888014,17.256 106.152,17.256 C105.335996,17.256 104.568004,17.455998 103.848,17.856 C103.127996,18.256002 102.584002,18.8639959 102.216,19.68 C101.991999,18.8639959 101.548003,18.256002 100.884,17.856 C100.219997,17.455998 99.4800041,17.256 98.664,17.256 C97.655995,17.256 96.8280032,17.4719978 96.18,17.904 C95.5319968,18.3360022 95.008002,18.9359962 94.608,19.704 L94.536,19.704 L94.536,17.616 L93.144,17.616 Z M113.16,12.864 L113.16,15.288 L114.672,15.288 L114.672,12.864 L113.16,12.864 Z M113.16,17.616 L113.16,30 L114.672,30 L114.672,17.616 L113.16,17.616 Z M127.608,30 L127.608,17.616 L126.096,17.616 L126.096,24.12 C126.096,24.7440031 126.024001,25.355997 125.88,25.956 C125.735999,26.556003 125.512002,27.0879977 125.208,27.552 C124.903998,28.0160023 124.520002,28.3879986 124.056,28.668 C123.591998,28.9480014 123.032003,29.088 122.376,29.088 C121.175994,29.088 120.332002,28.8000029 119.844,28.224 C119.355998,27.6479971 119.096,26.8000056 119.064,25.68 L119.064,17.616 L117.552,17.616 L117.552,25.656 C117.552,26.3920037 117.631999,27.0479971 117.792,27.624 C117.952001,28.2000029 118.203998,28.687998 118.548,29.088 C118.892002,29.488002 119.339997,29.7959989 119.892,30.012 C120.444003,30.2280011 121.111996,30.336 121.896,30.336 C122.824005,30.336 123.667996,30.1160022 124.428,29.676 C125.188004,29.2359978 125.767998,28.6000042 126.168,27.768 L126.216,27.768 L126.216,30 L127.608,30 Z M130.464,17.616 L130.464,30 L131.976,30 L131.976,23.088 C131.976,22.4319967 132.047999,21.8280028 132.192,21.276 C132.336001,20.7239972 132.555999,20.244002 132.852,19.836 C133.148001,19.427998 133.531998,19.1080012 134.004,18.876 C134.476002,18.6439988 135.031997,18.528 135.672,18.528 C136.152002,18.528 136.559998,18.6079992 136.896,18.768 C137.232002,18.9280008 137.499999,19.1479986 137.7,19.428 C137.900001,19.7080014 138.044,20.0359981 138.132,20.412 C138.22,20.7880019 138.264,21.1839979 138.264,21.6 L138.264,30 L139.776,30 L139.776,22.992 C139.776,22.4159971 139.827999,21.8600027 139.932,21.324 C140.036001,20.7879973 140.215999,20.3120021 140.472,19.896 C140.728001,19.4799979 141.071998,19.1480012 141.504,18.9 C141.936002,18.6519988 142.479997,18.528 143.136,18.528 C144.224005,18.528 144.983998,18.7959973 145.416,19.332 C145.848002,19.8680027 146.064,20.6479949 146.064,21.672 L146.064,30 L147.576,30 L147.576,21.6 C147.576,18.7039855 146.208014,17.256 143.472,17.256 C142.655996,17.256 141.888004,17.455998 141.168,17.856 C140.447996,18.256002 139.904002,18.8639959 139.536,19.68 C139.311999,18.8639959 138.868003,18.256002 138.204,17.856 C137.539997,17.455998 136.800004,17.256 135.984,17.256 C134.975995,17.256 134.148003,17.4719978 133.5,17.904 C132.851997,18.3360022 132.328002,18.9359962 131.928,19.704 L131.856,19.704 L131.856,17.616 L130.464,17.616 Z M171.696,31.08 L172.512,30.072 L170.064,28.224 C170.928004,27.3919958 171.575998,26.3880059 172.008,25.212 C172.440002,24.0359941 172.656,22.7760067 172.656,21.432 C172.656,20.2479941 172.488002,19.1200054 172.152,18.048 C171.815998,16.9759946 171.312003,16.0280041 170.64,15.204 C169.967997,14.3799959 169.128005,13.7240024 168.12,13.236 C167.111995,12.7479976 165.936007,12.504 164.592,12.504 C163.247993,12.504 162.068005,12.7479976 161.052,13.236 C160.035995,13.7240024 159.192003,14.3799959 158.52,15.204 C157.847997,16.0280041 157.344002,16.9759946 157.008,18.048 C156.671998,19.1200054 156.504,20.2479941 156.504,21.432 C156.504,22.6160059 156.671998,23.7439946 157.008,24.816 C157.344002,25.8880054 157.847997,26.8319959 158.52,27.648 C159.192003,28.4640041 160.035995,29.1159976 161.052,29.604 C162.068005,30.0920024 163.247993,30.336 164.592,30.336 C166.384009,30.336 167.863994,29.9200042 169.032,29.088 L171.696,31.08 Z M168.84,27.288 L166.344,25.392 L165.504,26.424 L167.76,28.128 C166.863996,28.6880028 165.808006,28.968 164.592,28.968 C163.455994,28.968 162.480004,28.7520022 161.664,28.32 C160.847996,27.8879978 160.180003,27.3160036 159.66,26.604 C159.139997,25.8919964 158.756001,25.0840045 158.508,24.18 C158.259999,23.2759955 158.136,22.3600046 158.136,21.432 C158.136,20.4879953 158.259999,19.5680045 158.508,18.672 C158.756001,17.7759955 159.139997,16.9720036 159.66,16.26 C160.180003,15.5479964 160.847996,14.9760022 161.664,14.544 C162.480004,14.1119978 163.455994,13.896 164.592,13.896 C165.728006,13.896 166.699996,14.1119978 167.508,14.544 C168.316004,14.9760022 168.979997,15.5479964 169.5,16.26 C170.020003,16.9720036 170.403999,17.7759955 170.652,18.672 C170.900001,19.5680045 171.024,20.4879953 171.024,21.432 C171.024,22.5360055 170.852002,23.6079948 170.508,24.648 C170.163998,25.6880052 169.608004,26.5679964 168.84,27.288 L168.84,27.288 Z M184.944,30 L184.944,17.616 L183.432,17.616 L183.432,24.12 C183.432,24.7440031 183.360001,25.355997 183.216,25.956 C183.071999,26.556003 182.848002,27.0879977 182.544,27.552 C182.239998,28.0160023 181.856002,28.3879986 181.392,28.668 C180.927998,28.9480014 180.368003,29.088 179.712,29.088 C178.511994,29.088 177.668002,28.8000029 177.18,28.224 C176.691998,27.6479971 176.432,26.8000056 176.4,25.68 L176.4,17.616 L174.888,17.616 L174.888,25.656 C174.888,26.3920037 174.967999,27.0479971 175.128,27.624 C175.288001,28.2000029 175.539998,28.687998 175.884,29.088 C176.228002,29.488002 176.675997,29.7959989 177.228,30.012 C177.780003,30.2280011 178.447996,30.336 179.232,30.336 C180.160005,30.336 181.003996,30.1160022 181.764,29.676 C182.524004,29.2359978 183.103998,28.6000042 183.504,27.768 L183.552,27.768 L183.552,30 L184.944,30 Z M187.656,21.408 L189.168,21.408 C189.2,20.399995 189.519997,19.6680023 190.128,19.212 C190.736003,18.7559977 191.519995,18.528 192.48,18.528 C192.928002,18.528 193.347998,18.5639996 193.74,18.636 C194.132002,18.7080004 194.475999,18.839999 194.772,19.032 C195.068001,19.224001 195.299999,19.4839984 195.468,19.812 C195.636001,20.1400016 195.72,20.5599974 195.72,21.072 C195.72,21.4080017 195.676,21.679999 195.588,21.888 C195.5,22.096001 195.376001,22.2599994 195.216,22.38 C195.055999,22.5000006 194.856001,22.5839998 194.616,22.632 C194.375999,22.6800002 194.096002,22.7199998 193.776,22.752 C192.959996,22.8480005 192.156004,22.9479995 191.364,23.052 C190.571996,23.1560005 189.860003,23.3359987 189.228,23.592 C188.595997,23.8480013 188.088002,24.2199976 187.704,24.708 C187.319998,25.1960024 187.128,25.8719957 187.128,26.736 C187.128,27.3600031 187.235999,27.8999977 187.452,28.356 C187.668001,28.8120023 187.963998,29.1879985 188.34,29.484 C188.716002,29.7800015 189.155997,29.9959993 189.66,30.132 C190.164003,30.2680007 190.703997,30.336 191.28,30.336 C191.888003,30.336 192.411998,30.2800006 192.852,30.168 C193.292002,30.0559994 193.683998,29.896001 194.028,29.688 C194.372002,29.479999 194.683999,29.2200016 194.964,28.908 C195.244001,28.5959984 195.519999,28.240002 195.792,27.84 L195.84,27.84 C195.84,28.1600016 195.86,28.4519987 195.9,28.716 C195.94,28.9800013 196.023999,29.207999 196.152,29.4 C196.280001,29.592001 196.459999,29.7399995 196.692,29.844 C196.924001,29.9480005 197.231998,30 197.616,30 C197.824001,30 197.995999,29.9920001 198.132,29.976 C198.268001,29.9599999 198.423999,29.9360002 198.6,29.904 L198.6,28.632 C198.455999,28.6960003 198.296001,28.728 198.12,28.728 C197.527997,28.728 197.232,28.424003 197.232,27.816 L197.232,21.24 C197.232,20.4079958 197.096001,19.7320026 196.824,19.212 C196.551999,18.6919974 196.200002,18.2880014 195.768,18 C195.335998,17.7119986 194.848003,17.5160005 194.304,17.412 C193.759997,17.3079995 193.216003,17.256 192.672,17.256 C191.951996,17.256 191.296003,17.3359992 190.704,17.496 C190.111997,17.6560008 189.596002,17.9039983 189.156,18.24 C188.715998,18.5760017 188.368001,19.0079974 188.112,19.536 C187.855999,20.0640026 187.704,20.6879964 187.656,21.408 L187.656,21.408 Z M195.72,23.232 L195.72,25.2 C195.72,25.808003 195.604001,26.3519976 195.372,26.832 C195.139999,27.3120024 194.828002,27.7199983 194.436,28.056 C194.043998,28.3920017 193.584003,28.6479991 193.056,28.824 C192.527997,29.0000009 191.976003,29.088 191.4,29.088 C191.047998,29.088 190.704002,29.0320006 190.368,28.92 C190.031998,28.8079994 189.736001,28.6440011 189.48,28.428 C189.223999,28.2119989 189.020001,27.9560015 188.868,27.66 C188.715999,27.3639985 188.64,27.0240019 188.64,26.64 C188.64,26.031997 188.819998,25.5640016 189.18,25.236 C189.540002,24.9079984 189.999997,24.6560009 190.56,24.48 C191.120003,24.3039991 191.739997,24.1720004 192.42,24.084 C193.100003,23.9959996 193.759997,23.8960006 194.4,23.784 C194.608001,23.7519998 194.847999,23.6960004 195.12,23.616 C195.392001,23.5359996 195.576,23.4080009 195.672,23.232 L195.72,23.232 Z M200.28,12.864 L200.28,30 L201.792,30 L201.792,12.864 L200.28,12.864 Z M204.72,12.864 L204.72,15.288 L206.232,15.288 L206.232,12.864 L204.72,12.864 Z M204.72,17.616 L204.72,30 L206.232,30 L206.232,17.616 L204.72,17.616 Z M211.536,17.616 L211.536,13.896 L210.024,13.896 L210.024,17.616 L207.864,17.616 L207.864,18.888 L210.024,18.888 L210.024,27.36 C210.008,28.4160053 210.199998,29.139998 210.6,29.532 C211.000002,29.924002 211.703995,30.12 212.712,30.12 C212.936001,30.12 213.159999,30.1120001 213.384,30.096 C213.608001,30.0799999 213.831999,30.072 214.056,30.072 L214.056,28.8 C213.623998,28.8480002 213.192002,28.872 212.76,28.872 C212.215997,28.8399998 211.876001,28.6840014 211.74,28.404 C211.603999,28.1239986 211.536,27.7360025 211.536,27.24 L211.536,18.888 L214.056,18.888 L214.056,17.616 L211.536,17.616 Z M214.848,17.616 L219.792,29.952 L219.264,31.344 C219.135999,31.6320014 219.016001,31.8959988 218.904,32.136 C218.791999,32.3760012 218.656001,32.5799992 218.496,32.748 C218.335999,32.9160008 218.148001,33.0479995 217.932,33.144 C217.715999,33.2400005 217.440002,33.288 217.104,33.288 C216.927999,33.288 216.756001,33.2760001 216.588,33.252 C216.419999,33.2279999 216.248001,33.2000002 216.072,33.168 L216.072,34.44 C216.200001,34.4880002 216.347999,34.516 216.516,34.524 C216.684001,34.532 216.919998,34.5439999 217.224,34.56 C217.704002,34.56 218.099998,34.5160004 218.412,34.428 C218.724002,34.3399996 218.995999,34.196001 219.228,33.996 C219.460001,33.795999 219.671999,33.5240017 219.864,33.18 C220.056001,32.8359983 220.263999,32.4000026 220.488,31.872 L225.864,17.616 L224.352,17.616 L220.536,28.176 L216.456,17.616 L214.848,17.616 Z" id="Premium-Quality-Copy" fill="#4A4A4A" sketch:type="MSShapeGroup"></path>
        </g>
    </g>
</svg>