<?xml version="1.0" encoding="UTF-8" standalone="no"?>
<svg width="277px" height="65px" viewBox="0 0 277 65" version="1.1" xmlns="http://www.w3.org/2000/svg" xmlns:xlink="http://www.w3.org/1999/xlink" xmlns:sketch="http://www.bohemiancoding.com/sketch/ns">
    <!-- Generator: Sketch 3.3.2 (12043) - http://www.bohemiancoding.com/sketch -->
    <title>soon-header-professional-support</title>
    <desc>Created with Sketch.</desc>
    <defs></defs>
    <g id="Page-1" stroke="none" stroke-width="1" fill="none" fill-rule="evenodd" sketch:type="MSPage">
        <g id="soon-header-professional-support" sketch:type="MSLayerGroup" transform="translate(6.000000, 23.000000)">
            <g id="assistant" sketch:type="MSShapeGroup">
                <g id="Group" transform="translate(0.000000, 20.000000)" fill="#FFA726">
                    <circle id="Oval" cx="4" cy="4" r="4"></circle>
                    <circle id="Oval" cx="32" cy="4" r="4"></circle>
                </g>
                <path d="M33,17 C33,4.3 3,8.7 3,17 L3,27 C3,35.3 9.7,42 18,42 C26.3,42 33,35.3 33,27 L33,17 L33,17 Z" id="Shape" fill="#FFB74D"></path>
                <path d="M18,1 C8.6,1 1,8.6 1,18 L1,21.4 L3,23 L3,20 L24,10.2 L33,20 L33,23 L35,21.4 L35,18 C35,10 29.3,1 18,1 L18,1 Z" id="Shape" fill="#FF5722"></path>
                <g id="Group" transform="translate(9.000000, 22.000000)" fill="#784719">
                    <circle id="Oval" cx="16" cy="2" r="2"></circle>
                    <circle id="Oval" cx="2" cy="2" r="2"></circle>
                </g>
                <path d="M37,22 C36.4,22 36,22.4 36,23 L36,16 C36,7.2 28.8,0 20,0 L13,0 C12.4,0 12,0.4 12,1 C12,1.6 12.4,2 13,2 L20,2 C27.7,2 34,8.3 34,16 L34,26 C34,26.6 34.4,27 35,27 C35.6,27 36,26.6 36,26 L36,28 C36,31.9 32.9,35 29,35 L18,35 C17.4,35 17,35.4 17,36 C17,36.6 17.4,37 18,37 L29,37 C34,37 38,33 38,28 L38,23 C38,22.4 37.6,22 37,22 L37,22 Z" id="Shape" fill="#757575"></path>
                <g id="Group" transform="translate(16.000000, 20.000000)" fill="#37474F">
                    <path d="M21,0 L20,0 C18.9,0 18,0.9 18,2 L18,6 C18,7.1 18.9,8 20,8 L21,8 C22.1,8 23,7.1 23,6 L23,2 C23,0.9 22.1,0 21,0 L21,0 Z" id="Shape"></path>
                    <circle id="Oval" cx="2" cy="16" r="2"></circle>
                </g>
            </g>
            <path d="M59.36,21.264 L59.36,14.256 L64.976,14.256 C66.1120057,14.256 67.0319965,14.5439971 67.736,15.12 C68.4400035,15.6960029 68.792,16.5759941 68.792,17.76 C68.792,18.9440059 68.4400035,19.8239971 67.736,20.4 C67.0319965,20.9760029 66.1120057,21.264 64.976,21.264 L59.36,21.264 Z M57.728,12.864 L57.728,30 L59.36,30 L59.36,22.656 L65.336,22.656 C66.1040038,22.656 66.7999969,22.5480011 67.424,22.332 C68.0480031,22.1159989 68.5839978,21.7960021 69.032,21.372 C69.4800022,20.9479979 69.8239988,20.432003 70.064,19.824 C70.3040012,19.215997 70.424,18.5280038 70.424,17.76 C70.424,16.9919962 70.3040012,16.304003 70.064,15.696 C69.8239988,15.087997 69.4800022,14.5720021 69.032,14.148 C68.5839978,13.7239979 68.0480031,13.4040011 67.424,13.188 C66.7999969,12.9719989 66.1040038,12.864 65.336,12.864 L57.728,12.864 Z M72.56,17.616 L72.56,30 L74.072,30 L74.072,23.4 C74.072,22.7439967 74.1839989,22.1400028 74.408,21.588 C74.6320011,21.0359972 74.947998,20.560002 75.356,20.16 C75.764002,19.759998 76.2479972,19.4520011 76.808,19.236 C77.3680028,19.0199989 77.9919966,18.9279998 78.68,18.96 L78.68,17.448 C77.5599944,17.3999998 76.596004,17.6479973 75.788,18.192 C74.979996,18.7360027 74.3840019,19.511995 74,20.52 L73.952,20.52 L73.952,17.616 L72.56,17.616 Z M84.92,18.528 C85.6400036,18.528 86.2719973,18.6799985 86.816,18.984 C87.3600027,19.2880015 87.8119982,19.6879975 88.172,20.184 C88.5320018,20.6800025 88.8039991,21.2439968 88.988,21.876 C89.1720009,22.5080032 89.264,23.1519967 89.264,23.808 C89.264,24.4640033 89.1720009,25.1079968 88.988,25.74 C88.8039991,26.3720032 88.5320018,26.9359975 88.172,27.432 C87.8119982,27.9280025 87.3600027,28.3279985 86.816,28.632 C86.2719973,28.9360015 85.6400036,29.088 84.92,29.088 C84.1999964,29.088 83.5680027,28.9360015 83.024,28.632 C82.4799973,28.3279985 82.0280018,27.9280025 81.668,27.432 C81.3079982,26.9359975 81.0360009,26.3720032 80.852,25.74 C80.6679991,25.1079968 80.576,24.4640033 80.576,23.808 C80.576,23.1519967 80.6679991,22.5080032 80.852,21.876 C81.0360009,21.2439968 81.3079982,20.6800025 81.668,20.184 C82.0280018,19.6879975 82.4799973,19.2880015 83.024,18.984 C83.5680027,18.6799985 84.1999964,18.528 84.92,18.528 L84.92,18.528 Z M84.92,17.256 C83.9759953,17.256 83.1400036,17.4319982 82.412,17.784 C81.6839964,18.1360018 81.0720025,18.607997 80.576,19.2 C80.0799975,19.792003 79.7040013,20.483996 79.448,21.276 C79.1919987,22.068004 79.064,22.9119955 79.064,23.808 C79.064,24.7040045 79.1919987,25.547996 79.448,26.34 C79.7040013,27.132004 80.0799975,27.823997 80.576,28.416 C81.0720025,29.008003 81.6839964,29.4759983 82.412,29.82 C83.1400036,30.1640017 83.9759953,30.336 84.92,30.336 C85.8640047,30.336 86.6999964,30.1640017 87.428,29.82 C88.1560036,29.4759983 88.7679975,29.008003 89.264,28.416 C89.7600025,27.823997 90.1359987,27.132004 90.392,26.34 C90.6480013,25.547996 90.776,24.7040045 90.776,23.808 C90.776,22.9119955 90.6480013,22.068004 90.392,21.276 C90.1359987,20.483996 89.7600025,19.792003 89.264,19.2 C88.7679975,18.607997 88.1560036,18.1360018 87.428,17.784 C86.6999964,17.4319982 85.8640047,17.256 84.92,17.256 L84.92,17.256 Z M97.808,18.888 L97.808,17.616 L95.36,17.616 L95.36,16.536 C95.36,16.1999983 95.3679999,15.8880014 95.384,15.6 C95.4000001,15.3119986 95.4599995,15.0600011 95.564,14.844 C95.6680005,14.6279989 95.8319989,14.4560006 96.056,14.328 C96.2800011,14.1999994 96.5999979,14.136 97.016,14.136 C97.1920009,14.136 97.3679991,14.1479999 97.544,14.172 C97.7200009,14.1960001 97.911999,14.2239998 98.12,14.256 L98.12,12.96 C97.8799988,12.9279998 97.664001,12.9040001 97.472,12.888 C97.279999,12.8719999 97.0720011,12.864 96.848,12.864 C96.239997,12.864 95.740002,12.9519991 95.348,13.128 C94.955998,13.3040009 94.6480011,13.5519984 94.424,13.872 C94.1999989,14.1920016 94.0480004,14.5759978 93.968,15.024 C93.8879996,15.4720022 93.848,15.9599974 93.848,16.488 L93.848,17.616 L91.736,17.616 L91.736,18.888 L93.848,18.888 L93.848,30 L95.36,30 L95.36,18.888 L97.808,18.888 Z M108.152,22.944 L100.136,22.944 C100.2,22.3839972 100.331999,21.8360027 100.532,21.3 C100.732001,20.7639973 100.999998,20.292002 101.336,19.884 C101.672002,19.475998 102.079998,19.1480012 102.56,18.9 C103.040002,18.6519988 103.591997,18.528 104.216,18.528 C104.824003,18.528 105.367998,18.6519988 105.848,18.9 C106.328002,19.1480012 106.735998,19.475998 107.072,19.884 C107.408002,20.292002 107.667999,20.7599974 107.852,21.288 C108.036001,21.8160026 108.136,22.3679971 108.152,22.944 L108.152,22.944 Z M100.136,24.216 L109.664,24.216 C109.696,23.3519957 109.616001,22.5000042 109.424,21.66 C109.231999,20.8199958 108.916002,20.0760032 108.476,19.428 C108.035998,18.7799968 107.464004,18.256002 106.76,17.856 C106.055996,17.455998 105.208005,17.256 104.216,17.256 C103.239995,17.256 102.396004,17.4439981 101.684,17.82 C100.971996,18.1960019 100.392002,18.6919969 99.944,19.308 C99.4959978,19.9240031 99.1640011,20.6239961 98.948,21.408 C98.7319989,22.1920039 98.624,22.9919959 98.624,23.808 C98.624,24.6880044 98.7319989,25.523996 98.948,26.316 C99.1640011,27.108004 99.4959978,27.803997 99.944,28.404 C100.392002,29.004003 100.971996,29.4759983 101.684,29.82 C102.396004,30.1640017 103.239995,30.336 104.216,30.336 C105.784008,30.336 106.995996,29.9520038 107.852,29.184 C108.708004,28.4159962 109.295998,27.328007 109.616,25.92 L108.104,25.92 C107.863999,26.8800048 107.432003,27.6479971 106.808,28.224 C106.183997,28.8000029 105.320006,29.088 104.216,29.088 C103.495996,29.088 102.880003,28.9360015 102.368,28.632 C101.855997,28.3279985 101.432002,27.9440023 101.096,27.48 C100.759998,27.0159977 100.516001,26.4920029 100.364,25.908 C100.211999,25.3239971 100.136,24.7600027 100.136,24.216 L100.136,24.216 Z M119.12,21.24 L120.632,21.24 C120.6,20.5679966 120.464001,19.9840025 120.224,19.488 C119.983999,18.9919975 119.660002,18.5760017 119.252,18.24 C118.843998,17.9039983 118.372003,17.6560008 117.836,17.496 C117.299997,17.3359992 116.720003,17.256 116.096,17.256 C115.551997,17.256 115.004003,17.3199994 114.452,17.448 C113.899997,17.5760006 113.400002,17.7759986 112.952,18.048 C112.503998,18.3200014 112.140001,18.6799978 111.86,19.128 C111.579999,19.5760022 111.44,20.1119969 111.44,20.736 C111.44,21.2640026 111.527999,21.7079982 111.704,22.068 C111.880001,22.4280018 112.123998,22.7319988 112.436,22.98 C112.748002,23.2280012 113.111998,23.4359992 113.528,23.604 C113.944002,23.7720008 114.399998,23.9199994 114.896,24.048 L116.84,24.48 C117.176002,24.5600004 117.507998,24.6559994 117.836,24.768 C118.164002,24.8800006 118.455999,25.0199992 118.712,25.188 C118.968001,25.3560008 119.171999,25.5639988 119.324,25.812 C119.476001,26.0600012 119.552,26.3679982 119.552,26.736 C119.552,27.1680022 119.444001,27.5319985 119.228,27.828 C119.011999,28.1240015 118.736002,28.367999 118.4,28.56 C118.063998,28.752001 117.700002,28.8879996 117.308,28.968 C116.915998,29.0480004 116.536002,29.088 116.168,29.088 C115.159995,29.088 114.316003,28.8280026 113.636,28.308 C112.955997,27.7879974 112.584,27.0160051 112.52,25.992 L111.008,25.992 C111.136001,27.5120076 111.651995,28.6159966 112.556,29.304 C113.460005,29.9920034 114.639993,30.336 116.096,30.336 C116.672003,30.336 117.255997,30.2720006 117.848,30.144 C118.440003,30.0159994 118.971998,29.8040015 119.444,29.508 C119.916002,29.2119985 120.303998,28.8280024 120.608,28.356 C120.912002,27.8839976 121.064,27.3120034 121.064,26.64 C121.064,26.0959973 120.960001,25.624002 120.752,25.224 C120.543999,24.823998 120.276002,24.4880014 119.948,24.216 C119.619998,23.9439986 119.244002,23.7240008 118.82,23.556 C118.395998,23.3879992 117.968002,23.2720003 117.536,23.208 L115.52,22.752 C115.263999,22.6879997 114.984002,22.6040005 114.68,22.5 C114.375998,22.3959995 114.096001,22.2640008 113.84,22.104 C113.583999,21.9439992 113.372001,21.7480012 113.204,21.516 C113.035999,21.2839988 112.952,21.0000017 112.952,20.664 C112.952,20.263998 113.039999,19.9280014 113.216,19.656 C113.392001,19.3839986 113.623999,19.1640008 113.912,18.996 C114.200001,18.8279992 114.515998,18.7080004 114.86,18.636 C115.204002,18.5639996 115.543998,18.528 115.88,18.528 C116.312002,18.528 116.719998,18.5799995 117.104,18.684 C117.488002,18.7880005 117.827999,18.9519989 118.124,19.176 C118.420001,19.4000011 118.655999,19.6839983 118.832,20.028 C119.008001,20.3720017 119.104,20.7759977 119.12,21.24 L119.12,21.24 Z M130.664,21.24 L132.176,21.24 C132.144,20.5679966 132.008001,19.9840025 131.768,19.488 C131.527999,18.9919975 131.204002,18.5760017 130.796,18.24 C130.387998,17.9039983 129.916003,17.6560008 129.38,17.496 C128.843997,17.3359992 128.264003,17.256 127.64,17.256 C127.095997,17.256 126.548003,17.3199994 125.996,17.448 C125.443997,17.5760006 124.944002,17.7759986 124.496,18.048 C124.047998,18.3200014 123.684001,18.6799978 123.404,19.128 C123.123999,19.5760022 122.984,20.1119969 122.984,20.736 C122.984,21.2640026 123.071999,21.7079982 123.248,22.068 C123.424001,22.4280018 123.667998,22.7319988 123.98,22.98 C124.292002,23.2280012 124.655998,23.4359992 125.072,23.604 C125.488002,23.7720008 125.943998,23.9199994 126.44,24.048 L128.384,24.48 C128.720002,24.5600004 129.051998,24.6559994 129.38,24.768 C129.708002,24.8800006 129.999999,25.0199992 130.256,25.188 C130.512001,25.3560008 130.715999,25.5639988 130.868,25.812 C131.020001,26.0600012 131.096,26.3679982 131.096,26.736 C131.096,27.1680022 130.988001,27.5319985 130.772,27.828 C130.555999,28.1240015 130.280002,28.367999 129.944,28.56 C129.607998,28.752001 129.244002,28.8879996 128.852,28.968 C128.459998,29.0480004 128.080002,29.088 127.712,29.088 C126.703995,29.088 125.860003,28.8280026 125.18,28.308 C124.499997,27.7879974 124.128,27.0160051 124.064,25.992 L122.552,25.992 C122.680001,27.5120076 123.195995,28.6159966 124.1,29.304 C125.004005,29.9920034 126.183993,30.336 127.64,30.336 C128.216003,30.336 128.799997,30.2720006 129.392,30.144 C129.984003,30.0159994 130.515998,29.8040015 130.988,29.508 C131.460002,29.2119985 131.847998,28.8280024 132.152,28.356 C132.456002,27.8839976 132.608,27.3120034 132.608,26.64 C132.608,26.0959973 132.504001,25.624002 132.296,25.224 C132.087999,24.823998 131.820002,24.4880014 131.492,24.216 C131.163998,23.9439986 130.788002,23.7240008 130.364,23.556 C129.939998,23.3879992 129.512002,23.2720003 129.08,23.208 L127.064,22.752 C126.807999,22.6879997 126.528002,22.6040005 126.224,22.5 C125.919998,22.3959995 125.640001,22.2640008 125.384,22.104 C125.127999,21.9439992 124.916001,21.7480012 124.748,21.516 C124.579999,21.2839988 124.496,21.0000017 124.496,20.664 C124.496,20.263998 124.583999,19.9280014 124.76,19.656 C124.936001,19.3839986 125.167999,19.1640008 125.456,18.996 C125.744001,18.8279992 126.059998,18.7080004 126.404,18.636 C126.748002,18.5639996 127.087998,18.528 127.424,18.528 C127.856002,18.528 128.263998,18.5799995 128.648,18.684 C129.032002,18.7880005 129.371999,18.9519989 129.668,19.176 C129.964001,19.4000011 130.199999,19.6839983 130.376,20.028 C130.552001,20.3720017 130.648,20.7759977 130.664,21.24 L130.664,21.24 Z M134.816,12.864 L134.816,15.288 L136.328,15.288 L136.328,12.864 L134.816,12.864 Z M134.816,17.616 L134.816,30 L136.328,30 L136.328,17.616 L134.816,17.616 Z M144.464,18.528 C145.184004,18.528 145.815997,18.6799985 146.36,18.984 C146.904003,19.2880015 147.355998,19.6879975 147.716,20.184 C148.076002,20.6800025 148.347999,21.2439968 148.532,21.876 C148.716001,22.5080032 148.808,23.1519967 148.808,23.808 C148.808,24.4640033 148.716001,25.1079968 148.532,25.74 C148.347999,26.3720032 148.076002,26.9359975 147.716,27.432 C147.355998,27.9280025 146.904003,28.3279985 146.36,28.632 C145.815997,28.9360015 145.184004,29.088 144.464,29.088 C143.743996,29.088 143.112003,28.9360015 142.568,28.632 C142.023997,28.3279985 141.572002,27.9280025 141.212,27.432 C140.851998,26.9359975 140.580001,26.3720032 140.396,25.74 C140.211999,25.1079968 140.12,24.4640033 140.12,23.808 C140.12,23.1519967 140.211999,22.5080032 140.396,21.876 C140.580001,21.2439968 140.851998,20.6800025 141.212,20.184 C141.572002,19.6879975 142.023997,19.2880015 142.568,18.984 C143.112003,18.6799985 143.743996,18.528 144.464,18.528 L144.464,18.528 Z M144.464,17.256 C143.519995,17.256 142.684004,17.4319982 141.956,17.784 C141.227996,18.1360018 140.616002,18.607997 140.12,19.2 C139.623998,19.792003 139.248001,20.483996 138.992,21.276 C138.735999,22.068004 138.608,22.9119955 138.608,23.808 C138.608,24.7040045 138.735999,25.547996 138.992,26.34 C139.248001,27.132004 139.623998,27.823997 140.12,28.416 C140.616002,29.008003 141.227996,29.4759983 141.956,29.82 C142.684004,30.1640017 143.519995,30.336 144.464,30.336 C145.408005,30.336 146.243996,30.1640017 146.972,29.82 C147.700004,29.4759983 148.311998,29.008003 148.808,28.416 C149.304002,27.823997 149.679999,27.132004 149.936,26.34 C150.192001,25.547996 150.32,24.7040045 150.32,23.808 C150.32,22.9119955 150.192001,22.068004 149.936,21.276 C149.679999,20.483996 149.304002,19.792003 148.808,19.2 C148.311998,18.607997 147.700004,18.1360018 146.972,17.784 C146.243996,17.4319982 145.408005,17.256 144.464,17.256 L144.464,17.256 Z M152.552,17.616 L152.552,30 L154.064,30 L154.064,22.776 C154.08,22.167997 154.179999,21.6040026 154.364,21.084 C154.548001,20.5639974 154.803998,20.1160019 155.132,19.74 C155.460002,19.3639981 155.859998,19.0680011 156.332,18.852 C156.804002,18.6359989 157.343997,18.528 157.952,18.528 C158.560003,18.528 159.067998,18.623999 159.476,18.816 C159.884002,19.008001 160.207999,19.2719983 160.448,19.608 C160.688001,19.9440017 160.856,20.3399977 160.952,20.796 C161.048,21.2520023 161.096,21.7439974 161.096,22.272 L161.096,30 L162.608,30 L162.608,22.032 C162.608,21.2959963 162.536001,20.632003 162.392,20.04 C162.247999,19.447997 162.000002,18.948002 161.648,18.54 C161.295998,18.131998 160.828003,17.8160011 160.244,17.592 C159.659997,17.3679989 158.936004,17.256 158.072,17.256 C157.191996,17.256 156.384004,17.4839977 155.648,17.94 C154.911996,18.3960023 154.400001,18.9999962 154.112,19.752 L154.064,19.752 L154.064,17.616 L152.552,17.616 Z M165.32,21.408 L166.832,21.408 C166.864,20.399995 167.183997,19.6680023 167.792,19.212 C168.400003,18.7559977 169.183995,18.528 170.144,18.528 C170.592002,18.528 171.011998,18.5639996 171.404,18.636 C171.796002,18.7080004 172.139999,18.839999 172.436,19.032 C172.732001,19.224001 172.963999,19.4839984 173.132,19.812 C173.300001,20.1400016 173.384,20.5599974 173.384,21.072 C173.384,21.4080017 173.34,21.679999 173.252,21.888 C173.164,22.096001 173.040001,22.2599994 172.88,22.38 C172.719999,22.5000006 172.520001,22.5839998 172.28,22.632 C172.039999,22.6800002 171.760002,22.7199998 171.44,22.752 C170.623996,22.8480005 169.820004,22.9479995 169.028,23.052 C168.235996,23.1560005 167.524003,23.3359987 166.892,23.592 C166.259997,23.8480013 165.752002,24.2199976 165.368,24.708 C164.983998,25.1960024 164.792,25.8719957 164.792,26.736 C164.792,27.3600031 164.899999,27.8999977 165.116,28.356 C165.332001,28.8120023 165.627998,29.1879985 166.004,29.484 C166.380002,29.7800015 166.819997,29.9959993 167.324,30.132 C167.828003,30.2680007 168.367997,30.336 168.944,30.336 C169.552003,30.336 170.075998,30.2800006 170.516,30.168 C170.956002,30.0559994 171.347998,29.896001 171.692,29.688 C172.036002,29.479999 172.347999,29.2200016 172.628,28.908 C172.908001,28.5959984 173.183999,28.240002 173.456,27.84 L173.504,27.84 C173.504,28.1600016 173.524,28.4519987 173.564,28.716 C173.604,28.9800013 173.687999,29.207999 173.816,29.4 C173.944001,29.592001 174.123999,29.7399995 174.356,29.844 C174.588001,29.9480005 174.895998,30 175.28,30 C175.488001,30 175.659999,29.9920001 175.796,29.976 C175.932001,29.9599999 176.087999,29.9360002 176.264,29.904 L176.264,28.632 C176.119999,28.6960003 175.960001,28.728 175.784,28.728 C175.191997,28.728 174.896,28.424003 174.896,27.816 L174.896,21.24 C174.896,20.4079958 174.760001,19.7320026 174.488,19.212 C174.215999,18.6919974 173.864002,18.2880014 173.432,18 C172.999998,17.7119986 172.512003,17.5160005 171.968,17.412 C171.423997,17.3079995 170.880003,17.256 170.336,17.256 C169.615996,17.256 168.960003,17.3359992 168.368,17.496 C167.775997,17.6560008 167.260002,17.9039983 166.82,18.24 C166.379998,18.5760017 166.032001,19.0079974 165.776,19.536 C165.519999,20.0640026 165.368,20.6879964 165.32,21.408 L165.32,21.408 Z M173.384,23.232 L173.384,25.2 C173.384,25.808003 173.268001,26.3519976 173.036,26.832 C172.803999,27.3120024 172.492002,27.7199983 172.1,28.056 C171.707998,28.3920017 171.248003,28.6479991 170.72,28.824 C170.191997,29.0000009 169.640003,29.088 169.064,29.088 C168.711998,29.088 168.368002,29.0320006 168.032,28.92 C167.695998,28.8079994 167.400001,28.6440011 167.144,28.428 C166.887999,28.2119989 166.684001,27.9560015 166.532,27.66 C166.379999,27.3639985 166.304,27.0240019 166.304,26.64 C166.304,26.031997 166.483998,25.5640016 166.844,25.236 C167.204002,24.9079984 167.663997,24.6560009 168.224,24.48 C168.784003,24.3039991 169.403997,24.1720004 170.084,24.084 C170.764003,23.9959996 171.423997,23.8960006 172.064,23.784 C172.272001,23.7519998 172.511999,23.6960004 172.784,23.616 C173.056001,23.5359996 173.24,23.4080009 173.336,23.232 L173.384,23.232 Z M177.944,12.864 L177.944,30 L179.456,30 L179.456,12.864 L177.944,12.864 Z M190.088,24.36 L188.456,24.36 C188.408,25.4160053 188.547998,26.3199962 188.876,27.072 C189.204002,27.8240038 189.671997,28.4399976 190.28,28.92 C190.888003,29.4000024 191.623996,29.7559988 192.488,29.988 C193.352004,30.2200012 194.287995,30.336 195.296,30.336 C196.304005,30.336 197.167996,30.2440009 197.888,30.06 C198.608004,29.8759991 199.211998,29.6360015 199.7,29.34 C200.188002,29.0439985 200.571999,28.7120018 200.852,28.344 C201.132001,27.9759982 201.347999,27.6120018 201.5,27.252 C201.652001,26.8919982 201.748,26.5520016 201.788,26.232 C201.828,25.9119984 201.848,25.656001 201.848,25.464 C201.848,24.7599965 201.732001,24.1600025 201.5,23.664 C201.267999,23.1679975 200.948002,22.7480017 200.54,22.404 C200.131998,22.0599983 199.660003,21.7720012 199.124,21.54 C198.587997,21.3079988 198.016003,21.1120008 197.408,20.952 L193.232,19.92 C192.879998,19.8399996 192.548002,19.7360006 192.236,19.608 C191.923998,19.4799994 191.648001,19.312001 191.408,19.104 C191.167999,18.895999 190.980001,18.6440015 190.844,18.348 C190.707999,18.0519985 190.64,17.704002 190.64,17.304 C190.64,16.6639968 190.759999,16.1280022 191,15.696 C191.240001,15.2639978 191.555998,14.9160013 191.948,14.652 C192.340002,14.3879987 192.795997,14.1960006 193.316,14.076 C193.836003,13.9559994 194.375997,13.896 194.936,13.896 C195.544003,13.896 196.123997,13.9799992 196.676,14.148 C197.228003,14.3160008 197.715998,14.5639984 198.14,14.892 C198.564002,15.2200016 198.907999,15.6279976 199.172,16.116 C199.436001,16.6040024 199.584,17.1759967 199.616,17.832 L201.248,17.832 C201.248,16.9519956 201.076002,16.1800033 200.732,15.516 C200.387998,14.8519967 199.928003,14.2960022 199.352,13.848 C198.775997,13.3999978 198.104004,13.0640011 197.336,12.84 C196.567996,12.6159989 195.760004,12.504 194.912,12.504 C193.711994,12.504 192.728004,12.6759983 191.96,13.02 C191.191996,13.3640017 190.588002,13.7839975 190.148,14.28 C189.707998,14.7760025 189.408001,15.3039972 189.248,15.864 C189.087999,16.4240028 189.008,16.9119979 189.008,17.328 C189.008,18.0000034 189.115999,18.5679977 189.332,19.032 C189.548001,19.4960023 189.831998,19.8879984 190.184,20.208 C190.536002,20.5280016 190.947998,20.783999 191.42,20.976 C191.892002,21.168001 192.375998,21.3279994 192.872,21.456 L196.688,22.392 C197.088002,22.4880005 197.495998,22.6119992 197.912,22.764 C198.328002,22.9160008 198.707998,23.1119988 199.052,23.352 C199.396002,23.5920012 199.675999,23.8879982 199.892,24.24 C200.108001,24.5920018 200.216,25.0079976 200.216,25.488 C200.216,26.1120031 200.064002,26.6439978 199.76,27.084 C199.455998,27.5240022 199.076002,27.8839986 198.62,28.164 C198.163998,28.4440014 197.672003,28.6479994 197.144,28.776 C196.615997,28.9040006 196.128002,28.968 195.68,28.968 C194.895996,28.968 194.160003,28.8920008 193.472,28.74 C192.783997,28.5879992 192.188003,28.3360018 191.684,27.984 C191.179997,27.6319982 190.784001,27.160003 190.496,26.568 C190.207999,25.975997 190.072,25.2400044 190.088,24.36 L190.088,24.36 Z M214.184,30 L214.184,17.616 L212.672,17.616 L212.672,24.12 C212.672,24.7440031 212.600001,25.355997 212.456,25.956 C212.311999,26.556003 212.088002,27.0879977 211.784,27.552 C211.479998,28.0160023 211.096002,28.3879986 210.632,28.668 C210.167998,28.9480014 209.608003,29.088 208.952,29.088 C207.751994,29.088 206.908002,28.8000029 206.42,28.224 C205.931998,27.6479971 205.672,26.8000056 205.64,25.68 L205.64,17.616 L204.128,17.616 L204.128,25.656 C204.128,26.3920037 204.207999,27.0479971 204.368,27.624 C204.528001,28.2000029 204.779998,28.687998 205.124,29.088 C205.468002,29.488002 205.915997,29.7959989 206.468,30.012 C207.020003,30.2280011 207.687996,30.336 208.472,30.336 C209.400005,30.336 210.243996,30.1160022 211.004,29.676 C211.764004,29.2359978 212.343998,28.6000042 212.744,27.768 L212.792,27.768 L212.792,30 L214.184,30 Z M217.04,17.616 L217.04,34.56 L218.552,34.56 L218.552,27.648 L218.6,27.648 C218.760001,28.0960022 218.987999,28.4879983 219.284,28.824 C219.580001,29.1600017 219.919998,29.4399989 220.304,29.664 C220.688002,29.8880011 221.103998,30.0559994 221.552,30.168 C222.000002,30.2800006 222.447998,30.336 222.896,30.336 C223.840005,30.336 224.659997,30.1640017 225.356,29.82 C226.052003,29.4759983 226.631998,29.004003 227.096,28.404 C227.560002,27.803997 227.903999,27.108004 228.128,26.316 C228.352001,25.523996 228.464,24.6880044 228.464,23.808 C228.464,22.9279956 228.352001,22.092004 228.128,21.3 C227.903999,20.507996 227.560002,19.812003 227.096,19.212 C226.631998,18.611997 226.052003,18.1360018 225.356,17.784 C224.659997,17.4319982 223.840005,17.256 222.896,17.256 C221.887995,17.256 220.988004,17.4919976 220.196,17.964 C219.403996,18.4360024 218.832002,19.1039957 218.48,19.968 L218.432,19.968 L218.432,17.616 L217.04,17.616 Z M226.952,23.808 C226.952,24.4480032 226.876001,25.0839968 226.724,25.716 C226.571999,26.3480032 226.332002,26.9119975 226.004,27.408 C225.675998,27.9040025 225.256003,28.3079984 224.744,28.62 C224.231997,28.9320016 223.616004,29.088 222.896,29.088 C222.095996,29.088 221.420003,28.9320016 220.868,28.62 C220.315997,28.3079984 219.868002,27.9040025 219.524,27.408 C219.179998,26.9119975 218.932001,26.3480032 218.78,25.716 C218.627999,25.0839968 218.552,24.4480032 218.552,23.808 C218.552,23.1039965 218.619999,22.4320032 218.756,21.792 C218.892001,21.1519968 219.127998,20.5920024 219.464,20.112 C219.800002,19.6319976 220.247997,19.2480014 220.808,18.96 C221.368003,18.6719986 222.063996,18.528 222.896,18.528 C223.616004,18.528 224.231997,18.6839984 224.744,18.996 C225.256003,19.3080016 225.675998,19.7119975 226.004,20.208 C226.332002,20.7040025 226.571999,21.2679968 226.724,21.9 C226.876001,22.5320032 226.952,23.1679968 226.952,23.808 L226.952,23.808 Z M230.816,17.616 L230.816,34.56 L232.328,34.56 L232.328,27.648 L232.376,27.648 C232.536001,28.0960022 232.763999,28.4879983 233.06,28.824 C233.356001,29.1600017 233.695998,29.4399989 234.08,29.664 C234.464002,29.8880011 234.879998,30.0559994 235.328,30.168 C235.776002,30.2800006 236.223998,30.336 236.672,30.336 C237.616005,30.336 238.435997,30.1640017 239.132,29.82 C239.828003,29.4759983 240.407998,29.004003 240.872,28.404 C241.336002,27.803997 241.679999,27.108004 241.904,26.316 C242.128001,25.523996 242.24,24.6880044 242.24,23.808 C242.24,22.9279956 242.128001,22.092004 241.904,21.3 C241.679999,20.507996 241.336002,19.812003 240.872,19.212 C240.407998,18.611997 239.828003,18.1360018 239.132,17.784 C238.435997,17.4319982 237.616005,17.256 236.672,17.256 C235.663995,17.256 234.764004,17.4919976 233.972,17.964 C233.179996,18.4360024 232.608002,19.1039957 232.256,19.968 L232.208,19.968 L232.208,17.616 L230.816,17.616 Z M240.728,23.808 C240.728,24.4480032 240.652001,25.0839968 240.5,25.716 C240.347999,26.3480032 240.108002,26.9119975 239.78,27.408 C239.451998,27.9040025 239.032003,28.3079984 238.52,28.62 C238.007997,28.9320016 237.392004,29.088 236.672,29.088 C235.871996,29.088 235.196003,28.9320016 234.644,28.62 C234.091997,28.3079984 233.644002,27.9040025 233.3,27.408 C232.955998,26.9119975 232.708001,26.3480032 232.556,25.716 C232.403999,25.0839968 232.328,24.4480032 232.328,23.808 C232.328,23.1039965 232.395999,22.4320032 232.532,21.792 C232.668001,21.1519968 232.903998,20.5920024 233.24,20.112 C233.576002,19.6319976 234.023997,19.2480014 234.584,18.96 C235.144003,18.6719986 235.839996,18.528 236.672,18.528 C237.392004,18.528 238.007997,18.6839984 238.52,18.996 C239.032003,19.3080016 239.451998,19.7119975 239.78,20.208 C240.108002,20.7040025 240.347999,21.2679968 240.5,21.9 C240.652001,22.5320032 240.728,23.1679968 240.728,23.808 L240.728,23.808 Z M249.824,18.528 C250.544004,18.528 251.175997,18.6799985 251.72,18.984 C252.264003,19.2880015 252.715998,19.6879975 253.076,20.184 C253.436002,20.6800025 253.707999,21.2439968 253.892,21.876 C254.076001,22.5080032 254.168,23.1519967 254.168,23.808 C254.168,24.4640033 254.076001,25.1079968 253.892,25.74 C253.707999,26.3720032 253.436002,26.9359975 253.076,27.432 C252.715998,27.9280025 252.264003,28.3279985 251.72,28.632 C251.175997,28.9360015 250.544004,29.088 249.824,29.088 C249.103996,29.088 248.472003,28.9360015 247.928,28.632 C247.383997,28.3279985 246.932002,27.9280025 246.572,27.432 C246.211998,26.9359975 245.940001,26.3720032 245.756,25.74 C245.571999,25.1079968 245.48,24.4640033 245.48,23.808 C245.48,23.1519967 245.571999,22.5080032 245.756,21.876 C245.940001,21.2439968 246.211998,20.6800025 246.572,20.184 C246.932002,19.6879975 247.383997,19.2880015 247.928,18.984 C248.472003,18.6799985 249.103996,18.528 249.824,18.528 L249.824,18.528 Z M249.824,17.256 C248.879995,17.256 248.044004,17.4319982 247.316,17.784 C246.587996,18.1360018 245.976002,18.607997 245.48,19.2 C244.983998,19.792003 244.608001,20.483996 244.352,21.276 C244.095999,22.068004 243.968,22.9119955 243.968,23.808 C243.968,24.7040045 244.095999,25.547996 244.352,26.34 C244.608001,27.132004 244.983998,27.823997 245.48,28.416 C245.976002,29.008003 246.587996,29.4759983 247.316,29.82 C248.044004,30.1640017 248.879995,30.336 249.824,30.336 C250.768005,30.336 251.603996,30.1640017 252.332,29.82 C253.060004,29.4759983 253.671998,29.008003 254.168,28.416 C254.664002,27.823997 255.039999,27.132004 255.296,26.34 C255.552001,25.547996 255.68,24.7040045 255.68,23.808 C255.68,22.9119955 255.552001,22.068004 255.296,21.276 C255.039999,20.483996 254.664002,19.792003 254.168,19.2 C253.671998,18.607997 253.060004,18.1360018 252.332,17.784 C251.603996,17.4319982 250.768005,17.256 249.824,17.256 L249.824,17.256 Z M257.936,17.616 L257.936,30 L259.448,30 L259.448,23.4 C259.448,22.7439967 259.559999,22.1400028 259.784,21.588 C260.008001,21.0359972 260.323998,20.560002 260.732,20.16 C261.140002,19.759998 261.623997,19.4520011 262.184,19.236 C262.744003,19.0199989 263.367997,18.9279998 264.056,18.96 L264.056,17.448 C262.935994,17.3999998 261.972004,17.6479973 261.164,18.192 C260.355996,18.7360027 259.760002,19.511995 259.376,20.52 L259.328,20.52 L259.328,17.616 L257.936,17.616 Z M267.896,17.616 L267.896,13.896 L266.384,13.896 L266.384,17.616 L264.224,17.616 L264.224,18.888 L266.384,18.888 L266.384,27.36 C266.368,28.4160053 266.559998,29.139998 266.96,29.532 C267.360002,29.924002 268.063995,30.12 269.072,30.12 C269.296001,30.12 269.519999,30.1120001 269.744,30.096 C269.968001,30.0799999 270.191999,30.072 270.416,30.072 L270.416,28.8 C269.983998,28.8480002 269.552002,28.872 269.12,28.872 C268.575997,28.8399998 268.236001,28.6840014 268.1,28.404 C267.963999,28.1239986 267.896,27.7360025 267.896,27.24 L267.896,18.888 L270.416,18.888 L270.416,17.616 L267.896,17.616 Z" id="Professional-Support-Copy" fill="#4A4A4A" sketch:type="MSShapeGroup"></path>
        </g>
    </g>
</svg>