<?xml version="1.0" encoding="UTF-8" standalone="no"?>
<svg width="210px" height="40px" viewBox="0 0 210 40" version="1.1" xmlns="http://www.w3.org/2000/svg" xmlns:xlink="http://www.w3.org/1999/xlink" xmlns:sketch="http://www.bohemiancoding.com/sketch/ns">
    <!-- Generator: Sketch 3.3.2 (12043) - http://www.bohemiancoding.com/sketch -->
    <title>soon-header-customization</title>
    <desc>Created with Sketch.</desc>
    <defs></defs>
    <g id="Page-1" stroke="none" stroke-width="1" fill="none" fill-rule="evenodd" sketch:type="MSPage">
        <g id="soon-header-customization" sketch:type="MSLayerGroup" transform="translate(5.000000, 0.000000)">
            <g id="settings" sketch:type="MSShapeGroup">
                <path d="M34.8571429,22.0952381 C34.952381,21.4285714 35.047619,20.7619048 35.047619,20 C35.047619,19.2380952 34.952381,18.5714286 34.8571429,17.9047619 L39.1428571,14.8571429 C39.5238095,14.5714286 39.7142857,14 39.4285714,13.5238095 L35.2380952,6.47619048 C34.952381,6 34.4761905,5.80952381 34,6.0952381 L29.2380952,8.28571429 C28.0952381,7.42857143 26.952381,6.76190476 25.6190476,6.19047619 L25.1428571,0.952380952 C25.047619,0.476190476 24.6666667,0.0952380952 24.1904762,0.0952380952 L16,0.0952380952 C15.5238095,0.0952380952 15.047619,0.476190476 15.047619,0.952380952 L14.5714286,6.19047619 C13.2380952,6.76190476 12,7.42857143 10.952381,8.28571429 L6.19047619,6.0952381 C5.71428571,5.9047619 5.14285714,6.0952381 4.95238095,6.47619048 L0.857142857,13.5238095 C0.571428571,14 0.761904762,14.5714286 1.14285714,14.8571429 L5.42857143,17.9047619 C5.33333333,18.5714286 5.23809524,19.2380952 5.23809524,20 C5.23809524,20.7619048 5.33333333,21.4285714 5.42857143,22.0952381 L0.952380952,25.1428571 C0.571428571,25.4285714 0.380952381,26 0.666666667,26.4761905 L4.76190476,33.5238095 C5.04761905,34 5.52380952,34.1904762 6,33.9047619 L10.7619048,31.7142857 C11.9047619,32.5714286 13.047619,33.2380952 14.3809524,33.8095238 L14.8571429,39.047619 C14.952381,39.5238095 15.3333333,39.9047619 15.8095238,39.9047619 L24,39.9047619 C24.4761905,39.9047619 24.952381,39.5238095 24.952381,39.047619 L25.4285714,33.8095238 C26.7619048,33.2380952 28,32.5714286 29.047619,31.7142857 L33.8095238,33.9047619 C34.2857143,34.0952381 34.8571429,33.9047619 35.047619,33.5238095 L39.1428571,26.4761905 C39.4285714,26 39.2380952,25.4285714 38.8571429,25.1428571 L34.8571429,22.0952381 L34.8571429,22.0952381 Z M20,29.5238095 C14.7619048,29.5238095 10.4761905,25.2380952 10.4761905,20 C10.4761905,14.7619048 14.7619048,10.4761905 20,10.4761905 C25.2380952,10.4761905 29.5238095,14.7619048 29.5238095,20 C29.5238095,25.2380952 25.2380952,29.5238095 20,29.5238095 L20,29.5238095 Z" id="Shape" fill="#607D8B"></path>
                <path d="M20,8.57142857 C13.7142857,8.57142857 8.57142857,13.7142857 8.57142857,20 C8.57142857,26.2857143 13.7142857,31.4285714 20,31.4285714 C26.2857143,31.4285714 31.4285714,26.2857143 31.4285714,20 C31.4285714,13.7142857 26.2857143,8.57142857 20,8.57142857 L20,8.57142857 Z M20,24.7619048 C17.3333333,24.7619048 15.2380952,22.6666667 15.2380952,20 C15.2380952,17.3333333 17.3333333,15.2380952 20,15.2380952 C22.6666667,15.2380952 24.7619048,17.3333333 24.7619048,20 C24.7619048,22.6666667 22.6666667,24.7619048 20,24.7619048 L20,24.7619048 Z" id="Shape" fill="#455A64"></path>
            </g>
            <path d="M72.256,17.048 L73.888,17.048 C73.7759994,16.1519955 73.5080021,15.3600034 73.084,14.672 C72.6599979,13.9839966 72.1320032,13.4040024 71.5,12.932 C70.8679968,12.4599976 70.1640039,12.1040012 69.388,11.864 C68.6119961,11.6239988 67.8160041,11.504 67,11.504 C65.6559933,11.504 64.4760051,11.7479976 63.46,12.236 C62.4439949,12.7240024 61.6000034,13.3799959 60.928,14.204 C60.2559966,15.0280041 59.7520017,15.9759946 59.416,17.048 C59.0799983,18.1200054 58.912,19.2479941 58.912,20.432 C58.912,21.6160059 59.0799983,22.7439946 59.416,23.816 C59.7520017,24.8880054 60.2559966,25.8319959 60.928,26.648 C61.6000034,27.4640041 62.4439949,28.1159976 63.46,28.604 C64.4760051,29.0920024 65.6559933,29.336 67,29.336 C68.008005,29.336 68.9239959,29.1760016 69.748,28.856 C70.5720041,28.5359984 71.287997,28.080003 71.896,27.488 C72.504003,26.895997 72.9999981,26.1760042 73.384,25.328 C73.7680019,24.4799958 74.0159994,23.5280053 74.128,22.472 L72.496,22.472 C72.4159996,23.2400038 72.2320014,23.9559967 71.944,24.62 C71.6559986,25.2840033 71.2800023,25.8639975 70.816,26.36 C70.3519977,26.8560025 69.8000032,27.2479986 69.16,27.536 C68.5199968,27.8240014 67.800004,27.968 67,27.968 C65.8639943,27.968 64.8880041,27.7520022 64.072,27.32 C63.2559959,26.8879978 62.5880026,26.3160036 62.068,25.604 C61.5479974,24.8919964 61.1640012,24.0840045 60.916,23.18 C60.6679988,22.2759955 60.544,21.3600046 60.544,20.432 C60.544,19.4879953 60.6679988,18.5680045 60.916,17.672 C61.1640012,16.7759955 61.5479974,15.9720036 62.068,15.26 C62.5880026,14.5479964 63.2559959,13.9760022 64.072,13.544 C64.8880041,13.1119978 65.8639943,12.896 67,12.896 C67.6240031,12.896 68.2199972,12.9879991 68.788,13.172 C69.3560028,13.3560009 69.8759976,13.6239982 70.348,13.976 C70.8200024,14.3280018 71.2199984,14.7639974 71.548,15.284 C71.8760016,15.8040026 72.1119993,16.3919967 72.256,17.048 L72.256,17.048 Z M86.368,29 L86.368,16.616 L84.856,16.616 L84.856,23.12 C84.856,23.7440031 84.7840007,24.355997 84.64,24.956 C84.4959993,25.556003 84.2720015,26.0879977 83.968,26.552 C83.6639985,27.0160023 83.2800023,27.3879986 82.816,27.668 C82.3519977,27.9480014 81.7920033,28.088 81.136,28.088 C79.935994,28.088 79.0920024,27.8000029 78.604,27.224 C78.1159976,26.6479971 77.8560002,25.8000056 77.824,24.68 L77.824,16.616 L76.312,16.616 L76.312,24.656 C76.312,25.3920037 76.3919992,26.0479971 76.552,26.624 C76.7120008,27.2000029 76.9639983,27.687998 77.308,28.088 C77.6520017,28.488002 78.0999972,28.7959989 78.652,29.012 C79.2040028,29.2280011 79.8719961,29.336 80.656,29.336 C81.5840046,29.336 82.4279962,29.1160022 83.188,28.676 C83.9480038,28.2359978 84.527998,27.6000042 84.928,26.768 L84.976,26.768 L84.976,29 L86.368,29 Z M96.64,20.24 L98.152,20.24 C98.1199998,19.5679966 97.9840012,18.9840025 97.744,18.488 C97.5039988,17.9919975 97.180002,17.5760017 96.772,17.24 C96.363998,16.9039983 95.8920027,16.6560008 95.356,16.496 C94.8199973,16.3359992 94.2400031,16.256 93.616,16.256 C93.0719973,16.256 92.5240028,16.3199994 91.972,16.448 C91.4199972,16.5760006 90.9200022,16.7759986 90.472,17.048 C90.0239978,17.3200014 89.6600014,17.6799978 89.38,18.128 C89.0999986,18.5760022 88.96,19.1119969 88.96,19.736 C88.96,20.2640026 89.0479991,20.7079982 89.224,21.068 C89.4000009,21.4280018 89.6439984,21.7319988 89.956,21.98 C90.2680016,22.2280012 90.6319979,22.4359992 91.048,22.604 C91.4640021,22.7720008 91.9199975,22.9199994 92.416,23.048 L94.36,23.48 C94.6960017,23.5600004 95.0279984,23.6559994 95.356,23.768 C95.6840016,23.8800006 95.9759987,24.0199992 96.232,24.188 C96.4880013,24.3560008 96.6919992,24.5639988 96.844,24.812 C96.9960008,25.0600012 97.072,25.3679982 97.072,25.736 C97.072,26.1680022 96.9640011,26.5319985 96.748,26.828 C96.5319989,27.1240015 96.2560017,27.367999 95.92,27.56 C95.5839983,27.752001 95.220002,27.8879996 94.828,27.968 C94.435998,28.0480004 94.0560018,28.088 93.688,28.088 C92.679995,28.088 91.8360034,27.8280026 91.156,27.308 C90.4759966,26.7879974 90.1040003,26.0160051 90.04,24.992 L88.528,24.992 C88.6560006,26.5120076 89.1719955,27.6159966 90.076,28.304 C90.9800045,28.9920034 92.1599927,29.336 93.616,29.336 C94.1920029,29.336 94.775997,29.2720006 95.368,29.144 C95.960003,29.0159994 96.4919976,28.8040015 96.964,28.508 C97.4360024,28.2119985 97.8239985,27.8280024 98.128,27.356 C98.4320015,26.8839976 98.584,26.3120034 98.584,25.64 C98.584,25.0959973 98.480001,24.624002 98.272,24.224 C98.063999,23.823998 97.7960016,23.4880014 97.468,23.216 C97.1399984,22.9439986 96.7640021,22.7240008 96.34,22.556 C95.9159979,22.3879992 95.4880022,22.2720003 95.056,22.208 L93.04,21.752 C92.7839987,21.6879997 92.5040015,21.6040005 92.2,21.5 C91.8959985,21.3959995 91.6160013,21.2640008 91.36,21.104 C91.1039987,20.9439992 90.8920008,20.7480012 90.724,20.516 C90.5559992,20.2839988 90.472,20.0000017 90.472,19.664 C90.472,19.263998 90.5599991,18.9280014 90.736,18.656 C90.9120009,18.3839986 91.1439986,18.1640008 91.432,17.996 C91.7200014,17.8279992 92.0359983,17.7080004 92.38,17.636 C92.7240017,17.5639996 93.0639983,17.528 93.4,17.528 C93.8320022,17.528 94.2399981,17.5799995 94.624,17.684 C95.0080019,17.7880005 95.3479985,17.9519989 95.644,18.176 C95.9400015,18.4000011 96.1759991,18.6839983 96.352,19.028 C96.5280009,19.3720017 96.6239999,19.7759977 96.64,20.24 L96.64,20.24 Z M103.168,16.616 L103.168,12.896 L101.656,12.896 L101.656,16.616 L99.496,16.616 L99.496,17.888 L101.656,17.888 L101.656,26.36 C101.64,27.4160053 101.831998,28.139998 102.232,28.532 C102.632002,28.924002 103.335995,29.12 104.344,29.12 C104.568001,29.12 104.791999,29.1120001 105.016,29.096 C105.240001,29.0799999 105.463999,29.072 105.688,29.072 L105.688,27.8 C105.255998,27.8480002 104.824002,27.872 104.392,27.872 C103.847997,27.8399998 103.508001,27.6840014 103.372,27.404 C103.235999,27.1239986 103.168,26.7360025 103.168,26.24 L103.168,17.888 L105.688,17.888 L105.688,16.616 L103.168,16.616 Z M113.104,17.528 C113.824004,17.528 114.455997,17.6799985 115,17.984 C115.544003,18.2880015 115.995998,18.6879975 116.356,19.184 C116.716002,19.6800025 116.987999,20.2439968 117.172,20.876 C117.356001,21.5080032 117.448,22.1519967 117.448,22.808 C117.448,23.4640033 117.356001,24.1079968 117.172,24.74 C116.987999,25.3720032 116.716002,25.9359975 116.356,26.432 C115.995998,26.9280025 115.544003,27.3279985 115,27.632 C114.455997,27.9360015 113.824004,28.088 113.104,28.088 C112.383996,28.088 111.752003,27.9360015 111.208,27.632 C110.663997,27.3279985 110.212002,26.9280025 109.852,26.432 C109.491998,25.9359975 109.220001,25.3720032 109.036,24.74 C108.851999,24.1079968 108.76,23.4640033 108.76,22.808 C108.76,22.1519967 108.851999,21.5080032 109.036,20.876 C109.220001,20.2439968 109.491998,19.6800025 109.852,19.184 C110.212002,18.6879975 110.663997,18.2880015 111.208,17.984 C111.752003,17.6799985 112.383996,17.528 113.104,17.528 L113.104,17.528 Z M113.104,16.256 C112.159995,16.256 111.324004,16.4319982 110.596,16.784 C109.867996,17.1360018 109.256002,17.607997 108.76,18.2 C108.263998,18.792003 107.888001,19.483996 107.632,20.276 C107.375999,21.068004 107.248,21.9119955 107.248,22.808 C107.248,23.7040045 107.375999,24.547996 107.632,25.34 C107.888001,26.132004 108.263998,26.823997 108.76,27.416 C109.256002,28.008003 109.867996,28.4759983 110.596,28.82 C111.324004,29.1640017 112.159995,29.336 113.104,29.336 C114.048005,29.336 114.883996,29.1640017 115.612,28.82 C116.340004,28.4759983 116.951998,28.008003 117.448,27.416 C117.944002,26.823997 118.319999,26.132004 118.576,25.34 C118.832001,24.547996 118.96,23.7040045 118.96,22.808 C118.96,21.9119955 118.832001,21.068004 118.576,20.276 C118.319999,19.483996 117.944002,18.792003 117.448,18.2 C116.951998,17.607997 116.340004,17.1360018 115.612,16.784 C114.883996,16.4319982 114.048005,16.256 113.104,16.256 L113.104,16.256 Z M121.216,16.616 L121.216,29 L122.728,29 L122.728,22.088 C122.728,21.4319967 122.799999,20.8280028 122.944,20.276 C123.088001,19.7239972 123.307999,19.244002 123.604,18.836 C123.900001,18.427998 124.283998,18.1080012 124.756,17.876 C125.228002,17.6439988 125.783997,17.528 126.424,17.528 C126.904002,17.528 127.311998,17.6079992 127.648,17.768 C127.984002,17.9280008 128.251999,18.1479986 128.452,18.428 C128.652001,18.7080014 128.796,19.0359981 128.884,19.412 C128.972,19.7880019 129.016,20.1839979 129.016,20.6 L129.016,29 L130.528,29 L130.528,21.992 C130.528,21.4159971 130.579999,20.8600027 130.684,20.324 C130.788001,19.7879973 130.967999,19.3120021 131.224,18.896 C131.480001,18.4799979 131.823998,18.1480012 132.256,17.9 C132.688002,17.6519988 133.231997,17.528 133.888,17.528 C134.976005,17.528 135.735998,17.7959973 136.168,18.332 C136.600002,18.8680027 136.816,19.6479949 136.816,20.672 L136.816,29 L138.328,29 L138.328,20.6 C138.328,17.7039855 136.960014,16.256 134.224,16.256 C133.407996,16.256 132.640004,16.455998 131.92,16.856 C131.199996,17.256002 130.656002,17.8639959 130.288,18.68 C130.063999,17.8639959 129.620003,17.256002 128.956,16.856 C128.291997,16.455998 127.552004,16.256 126.736,16.256 C125.727995,16.256 124.900003,16.4719978 124.252,16.904 C123.603997,17.3360022 123.080002,17.9359962 122.68,18.704 L122.608,18.704 L122.608,16.616 L121.216,16.616 Z M141.232,11.864 L141.232,14.288 L142.744,14.288 L142.744,11.864 L141.232,11.864 Z M141.232,16.616 L141.232,29 L142.744,29 L142.744,16.616 L141.232,16.616 Z M146.392,27.728 L154.576,17.696 L154.576,16.616 L145.12,16.616 L145.12,17.888 L152.656,17.888 L144.568,27.776 L144.568,29 L154.912,29 L154.912,27.728 L146.392,27.728 Z M156.616,20.408 L158.128,20.408 C158.16,19.399995 158.479997,18.6680023 159.088,18.212 C159.696003,17.7559977 160.479995,17.528 161.44,17.528 C161.888002,17.528 162.307998,17.5639996 162.7,17.636 C163.092002,17.7080004 163.435999,17.839999 163.732,18.032 C164.028001,18.224001 164.259999,18.4839984 164.428,18.812 C164.596001,19.1400016 164.68,19.5599974 164.68,20.072 C164.68,20.4080017 164.636,20.679999 164.548,20.888 C164.46,21.096001 164.336001,21.2599994 164.176,21.38 C164.015999,21.5000006 163.816001,21.5839998 163.576,21.632 C163.335999,21.6800002 163.056002,21.7199998 162.736,21.752 C161.919996,21.8480005 161.116004,21.9479995 160.324,22.052 C159.531996,22.1560005 158.820003,22.3359987 158.188,22.592 C157.555997,22.8480013 157.048002,23.2199976 156.664,23.708 C156.279998,24.1960024 156.088,24.8719957 156.088,25.736 C156.088,26.3600031 156.195999,26.8999977 156.412,27.356 C156.628001,27.8120023 156.923998,28.1879985 157.3,28.484 C157.676002,28.7800015 158.115997,28.9959993 158.62,29.132 C159.124003,29.2680007 159.663997,29.336 160.24,29.336 C160.848003,29.336 161.371998,29.2800006 161.812,29.168 C162.252002,29.0559994 162.643998,28.896001 162.988,28.688 C163.332002,28.479999 163.643999,28.2200016 163.924,27.908 C164.204001,27.5959984 164.479999,27.240002 164.752,26.84 L164.8,26.84 C164.8,27.1600016 164.82,27.4519987 164.86,27.716 C164.9,27.9800013 164.983999,28.207999 165.112,28.4 C165.240001,28.592001 165.419999,28.7399995 165.652,28.844 C165.884001,28.9480005 166.191998,29 166.576,29 C166.784001,29 166.955999,28.9920001 167.092,28.976 C167.228001,28.9599999 167.383999,28.9360002 167.56,28.904 L167.56,27.632 C167.415999,27.6960003 167.256001,27.728 167.08,27.728 C166.487997,27.728 166.192,27.424003 166.192,26.816 L166.192,20.24 C166.192,19.4079958 166.056001,18.7320026 165.784,18.212 C165.511999,17.6919974 165.160002,17.2880014 164.728,17 C164.295998,16.7119986 163.808003,16.5160005 163.264,16.412 C162.719997,16.3079995 162.176003,16.256 161.632,16.256 C160.911996,16.256 160.256003,16.3359992 159.664,16.496 C159.071997,16.6560008 158.556002,16.9039983 158.116,17.24 C157.675998,17.5760017 157.328001,18.0079974 157.072,18.536 C156.815999,19.0640026 156.664,19.6879964 156.616,20.408 L156.616,20.408 Z M164.68,22.232 L164.68,24.2 C164.68,24.808003 164.564001,25.3519976 164.332,25.832 C164.099999,26.3120024 163.788002,26.7199983 163.396,27.056 C163.003998,27.3920017 162.544003,27.6479991 162.016,27.824 C161.487997,28.0000009 160.936003,28.088 160.36,28.088 C160.007998,28.088 159.664002,28.0320006 159.328,27.92 C158.991998,27.8079994 158.696001,27.6440011 158.44,27.428 C158.183999,27.2119989 157.980001,26.9560015 157.828,26.66 C157.675999,26.3639985 157.6,26.0240019 157.6,25.64 C157.6,25.031997 157.779998,24.5640016 158.14,24.236 C158.500002,23.9079984 158.959997,23.6560009 159.52,23.48 C160.080003,23.3039991 160.699997,23.1720004 161.38,23.084 C162.060003,22.9959996 162.719997,22.8960006 163.36,22.784 C163.568001,22.7519998 163.807999,22.6960004 164.08,22.616 C164.352001,22.5359996 164.536,22.4080009 164.632,22.232 L164.68,22.232 Z M171.616,16.616 L171.616,12.896 L170.104,12.896 L170.104,16.616 L167.944,16.616 L167.944,17.888 L170.104,17.888 L170.104,26.36 C170.088,27.4160053 170.279998,28.139998 170.68,28.532 C171.080002,28.924002 171.783995,29.12 172.792,29.12 C173.016001,29.12 173.239999,29.1120001 173.464,29.096 C173.688001,29.0799999 173.911999,29.072 174.136,29.072 L174.136,27.8 C173.703998,27.8480002 173.272002,27.872 172.84,27.872 C172.295997,27.8399998 171.956001,27.6840014 171.82,27.404 C171.683999,27.1239986 171.616,26.7360025 171.616,26.24 L171.616,17.888 L174.136,17.888 L174.136,16.616 L171.616,16.616 Z M176.344,11.864 L176.344,14.288 L177.856,14.288 L177.856,11.864 L176.344,11.864 Z M176.344,16.616 L176.344,29 L177.856,29 L177.856,16.616 L176.344,16.616 Z M185.992,17.528 C186.712004,17.528 187.343997,17.6799985 187.888,17.984 C188.432003,18.2880015 188.883998,18.6879975 189.244,19.184 C189.604002,19.6800025 189.875999,20.2439968 190.06,20.876 C190.244001,21.5080032 190.336,22.1519967 190.336,22.808 C190.336,23.4640033 190.244001,24.1079968 190.06,24.74 C189.875999,25.3720032 189.604002,25.9359975 189.244,26.432 C188.883998,26.9280025 188.432003,27.3279985 187.888,27.632 C187.343997,27.9360015 186.712004,28.088 185.992,28.088 C185.271996,28.088 184.640003,27.9360015 184.096,27.632 C183.551997,27.3279985 183.100002,26.9280025 182.74,26.432 C182.379998,25.9359975 182.108001,25.3720032 181.924,24.74 C181.739999,24.1079968 181.648,23.4640033 181.648,22.808 C181.648,22.1519967 181.739999,21.5080032 181.924,20.876 C182.108001,20.2439968 182.379998,19.6800025 182.74,19.184 C183.100002,18.6879975 183.551997,18.2880015 184.096,17.984 C184.640003,17.6799985 185.271996,17.528 185.992,17.528 L185.992,17.528 Z M185.992,16.256 C185.047995,16.256 184.212004,16.4319982 183.484,16.784 C182.755996,17.1360018 182.144002,17.607997 181.648,18.2 C181.151998,18.792003 180.776001,19.483996 180.52,20.276 C180.263999,21.068004 180.136,21.9119955 180.136,22.808 C180.136,23.7040045 180.263999,24.547996 180.52,25.34 C180.776001,26.132004 181.151998,26.823997 181.648,27.416 C182.144002,28.008003 182.755996,28.4759983 183.484,28.82 C184.212004,29.1640017 185.047995,29.336 185.992,29.336 C186.936005,29.336 187.771996,29.1640017 188.5,28.82 C189.228004,28.4759983 189.839998,28.008003 190.336,27.416 C190.832002,26.823997 191.207999,26.132004 191.464,25.34 C191.720001,24.547996 191.848,23.7040045 191.848,22.808 C191.848,21.9119955 191.720001,21.068004 191.464,20.276 C191.207999,19.483996 190.832002,18.792003 190.336,18.2 C189.839998,17.607997 189.228004,17.1360018 188.5,16.784 C187.771996,16.4319982 186.936005,16.256 185.992,16.256 L185.992,16.256 Z M194.08,16.616 L194.08,29 L195.592,29 L195.592,21.776 C195.608,21.167997 195.707999,20.6040026 195.892,20.084 C196.076001,19.5639974 196.331998,19.1160019 196.66,18.74 C196.988002,18.3639981 197.387998,18.0680011 197.86,17.852 C198.332002,17.6359989 198.871997,17.528 199.48,17.528 C200.088003,17.528 200.595998,17.623999 201.004,17.816 C201.412002,18.008001 201.735999,18.2719983 201.976,18.608 C202.216001,18.9440017 202.384,19.3399977 202.48,19.796 C202.576,20.2520023 202.624,20.7439974 202.624,21.272 L202.624,29 L204.136,29 L204.136,21.032 C204.136,20.2959963 204.064001,19.632003 203.92,19.04 C203.775999,18.447997 203.528002,17.948002 203.176,17.54 C202.823998,17.131998 202.356003,16.8160011 201.772,16.592 C201.187997,16.3679989 200.464004,16.256 199.6,16.256 C198.719996,16.256 197.912004,16.4839977 197.176,16.94 C196.439996,17.3960023 195.928001,17.9999962 195.64,18.752 L195.592,18.752 L195.592,16.616 L194.08,16.616 Z" id="Customization-Copy" fill="#4A4A4A" sketch:type="MSShapeGroup"></path>
        </g>
    </g>
</svg>