<?xml version="1.0" encoding="UTF-8" standalone="no"?>
<svg width="210px" height="65px" viewBox="0 0 210 65" version="1.1" xmlns="http://www.w3.org/2000/svg" xmlns:xlink="http://www.w3.org/1999/xlink" xmlns:sketch="http://www.bohemiancoding.com/sketch/ns">
    <!-- Generator: Sketch 3.3.2 (12043) - http://www.bohemiancoding.com/sketch -->
    <title>soon-header-faces</title>
    <desc>Created with Sketch.</desc>
    <defs></defs>
    <g id="Page-1" stroke="none" stroke-width="1" fill="none" fill-rule="evenodd" sketch:type="MSPage">
        <g id="soon-header-faces" sketch:type="MSLayerGroup" transform="translate(5.000000, 25.000000)">
            <g id="clock" sketch:type="MSShapeGroup">
                <circle id="Oval" fill="#8CBCD6" cx="20" cy="20" r="20"></circle>
                <circle id="Oval" fill="#F8F8F8" cx="20" cy="20" r="16"></circle>
                <rect id="Rectangle-path" fill="#000000" x="19" y="7" width="2" height="13"></rect>
                <rect id="Rectangle-path" fill="#000000" transform="translate(23.220150, 23.214650) rotate(135.000000) translate(-23.220150, -23.214650) " x="22.0703237" y="18.6153447" width="2.29965267" height="9.1986107"></rect>
                <circle id="Oval" fill="#000000" cx="20" cy="20" r="2"></circle>
            </g>
            <path d="M60.304,22.648 L58.792,22.648 C58.7279997,23.5600046 58.8279987,24.3679965 59.092,25.072 C59.3560013,25.7760035 59.7479974,26.3679976 60.268,26.848 C60.7880026,27.3280024 61.4119964,27.6959987 62.14,27.952 C62.8680036,28.2080013 63.6639957,28.336 64.528,28.336 C65.2960038,28.336 66.0319965,28.2280011 66.736,28.012 C67.4400035,27.7959989 68.0559974,27.4720022 68.584,27.04 C69.1120026,26.6079978 69.5319984,26.0760032 69.844,25.444 C70.1560016,24.8119968 70.312,24.0800042 70.312,23.248 C70.312,22.1439945 70.012003,21.2200037 69.412,20.476 C68.811997,19.7319963 67.9600055,19.2720009 66.856,19.096 L66.856,19.048 C67.7680046,18.8239989 68.4679976,18.3760034 68.956,17.704 C69.4440024,17.0319966 69.688,16.2400046 69.688,15.328 C69.688,14.5759962 69.5400015,13.9320027 69.244,13.396 C68.9479985,12.8599973 68.5560024,12.4200017 68.068,12.076 C67.5799976,11.7319983 67.0240031,11.4760008 66.4,11.308 C65.7759969,11.1399992 65.1360033,11.056 64.48,11.056 C63.6639959,11.056 62.9280033,11.1959986 62.272,11.476 C61.6159967,11.7560014 61.0600023,12.1399976 60.604,12.628 C60.1479977,13.1160024 59.7960012,13.6959966 59.548,14.368 C59.2999988,15.0400034 59.176,15.775996 59.176,16.576 L60.688,16.576 C60.6719999,15.9519969 60.7439992,15.3800026 60.904,14.86 C61.0640008,14.3399974 61.3079984,13.8920019 61.636,13.516 C61.9640016,13.1399981 62.3679976,12.848001 62.848,12.64 C63.3280024,12.431999 63.8799969,12.328 64.504,12.328 C65.0160026,12.328 65.4919978,12.3879994 65.932,12.508 C66.3720022,12.6280006 66.7599983,12.8199987 67.096,13.084 C67.4320017,13.3480013 67.695999,13.675998 67.888,14.068 C68.080001,14.460002 68.176,14.9359972 68.176,15.496 C68.176,16.0240026 68.072001,16.4799981 67.864,16.864 C67.655999,17.2480019 67.3880016,17.5639988 67.06,17.812 C66.7319984,18.0600012 66.364002,18.2439994 65.956,18.364 C65.547998,18.4840006 65.1520019,18.544 64.768,18.544 L63.496,18.544 L63.496,19.816 L64.768,19.816 C65.3280028,19.816 65.8519976,19.8879993 66.34,20.032 C66.8280024,20.1760007 67.2559982,20.3959985 67.624,20.692 C67.9920018,20.9880015 68.279999,21.3559978 68.488,21.796 C68.696001,22.2360022 68.8,22.759997 68.8,23.368 C68.8,23.960003 68.6800012,24.4879977 68.44,24.952 C68.1999988,25.4160023 67.880002,25.8079984 67.48,26.128 C67.079998,26.4480016 66.6240026,26.6879992 66.112,26.848 C65.5999974,27.0080008 65.0640028,27.088 64.504,27.088 C63.8319966,27.088 63.2280027,26.9800011 62.692,26.764 C62.1559973,26.5479989 61.7080018,26.2480019 61.348,25.864 C60.9879982,25.4799981 60.7160009,25.0160027 60.532,24.472 C60.3479991,23.9279973 60.2719998,23.3200034 60.304,22.648 L60.304,22.648 Z M92.272,16.048 L93.904,16.048 C93.7919994,15.1519955 93.5240021,14.3600034 93.1,13.672 C92.6759979,12.9839966 92.1480032,12.4040024 91.516,11.932 C90.8839968,11.4599976 90.1800039,11.1040012 89.404,10.864 C88.6279961,10.6239988 87.8320041,10.504 87.016,10.504 C85.6719933,10.504 84.4920051,10.7479976 83.476,11.236 C82.4599949,11.7240024 81.6160034,12.3799959 80.944,13.204 C80.2719966,14.0280041 79.7680017,14.9759946 79.432,16.048 C79.0959983,17.1200054 78.928,18.2479941 78.928,19.432 C78.928,20.6160059 79.0959983,21.7439946 79.432,22.816 C79.7680017,23.8880054 80.2719966,24.8319959 80.944,25.648 C81.6160034,26.4640041 82.4599949,27.1159976 83.476,27.604 C84.4920051,28.0920024 85.6719933,28.336 87.016,28.336 C88.024005,28.336 88.9399959,28.1760016 89.764,27.856 C90.5880041,27.5359984 91.303997,27.080003 91.912,26.488 C92.520003,25.895997 93.0159981,25.1760042 93.4,24.328 C93.7840019,23.4799958 94.0319994,22.5280053 94.144,21.472 L92.512,21.472 C92.4319996,22.2400038 92.2480014,22.9559967 91.96,23.62 C91.6719986,24.2840033 91.2960023,24.8639975 90.832,25.36 C90.3679977,25.8560025 89.8160032,26.2479986 89.176,26.536 C88.5359968,26.8240014 87.816004,26.968 87.016,26.968 C85.8799943,26.968 84.9040041,26.7520022 84.088,26.32 C83.2719959,25.8879978 82.6040026,25.3160036 82.084,24.604 C81.5639974,23.8919964 81.1800012,23.0840045 80.932,22.18 C80.6839988,21.2759955 80.56,20.3600046 80.56,19.432 C80.56,18.4879953 80.6839988,17.5680045 80.932,16.672 C81.1800012,15.7759955 81.5639974,14.9720036 82.084,14.26 C82.6040026,13.5479964 83.2719959,12.9760022 84.088,12.544 C84.9040041,12.1119978 85.8799943,11.896 87.016,11.896 C87.6400031,11.896 88.2359972,11.9879991 88.804,12.172 C89.3720028,12.3560009 89.8919976,12.6239982 90.364,12.976 C90.8360024,13.3280018 91.2359984,13.7639974 91.564,14.284 C91.8920016,14.8040026 92.1279993,15.3919967 92.272,16.048 L92.272,16.048 Z M96.376,10.864 L96.376,28 L97.888,28 L97.888,10.864 L96.376,10.864 Z M106.024,16.528 C106.744004,16.528 107.375997,16.6799985 107.92,16.984 C108.464003,17.2880015 108.915998,17.6879975 109.276,18.184 C109.636002,18.6800025 109.907999,19.2439968 110.092,19.876 C110.276001,20.5080032 110.368,21.1519967 110.368,21.808 C110.368,22.4640033 110.276001,23.1079968 110.092,23.74 C109.907999,24.3720032 109.636002,24.9359975 109.276,25.432 C108.915998,25.9280025 108.464003,26.3279985 107.92,26.632 C107.375997,26.9360015 106.744004,27.088 106.024,27.088 C105.303996,27.088 104.672003,26.9360015 104.128,26.632 C103.583997,26.3279985 103.132002,25.9280025 102.772,25.432 C102.411998,24.9359975 102.140001,24.3720032 101.956,23.74 C101.771999,23.1079968 101.68,22.4640033 101.68,21.808 C101.68,21.1519967 101.771999,20.5080032 101.956,19.876 C102.140001,19.2439968 102.411998,18.6800025 102.772,18.184 C103.132002,17.6879975 103.583997,17.2880015 104.128,16.984 C104.672003,16.6799985 105.303996,16.528 106.024,16.528 L106.024,16.528 Z M106.024,15.256 C105.079995,15.256 104.244004,15.4319982 103.516,15.784 C102.787996,16.1360018 102.176002,16.607997 101.68,17.2 C101.183998,17.792003 100.808001,18.483996 100.552,19.276 C100.295999,20.068004 100.168,20.9119955 100.168,21.808 C100.168,22.7040045 100.295999,23.547996 100.552,24.34 C100.808001,25.132004 101.183998,25.823997 101.68,26.416 C102.176002,27.008003 102.787996,27.4759983 103.516,27.82 C104.244004,28.1640017 105.079995,28.336 106.024,28.336 C106.968005,28.336 107.803996,28.1640017 108.532,27.82 C109.260004,27.4759983 109.871998,27.008003 110.368,26.416 C110.864002,25.823997 111.239999,25.132004 111.496,24.34 C111.752001,23.547996 111.88,22.7040045 111.88,21.808 C111.88,20.9119955 111.752001,20.068004 111.496,19.276 C111.239999,18.483996 110.864002,17.792003 110.368,17.2 C109.871998,16.607997 109.260004,16.1360018 108.532,15.784 C107.803996,15.4319982 106.968005,15.256 106.024,15.256 L106.024,15.256 Z M122.872,19.504 L124.384,19.504 C124.207999,18.0799929 123.660005,17.0160035 122.74,16.312 C121.819995,15.6079965 120.696007,15.256 119.368,15.256 C118.423995,15.256 117.588004,15.4319982 116.86,15.784 C116.131996,16.1360018 115.520002,16.607997 115.024,17.2 C114.527998,17.792003 114.152001,18.483996 113.896,19.276 C113.639999,20.068004 113.512,20.9119955 113.512,21.808 C113.512,22.7040045 113.639999,23.547996 113.896,24.34 C114.152001,25.132004 114.527998,25.823997 115.024,26.416 C115.520002,27.008003 116.131996,27.4759983 116.86,27.82 C117.588004,28.1640017 118.423995,28.336 119.368,28.336 C120.776007,28.336 121.927996,27.9160042 122.824,27.076 C123.720004,26.2359958 124.271999,25.0640075 124.48,23.56 L122.968,23.56 C122.92,24.0720026 122.792001,24.5439978 122.584,24.976 C122.375999,25.4080022 122.112002,25.7799984 121.792,26.092 C121.471998,26.4040016 121.104002,26.6479991 120.688,26.824 C120.271998,27.0000009 119.832002,27.088 119.368,27.088 C118.647996,27.088 118.016003,26.9360015 117.472,26.632 C116.927997,26.3279985 116.476002,25.9280025 116.116,25.432 C115.755998,24.9359975 115.484001,24.3720032 115.3,23.74 C115.115999,23.1079968 115.024,22.4640033 115.024,21.808 C115.024,21.1519967 115.115999,20.5080032 115.3,19.876 C115.484001,19.2439968 115.755998,18.6800025 116.116,18.184 C116.476002,17.6879975 116.927997,17.2880015 117.472,16.984 C118.016003,16.6799985 118.647996,16.528 119.368,16.528 C120.376005,16.528 121.159997,16.7919974 121.72,17.32 C122.280003,17.8480026 122.663999,18.5759954 122.872,19.504 L122.872,19.504 Z M126.592,10.864 L126.592,28 L128.104,28 L128.104,23.296 L130.552,21.256 L135.448,28 L137.344,28 L131.704,20.2 L136.984,15.616 L134.968,15.616 L128.104,21.616 L128.104,10.864 L126.592,10.864 Z M145.552,10.864 L145.552,28 L147.184,28 L147.184,19.84 L155.392,19.84 L155.392,18.448 L147.184,18.448 L147.184,12.256 L156.424,12.256 L156.424,10.864 L145.552,10.864 Z M158.008,19.408 L159.52,19.408 C159.552,18.399995 159.871997,17.6680023 160.48,17.212 C161.088003,16.7559977 161.871995,16.528 162.832,16.528 C163.280002,16.528 163.699998,16.5639996 164.092,16.636 C164.484002,16.7080004 164.827999,16.839999 165.124,17.032 C165.420001,17.224001 165.651999,17.4839984 165.82,17.812 C165.988001,18.1400016 166.072,18.5599974 166.072,19.072 C166.072,19.4080017 166.028,19.679999 165.94,19.888 C165.852,20.096001 165.728001,20.2599994 165.568,20.38 C165.407999,20.5000006 165.208001,20.5839998 164.968,20.632 C164.727999,20.6800002 164.448002,20.7199998 164.128,20.752 C163.311996,20.8480005 162.508004,20.9479995 161.716,21.052 C160.923996,21.1560005 160.212003,21.3359987 159.58,21.592 C158.947997,21.8480013 158.440002,22.2199976 158.056,22.708 C157.671998,23.1960024 157.48,23.8719957 157.48,24.736 C157.48,25.3600031 157.587999,25.8999977 157.804,26.356 C158.020001,26.8120023 158.315998,27.1879985 158.692,27.484 C159.068002,27.7800015 159.507997,27.9959993 160.012,28.132 C160.516003,28.2680007 161.055997,28.336 161.632,28.336 C162.240003,28.336 162.763998,28.2800006 163.204,28.168 C163.644002,28.0559994 164.035998,27.896001 164.38,27.688 C164.724002,27.479999 165.035999,27.2200016 165.316,26.908 C165.596001,26.5959984 165.871999,26.240002 166.144,25.84 L166.192,25.84 C166.192,26.1600016 166.212,26.4519987 166.252,26.716 C166.292,26.9800013 166.375999,27.207999 166.504,27.4 C166.632001,27.592001 166.811999,27.7399995 167.044,27.844 C167.276001,27.9480005 167.583998,28 167.968,28 C168.176001,28 168.347999,27.9920001 168.484,27.976 C168.620001,27.9599999 168.775999,27.9360002 168.952,27.904 L168.952,26.632 C168.807999,26.6960003 168.648001,26.728 168.472,26.728 C167.879997,26.728 167.584,26.424003 167.584,25.816 L167.584,19.24 C167.584,18.4079958 167.448001,17.7320026 167.176,17.212 C166.903999,16.6919974 166.552002,16.2880014 166.12,16 C165.687998,15.7119986 165.200003,15.5160005 164.656,15.412 C164.111997,15.3079995 163.568003,15.256 163.024,15.256 C162.303996,15.256 161.648003,15.3359992 161.056,15.496 C160.463997,15.6560008 159.948002,15.9039983 159.508,16.24 C159.067998,16.5760017 158.720001,17.0079974 158.464,17.536 C158.207999,18.0640026 158.056,18.6879964 158.008,19.408 L158.008,19.408 Z M166.072,21.232 L166.072,23.2 C166.072,23.808003 165.956001,24.3519976 165.724,24.832 C165.491999,25.3120024 165.180002,25.7199983 164.788,26.056 C164.395998,26.3920017 163.936003,26.6479991 163.408,26.824 C162.879997,27.0000009 162.328003,27.088 161.752,27.088 C161.399998,27.088 161.056002,27.0320006 160.72,26.92 C160.383998,26.8079994 160.088001,26.6440011 159.832,26.428 C159.575999,26.2119989 159.372001,25.9560015 159.22,25.66 C159.067999,25.3639985 158.992,25.0240019 158.992,24.64 C158.992,24.031997 159.171998,23.5640016 159.532,23.236 C159.892002,22.9079984 160.351997,22.6560009 160.912,22.48 C161.472003,22.3039991 162.091997,22.1720004 162.772,22.084 C163.452003,21.9959996 164.111997,21.8960006 164.752,21.784 C164.960001,21.7519998 165.199999,21.6960004 165.472,21.616 C165.744001,21.5359996 165.928,21.4080009 166.024,21.232 L166.072,21.232 Z M179.344,19.504 L180.856,19.504 C180.679999,18.0799929 180.132005,17.0160035 179.212,16.312 C178.291995,15.6079965 177.168007,15.256 175.84,15.256 C174.895995,15.256 174.060004,15.4319982 173.332,15.784 C172.603996,16.1360018 171.992002,16.607997 171.496,17.2 C170.999998,17.792003 170.624001,18.483996 170.368,19.276 C170.111999,20.068004 169.984,20.9119955 169.984,21.808 C169.984,22.7040045 170.111999,23.547996 170.368,24.34 C170.624001,25.132004 170.999998,25.823997 171.496,26.416 C171.992002,27.008003 172.603996,27.4759983 173.332,27.82 C174.060004,28.1640017 174.895995,28.336 175.84,28.336 C177.248007,28.336 178.399996,27.9160042 179.296,27.076 C180.192004,26.2359958 180.743999,25.0640075 180.952,23.56 L179.44,23.56 C179.392,24.0720026 179.264001,24.5439978 179.056,24.976 C178.847999,25.4080022 178.584002,25.7799984 178.264,26.092 C177.943998,26.4040016 177.576002,26.6479991 177.16,26.824 C176.743998,27.0000009 176.304002,27.088 175.84,27.088 C175.119996,27.088 174.488003,26.9360015 173.944,26.632 C173.399997,26.3279985 172.948002,25.9280025 172.588,25.432 C172.227998,24.9359975 171.956001,24.3720032 171.772,23.74 C171.587999,23.1079968 171.496,22.4640033 171.496,21.808 C171.496,21.1519967 171.587999,20.5080032 171.772,19.876 C171.956001,19.2439968 172.227998,18.6800025 172.588,18.184 C172.948002,17.6879975 173.399997,17.2880015 173.944,16.984 C174.488003,16.6799985 175.119996,16.528 175.84,16.528 C176.848005,16.528 177.631997,16.7919974 178.192,17.32 C178.752003,17.8480026 179.135999,18.5759954 179.344,19.504 L179.344,19.504 Z M191.968,20.944 L183.952,20.944 C184.016,20.3839972 184.147999,19.8360027 184.348,19.3 C184.548001,18.7639973 184.815998,18.292002 185.152,17.884 C185.488002,17.475998 185.895998,17.1480012 186.376,16.9 C186.856002,16.6519988 187.407997,16.528 188.032,16.528 C188.640003,16.528 189.183998,16.6519988 189.664,16.9 C190.144002,17.1480012 190.551998,17.475998 190.888,17.884 C191.224002,18.292002 191.483999,18.7599974 191.668,19.288 C191.852001,19.8160026 191.952,20.3679971 191.968,20.944 L191.968,20.944 Z M183.952,22.216 L193.48,22.216 C193.512,21.3519957 193.432001,20.5000042 193.24,19.66 C193.047999,18.8199958 192.732002,18.0760032 192.292,17.428 C191.851998,16.7799968 191.280004,16.256002 190.576,15.856 C189.871996,15.455998 189.024005,15.256 188.032,15.256 C187.055995,15.256 186.212004,15.4439981 185.5,15.82 C184.787996,16.1960019 184.208002,16.6919969 183.76,17.308 C183.311998,17.9240031 182.980001,18.6239961 182.764,19.408 C182.547999,20.1920039 182.44,20.9919959 182.44,21.808 C182.44,22.6880044 182.547999,23.523996 182.764,24.316 C182.980001,25.108004 183.311998,25.803997 183.76,26.404 C184.208002,27.004003 184.787996,27.4759983 185.5,27.82 C186.212004,28.1640017 187.055995,28.336 188.032,28.336 C189.600008,28.336 190.811996,27.9520038 191.668,27.184 C192.524004,26.4159962 193.111998,25.328007 193.432,23.92 L191.92,23.92 C191.679999,24.8800048 191.248003,25.6479971 190.624,26.224 C189.999997,26.8000029 189.136006,27.088 188.032,27.088 C187.311996,27.088 186.696003,26.9360015 186.184,26.632 C185.671997,26.3279985 185.248002,25.9440023 184.912,25.48 C184.575998,25.0159977 184.332001,24.4920029 184.18,23.908 C184.027999,23.3239971 183.952,22.7600027 183.952,22.216 L183.952,22.216 Z M202.936,19.24 L204.448,19.24 C204.416,18.5679966 204.280001,17.9840025 204.04,17.488 C203.799999,16.9919975 203.476002,16.5760017 203.068,16.24 C202.659998,15.9039983 202.188003,15.6560008 201.652,15.496 C201.115997,15.3359992 200.536003,15.256 199.912,15.256 C199.367997,15.256 198.820003,15.3199994 198.268,15.448 C197.715997,15.5760006 197.216002,15.7759986 196.768,16.048 C196.319998,16.3200014 195.956001,16.6799978 195.676,17.128 C195.395999,17.5760022 195.256,18.1119969 195.256,18.736 C195.256,19.2640026 195.343999,19.7079982 195.52,20.068 C195.696001,20.4280018 195.939998,20.7319988 196.252,20.98 C196.564002,21.2280012 196.927998,21.4359992 197.344,21.604 C197.760002,21.7720008 198.215998,21.9199994 198.712,22.048 L200.656,22.48 C200.992002,22.5600004 201.323998,22.6559994 201.652,22.768 C201.980002,22.8800006 202.271999,23.0199992 202.528,23.188 C202.784001,23.3560008 202.987999,23.5639988 203.14,23.812 C203.292001,24.0600012 203.368,24.3679982 203.368,24.736 C203.368,25.1680022 203.260001,25.5319985 203.044,25.828 C202.827999,26.1240015 202.552002,26.367999 202.216,26.56 C201.879998,26.752001 201.516002,26.8879996 201.124,26.968 C200.731998,27.0480004 200.352002,27.088 199.984,27.088 C198.975995,27.088 198.132003,26.8280026 197.452,26.308 C196.771997,25.7879974 196.4,25.0160051 196.336,23.992 L194.824,23.992 C194.952001,25.5120076 195.467995,26.6159966 196.372,27.304 C197.276005,27.9920034 198.455993,28.336 199.912,28.336 C200.488003,28.336 201.071997,28.2720006 201.664,28.144 C202.256003,28.0159994 202.787998,27.8040015 203.26,27.508 C203.732002,27.2119985 204.119998,26.8280024 204.424,26.356 C204.728002,25.8839976 204.88,25.3120034 204.88,24.64 C204.88,24.0959973 204.776001,23.624002 204.568,23.224 C204.359999,22.823998 204.092002,22.4880014 203.764,22.216 C203.435998,21.9439986 203.060002,21.7240008 202.636,21.556 C202.211998,21.3879992 201.784002,21.2720003 201.352,21.208 L199.336,20.752 C199.079999,20.6879997 198.800002,20.6040005 198.496,20.5 C198.191998,20.3959995 197.912001,20.2640008 197.656,20.104 C197.399999,19.9439992 197.188001,19.7480012 197.02,19.516 C196.851999,19.2839988 196.768,19.0000017 196.768,18.664 C196.768,18.263998 196.855999,17.9280014 197.032,17.656 C197.208001,17.3839986 197.439999,17.1640008 197.728,16.996 C198.016001,16.8279992 198.331998,16.7080004 198.676,16.636 C199.020002,16.5639996 199.359998,16.528 199.696,16.528 C200.128002,16.528 200.535998,16.5799995 200.92,16.684 C201.304002,16.7880005 201.643999,16.9519989 201.94,17.176 C202.236001,17.4000011 202.471999,17.6839983 202.648,18.028 C202.824001,18.3720017 202.92,18.7759977 202.936,19.24 L202.936,19.24 Z" id="3-Clock-Faces-Copy" fill="#4A4A4A" sketch:type="MSShapeGroup"></path>
        </g>
    </g>
</svg>