<?xml version="1.0" encoding="UTF-8" standalone="no"?>
<svg width="245px" height="70px" viewBox="0 0 245 70" version="1.1" xmlns="http://www.w3.org/2000/svg" xmlns:xlink="http://www.w3.org/1999/xlink" xmlns:sketch="http://www.bohemiancoding.com/sketch/ns">
    <!-- Generator: Sketch 3.3.2 (12043) - http://www.bohemiancoding.com/sketch -->
    <title>soon-header-feature-summary</title>
    <desc>Created with Sketch.</desc>
    <defs></defs>
    <g id="Page-1" stroke="none" stroke-width="1" fill="none" fill-rule="evenodd" sketch:type="MSPage">
        <g id="soon-header-feature-summary" sketch:type="MSLayerGroup" transform="translate(7.000000, 28.000000)">
            <g id="rules" sketch:type="MSShapeGroup">
                <path d="M33,42 L3,42 C3,42 0,41.9 0,34 L36,34 C36,41.9 33,42 33,42 L33,42 Z" id="Shape" fill="#42A5F5"></path>
                <rect id="Rectangle-path" fill="#90CAF9" x="2" y="0" width="32" height="34"></rect>
                <g id="Group" transform="translate(12.000000, 12.000000)" fill="#1976D2">
                    <rect id="Rectangle-path" x="0" y="0" width="16" height="2"></rect>
                    <rect id="Rectangle-path" x="0" y="4" width="16" height="2"></rect>
                    <rect id="Rectangle-path" x="0" y="8" width="16" height="2"></rect>
                    <rect id="Rectangle-path" x="0" y="12" width="16" height="2"></rect>
                    <rect id="Rectangle-path" x="0" y="16" width="16" height="2"></rect>
                </g>
                <g id="Group" transform="translate(8.000000, 12.000000)" fill="#1976D2">
                    <rect id="Rectangle-path" x="0" y="0" width="2" height="2"></rect>
                    <rect id="Rectangle-path" x="0" y="4" width="2" height="2"></rect>
                    <rect id="Rectangle-path" x="0" y="8" width="2" height="2"></rect>
                    <rect id="Rectangle-path" x="0" y="12" width="2" height="2"></rect>
                    <rect id="Rectangle-path" x="0" y="16" width="2" height="2"></rect>
                </g>
            </g>
            <path d="M55.728,11.864 L55.728,29 L57.36,29 L57.36,20.84 L65.568,20.84 L65.568,19.448 L57.36,19.448 L57.36,13.256 L66.6,13.256 L66.6,11.864 L55.728,11.864 Z M77.232,21.944 L69.216,21.944 C69.2800003,21.3839972 69.411999,20.8360027 69.612,20.3 C69.812001,19.7639973 70.0799983,19.292002 70.416,18.884 C70.7520017,18.475998 71.1599976,18.1480012 71.64,17.9 C72.1200024,17.6519988 72.6719969,17.528 73.296,17.528 C73.904003,17.528 74.4479976,17.6519988 74.928,17.9 C75.4080024,18.1480012 75.8159983,18.475998 76.152,18.884 C76.4880017,19.292002 76.7479991,19.7599974 76.932,20.288 C77.1160009,20.8160026 77.2159999,21.3679971 77.232,21.944 L77.232,21.944 Z M69.216,23.216 L78.744,23.216 C78.7760002,22.3519957 78.696001,21.5000042 78.504,20.66 C78.311999,19.8199958 77.9960022,19.0760032 77.556,18.428 C77.1159978,17.7799968 76.5440035,17.256002 75.84,16.856 C75.1359965,16.455998 74.288005,16.256 73.296,16.256 C72.3199951,16.256 71.4760036,16.4439981 70.764,16.82 C70.0519964,17.1960019 69.4720022,17.6919969 69.024,18.308 C68.5759978,18.9240031 68.2440011,19.6239961 68.028,20.408 C67.8119989,21.1920039 67.704,21.9919959 67.704,22.808 C67.704,23.6880044 67.8119989,24.523996 68.028,25.316 C68.2440011,26.108004 68.5759978,26.803997 69.024,27.404 C69.4720022,28.004003 70.0519964,28.4759983 70.764,28.82 C71.4760036,29.1640017 72.3199951,29.336 73.296,29.336 C74.8640078,29.336 76.0759957,28.9520038 76.932,28.184 C77.7880043,27.4159962 78.3759984,26.328007 78.696,24.92 L77.184,24.92 C76.9439988,25.8800048 76.5120031,26.6479971 75.888,27.224 C75.2639969,27.8000029 74.4000055,28.088 73.296,28.088 C72.5759964,28.088 71.9600026,27.9360015 71.448,27.632 C70.9359974,27.3279985 70.5120017,26.9440023 70.176,26.48 C69.8399983,26.0159977 69.5960008,25.4920029 69.444,24.908 C69.2919992,24.3239971 69.216,23.7600027 69.216,23.216 L69.216,23.216 Z M80.64,20.408 L82.152,20.408 C82.1840002,19.399995 82.503997,18.6680023 83.112,18.212 C83.720003,17.7559977 84.5039952,17.528 85.464,17.528 C85.9120022,17.528 86.331998,17.5639996 86.724,17.636 C87.116002,17.7080004 87.4599985,17.839999 87.756,18.032 C88.0520015,18.224001 88.2839992,18.4839984 88.452,18.812 C88.6200008,19.1400016 88.704,19.5599974 88.704,20.072 C88.704,20.4080017 88.6600004,20.679999 88.572,20.888 C88.4839996,21.096001 88.3600008,21.2599994 88.2,21.38 C88.0399992,21.5000006 87.8400012,21.5839998 87.6,21.632 C87.3599988,21.6800002 87.0800016,21.7199998 86.76,21.752 C85.9439959,21.8480005 85.140004,21.9479995 84.348,22.052 C83.555996,22.1560005 82.8440032,22.3359987 82.212,22.592 C81.5799968,22.8480013 81.0720019,23.2199976 80.688,23.708 C80.3039981,24.1960024 80.112,24.8719957 80.112,25.736 C80.112,26.3600031 80.2199989,26.8999977 80.436,27.356 C80.6520011,27.8120023 80.9479981,28.1879985 81.324,28.484 C81.7000019,28.7800015 82.1399975,28.9959993 82.644,29.132 C83.1480025,29.2680007 83.6879971,29.336 84.264,29.336 C84.872003,29.336 85.3959978,29.2800006 85.836,29.168 C86.2760022,29.0559994 86.6679983,28.896001 87.012,28.688 C87.3560017,28.479999 87.6679986,28.2200016 87.948,27.908 C88.2280014,27.5959984 88.5039986,27.240002 88.776,26.84 L88.824,26.84 C88.824,27.1600016 88.8439998,27.4519987 88.884,27.716 C88.9240002,27.9800013 89.0079994,28.207999 89.136,28.4 C89.2640006,28.592001 89.4439988,28.7399995 89.676,28.844 C89.9080012,28.9480005 90.2159981,29 90.6,29 C90.808001,29 90.9799993,28.9920001 91.116,28.976 C91.2520007,28.9599999 91.4079991,28.9360002 91.584,28.904 L91.584,27.632 C91.4399993,27.6960003 91.2800009,27.728 91.104,27.728 C90.511997,27.728 90.216,27.424003 90.216,26.816 L90.216,20.24 C90.216,19.4079958 90.0800014,18.7320026 89.808,18.212 C89.5359986,17.6919974 89.1840022,17.2880014 88.752,17 C88.3199978,16.7119986 87.8320027,16.5160005 87.288,16.412 C86.7439973,16.3079995 86.2000027,16.256 85.656,16.256 C84.9359964,16.256 84.280003,16.3359992 83.688,16.496 C83.095997,16.6560008 82.5800022,16.9039983 82.14,17.24 C81.6999978,17.5760017 81.3520013,18.0079974 81.096,18.536 C80.8399987,19.0640026 80.6880002,19.6879964 80.64,20.408 L80.64,20.408 Z M88.704,22.232 L88.704,24.2 C88.704,24.808003 88.5880012,25.3519976 88.356,25.832 C88.1239988,26.3120024 87.812002,26.7199983 87.42,27.056 C87.027998,27.3920017 86.5680026,27.6479991 86.04,27.824 C85.5119974,28.0000009 84.9600029,28.088 84.384,28.088 C84.0319982,28.088 83.6880017,28.0320006 83.352,27.92 C83.0159983,27.8079994 82.7200013,27.6440011 82.464,27.428 C82.2079987,27.2119989 82.0040008,26.9560015 81.852,26.66 C81.6999992,26.3639985 81.624,26.0240019 81.624,25.64 C81.624,25.031997 81.8039982,24.5640016 82.164,24.236 C82.5240018,23.9079984 82.9839972,23.6560009 83.544,23.48 C84.1040028,23.3039991 84.7239966,23.1720004 85.404,23.084 C86.0840034,22.9959996 86.7439968,22.8960006 87.384,22.784 C87.592001,22.7519998 87.8319986,22.6960004 88.104,22.616 C88.3760014,22.5359996 88.5599995,22.4080009 88.656,22.232 L88.704,22.232 Z M95.64,16.616 L95.64,12.896 L94.128,12.896 L94.128,16.616 L91.968,16.616 L91.968,17.888 L94.128,17.888 L94.128,26.36 C94.1119999,27.4160053 94.303998,28.139998 94.704,28.532 C95.104002,28.924002 95.807995,29.12 96.816,29.12 C97.0400011,29.12 97.2639989,29.1120001 97.488,29.096 C97.7120011,29.0799999 97.9359989,29.072 98.16,29.072 L98.16,27.8 C97.7279978,27.8480002 97.2960022,27.872 96.864,27.872 C96.3199973,27.8399998 95.9800007,27.6840014 95.844,27.404 C95.7079993,27.1239986 95.64,26.7360025 95.64,26.24 L95.64,17.888 L98.16,17.888 L98.16,16.616 L95.64,16.616 Z M110.376,29 L110.376,16.616 L108.864,16.616 L108.864,23.12 C108.864,23.7440031 108.792001,24.355997 108.648,24.956 C108.503999,25.556003 108.280002,26.0879977 107.976,26.552 C107.671998,27.0160023 107.288002,27.3879986 106.824,27.668 C106.359998,27.9480014 105.800003,28.088 105.144,28.088 C103.943994,28.088 103.100002,27.8000029 102.612,27.224 C102.123998,26.6479971 101.864,25.8000056 101.832,24.68 L101.832,16.616 L100.32,16.616 L100.32,24.656 C100.32,25.3920037 100.399999,26.0479971 100.56,26.624 C100.720001,27.2000029 100.971998,27.687998 101.316,28.088 C101.660002,28.488002 102.107997,28.7959989 102.66,29.012 C103.212003,29.2280011 103.879996,29.336 104.664,29.336 C105.592005,29.336 106.435996,29.1160022 107.196,28.676 C107.956004,28.2359978 108.535998,27.6000042 108.936,26.768 L108.984,26.768 L108.984,29 L110.376,29 Z M113.232,16.616 L113.232,29 L114.744,29 L114.744,22.4 C114.744,21.7439967 114.855999,21.1400028 115.08,20.588 C115.304001,20.0359972 115.619998,19.560002 116.028,19.16 C116.436002,18.759998 116.919997,18.4520011 117.48,18.236 C118.040003,18.0199989 118.663997,17.9279998 119.352,17.96 L119.352,16.448 C118.231994,16.3999998 117.268004,16.6479973 116.46,17.192 C115.651996,17.7360027 115.056002,18.511995 114.672,19.52 L114.624,19.52 L114.624,16.616 L113.232,16.616 Z M129.264,21.944 L121.248,21.944 C121.312,21.3839972 121.443999,20.8360027 121.644,20.3 C121.844001,19.7639973 122.111998,19.292002 122.448,18.884 C122.784002,18.475998 123.191998,18.1480012 123.672,17.9 C124.152002,17.6519988 124.703997,17.528 125.328,17.528 C125.936003,17.528 126.479998,17.6519988 126.96,17.9 C127.440002,18.1480012 127.847998,18.475998 128.184,18.884 C128.520002,19.292002 128.779999,19.7599974 128.964,20.288 C129.148001,20.8160026 129.248,21.3679971 129.264,21.944 L129.264,21.944 Z M121.248,23.216 L130.776,23.216 C130.808,22.3519957 130.728001,21.5000042 130.536,20.66 C130.343999,19.8199958 130.028002,19.0760032 129.588,18.428 C129.147998,17.7799968 128.576004,17.256002 127.872,16.856 C127.167996,16.455998 126.320005,16.256 125.328,16.256 C124.351995,16.256 123.508004,16.4439981 122.796,16.82 C122.083996,17.1960019 121.504002,17.6919969 121.056,18.308 C120.607998,18.9240031 120.276001,19.6239961 120.06,20.408 C119.843999,21.1920039 119.736,21.9919959 119.736,22.808 C119.736,23.6880044 119.843999,24.523996 120.06,25.316 C120.276001,26.108004 120.607998,26.803997 121.056,27.404 C121.504002,28.004003 122.083996,28.4759983 122.796,28.82 C123.508004,29.1640017 124.351995,29.336 125.328,29.336 C126.896008,29.336 128.107996,28.9520038 128.964,28.184 C129.820004,27.4159962 130.407998,26.328007 130.728,24.92 L129.216,24.92 C128.975999,25.8800048 128.544003,26.6479971 127.92,27.224 C127.295997,27.8000029 126.432006,28.088 125.328,28.088 C124.607996,28.088 123.992003,27.9360015 123.48,27.632 C122.967997,27.3279985 122.544002,26.9440023 122.208,26.48 C121.871998,26.0159977 121.628001,25.4920029 121.476,24.908 C121.323999,24.3239971 121.248,23.7600027 121.248,23.216 L121.248,23.216 Z M140.544,23.36 L138.912,23.36 C138.864,24.4160053 139.003998,25.3199962 139.332,26.072 C139.660002,26.8240038 140.127997,27.4399976 140.736,27.92 C141.344003,28.4000024 142.079996,28.7559988 142.944,28.988 C143.808004,29.2200012 144.743995,29.336 145.752,29.336 C146.760005,29.336 147.623996,29.2440009 148.344,29.06 C149.064004,28.8759991 149.667998,28.6360015 150.156,28.34 C150.644002,28.0439985 151.027999,27.7120018 151.308,27.344 C151.588001,26.9759982 151.803999,26.6120018 151.956,26.252 C152.108001,25.8919982 152.204,25.5520016 152.244,25.232 C152.284,24.9119984 152.304,24.656001 152.304,24.464 C152.304,23.7599965 152.188001,23.1600025 151.956,22.664 C151.723999,22.1679975 151.404002,21.7480017 150.996,21.404 C150.587998,21.0599983 150.116003,20.7720012 149.58,20.54 C149.043997,20.3079988 148.472003,20.1120008 147.864,19.952 L143.688,18.92 C143.335998,18.8399996 143.004002,18.7360006 142.692,18.608 C142.379998,18.4799994 142.104001,18.312001 141.864,18.104 C141.623999,17.895999 141.436001,17.6440015 141.3,17.348 C141.163999,17.0519985 141.096,16.704002 141.096,16.304 C141.096,15.6639968 141.215999,15.1280022 141.456,14.696 C141.696001,14.2639978 142.011998,13.9160013 142.404,13.652 C142.796002,13.3879987 143.251997,13.1960006 143.772,13.076 C144.292003,12.9559994 144.831997,12.896 145.392,12.896 C146.000003,12.896 146.579997,12.9799992 147.132,13.148 C147.684003,13.3160008 148.171998,13.5639984 148.596,13.892 C149.020002,14.2200016 149.363999,14.6279976 149.628,15.116 C149.892001,15.6040024 150.04,16.1759967 150.072,16.832 L151.704,16.832 C151.704,15.9519956 151.532002,15.1800033 151.188,14.516 C150.843998,13.8519967 150.384003,13.2960022 149.808,12.848 C149.231997,12.3999978 148.560004,12.0640011 147.792,11.84 C147.023996,11.6159989 146.216004,11.504 145.368,11.504 C144.167994,11.504 143.184004,11.6759983 142.416,12.02 C141.647996,12.3640017 141.044002,12.7839975 140.604,13.28 C140.163998,13.7760025 139.864001,14.3039972 139.704,14.864 C139.543999,15.4240028 139.464,15.9119979 139.464,16.328 C139.464,17.0000034 139.571999,17.5679977 139.788,18.032 C140.004001,18.4960023 140.287998,18.8879984 140.64,19.208 C140.992002,19.5280016 141.403998,19.783999 141.876,19.976 C142.348002,20.168001 142.831998,20.3279994 143.328,20.456 L147.144,21.392 C147.544002,21.4880005 147.951998,21.6119992 148.368,21.764 C148.784002,21.9160008 149.163998,22.1119988 149.508,22.352 C149.852002,22.5920012 150.131999,22.8879982 150.348,23.24 C150.564001,23.5920018 150.672,24.0079976 150.672,24.488 C150.672,25.1120031 150.520002,25.6439978 150.216,26.084 C149.911998,26.5240022 149.532002,26.8839986 149.076,27.164 C148.619998,27.4440014 148.128003,27.6479994 147.6,27.776 C147.071997,27.9040006 146.584002,27.968 146.136,27.968 C145.351996,27.968 144.616003,27.8920008 143.928,27.74 C143.239997,27.5879992 142.644003,27.3360018 142.14,26.984 C141.635997,26.6319982 141.240001,26.160003 140.952,25.568 C140.663999,24.975997 140.528,24.2400044 140.544,23.36 L140.544,23.36 Z M164.64,29 L164.64,16.616 L163.128,16.616 L163.128,23.12 C163.128,23.7440031 163.056001,24.355997 162.912,24.956 C162.767999,25.556003 162.544002,26.0879977 162.24,26.552 C161.935998,27.0160023 161.552002,27.3879986 161.088,27.668 C160.623998,27.9480014 160.064003,28.088 159.408,28.088 C158.207994,28.088 157.364002,27.8000029 156.876,27.224 C156.387998,26.6479971 156.128,25.8000056 156.096,24.68 L156.096,16.616 L154.584,16.616 L154.584,24.656 C154.584,25.3920037 154.663999,26.0479971 154.824,26.624 C154.984001,27.2000029 155.235998,27.687998 155.58,28.088 C155.924002,28.488002 156.371997,28.7959989 156.924,29.012 C157.476003,29.2280011 158.143996,29.336 158.928,29.336 C159.856005,29.336 160.699996,29.1160022 161.46,28.676 C162.220004,28.2359978 162.799998,27.6000042 163.2,26.768 L163.248,26.768 L163.248,29 L164.64,29 Z M167.496,16.616 L167.496,29 L169.008,29 L169.008,22.088 C169.008,21.4319967 169.079999,20.8280028 169.224,20.276 C169.368001,19.7239972 169.587999,19.244002 169.884,18.836 C170.180001,18.427998 170.563998,18.1080012 171.036,17.876 C171.508002,17.6439988 172.063997,17.528 172.704,17.528 C173.184002,17.528 173.591998,17.6079992 173.928,17.768 C174.264002,17.9280008 174.531999,18.1479986 174.732,18.428 C174.932001,18.7080014 175.076,19.0359981 175.164,19.412 C175.252,19.7880019 175.296,20.1839979 175.296,20.6 L175.296,29 L176.808,29 L176.808,21.992 C176.808,21.4159971 176.859999,20.8600027 176.964,20.324 C177.068001,19.7879973 177.247999,19.3120021 177.504,18.896 C177.760001,18.4799979 178.103998,18.1480012 178.536,17.9 C178.968002,17.6519988 179.511997,17.528 180.168,17.528 C181.256005,17.528 182.015998,17.7959973 182.448,18.332 C182.880002,18.8680027 183.096,19.6479949 183.096,20.672 L183.096,29 L184.608,29 L184.608,20.6 C184.608,17.7039855 183.240014,16.256 180.504,16.256 C179.687996,16.256 178.920004,16.455998 178.2,16.856 C177.479996,17.256002 176.936002,17.8639959 176.568,18.68 C176.343999,17.8639959 175.900003,17.256002 175.236,16.856 C174.571997,16.455998 173.832004,16.256 173.016,16.256 C172.007995,16.256 171.180003,16.4719978 170.532,16.904 C169.883997,17.3360022 169.360002,17.9359962 168.96,18.704 L168.888,18.704 L168.888,16.616 L167.496,16.616 Z M187.488,16.616 L187.488,29 L189,29 L189,22.088 C189,21.4319967 189.071999,20.8280028 189.216,20.276 C189.360001,19.7239972 189.579999,19.244002 189.876,18.836 C190.172001,18.427998 190.555998,18.1080012 191.028,17.876 C191.500002,17.6439988 192.055997,17.528 192.696,17.528 C193.176002,17.528 193.583998,17.6079992 193.92,17.768 C194.256002,17.9280008 194.523999,18.1479986 194.724,18.428 C194.924001,18.7080014 195.068,19.0359981 195.156,19.412 C195.244,19.7880019 195.288,20.1839979 195.288,20.6 L195.288,29 L196.8,29 L196.8,21.992 C196.8,21.4159971 196.851999,20.8600027 196.956,20.324 C197.060001,19.7879973 197.239999,19.3120021 197.496,18.896 C197.752001,18.4799979 198.095998,18.1480012 198.528,17.9 C198.960002,17.6519988 199.503997,17.528 200.16,17.528 C201.248005,17.528 202.007998,17.7959973 202.44,18.332 C202.872002,18.8680027 203.088,19.6479949 203.088,20.672 L203.088,29 L204.6,29 L204.6,20.6 C204.6,17.7039855 203.232014,16.256 200.496,16.256 C199.679996,16.256 198.912004,16.455998 198.192,16.856 C197.471996,17.256002 196.928002,17.8639959 196.56,18.68 C196.335999,17.8639959 195.892003,17.256002 195.228,16.856 C194.563997,16.455998 193.824004,16.256 193.008,16.256 C191.999995,16.256 191.172003,16.4719978 190.524,16.904 C189.875997,17.3360022 189.352002,17.9359962 188.952,18.704 L188.88,18.704 L188.88,16.616 L187.488,16.616 Z M207.336,20.408 L208.848,20.408 C208.88,19.399995 209.199997,18.6680023 209.808,18.212 C210.416003,17.7559977 211.199995,17.528 212.16,17.528 C212.608002,17.528 213.027998,17.5639996 213.42,17.636 C213.812002,17.7080004 214.155999,17.839999 214.452,18.032 C214.748001,18.224001 214.979999,18.4839984 215.148,18.812 C215.316001,19.1400016 215.4,19.5599974 215.4,20.072 C215.4,20.4080017 215.356,20.679999 215.268,20.888 C215.18,21.096001 215.056001,21.2599994 214.896,21.38 C214.735999,21.5000006 214.536001,21.5839998 214.296,21.632 C214.055999,21.6800002 213.776002,21.7199998 213.456,21.752 C212.639996,21.8480005 211.836004,21.9479995 211.044,22.052 C210.251996,22.1560005 209.540003,22.3359987 208.908,22.592 C208.275997,22.8480013 207.768002,23.2199976 207.384,23.708 C206.999998,24.1960024 206.808,24.8719957 206.808,25.736 C206.808,26.3600031 206.915999,26.8999977 207.132,27.356 C207.348001,27.8120023 207.643998,28.1879985 208.02,28.484 C208.396002,28.7800015 208.835997,28.9959993 209.34,29.132 C209.844003,29.2680007 210.383997,29.336 210.96,29.336 C211.568003,29.336 212.091998,29.2800006 212.532,29.168 C212.972002,29.0559994 213.363998,28.896001 213.708,28.688 C214.052002,28.479999 214.363999,28.2200016 214.644,27.908 C214.924001,27.5959984 215.199999,27.240002 215.472,26.84 L215.52,26.84 C215.52,27.1600016 215.54,27.4519987 215.58,27.716 C215.62,27.9800013 215.703999,28.207999 215.832,28.4 C215.960001,28.592001 216.139999,28.7399995 216.372,28.844 C216.604001,28.9480005 216.911998,29 217.296,29 C217.504001,29 217.675999,28.9920001 217.812,28.976 C217.948001,28.9599999 218.103999,28.9360002 218.28,28.904 L218.28,27.632 C218.135999,27.6960003 217.976001,27.728 217.8,27.728 C217.207997,27.728 216.912,27.424003 216.912,26.816 L216.912,20.24 C216.912,19.4079958 216.776001,18.7320026 216.504,18.212 C216.231999,17.6919974 215.880002,17.2880014 215.448,17 C215.015998,16.7119986 214.528003,16.5160005 213.984,16.412 C213.439997,16.3079995 212.896003,16.256 212.352,16.256 C211.631996,16.256 210.976003,16.3359992 210.384,16.496 C209.791997,16.6560008 209.276002,16.9039983 208.836,17.24 C208.395998,17.5760017 208.048001,18.0079974 207.792,18.536 C207.535999,19.0640026 207.384,19.6879964 207.336,20.408 L207.336,20.408 Z M215.4,22.232 L215.4,24.2 C215.4,24.808003 215.284001,25.3519976 215.052,25.832 C214.819999,26.3120024 214.508002,26.7199983 214.116,27.056 C213.723998,27.3920017 213.264003,27.6479991 212.736,27.824 C212.207997,28.0000009 211.656003,28.088 211.08,28.088 C210.727998,28.088 210.384002,28.0320006 210.048,27.92 C209.711998,27.8079994 209.416001,27.6440011 209.16,27.428 C208.903999,27.2119989 208.700001,26.9560015 208.548,26.66 C208.395999,26.3639985 208.32,26.0240019 208.32,25.64 C208.32,25.031997 208.499998,24.5640016 208.86,24.236 C209.220002,23.9079984 209.679997,23.6560009 210.24,23.48 C210.800003,23.3039991 211.419997,23.1720004 212.1,23.084 C212.780003,22.9959996 213.439997,22.8960006 214.08,22.784 C214.288001,22.7519998 214.527999,22.6960004 214.8,22.616 C215.072001,22.5359996 215.256,22.4080009 215.352,22.232 L215.4,22.232 Z M219.936,16.616 L219.936,29 L221.448,29 L221.448,22.4 C221.448,21.7439967 221.559999,21.1400028 221.784,20.588 C222.008001,20.0359972 222.323998,19.560002 222.732,19.16 C223.140002,18.759998 223.623997,18.4520011 224.184,18.236 C224.744003,18.0199989 225.367997,17.9279998 226.056,17.96 L226.056,16.448 C224.935994,16.3999998 223.972004,16.6479973 223.164,17.192 C222.355996,17.7360027 221.760002,18.511995 221.376,19.52 L221.328,19.52 L221.328,16.616 L219.936,16.616 Z M226.104,16.616 L231.048,28.952 L230.52,30.344 C230.391999,30.6320014 230.272001,30.8959988 230.16,31.136 C230.047999,31.3760012 229.912001,31.5799992 229.752,31.748 C229.591999,31.9160008 229.404001,32.0479995 229.188,32.144 C228.971999,32.2400005 228.696002,32.288 228.36,32.288 C228.183999,32.288 228.012001,32.2760001 227.844,32.252 C227.675999,32.2279999 227.504001,32.2000002 227.328,32.168 L227.328,33.44 C227.456001,33.4880002 227.603999,33.516 227.772,33.524 C227.940001,33.532 228.175998,33.5439999 228.48,33.56 C228.960002,33.56 229.355998,33.5160004 229.668,33.428 C229.980002,33.3399996 230.251999,33.196001 230.484,32.996 C230.716001,32.795999 230.927999,32.5240017 231.12,32.18 C231.312001,31.8359983 231.519999,31.4000026 231.744,30.872 L237.12,16.616 L235.608,16.616 L231.792,27.176 L227.712,16.616 L226.104,16.616 Z" id="Feature-Summary-Copy" fill="#4A4A4A" sketch:type="MSShapeGroup"></path>
        </g>
    </g>
</svg>