<?xml version="1.0" encoding="UTF-8" standalone="no"?>
<svg width="309px" height="44px" viewBox="0 0 309 44" version="1.1" xmlns="http://www.w3.org/2000/svg" xmlns:xlink="http://www.w3.org/1999/xlink" xmlns:sketch="http://www.bohemiancoding.com/sketch/ns">
    <!-- Generator: Sketch 3.3.2 (12043) - http://www.bohemiancoding.com/sketch -->
    <title>soon-header-detailed-docs</title>
    <desc>Created with Sketch.</desc>
    <defs></defs>
    <g id="Page-1" stroke="none" stroke-width="1" fill="none" fill-rule="evenodd" sketch:type="MSPage">
        <g id="soon-header-detailed-docs" sketch:type="MSLayerGroup" transform="translate(4.000000, 0.000000)">
            <g id="reading" sketch:type="MSShapeGroup">
                <path d="M38.6842105,39.6 C31.0578947,39.6 21,44 21,44 L21,19.8 C21,19.8 30.9473684,15.4 40.8947368,15.4 L38.6842105,39.6 L38.6842105,39.6 Z" id="Shape" fill="#8CBCD6"></path>
                <path d="M3.31578947,39.6 C10.9421053,39.6 21,44 21,44 L21,19.8 C21,19.8 11.0526316,15.4 1.10526316,15.4 L3.31578947,39.6 L3.31578947,39.6 Z" id="Shape" fill="#9AC9E3"></path>
                <g id="Group" fill="#FFB74D">
                    <ellipse id="Oval" cx="21" cy="8.8" rx="8.84210526" ry="8.8"></ellipse>
                    <path d="M39.7894737,30.8 L40.8947368,30.8 C41.5578947,30.8 42,30.36 42,29.7 L42,25.3 C42,24.64 41.5578947,24.2 40.8947368,24.2 L39.7894737,24.2 C37.9105263,24.2 36.4736842,25.63 36.4736842,27.5 L36.4736842,27.5 C36.4736842,29.37 37.9105263,30.8 39.7894737,30.8 L39.7894737,30.8 Z" id="Shape"></path>
                    <path d="M2.21052632,24.2 L1.10526316,24.2 C0.442105263,24.2 0,24.64 0,25.3 L0,29.7 C0,30.36 0.442105263,30.8 1.10526316,30.8 L2.21052632,30.8 C4.08947368,30.8 5.52631579,29.37 5.52631579,27.5 L5.52631579,27.5 C5.52631579,25.63 4.08947368,24.2 2.21052632,24.2 L2.21052632,24.2 Z" id="Shape"></path>
                </g>
            </g>
            <path d="M59.728,15.864 L59.728,33 L65.656,33 C68.264013,32.9359997 70.2279934,32.204007 71.548,30.804 C72.8680066,29.403993 73.528,27.2800142 73.528,24.432 C73.528,21.5839858 72.8680066,19.460007 71.548,18.06 C70.2279934,16.659993 68.264013,15.9280003 65.656,15.864 L59.728,15.864 Z M61.36,31.608 L61.36,17.256 L64.84,17.256 C66.0720062,17.256 67.1319956,17.3879987 68.02,17.652 C68.9080044,17.9160013 69.6399971,18.3359971 70.216,18.912 C70.7920029,19.4880029 71.2159986,20.2319954 71.488,21.144 C71.7600014,22.0560046 71.896,23.1519936 71.896,24.432 C71.896,25.7120064 71.7600014,26.8079954 71.488,27.72 C71.2159986,28.6320046 70.7920029,29.3759971 70.216,29.952 C69.6399971,30.5280029 68.9080044,30.9479987 68.02,31.212 C67.1319956,31.4760013 66.0720062,31.608 64.84,31.608 L61.36,31.608 Z M84.784,25.944 L76.768,25.944 C76.8320003,25.3839972 76.963999,24.8360027 77.164,24.3 C77.364001,23.7639973 77.6319983,23.292002 77.968,22.884 C78.3040017,22.475998 78.7119976,22.1480012 79.192,21.9 C79.6720024,21.6519988 80.2239969,21.528 80.848,21.528 C81.456003,21.528 81.9999976,21.6519988 82.48,21.9 C82.9600024,22.1480012 83.3679983,22.475998 83.704,22.884 C84.0400017,23.292002 84.2999991,23.7599974 84.484,24.288 C84.6680009,24.8160026 84.7679999,25.3679971 84.784,25.944 L84.784,25.944 Z M76.768,27.216 L86.296,27.216 C86.3280002,26.3519957 86.248001,25.5000042 86.056,24.66 C85.863999,23.8199958 85.5480022,23.0760032 85.108,22.428 C84.6679978,21.7799968 84.0960035,21.256002 83.392,20.856 C82.6879965,20.455998 81.840005,20.256 80.848,20.256 C79.8719951,20.256 79.0280036,20.4439981 78.316,20.82 C77.6039964,21.1960019 77.0240022,21.6919969 76.576,22.308 C76.1279978,22.9240031 75.7960011,23.6239961 75.58,24.408 C75.3639989,25.1920039 75.256,25.9919959 75.256,26.808 C75.256,27.6880044 75.3639989,28.523996 75.58,29.316 C75.7960011,30.108004 76.1279978,30.803997 76.576,31.404 C77.0240022,32.004003 77.6039964,32.4759983 78.316,32.82 C79.0280036,33.1640017 79.8719951,33.336 80.848,33.336 C82.4160078,33.336 83.6279957,32.9520038 84.484,32.184 C85.3400043,31.4159962 85.9279984,30.328007 86.248,28.92 L84.736,28.92 C84.4959988,29.8800048 84.0640031,30.6479971 83.44,31.224 C82.8159969,31.8000029 81.9520055,32.088 80.848,32.088 C80.1279964,32.088 79.5120026,31.9360015 79,31.632 C78.4879974,31.3279985 78.0640017,30.9440023 77.728,30.48 C77.3919983,30.0159977 77.1480008,29.4920029 76.996,28.908 C76.8439992,28.3239971 76.768,27.7600027 76.768,27.216 L76.768,27.216 Z M90.736,20.616 L90.736,16.896 L89.224,16.896 L89.224,20.616 L87.064,20.616 L87.064,21.888 L89.224,21.888 L89.224,30.36 C89.2079999,31.4160053 89.399998,32.139998 89.8,32.532 C90.200002,32.924002 90.903995,33.12 91.912,33.12 C92.1360011,33.12 92.3599989,33.1120001 92.584,33.096 C92.8080011,33.0799999 93.0319989,33.072 93.256,33.072 L93.256,31.8 C92.8239978,31.8480002 92.3920022,31.872 91.96,31.872 C91.4159973,31.8399998 91.0760007,31.6840014 90.94,31.404 C90.8039993,31.1239986 90.736,30.7360025 90.736,30.24 L90.736,21.888 L93.256,21.888 L93.256,20.616 L90.736,20.616 Z M95.296,24.408 L96.808,24.408 C96.8400002,23.399995 97.159997,22.6680023 97.768,22.212 C98.376003,21.7559977 99.1599952,21.528 100.12,21.528 C100.568002,21.528 100.987998,21.5639996 101.38,21.636 C101.772002,21.7080004 102.115999,21.839999 102.412,22.032 C102.708001,22.224001 102.939999,22.4839984 103.108,22.812 C103.276001,23.1400016 103.36,23.5599974 103.36,24.072 C103.36,24.4080017 103.316,24.679999 103.228,24.888 C103.14,25.096001 103.016001,25.2599994 102.856,25.38 C102.695999,25.5000006 102.496001,25.5839998 102.256,25.632 C102.015999,25.6800002 101.736002,25.7199998 101.416,25.752 C100.599996,25.8480005 99.796004,25.9479995 99.004,26.052 C98.211996,26.1560005 97.5000032,26.3359987 96.868,26.592 C96.2359968,26.8480013 95.7280019,27.2199976 95.344,27.708 C94.9599981,28.1960024 94.768,28.8719957 94.768,29.736 C94.768,30.3600031 94.8759989,30.8999977 95.092,31.356 C95.3080011,31.8120023 95.6039981,32.1879985 95.98,32.484 C96.3560019,32.7800015 96.7959975,32.9959993 97.3,33.132 C97.8040025,33.2680007 98.3439971,33.336 98.92,33.336 C99.528003,33.336 100.051998,33.2800006 100.492,33.168 C100.932002,33.0559994 101.323998,32.896001 101.668,32.688 C102.012002,32.479999 102.323999,32.2200016 102.604,31.908 C102.884001,31.5959984 103.159999,31.240002 103.432,30.84 L103.48,30.84 C103.48,31.1600016 103.5,31.4519987 103.54,31.716 C103.58,31.9800013 103.663999,32.207999 103.792,32.4 C103.920001,32.592001 104.099999,32.7399995 104.332,32.844 C104.564001,32.9480005 104.871998,33 105.256,33 C105.464001,33 105.635999,32.9920001 105.772,32.976 C105.908001,32.9599999 106.063999,32.9360002 106.24,32.904 L106.24,31.632 C106.095999,31.6960003 105.936001,31.728 105.76,31.728 C105.167997,31.728 104.872,31.424003 104.872,30.816 L104.872,24.24 C104.872,23.4079958 104.736001,22.7320026 104.464,22.212 C104.191999,21.6919974 103.840002,21.2880014 103.408,21 C102.975998,20.7119986 102.488003,20.5160005 101.944,20.412 C101.399997,20.3079995 100.856003,20.256 100.312,20.256 C99.5919964,20.256 98.936003,20.3359992 98.344,20.496 C97.751997,20.6560008 97.2360022,20.9039983 96.796,21.24 C96.3559978,21.5760017 96.0080013,22.0079974 95.752,22.536 C95.4959987,23.0640026 95.3440002,23.6879964 95.296,24.408 L95.296,24.408 Z M103.36,26.232 L103.36,28.2 C103.36,28.808003 103.244001,29.3519976 103.012,29.832 C102.779999,30.3120024 102.468002,30.7199983 102.076,31.056 C101.683998,31.3920017 101.224003,31.6479991 100.696,31.824 C100.167997,32.0000009 99.6160029,32.088 99.04,32.088 C98.6879982,32.088 98.3440017,32.0320006 98.008,31.92 C97.6719983,31.8079994 97.3760013,31.6440011 97.12,31.428 C96.8639987,31.2119989 96.6600008,30.9560015 96.508,30.66 C96.3559992,30.3639985 96.28,30.0240019 96.28,29.64 C96.28,29.031997 96.4599982,28.5640016 96.82,28.236 C97.1800018,27.9079984 97.6399972,27.6560009 98.2,27.48 C98.7600028,27.3039991 99.3799966,27.1720004 100.06,27.084 C100.740003,26.9959996 101.399997,26.8960006 102.04,26.784 C102.248001,26.7519998 102.487999,26.6960004 102.76,26.616 C103.032001,26.5359996 103.216,26.4080009 103.312,26.232 L103.36,26.232 Z M107.92,15.864 L107.92,18.288 L109.432,18.288 L109.432,15.864 L107.92,15.864 Z M107.92,20.616 L107.92,33 L109.432,33 L109.432,20.616 L107.92,20.616 Z M112.36,15.864 L112.36,33 L113.872,33 L113.872,15.864 L112.36,15.864 Z M125.68,25.944 L117.664,25.944 C117.728,25.3839972 117.859999,24.8360027 118.06,24.3 C118.260001,23.7639973 118.527998,23.292002 118.864,22.884 C119.200002,22.475998 119.607998,22.1480012 120.088,21.9 C120.568002,21.6519988 121.119997,21.528 121.744,21.528 C122.352003,21.528 122.895998,21.6519988 123.376,21.9 C123.856002,22.1480012 124.263998,22.475998 124.6,22.884 C124.936002,23.292002 125.195999,23.7599974 125.38,24.288 C125.564001,24.8160026 125.664,25.3679971 125.68,25.944 L125.68,25.944 Z M117.664,27.216 L127.192,27.216 C127.224,26.3519957 127.144001,25.5000042 126.952,24.66 C126.759999,23.8199958 126.444002,23.0760032 126.004,22.428 C125.563998,21.7799968 124.992004,21.256002 124.288,20.856 C123.583996,20.455998 122.736005,20.256 121.744,20.256 C120.767995,20.256 119.924004,20.4439981 119.212,20.82 C118.499996,21.1960019 117.920002,21.6919969 117.472,22.308 C117.023998,22.9240031 116.692001,23.6239961 116.476,24.408 C116.259999,25.1920039 116.152,25.9919959 116.152,26.808 C116.152,27.6880044 116.259999,28.523996 116.476,29.316 C116.692001,30.108004 117.023998,30.803997 117.472,31.404 C117.920002,32.004003 118.499996,32.4759983 119.212,32.82 C119.924004,33.1640017 120.767995,33.336 121.744,33.336 C123.312008,33.336 124.523996,32.9520038 125.38,32.184 C126.236004,31.4159962 126.823998,30.328007 127.144,28.92 L125.632,28.92 C125.391999,29.8800048 124.960003,30.6479971 124.336,31.224 C123.711997,31.8000029 122.848006,32.088 121.744,32.088 C121.023996,32.088 120.408003,31.9360015 119.896,31.632 C119.383997,31.3279985 118.960002,30.9440023 118.624,30.48 C118.287998,30.0159977 118.044001,29.4920029 117.892,28.908 C117.739999,28.3239971 117.664,27.7600027 117.664,27.216 L117.664,27.216 Z M140.128,33 L140.128,15.864 L138.616,15.864 L138.616,22.968 L138.568,22.968 C138.407999,22.5199978 138.180001,22.1280017 137.884,21.792 C137.587999,21.4559983 137.248002,21.1720012 136.864,20.94 C136.479998,20.7079988 136.068002,20.5360006 135.628,20.424 C135.187998,20.3119994 134.736002,20.256 134.272,20.256 C133.327995,20.256 132.508003,20.4319982 131.812,20.784 C131.115997,21.1360018 130.536002,21.611997 130.072,22.212 C129.607998,22.812003 129.264001,23.507996 129.04,24.3 C128.815999,25.092004 128.704,25.9279956 128.704,26.808 C128.704,27.6880044 128.815999,28.523996 129.04,29.316 C129.264001,30.108004 129.607998,30.803997 130.072,31.404 C130.536002,32.004003 131.115997,32.4759983 131.812,32.82 C132.508003,33.1640017 133.327995,33.336 134.272,33.336 C134.720002,33.336 135.171998,33.2720006 135.628,33.144 C136.084002,33.0159994 136.511998,32.8360012 136.912,32.604 C137.312002,32.3719988 137.667998,32.0880017 137.98,31.752 C138.292002,31.4159983 138.527999,31.048002 138.688,30.648 L138.736,30.648 L138.736,33 L140.128,33 Z M130.216,26.808 C130.216,26.1679968 130.291999,25.5320032 130.444,24.9 C130.596001,24.2679968 130.835998,23.7040025 131.164,23.208 C131.492002,22.7119975 131.911997,22.3080016 132.424,21.996 C132.936003,21.6839984 133.551996,21.528 134.272,21.528 C135.072004,21.528 135.747997,21.6839984 136.3,21.996 C136.852003,22.3080016 137.299998,22.7119975 137.644,23.208 C137.988002,23.7040025 138.235999,24.2679968 138.388,24.9 C138.540001,25.5320032 138.616,26.1679968 138.616,26.808 C138.616,27.4480032 138.540001,28.0839968 138.388,28.716 C138.235999,29.3480032 137.988002,29.9119975 137.644,30.408 C137.299998,30.9040025 136.852003,31.3079984 136.3,31.62 C135.747997,31.9320016 135.072004,32.088 134.272,32.088 C133.551996,32.088 132.936003,31.9320016 132.424,31.62 C131.911997,31.3079984 131.492002,30.9040025 131.164,30.408 C130.835998,29.9119975 130.596001,29.3480032 130.444,28.716 C130.291999,28.0839968 130.216,27.4480032 130.216,26.808 L130.216,26.808 Z M149.968,15.864 L149.968,33 L155.896,33 C158.504013,32.9359997 160.467993,32.204007 161.788,30.804 C163.108007,29.403993 163.768,27.2800142 163.768,24.432 C163.768,21.5839858 163.108007,19.460007 161.788,18.06 C160.467993,16.659993 158.504013,15.9280003 155.896,15.864 L149.968,15.864 Z M151.6,31.608 L151.6,17.256 L155.08,17.256 C156.312006,17.256 157.371996,17.3879987 158.26,17.652 C159.148004,17.9160013 159.879997,18.3359971 160.456,18.912 C161.032003,19.4880029 161.455999,20.2319954 161.728,21.144 C162.000001,22.0560046 162.136,23.1519936 162.136,24.432 C162.136,25.7120064 162.000001,26.8079954 161.728,27.72 C161.455999,28.6320046 161.032003,29.3759971 160.456,29.952 C159.879997,30.5280029 159.148004,30.9479987 158.26,31.212 C157.371996,31.4760013 156.312006,31.608 155.08,31.608 L151.6,31.608 Z M171.352,21.528 C172.072004,21.528 172.703997,21.6799985 173.248,21.984 C173.792003,22.2880015 174.243998,22.6879975 174.604,23.184 C174.964002,23.6800025 175.235999,24.2439968 175.42,24.876 C175.604001,25.5080032 175.696,26.1519967 175.696,26.808 C175.696,27.4640033 175.604001,28.1079968 175.42,28.74 C175.235999,29.3720032 174.964002,29.9359975 174.604,30.432 C174.243998,30.9280025 173.792003,31.3279985 173.248,31.632 C172.703997,31.9360015 172.072004,32.088 171.352,32.088 C170.631996,32.088 170.000003,31.9360015 169.456,31.632 C168.911997,31.3279985 168.460002,30.9280025 168.1,30.432 C167.739998,29.9359975 167.468001,29.3720032 167.284,28.74 C167.099999,28.1079968 167.008,27.4640033 167.008,26.808 C167.008,26.1519967 167.099999,25.5080032 167.284,24.876 C167.468001,24.2439968 167.739998,23.6800025 168.1,23.184 C168.460002,22.6879975 168.911997,22.2880015 169.456,21.984 C170.000003,21.6799985 170.631996,21.528 171.352,21.528 L171.352,21.528 Z M171.352,20.256 C170.407995,20.256 169.572004,20.4319982 168.844,20.784 C168.115996,21.1360018 167.504002,21.607997 167.008,22.2 C166.511998,22.792003 166.136001,23.483996 165.88,24.276 C165.623999,25.068004 165.496,25.9119955 165.496,26.808 C165.496,27.7040045 165.623999,28.547996 165.88,29.34 C166.136001,30.132004 166.511998,30.823997 167.008,31.416 C167.504002,32.008003 168.115996,32.4759983 168.844,32.82 C169.572004,33.1640017 170.407995,33.336 171.352,33.336 C172.296005,33.336 173.131996,33.1640017 173.86,32.82 C174.588004,32.4759983 175.199998,32.008003 175.696,31.416 C176.192002,30.823997 176.567999,30.132004 176.824,29.34 C177.080001,28.547996 177.208,27.7040045 177.208,26.808 C177.208,25.9119955 177.080001,25.068004 176.824,24.276 C176.567999,23.483996 176.192002,22.792003 175.696,22.2 C175.199998,21.607997 174.588004,21.1360018 173.86,20.784 C173.131996,20.4319982 172.296005,20.256 171.352,20.256 L171.352,20.256 Z M188.2,24.504 L189.712,24.504 C189.535999,23.0799929 188.988005,22.0160035 188.068,21.312 C187.147995,20.6079965 186.024007,20.256 184.696,20.256 C183.751995,20.256 182.916004,20.4319982 182.188,20.784 C181.459996,21.1360018 180.848002,21.607997 180.352,22.2 C179.855998,22.792003 179.480001,23.483996 179.224,24.276 C178.967999,25.068004 178.84,25.9119955 178.84,26.808 C178.84,27.7040045 178.967999,28.547996 179.224,29.34 C179.480001,30.132004 179.855998,30.823997 180.352,31.416 C180.848002,32.008003 181.459996,32.4759983 182.188,32.82 C182.916004,33.1640017 183.751995,33.336 184.696,33.336 C186.104007,33.336 187.255996,32.9160042 188.152,32.076 C189.048004,31.2359958 189.599999,30.0640075 189.808,28.56 L188.296,28.56 C188.248,29.0720026 188.120001,29.5439978 187.912,29.976 C187.703999,30.4080022 187.440002,30.7799984 187.12,31.092 C186.799998,31.4040016 186.432002,31.6479991 186.016,31.824 C185.599998,32.0000009 185.160002,32.088 184.696,32.088 C183.975996,32.088 183.344003,31.9360015 182.8,31.632 C182.255997,31.3279985 181.804002,30.9280025 181.444,30.432 C181.083998,29.9359975 180.812001,29.3720032 180.628,28.74 C180.443999,28.1079968 180.352,27.4640033 180.352,26.808 C180.352,26.1519967 180.443999,25.5080032 180.628,24.876 C180.812001,24.2439968 181.083998,23.6800025 181.444,23.184 C181.804002,22.6879975 182.255997,22.2880015 182.8,21.984 C183.344003,21.6799985 183.975996,21.528 184.696,21.528 C185.704005,21.528 186.487997,21.7919974 187.048,22.32 C187.608003,22.8480026 187.991999,23.5759954 188.2,24.504 L188.2,24.504 Z M201.952,33 L201.952,20.616 L200.44,20.616 L200.44,27.12 C200.44,27.7440031 200.368001,28.355997 200.224,28.956 C200.079999,29.556003 199.856002,30.0879977 199.552,30.552 C199.247998,31.0160023 198.864002,31.3879986 198.4,31.668 C197.935998,31.9480014 197.376003,32.088 196.72,32.088 C195.519994,32.088 194.676002,31.8000029 194.188,31.224 C193.699998,30.6479971 193.44,29.8000056 193.408,28.68 L193.408,20.616 L191.896,20.616 L191.896,28.656 C191.896,29.3920037 191.975999,30.0479971 192.136,30.624 C192.296001,31.2000029 192.547998,31.687998 192.892,32.088 C193.236002,32.488002 193.683997,32.7959989 194.236,33.012 C194.788003,33.2280011 195.455996,33.336 196.24,33.336 C197.168005,33.336 198.011996,33.1160022 198.772,32.676 C199.532004,32.2359978 200.111998,31.6000042 200.512,30.768 L200.56,30.768 L200.56,33 L201.952,33 Z M204.808,20.616 L204.808,33 L206.32,33 L206.32,26.088 C206.32,25.4319967 206.391999,24.8280028 206.536,24.276 C206.680001,23.7239972 206.899999,23.244002 207.196,22.836 C207.492001,22.427998 207.875998,22.1080012 208.348,21.876 C208.820002,21.6439988 209.375997,21.528 210.016,21.528 C210.496002,21.528 210.903998,21.6079992 211.24,21.768 C211.576002,21.9280008 211.843999,22.1479986 212.044,22.428 C212.244001,22.7080014 212.388,23.0359981 212.476,23.412 C212.564,23.7880019 212.608,24.1839979 212.608,24.6 L212.608,33 L214.12,33 L214.12,25.992 C214.12,25.4159971 214.171999,24.8600027 214.276,24.324 C214.380001,23.7879973 214.559999,23.3120021 214.816,22.896 C215.072001,22.4799979 215.415998,22.1480012 215.848,21.9 C216.280002,21.6519988 216.823997,21.528 217.48,21.528 C218.568005,21.528 219.327998,21.7959973 219.76,22.332 C220.192002,22.8680027 220.408,23.6479949 220.408,24.672 L220.408,33 L221.92,33 L221.92,24.6 C221.92,21.7039855 220.552014,20.256 217.816,20.256 C216.999996,20.256 216.232004,20.455998 215.512,20.856 C214.791996,21.256002 214.248002,21.8639959 213.88,22.68 C213.655999,21.8639959 213.212003,21.256002 212.548,20.856 C211.883997,20.455998 211.144004,20.256 210.328,20.256 C209.319995,20.256 208.492003,20.4719978 207.844,20.904 C207.195997,21.3360022 206.672002,21.9359962 206.272,22.704 L206.2,22.704 L206.2,20.616 L204.808,20.616 Z M233.704,25.944 L225.688,25.944 C225.752,25.3839972 225.883999,24.8360027 226.084,24.3 C226.284001,23.7639973 226.551998,23.292002 226.888,22.884 C227.224002,22.475998 227.631998,22.1480012 228.112,21.9 C228.592002,21.6519988 229.143997,21.528 229.768,21.528 C230.376003,21.528 230.919998,21.6519988 231.4,21.9 C231.880002,22.1480012 232.287998,22.475998 232.624,22.884 C232.960002,23.292002 233.219999,23.7599974 233.404,24.288 C233.588001,24.8160026 233.688,25.3679971 233.704,25.944 L233.704,25.944 Z M225.688,27.216 L235.216,27.216 C235.248,26.3519957 235.168001,25.5000042 234.976,24.66 C234.783999,23.8199958 234.468002,23.0760032 234.028,22.428 C233.587998,21.7799968 233.016004,21.256002 232.312,20.856 C231.607996,20.455998 230.760005,20.256 229.768,20.256 C228.791995,20.256 227.948004,20.4439981 227.236,20.82 C226.523996,21.1960019 225.944002,21.6919969 225.496,22.308 C225.047998,22.9240031 224.716001,23.6239961 224.5,24.408 C224.283999,25.1920039 224.176,25.9919959 224.176,26.808 C224.176,27.6880044 224.283999,28.523996 224.5,29.316 C224.716001,30.108004 225.047998,30.803997 225.496,31.404 C225.944002,32.004003 226.523996,32.4759983 227.236,32.82 C227.948004,33.1640017 228.791995,33.336 229.768,33.336 C231.336008,33.336 232.547996,32.9520038 233.404,32.184 C234.260004,31.4159962 234.847998,30.328007 235.168,28.92 L233.656,28.92 C233.415999,29.8800048 232.984003,30.6479971 232.36,31.224 C231.735997,31.8000029 230.872006,32.088 229.768,32.088 C229.047996,32.088 228.432003,31.9360015 227.92,31.632 C227.407997,31.3279985 226.984002,30.9440023 226.648,30.48 C226.311998,30.0159977 226.068001,29.4920029 225.916,28.908 C225.763999,28.3239971 225.688,27.7600027 225.688,27.216 L225.688,27.216 Z M237.232,20.616 L237.232,33 L238.744,33 L238.744,25.776 C238.76,25.167997 238.859999,24.6040026 239.044,24.084 C239.228001,23.5639974 239.483998,23.1160019 239.812,22.74 C240.140002,22.3639981 240.539998,22.0680011 241.012,21.852 C241.484002,21.6359989 242.023997,21.528 242.632,21.528 C243.240003,21.528 243.747998,21.623999 244.156,21.816 C244.564002,22.008001 244.887999,22.2719983 245.128,22.608 C245.368001,22.9440017 245.536,23.3399977 245.632,23.796 C245.728,24.2520023 245.776,24.7439974 245.776,25.272 L245.776,33 L247.288,33 L247.288,25.032 C247.288,24.2959963 247.216001,23.632003 247.072,23.04 C246.927999,22.447997 246.680002,21.948002 246.328,21.54 C245.975998,21.131998 245.508003,20.8160011 244.924,20.592 C244.339997,20.3679989 243.616004,20.256 242.752,20.256 C241.871996,20.256 241.064004,20.4839977 240.328,20.94 C239.591996,21.3960023 239.080001,21.9999962 238.792,22.752 L238.744,22.752 L238.744,20.616 L237.232,20.616 Z M252.544,20.616 L252.544,16.896 L251.032,16.896 L251.032,20.616 L248.872,20.616 L248.872,21.888 L251.032,21.888 L251.032,30.36 C251.016,31.4160053 251.207998,32.139998 251.608,32.532 C252.008002,32.924002 252.711995,33.12 253.72,33.12 C253.944001,33.12 254.167999,33.1120001 254.392,33.096 C254.616001,33.0799999 254.839999,33.072 255.064,33.072 L255.064,31.8 C254.631998,31.8480002 254.200002,31.872 253.768,31.872 C253.223997,31.8399998 252.884001,31.6840014 252.748,31.404 C252.611999,31.1239986 252.544,30.7360025 252.544,30.24 L252.544,21.888 L255.064,21.888 L255.064,20.616 L252.544,20.616 Z M257.104,24.408 L258.616,24.408 C258.648,23.399995 258.967997,22.6680023 259.576,22.212 C260.184003,21.7559977 260.967995,21.528 261.928,21.528 C262.376002,21.528 262.795998,21.5639996 263.188,21.636 C263.580002,21.7080004 263.923999,21.839999 264.22,22.032 C264.516001,22.224001 264.747999,22.4839984 264.916,22.812 C265.084001,23.1400016 265.168,23.5599974 265.168,24.072 C265.168,24.4080017 265.124,24.679999 265.036,24.888 C264.948,25.096001 264.824001,25.2599994 264.664,25.38 C264.503999,25.5000006 264.304001,25.5839998 264.064,25.632 C263.823999,25.6800002 263.544002,25.7199998 263.224,25.752 C262.407996,25.8480005 261.604004,25.9479995 260.812,26.052 C260.019996,26.1560005 259.308003,26.3359987 258.676,26.592 C258.043997,26.8480013 257.536002,27.2199976 257.152,27.708 C256.767998,28.1960024 256.576,28.8719957 256.576,29.736 C256.576,30.3600031 256.683999,30.8999977 256.9,31.356 C257.116001,31.8120023 257.411998,32.1879985 257.788,32.484 C258.164002,32.7800015 258.603997,32.9959993 259.108,33.132 C259.612003,33.2680007 260.151997,33.336 260.728,33.336 C261.336003,33.336 261.859998,33.2800006 262.3,33.168 C262.740002,33.0559994 263.131998,32.896001 263.476,32.688 C263.820002,32.479999 264.131999,32.2200016 264.412,31.908 C264.692001,31.5959984 264.967999,31.240002 265.24,30.84 L265.288,30.84 C265.288,31.1600016 265.308,31.4519987 265.348,31.716 C265.388,31.9800013 265.471999,32.207999 265.6,32.4 C265.728001,32.592001 265.907999,32.7399995 266.14,32.844 C266.372001,32.9480005 266.679998,33 267.064,33 C267.272001,33 267.443999,32.9920001 267.58,32.976 C267.716001,32.9599999 267.871999,32.9360002 268.048,32.904 L268.048,31.632 C267.903999,31.6960003 267.744001,31.728 267.568,31.728 C266.975997,31.728 266.68,31.424003 266.68,30.816 L266.68,24.24 C266.68,23.4079958 266.544001,22.7320026 266.272,22.212 C265.999999,21.6919974 265.648002,21.2880014 265.216,21 C264.783998,20.7119986 264.296003,20.5160005 263.752,20.412 C263.207997,20.3079995 262.664003,20.256 262.12,20.256 C261.399996,20.256 260.744003,20.3359992 260.152,20.496 C259.559997,20.6560008 259.044002,20.9039983 258.604,21.24 C258.163998,21.5760017 257.816001,22.0079974 257.56,22.536 C257.303999,23.0640026 257.152,23.6879964 257.104,24.408 L257.104,24.408 Z M265.168,26.232 L265.168,28.2 C265.168,28.808003 265.052001,29.3519976 264.82,29.832 C264.587999,30.3120024 264.276002,30.7199983 263.884,31.056 C263.491998,31.3920017 263.032003,31.6479991 262.504,31.824 C261.975997,32.0000009 261.424003,32.088 260.848,32.088 C260.495998,32.088 260.152002,32.0320006 259.816,31.92 C259.479998,31.8079994 259.184001,31.6440011 258.928,31.428 C258.671999,31.2119989 258.468001,30.9560015 258.316,30.66 C258.163999,30.3639985 258.088,30.0240019 258.088,29.64 C258.088,29.031997 258.267998,28.5640016 258.628,28.236 C258.988002,27.9079984 259.447997,27.6560009 260.008,27.48 C260.568003,27.3039991 261.187997,27.1720004 261.868,27.084 C262.548003,26.9959996 263.207997,26.8960006 263.848,26.784 C264.056001,26.7519998 264.295999,26.6960004 264.568,26.616 C264.840001,26.5359996 265.024,26.4080009 265.12,26.232 L265.168,26.232 Z M272.104,20.616 L272.104,16.896 L270.592,16.896 L270.592,20.616 L268.432,20.616 L268.432,21.888 L270.592,21.888 L270.592,30.36 C270.576,31.4160053 270.767998,32.139998 271.168,32.532 C271.568002,32.924002 272.271995,33.12 273.28,33.12 C273.504001,33.12 273.727999,33.1120001 273.952,33.096 C274.176001,33.0799999 274.399999,33.072 274.624,33.072 L274.624,31.8 C274.191998,31.8480002 273.760002,31.872 273.328,31.872 C272.783997,31.8399998 272.444001,31.6840014 272.308,31.404 C272.171999,31.1239986 272.104,30.7360025 272.104,30.24 L272.104,21.888 L274.624,21.888 L274.624,20.616 L272.104,20.616 Z M276.832,15.864 L276.832,18.288 L278.344,18.288 L278.344,15.864 L276.832,15.864 Z M276.832,20.616 L276.832,33 L278.344,33 L278.344,20.616 L276.832,20.616 Z M286.48,21.528 C287.200004,21.528 287.831997,21.6799985 288.376,21.984 C288.920003,22.2880015 289.371998,22.6879975 289.732,23.184 C290.092002,23.6800025 290.363999,24.2439968 290.548,24.876 C290.732001,25.5080032 290.824,26.1519967 290.824,26.808 C290.824,27.4640033 290.732001,28.1079968 290.548,28.74 C290.363999,29.3720032 290.092002,29.9359975 289.732,30.432 C289.371998,30.9280025 288.920003,31.3279985 288.376,31.632 C287.831997,31.9360015 287.200004,32.088 286.48,32.088 C285.759996,32.088 285.128003,31.9360015 284.584,31.632 C284.039997,31.3279985 283.588002,30.9280025 283.228,30.432 C282.867998,29.9359975 282.596001,29.3720032 282.412,28.74 C282.227999,28.1079968 282.136,27.4640033 282.136,26.808 C282.136,26.1519967 282.227999,25.5080032 282.412,24.876 C282.596001,24.2439968 282.867998,23.6800025 283.228,23.184 C283.588002,22.6879975 284.039997,22.2880015 284.584,21.984 C285.128003,21.6799985 285.759996,21.528 286.48,21.528 L286.48,21.528 Z M286.48,20.256 C285.535995,20.256 284.700004,20.4319982 283.972,20.784 C283.243996,21.1360018 282.632002,21.607997 282.136,22.2 C281.639998,22.792003 281.264001,23.483996 281.008,24.276 C280.751999,25.068004 280.624,25.9119955 280.624,26.808 C280.624,27.7040045 280.751999,28.547996 281.008,29.34 C281.264001,30.132004 281.639998,30.823997 282.136,31.416 C282.632002,32.008003 283.243996,32.4759983 283.972,32.82 C284.700004,33.1640017 285.535995,33.336 286.48,33.336 C287.424005,33.336 288.259996,33.1640017 288.988,32.82 C289.716004,32.4759983 290.327998,32.008003 290.824,31.416 C291.320002,30.823997 291.695999,30.132004 291.952,29.34 C292.208001,28.547996 292.336,27.7040045 292.336,26.808 C292.336,25.9119955 292.208001,25.068004 291.952,24.276 C291.695999,23.483996 291.320002,22.792003 290.824,22.2 C290.327998,21.607997 289.716004,21.1360018 288.988,20.784 C288.259996,20.4319982 287.424005,20.256 286.48,20.256 L286.48,20.256 Z M294.568,20.616 L294.568,33 L296.08,33 L296.08,25.776 C296.096,25.167997 296.195999,24.6040026 296.38,24.084 C296.564001,23.5639974 296.819998,23.1160019 297.148,22.74 C297.476002,22.3639981 297.875998,22.0680011 298.348,21.852 C298.820002,21.6359989 299.359997,21.528 299.968,21.528 C300.576003,21.528 301.083998,21.623999 301.492,21.816 C301.900002,22.008001 302.223999,22.2719983 302.464,22.608 C302.704001,22.9440017 302.872,23.3399977 302.968,23.796 C303.064,24.2520023 303.112,24.7439974 303.112,25.272 L303.112,33 L304.624,33 L304.624,25.032 C304.624,24.2959963 304.552001,23.632003 304.408,23.04 C304.263999,22.447997 304.016002,21.948002 303.664,21.54 C303.311998,21.131998 302.844003,20.8160011 302.26,20.592 C301.675997,20.3679989 300.952004,20.256 300.088,20.256 C299.207996,20.256 298.400004,20.4839977 297.664,20.94 C296.927996,21.3960023 296.416001,21.9999962 296.128,22.752 L296.08,22.752 L296.08,20.616 L294.568,20.616 Z" id="Detailed-Documentati-Copy" fill="#4A4A4A" sketch:type="MSShapeGroup"></path>
        </g>
    </g>
</svg>