<?xml version="1.0" encoding="UTF-8" standalone="no"?>
<svg width="282px" height="40px" viewBox="0 0 282 40" version="1.1" xmlns="http://www.w3.org/2000/svg" xmlns:xlink="http://www.w3.org/1999/xlink" xmlns:sketch="http://www.bohemiancoding.com/sketch/ns">
    <!-- Generator: Sketch 3.3.2 (12043) - http://www.bohemiancoding.com/sketch -->
    <title>soon-header-progress-indicators</title>
    <desc>Created with Sketch.</desc>
    <defs></defs>
    <g id="Page-1" stroke="none" stroke-width="1" fill="none" fill-rule="evenodd" sketch:type="MSPage">
        <g id="soon-header-progress-indicators" sketch:type="MSLayerGroup" transform="translate(5.000000, 0.000000)">
            <g id="pie_chart" sketch:type="MSShapeGroup">
                <path d="M0,20 C0,31 9,40 20,40 C25.7777778,40 31,37.5555556 34.5555556,33.6666667 L20,20 L20,0 C9,0 0,9 0,20 Z" id="Shape" fill="#6394AF"></path>
                <path d="M40,20 C40,9 31,0 20,0 L20,20 L40,20 L40,20 Z" id="Shape" fill="#8CBCD6"></path>
                <path d="M20,20 L34.5555556,33.6666667 C37.8888889,30.1111111 40,25.3333333 40,20 L20,20 L20,20 Z" id="Shape" fill="#8CBCD6"></path>
            </g>
            <path d="M69.928,28 L69.928,26.608 L60.592,26.608 C60.6880005,26.0479972 60.9279981,25.5320024 61.312,25.06 C61.6960019,24.5879976 62.1399975,24.152002 62.644,23.752 C63.1480025,23.351998 63.6719973,22.9880016 64.216,22.66 C64.7600027,22.3319984 65.231998,22.0320014 65.632,21.76 C66.1920028,21.4079982 66.7239975,21.028002 67.228,20.62 C67.7320025,20.211998 68.179998,19.7680024 68.572,19.288 C68.964002,18.8079976 69.2759988,18.2800029 69.508,17.704 C69.7400012,17.1279971 69.856,16.4880035 69.856,15.784 C69.856,14.9999961 69.7240013,14.312003 69.46,13.72 C69.1959987,13.127997 68.8280024,12.636002 68.356,12.244 C67.8839976,11.851998 67.3320032,11.556001 66.7,11.356 C66.0679968,11.155999 65.3840037,11.056 64.648,11.056 C63.7359954,11.056 62.9400034,11.2039985 62.26,11.5 C61.5799966,11.7960015 61.0160022,12.2079974 60.568,12.736 C60.1199978,13.2640026 59.7880011,13.8919964 59.572,14.62 C59.3559989,15.3480036 59.2559999,16.1439957 59.272,17.008 L60.784,17.008 C60.7679999,16.3839969 60.8279993,15.7920028 60.964,15.232 C61.1000007,14.6719972 61.3199985,14.1760022 61.624,13.744 C61.9280015,13.3119978 62.3239976,12.9680013 62.812,12.712 C63.3000024,12.4559987 63.8879966,12.328 64.576,12.328 C65.0880026,12.328 65.5719977,12.4039992 66.028,12.556 C66.4840023,12.7080008 66.8839983,12.9319985 67.228,13.228 C67.5720017,13.5240015 67.843999,13.8839979 68.044,14.308 C68.244001,14.7320021 68.344,15.2159973 68.344,15.76 C68.344,16.4320034 68.2280012,17.0119976 67.996,17.5 C67.7639988,17.9880024 67.4160023,18.4639977 66.952,18.928 C66.4879977,19.3920023 65.9640029,19.827998 65.38,20.236 C64.7959971,20.644002 64.208003,21.043998 63.616,21.436 C63.023997,21.828002 62.4480028,22.2359979 61.888,22.66 C61.3279972,23.0840021 60.8240022,23.5519974 60.376,24.064 C59.9279978,24.5760026 59.5680014,25.1519968 59.296,25.792 C59.0239986,26.4320032 58.8800001,27.1679958 58.864,28 L69.928,28 Z M81.376,19.264 L81.376,12.256 L86.992,12.256 C88.1280057,12.256 89.0479965,12.5439971 89.752,13.12 C90.4560035,13.6960029 90.808,14.5759941 90.808,15.76 C90.808,16.9440059 90.4560035,17.8239971 89.752,18.4 C89.0479965,18.9760029 88.1280057,19.264 86.992,19.264 L81.376,19.264 Z M79.744,10.864 L79.744,28 L81.376,28 L81.376,20.656 L87.352,20.656 C88.1200038,20.656 88.8159969,20.5480011 89.44,20.332 C90.0640031,20.1159989 90.5999978,19.7960021 91.048,19.372 C91.4960022,18.9479979 91.8399988,18.432003 92.08,17.824 C92.3200012,17.215997 92.44,16.5280038 92.44,15.76 C92.44,14.9919962 92.3200012,14.304003 92.08,13.696 C91.8399988,13.087997 91.4960022,12.5720021 91.048,12.148 C90.5999978,11.7239979 90.0640031,11.4040011 89.44,11.188 C88.8159969,10.9719989 88.1200038,10.864 87.352,10.864 L79.744,10.864 Z M94.576,15.616 L94.576,28 L96.088,28 L96.088,21.4 C96.088,20.7439967 96.1999989,20.1400028 96.424,19.588 C96.6480011,19.0359972 96.963998,18.560002 97.372,18.16 C97.780002,17.759998 98.2639972,17.4520011 98.824,17.236 C99.3840028,17.0199989 100.007997,16.9279998 100.696,16.96 L100.696,15.448 C99.5759944,15.3999998 98.612004,15.6479973 97.804,16.192 C96.995996,16.7360027 96.4000019,17.511995 96.016,18.52 L95.968,18.52 L95.968,15.616 L94.576,15.616 Z M106.936,16.528 C107.656004,16.528 108.287997,16.6799985 108.832,16.984 C109.376003,17.2880015 109.827998,17.6879975 110.188,18.184 C110.548002,18.6800025 110.819999,19.2439968 111.004,19.876 C111.188001,20.5080032 111.28,21.1519967 111.28,21.808 C111.28,22.4640033 111.188001,23.1079968 111.004,23.74 C110.819999,24.3720032 110.548002,24.9359975 110.188,25.432 C109.827998,25.9280025 109.376003,26.3279985 108.832,26.632 C108.287997,26.9360015 107.656004,27.088 106.936,27.088 C106.215996,27.088 105.584003,26.9360015 105.04,26.632 C104.495997,26.3279985 104.044002,25.9280025 103.684,25.432 C103.323998,24.9359975 103.052001,24.3720032 102.868,23.74 C102.683999,23.1079968 102.592,22.4640033 102.592,21.808 C102.592,21.1519967 102.683999,20.5080032 102.868,19.876 C103.052001,19.2439968 103.323998,18.6800025 103.684,18.184 C104.044002,17.6879975 104.495997,17.2880015 105.04,16.984 C105.584003,16.6799985 106.215996,16.528 106.936,16.528 L106.936,16.528 Z M106.936,15.256 C105.991995,15.256 105.156004,15.4319982 104.428,15.784 C103.699996,16.1360018 103.088002,16.607997 102.592,17.2 C102.095998,17.792003 101.720001,18.483996 101.464,19.276 C101.207999,20.068004 101.08,20.9119955 101.08,21.808 C101.08,22.7040045 101.207999,23.547996 101.464,24.34 C101.720001,25.132004 102.095998,25.823997 102.592,26.416 C103.088002,27.008003 103.699996,27.4759983 104.428,27.82 C105.156004,28.1640017 105.991995,28.336 106.936,28.336 C107.880005,28.336 108.715996,28.1640017 109.444,27.82 C110.172004,27.4759983 110.783998,27.008003 111.28,26.416 C111.776002,25.823997 112.151999,25.132004 112.408,24.34 C112.664001,23.547996 112.792,22.7040045 112.792,21.808 C112.792,20.9119955 112.664001,20.068004 112.408,19.276 C112.151999,18.483996 111.776002,17.792003 111.28,17.2 C110.783998,16.607997 110.172004,16.1360018 109.444,15.784 C108.715996,15.4319982 107.880005,15.256 106.936,15.256 L106.936,15.256 Z M125.512,26.992 L125.512,15.616 L124,15.616 L124,17.752 L123.952,17.752 C123.807999,17.4159983 123.604001,17.0960015 123.34,16.792 C123.075999,16.4879985 122.776002,16.2200012 122.44,15.988 C122.103998,15.7559988 121.732002,15.5760006 121.324,15.448 C120.915998,15.3199994 120.480002,15.256 120.016,15.256 C119.119996,15.256 118.324003,15.4199984 117.628,15.748 C116.931997,16.0760016 116.348002,16.5239972 115.876,17.092 C115.403998,17.6600028 115.044001,18.3239962 114.796,19.084 C114.547999,19.8440038 114.424,20.6479958 114.424,21.496 C114.424,22.3760044 114.527999,23.2039961 114.736,23.98 C114.944001,24.7560039 115.275998,25.4319971 115.732,26.008 C116.188002,26.5840029 116.767996,27.0359984 117.472,27.364 C118.176004,27.6920016 119.023995,27.856 120.016,27.856 C120.928005,27.856 121.723997,27.6240023 122.404,27.16 C123.084003,26.6959977 123.599998,26.0800038 123.952,25.312 L124,25.312 L124,26.992 C124,28.4960075 123.688003,29.647996 123.064,30.448 C122.439997,31.248004 121.424007,31.648 120.016,31.648 C119.599998,31.648 119.192002,31.6040004 118.792,31.516 C118.391998,31.4279996 118.028002,31.288001 117.7,31.096 C117.371998,30.903999 117.092001,30.6520016 116.86,30.34 C116.627999,30.0279984 116.472,29.6400023 116.392,29.176 L114.88,29.176 C114.928,29.8320033 115.107998,30.3959976 115.42,30.868 C115.732002,31.3400024 116.123998,31.7279985 116.596,32.032 C117.068002,32.3360015 117.599997,32.5599993 118.192,32.704 C118.784003,32.8480007 119.391997,32.92 120.016,32.92 C121.024005,32.92 121.875997,32.7840014 122.572,32.512 C123.268003,32.2399986 123.831998,31.8480026 124.264,31.336 C124.696002,30.8239974 125.011999,30.2000037 125.212,29.464 C125.412001,28.7279963 125.512,27.9040046 125.512,26.992 L125.512,26.992 Z M120.016,26.584 C119.311996,26.584 118.704003,26.4440014 118.192,26.164 C117.679997,25.8839986 117.256002,25.5160023 116.92,25.06 C116.583998,24.6039977 116.336001,24.080003 116.176,23.488 C116.015999,22.895997 115.936,22.2880031 115.936,21.664 C115.936,21.0239968 116.011999,20.3960031 116.164,19.78 C116.316001,19.1639969 116.559998,18.6160024 116.896,18.136 C117.232002,17.6559976 117.655997,17.2680015 118.168,16.972 C118.680003,16.6759985 119.295996,16.528 120.016,16.528 C120.736004,16.528 121.347997,16.6799985 121.852,16.984 C122.356003,17.2880015 122.767998,17.6879975 123.088,18.184 C123.408002,18.6800025 123.639999,19.231997 123.784,19.84 C123.928001,20.448003 124,21.055997 124,21.664 C124,22.2880031 123.916001,22.895997 123.748,23.488 C123.579999,24.080003 123.328002,24.6039977 122.992,25.06 C122.655998,25.5160023 122.240002,25.8839986 121.744,26.164 C121.247998,26.4440014 120.672003,26.584 120.016,26.584 L120.016,26.584 Z M128.392,15.616 L128.392,28 L129.904,28 L129.904,21.4 C129.904,20.7439967 130.015999,20.1400028 130.24,19.588 C130.464001,19.0359972 130.779998,18.560002 131.188,18.16 C131.596002,17.759998 132.079997,17.4520011 132.64,17.236 C133.200003,17.0199989 133.823997,16.9279998 134.512,16.96 L134.512,15.448 C133.391994,15.3999998 132.428004,15.6479973 131.62,16.192 C130.811996,16.7360027 130.216002,17.511995 129.832,18.52 L129.784,18.52 L129.784,15.616 L128.392,15.616 Z M144.424,20.944 L136.408,20.944 C136.472,20.3839972 136.603999,19.8360027 136.804,19.3 C137.004001,18.7639973 137.271998,18.292002 137.608,17.884 C137.944002,17.475998 138.351998,17.1480012 138.832,16.9 C139.312002,16.6519988 139.863997,16.528 140.488,16.528 C141.096003,16.528 141.639998,16.6519988 142.12,16.9 C142.600002,17.1480012 143.007998,17.475998 143.344,17.884 C143.680002,18.292002 143.939999,18.7599974 144.124,19.288 C144.308001,19.8160026 144.408,20.3679971 144.424,20.944 L144.424,20.944 Z M136.408,22.216 L145.936,22.216 C145.968,21.3519957 145.888001,20.5000042 145.696,19.66 C145.503999,18.8199958 145.188002,18.0760032 144.748,17.428 C144.307998,16.7799968 143.736004,16.256002 143.032,15.856 C142.327996,15.455998 141.480005,15.256 140.488,15.256 C139.511995,15.256 138.668004,15.4439981 137.956,15.82 C137.243996,16.1960019 136.664002,16.6919969 136.216,17.308 C135.767998,17.9240031 135.436001,18.6239961 135.22,19.408 C135.003999,20.1920039 134.896,20.9919959 134.896,21.808 C134.896,22.6880044 135.003999,23.523996 135.22,24.316 C135.436001,25.108004 135.767998,25.803997 136.216,26.404 C136.664002,27.004003 137.243996,27.4759983 137.956,27.82 C138.668004,28.1640017 139.511995,28.336 140.488,28.336 C142.056008,28.336 143.267996,27.9520038 144.124,27.184 C144.980004,26.4159962 145.567998,25.328007 145.888,23.92 L144.376,23.92 C144.135999,24.8800048 143.704003,25.6479971 143.08,26.224 C142.455997,26.8000029 141.592006,27.088 140.488,27.088 C139.767996,27.088 139.152003,26.9360015 138.64,26.632 C138.127997,26.3279985 137.704002,25.9440023 137.368,25.48 C137.031998,25.0159977 136.788001,24.4920029 136.636,23.908 C136.483999,23.3239971 136.408,22.7600027 136.408,22.216 L136.408,22.216 Z M155.392,19.24 L156.904,19.24 C156.872,18.5679966 156.736001,17.9840025 156.496,17.488 C156.255999,16.9919975 155.932002,16.5760017 155.524,16.24 C155.115998,15.9039983 154.644003,15.6560008 154.108,15.496 C153.571997,15.3359992 152.992003,15.256 152.368,15.256 C151.823997,15.256 151.276003,15.3199994 150.724,15.448 C150.171997,15.5760006 149.672002,15.7759986 149.224,16.048 C148.775998,16.3200014 148.412001,16.6799978 148.132,17.128 C147.851999,17.5760022 147.712,18.1119969 147.712,18.736 C147.712,19.2640026 147.799999,19.7079982 147.976,20.068 C148.152001,20.4280018 148.395998,20.7319988 148.708,20.98 C149.020002,21.2280012 149.383998,21.4359992 149.8,21.604 C150.216002,21.7720008 150.671998,21.9199994 151.168,22.048 L153.112,22.48 C153.448002,22.5600004 153.779998,22.6559994 154.108,22.768 C154.436002,22.8800006 154.727999,23.0199992 154.984,23.188 C155.240001,23.3560008 155.443999,23.5639988 155.596,23.812 C155.748001,24.0600012 155.824,24.3679982 155.824,24.736 C155.824,25.1680022 155.716001,25.5319985 155.5,25.828 C155.283999,26.1240015 155.008002,26.367999 154.672,26.56 C154.335998,26.752001 153.972002,26.8879996 153.58,26.968 C153.187998,27.0480004 152.808002,27.088 152.44,27.088 C151.431995,27.088 150.588003,26.8280026 149.908,26.308 C149.227997,25.7879974 148.856,25.0160051 148.792,23.992 L147.28,23.992 C147.408001,25.5120076 147.923995,26.6159966 148.828,27.304 C149.732005,27.9920034 150.911993,28.336 152.368,28.336 C152.944003,28.336 153.527997,28.2720006 154.12,28.144 C154.712003,28.0159994 155.243998,27.8040015 155.716,27.508 C156.188002,27.2119985 156.575998,26.8280024 156.88,26.356 C157.184002,25.8839976 157.336,25.3120034 157.336,24.64 C157.336,24.0959973 157.232001,23.624002 157.024,23.224 C156.815999,22.823998 156.548002,22.4880014 156.22,22.216 C155.891998,21.9439986 155.516002,21.7240008 155.092,21.556 C154.667998,21.3879992 154.240002,21.2720003 153.808,21.208 L151.792,20.752 C151.535999,20.6879997 151.256002,20.6040005 150.952,20.5 C150.647998,20.3959995 150.368001,20.2640008 150.112,20.104 C149.855999,19.9439992 149.644001,19.7480012 149.476,19.516 C149.307999,19.2839988 149.224,19.0000017 149.224,18.664 C149.224,18.263998 149.311999,17.9280014 149.488,17.656 C149.664001,17.3839986 149.895999,17.1640008 150.184,16.996 C150.472001,16.8279992 150.787998,16.7080004 151.132,16.636 C151.476002,16.5639996 151.815998,16.528 152.152,16.528 C152.584002,16.528 152.991998,16.5799995 153.376,16.684 C153.760002,16.7880005 154.099999,16.9519989 154.396,17.176 C154.692001,17.4000011 154.927999,17.6839983 155.104,18.028 C155.280001,18.3720017 155.376,18.7759977 155.392,19.24 L155.392,19.24 Z M166.936,19.24 L168.448,19.24 C168.416,18.5679966 168.280001,17.9840025 168.04,17.488 C167.799999,16.9919975 167.476002,16.5760017 167.068,16.24 C166.659998,15.9039983 166.188003,15.6560008 165.652,15.496 C165.115997,15.3359992 164.536003,15.256 163.912,15.256 C163.367997,15.256 162.820003,15.3199994 162.268,15.448 C161.715997,15.5760006 161.216002,15.7759986 160.768,16.048 C160.319998,16.3200014 159.956001,16.6799978 159.676,17.128 C159.395999,17.5760022 159.256,18.1119969 159.256,18.736 C159.256,19.2640026 159.343999,19.7079982 159.52,20.068 C159.696001,20.4280018 159.939998,20.7319988 160.252,20.98 C160.564002,21.2280012 160.927998,21.4359992 161.344,21.604 C161.760002,21.7720008 162.215998,21.9199994 162.712,22.048 L164.656,22.48 C164.992002,22.5600004 165.323998,22.6559994 165.652,22.768 C165.980002,22.8800006 166.271999,23.0199992 166.528,23.188 C166.784001,23.3560008 166.987999,23.5639988 167.14,23.812 C167.292001,24.0600012 167.368,24.3679982 167.368,24.736 C167.368,25.1680022 167.260001,25.5319985 167.044,25.828 C166.827999,26.1240015 166.552002,26.367999 166.216,26.56 C165.879998,26.752001 165.516002,26.8879996 165.124,26.968 C164.731998,27.0480004 164.352002,27.088 163.984,27.088 C162.975995,27.088 162.132003,26.8280026 161.452,26.308 C160.771997,25.7879974 160.4,25.0160051 160.336,23.992 L158.824,23.992 C158.952001,25.5120076 159.467995,26.6159966 160.372,27.304 C161.276005,27.9920034 162.455993,28.336 163.912,28.336 C164.488003,28.336 165.071997,28.2720006 165.664,28.144 C166.256003,28.0159994 166.787998,27.8040015 167.26,27.508 C167.732002,27.2119985 168.119998,26.8280024 168.424,26.356 C168.728002,25.8839976 168.88,25.3120034 168.88,24.64 C168.88,24.0959973 168.776001,23.624002 168.568,23.224 C168.359999,22.823998 168.092002,22.4880014 167.764,22.216 C167.435998,21.9439986 167.060002,21.7240008 166.636,21.556 C166.211998,21.3879992 165.784002,21.2720003 165.352,21.208 L163.336,20.752 C163.079999,20.6879997 162.800002,20.6040005 162.496,20.5 C162.191998,20.3959995 161.912001,20.2640008 161.656,20.104 C161.399999,19.9439992 161.188001,19.7480012 161.02,19.516 C160.851999,19.2839988 160.768,19.0000017 160.768,18.664 C160.768,18.263998 160.855999,17.9280014 161.032,17.656 C161.208001,17.3839986 161.439999,17.1640008 161.728,16.996 C162.016001,16.8279992 162.331998,16.7080004 162.676,16.636 C163.020002,16.5639996 163.359998,16.528 163.696,16.528 C164.128002,16.528 164.535998,16.5799995 164.92,16.684 C165.304002,16.7880005 165.643999,16.9519989 165.94,17.176 C166.236001,17.4000011 166.471999,17.6839983 166.648,18.028 C166.824001,18.3720017 166.92,18.7759977 166.936,19.24 L166.936,19.24 Z M178.144,10.864 L178.144,28 L179.776,28 L179.776,10.864 L178.144,10.864 Z M183.04,15.616 L183.04,28 L184.552,28 L184.552,20.776 C184.568,20.167997 184.667999,19.6040026 184.852,19.084 C185.036001,18.5639974 185.291998,18.1160019 185.62,17.74 C185.948002,17.3639981 186.347998,17.0680011 186.82,16.852 C187.292002,16.6359989 187.831997,16.528 188.44,16.528 C189.048003,16.528 189.555998,16.623999 189.964,16.816 C190.372002,17.008001 190.695999,17.2719983 190.936,17.608 C191.176001,17.9440017 191.344,18.3399977 191.44,18.796 C191.536,19.2520023 191.584,19.7439974 191.584,20.272 L191.584,28 L193.096,28 L193.096,20.032 C193.096,19.2959963 193.024001,18.632003 192.88,18.04 C192.735999,17.447997 192.488002,16.948002 192.136,16.54 C191.783998,16.131998 191.316003,15.8160011 190.732,15.592 C190.147997,15.3679989 189.424004,15.256 188.56,15.256 C187.679996,15.256 186.872004,15.4839977 186.136,15.94 C185.399996,16.3960023 184.888001,16.9999962 184.6,17.752 L184.552,17.752 L184.552,15.616 L183.04,15.616 Z M206.848,28 L206.848,10.864 L205.336,10.864 L205.336,17.968 L205.288,17.968 C205.127999,17.5199978 204.900001,17.1280017 204.604,16.792 C204.307999,16.4559983 203.968002,16.1720012 203.584,15.94 C203.199998,15.7079988 202.788002,15.5360006 202.348,15.424 C201.907998,15.3119994 201.456002,15.256 200.992,15.256 C200.047995,15.256 199.228003,15.4319982 198.532,15.784 C197.835997,16.1360018 197.256002,16.611997 196.792,17.212 C196.327998,17.812003 195.984001,18.507996 195.76,19.3 C195.535999,20.092004 195.424,20.9279956 195.424,21.808 C195.424,22.6880044 195.535999,23.523996 195.76,24.316 C195.984001,25.108004 196.327998,25.803997 196.792,26.404 C197.256002,27.004003 197.835997,27.4759983 198.532,27.82 C199.228003,28.1640017 200.047995,28.336 200.992,28.336 C201.440002,28.336 201.891998,28.2720006 202.348,28.144 C202.804002,28.0159994 203.231998,27.8360012 203.632,27.604 C204.032002,27.3719988 204.387998,27.0880017 204.7,26.752 C205.012002,26.4159983 205.247999,26.048002 205.408,25.648 L205.456,25.648 L205.456,28 L206.848,28 Z M196.936,21.808 C196.936,21.1679968 197.011999,20.5320032 197.164,19.9 C197.316001,19.2679968 197.555998,18.7040025 197.884,18.208 C198.212002,17.7119975 198.631997,17.3080016 199.144,16.996 C199.656003,16.6839984 200.271996,16.528 200.992,16.528 C201.792004,16.528 202.467997,16.6839984 203.02,16.996 C203.572003,17.3080016 204.019998,17.7119975 204.364,18.208 C204.708002,18.7040025 204.955999,19.2679968 205.108,19.9 C205.260001,20.5320032 205.336,21.1679968 205.336,21.808 C205.336,22.4480032 205.260001,23.0839968 205.108,23.716 C204.955999,24.3480032 204.708002,24.9119975 204.364,25.408 C204.019998,25.9040025 203.572003,26.3079984 203.02,26.62 C202.467997,26.9320016 201.792004,27.088 200.992,27.088 C200.271996,27.088 199.656003,26.9320016 199.144,26.62 C198.631997,26.3079984 198.212002,25.9040025 197.884,25.408 C197.555998,24.9119975 197.316001,24.3480032 197.164,23.716 C197.011999,23.0839968 196.936,22.4480032 196.936,21.808 L196.936,21.808 Z M209.752,10.864 L209.752,13.288 L211.264,13.288 L211.264,10.864 L209.752,10.864 Z M209.752,15.616 L209.752,28 L211.264,28 L211.264,15.616 L209.752,15.616 Z M222.904,19.504 L224.416,19.504 C224.239999,18.0799929 223.692005,17.0160035 222.772,16.312 C221.851995,15.6079965 220.728007,15.256 219.4,15.256 C218.455995,15.256 217.620004,15.4319982 216.892,15.784 C216.163996,16.1360018 215.552002,16.607997 215.056,17.2 C214.559998,17.792003 214.184001,18.483996 213.928,19.276 C213.671999,20.068004 213.544,20.9119955 213.544,21.808 C213.544,22.7040045 213.671999,23.547996 213.928,24.34 C214.184001,25.132004 214.559998,25.823997 215.056,26.416 C215.552002,27.008003 216.163996,27.4759983 216.892,27.82 C217.620004,28.1640017 218.455995,28.336 219.4,28.336 C220.808007,28.336 221.959996,27.9160042 222.856,27.076 C223.752004,26.2359958 224.303999,25.0640075 224.512,23.56 L223,23.56 C222.952,24.0720026 222.824001,24.5439978 222.616,24.976 C222.407999,25.4080022 222.144002,25.7799984 221.824,26.092 C221.503998,26.4040016 221.136002,26.6479991 220.72,26.824 C220.303998,27.0000009 219.864002,27.088 219.4,27.088 C218.679996,27.088 218.048003,26.9360015 217.504,26.632 C216.959997,26.3279985 216.508002,25.9280025 216.148,25.432 C215.787998,24.9359975 215.516001,24.3720032 215.332,23.74 C215.147999,23.1079968 215.056,22.4640033 215.056,21.808 C215.056,21.1519967 215.147999,20.5080032 215.332,19.876 C215.516001,19.2439968 215.787998,18.6800025 216.148,18.184 C216.508002,17.6879975 216.959997,17.2880015 217.504,16.984 C218.048003,16.6799985 218.679996,16.528 219.4,16.528 C220.408005,16.528 221.191997,16.7919974 221.752,17.32 C222.312003,17.8480026 222.695999,18.5759954 222.904,19.504 L222.904,19.504 Z M226.48,19.408 L227.992,19.408 C228.024,18.399995 228.343997,17.6680023 228.952,17.212 C229.560003,16.7559977 230.343995,16.528 231.304,16.528 C231.752002,16.528 232.171998,16.5639996 232.564,16.636 C232.956002,16.7080004 233.299999,16.839999 233.596,17.032 C233.892001,17.224001 234.123999,17.4839984 234.292,17.812 C234.460001,18.1400016 234.544,18.5599974 234.544,19.072 C234.544,19.4080017 234.5,19.679999 234.412,19.888 C234.324,20.096001 234.200001,20.2599994 234.04,20.38 C233.879999,20.5000006 233.680001,20.5839998 233.44,20.632 C233.199999,20.6800002 232.920002,20.7199998 232.6,20.752 C231.783996,20.8480005 230.980004,20.9479995 230.188,21.052 C229.395996,21.1560005 228.684003,21.3359987 228.052,21.592 C227.419997,21.8480013 226.912002,22.2199976 226.528,22.708 C226.143998,23.1960024 225.952,23.8719957 225.952,24.736 C225.952,25.3600031 226.059999,25.8999977 226.276,26.356 C226.492001,26.8120023 226.787998,27.1879985 227.164,27.484 C227.540002,27.7800015 227.979997,27.9959993 228.484,28.132 C228.988003,28.2680007 229.527997,28.336 230.104,28.336 C230.712003,28.336 231.235998,28.2800006 231.676,28.168 C232.116002,28.0559994 232.507998,27.896001 232.852,27.688 C233.196002,27.479999 233.507999,27.2200016 233.788,26.908 C234.068001,26.5959984 234.343999,26.240002 234.616,25.84 L234.664,25.84 C234.664,26.1600016 234.684,26.4519987 234.724,26.716 C234.764,26.9800013 234.847999,27.207999 234.976,27.4 C235.104001,27.592001 235.283999,27.7399995 235.516,27.844 C235.748001,27.9480005 236.055998,28 236.44,28 C236.648001,28 236.819999,27.9920001 236.956,27.976 C237.092001,27.9599999 237.247999,27.9360002 237.424,27.904 L237.424,26.632 C237.279999,26.6960003 237.120001,26.728 236.944,26.728 C236.351997,26.728 236.056,26.424003 236.056,25.816 L236.056,19.24 C236.056,18.4079958 235.920001,17.7320026 235.648,17.212 C235.375999,16.6919974 235.024002,16.2880014 234.592,16 C234.159998,15.7119986 233.672003,15.5160005 233.128,15.412 C232.583997,15.3079995 232.040003,15.256 231.496,15.256 C230.775996,15.256 230.120003,15.3359992 229.528,15.496 C228.935997,15.6560008 228.420002,15.9039983 227.98,16.24 C227.539998,16.5760017 227.192001,17.0079974 226.936,17.536 C226.679999,18.0640026 226.528,18.6879964 226.48,19.408 L226.48,19.408 Z M234.544,21.232 L234.544,23.2 C234.544,23.808003 234.428001,24.3519976 234.196,24.832 C233.963999,25.3120024 233.652002,25.7199983 233.26,26.056 C232.867998,26.3920017 232.408003,26.6479991 231.88,26.824 C231.351997,27.0000009 230.800003,27.088 230.224,27.088 C229.871998,27.088 229.528002,27.0320006 229.192,26.92 C228.855998,26.8079994 228.560001,26.6440011 228.304,26.428 C228.047999,26.2119989 227.844001,25.9560015 227.692,25.66 C227.539999,25.3639985 227.464,25.0240019 227.464,24.64 C227.464,24.031997 227.643998,23.5640016 228.004,23.236 C228.364002,22.9079984 228.823997,22.6560009 229.384,22.48 C229.944003,22.3039991 230.563997,22.1720004 231.244,22.084 C231.924003,21.9959996 232.583997,21.8960006 233.224,21.784 C233.432001,21.7519998 233.671999,21.6960004 233.944,21.616 C234.216001,21.5359996 234.4,21.4080009 234.496,21.232 L234.544,21.232 Z M241.48,15.616 L241.48,11.896 L239.968,11.896 L239.968,15.616 L237.808,15.616 L237.808,16.888 L239.968,16.888 L239.968,25.36 C239.952,26.4160053 240.143998,27.139998 240.544,27.532 C240.944002,27.924002 241.647995,28.12 242.656,28.12 C242.880001,28.12 243.103999,28.1120001 243.328,28.096 C243.552001,28.0799999 243.775999,28.072 244,28.072 L244,26.8 C243.567998,26.8480002 243.136002,26.872 242.704,26.872 C242.159997,26.8399998 241.820001,26.6840014 241.684,26.404 C241.547999,26.1239986 241.48,25.7360025 241.48,25.24 L241.48,16.888 L244,16.888 L244,15.616 L241.48,15.616 Z M251.416,16.528 C252.136004,16.528 252.767997,16.6799985 253.312,16.984 C253.856003,17.2880015 254.307998,17.6879975 254.668,18.184 C255.028002,18.6800025 255.299999,19.2439968 255.484,19.876 C255.668001,20.5080032 255.76,21.1519967 255.76,21.808 C255.76,22.4640033 255.668001,23.1079968 255.484,23.74 C255.299999,24.3720032 255.028002,24.9359975 254.668,25.432 C254.307998,25.9280025 253.856003,26.3279985 253.312,26.632 C252.767997,26.9360015 252.136004,27.088 251.416,27.088 C250.695996,27.088 250.064003,26.9360015 249.52,26.632 C248.975997,26.3279985 248.524002,25.9280025 248.164,25.432 C247.803998,24.9359975 247.532001,24.3720032 247.348,23.74 C247.163999,23.1079968 247.072,22.4640033 247.072,21.808 C247.072,21.1519967 247.163999,20.5080032 247.348,19.876 C247.532001,19.2439968 247.803998,18.6800025 248.164,18.184 C248.524002,17.6879975 248.975997,17.2880015 249.52,16.984 C250.064003,16.6799985 250.695996,16.528 251.416,16.528 L251.416,16.528 Z M251.416,15.256 C250.471995,15.256 249.636004,15.4319982 248.908,15.784 C248.179996,16.1360018 247.568002,16.607997 247.072,17.2 C246.575998,17.792003 246.200001,18.483996 245.944,19.276 C245.687999,20.068004 245.56,20.9119955 245.56,21.808 C245.56,22.7040045 245.687999,23.547996 245.944,24.34 C246.200001,25.132004 246.575998,25.823997 247.072,26.416 C247.568002,27.008003 248.179996,27.4759983 248.908,27.82 C249.636004,28.1640017 250.471995,28.336 251.416,28.336 C252.360005,28.336 253.195996,28.1640017 253.924,27.82 C254.652004,27.4759983 255.263998,27.008003 255.76,26.416 C256.256002,25.823997 256.631999,25.132004 256.888,24.34 C257.144001,23.547996 257.272,22.7040045 257.272,21.808 C257.272,20.9119955 257.144001,20.068004 256.888,19.276 C256.631999,18.483996 256.256002,17.792003 255.76,17.2 C255.263998,16.607997 254.652004,16.1360018 253.924,15.784 C253.195996,15.4319982 252.360005,15.256 251.416,15.256 L251.416,15.256 Z M259.528,15.616 L259.528,28 L261.04,28 L261.04,21.4 C261.04,20.7439967 261.151999,20.1400028 261.376,19.588 C261.600001,19.0359972 261.915998,18.560002 262.324,18.16 C262.732002,17.759998 263.215997,17.4520011 263.776,17.236 C264.336003,17.0199989 264.959997,16.9279998 265.648,16.96 L265.648,15.448 C264.527994,15.3999998 263.564004,15.6479973 262.756,16.192 C261.947996,16.7360027 261.352002,17.511995 260.968,18.52 L260.92,18.52 L260.92,15.616 L259.528,15.616 Z M274.504,19.24 L276.016,19.24 C275.984,18.5679966 275.848001,17.9840025 275.608,17.488 C275.367999,16.9919975 275.044002,16.5760017 274.636,16.24 C274.227998,15.9039983 273.756003,15.6560008 273.22,15.496 C272.683997,15.3359992 272.104003,15.256 271.48,15.256 C270.935997,15.256 270.388003,15.3199994 269.836,15.448 C269.283997,15.5760006 268.784002,15.7759986 268.336,16.048 C267.887998,16.3200014 267.524001,16.6799978 267.244,17.128 C266.963999,17.5760022 266.824,18.1119969 266.824,18.736 C266.824,19.2640026 266.911999,19.7079982 267.088,20.068 C267.264001,20.4280018 267.507998,20.7319988 267.82,20.98 C268.132002,21.2280012 268.495998,21.4359992 268.912,21.604 C269.328002,21.7720008 269.783998,21.9199994 270.28,22.048 L272.224,22.48 C272.560002,22.5600004 272.891998,22.6559994 273.22,22.768 C273.548002,22.8800006 273.839999,23.0199992 274.096,23.188 C274.352001,23.3560008 274.555999,23.5639988 274.708,23.812 C274.860001,24.0600012 274.936,24.3679982 274.936,24.736 C274.936,25.1680022 274.828001,25.5319985 274.612,25.828 C274.395999,26.1240015 274.120002,26.367999 273.784,26.56 C273.447998,26.752001 273.084002,26.8879996 272.692,26.968 C272.299998,27.0480004 271.920002,27.088 271.552,27.088 C270.543995,27.088 269.700003,26.8280026 269.02,26.308 C268.339997,25.7879974 267.968,25.0160051 267.904,23.992 L266.392,23.992 C266.520001,25.5120076 267.035995,26.6159966 267.94,27.304 C268.844005,27.9920034 270.023993,28.336 271.48,28.336 C272.056003,28.336 272.639997,28.2720006 273.232,28.144 C273.824003,28.0159994 274.355998,27.8040015 274.828,27.508 C275.300002,27.2119985 275.687998,26.8280024 275.992,26.356 C276.296002,25.8839976 276.448,25.3120034 276.448,24.64 C276.448,24.0959973 276.344001,23.624002 276.136,23.224 C275.927999,22.823998 275.660002,22.4880014 275.332,22.216 C275.003998,21.9439986 274.628002,21.7240008 274.204,21.556 C273.779998,21.3879992 273.352002,21.2720003 272.92,21.208 L270.904,20.752 C270.647999,20.6879997 270.368002,20.6040005 270.064,20.5 C269.759998,20.3959995 269.480001,20.2640008 269.224,20.104 C268.967999,19.9439992 268.756001,19.7480012 268.588,19.516 C268.419999,19.2839988 268.336,19.0000017 268.336,18.664 C268.336,18.263998 268.423999,17.9280014 268.6,17.656 C268.776001,17.3839986 269.007999,17.1640008 269.296,16.996 C269.584001,16.8279992 269.899998,16.7080004 270.244,16.636 C270.588002,16.5639996 270.927998,16.528 271.264,16.528 C271.696002,16.528 272.103998,16.5799995 272.488,16.684 C272.872002,16.7880005 273.211999,16.9519989 273.508,17.176 C273.804001,17.4000011 274.039999,17.6839983 274.216,18.028 C274.392001,18.3720017 274.488,18.7759977 274.504,19.24 L274.504,19.24 Z" id="2-Progress-Indicator-Copy" fill="#4A4A4A" sketch:type="MSShapeGroup"></path>
        </g>
    </g>
</svg>