<?xml version="1.0" encoding="UTF-8" standalone="no"?>
<svg width="147px" height="65px" viewBox="0 0 147 65" version="1.1" xmlns="http://www.w3.org/2000/svg" xmlns:xlink="http://www.w3.org/1999/xlink" xmlns:sketch="http://www.bohemiancoding.com/sketch/ns">
    <!-- Generator: Sketch 3.3.2 (12043) - http://www.bohemiancoding.com/sketch -->
    <title>soon-header-reviews</title>
    <desc>Created with Sketch.</desc>
    <defs></defs>
    <g id="Page-1" stroke="none" stroke-width="1" fill="none" fill-rule="evenodd" sketch:type="MSPage">
        <g id="soon-header-reviews" sketch:type="MSLayerGroup" transform="translate(4.000000, 33.000000)">
            <g id="voice_presentation" sketch:type="MSShapeGroup">
                <path d="M36,14 L28,14 L24,18 L24,4 C24,1.8 25.8,0 28,0 L36,0 C38.2,0 40,1.8 40,4 L40,10 C40,12.2 38.2,14 36,14 L36,14 Z" id="Shape" fill="#2196F3"></path>
                <circle id="Oval" fill="#FFA726" cx="13" cy="11" r="8"></circle>
                <path d="M26,28.7 C26,28.7 22.4,22 13,22 C3.6,22 0,28.7 0,28.7 L0,32 L26,32 L26,28.7 L26,28.7 Z" id="Shape" fill="#607D8B"></path>
            </g>
            <path d="M60.36,17 L60.36,10.256 L66.456,10.256 C67.7040062,10.256 68.631997,10.559997 69.24,11.168 C69.848003,11.776003 70.152,12.6079947 70.152,13.664 C70.152,14.1920026 70.052001,14.659998 69.852,15.068 C69.651999,15.476002 69.3840017,15.8239986 69.048,16.112 C68.7119983,16.4000014 68.3200022,16.6199992 67.872,16.772 C67.4239978,16.9240008 66.9520025,17 66.456,17 L60.36,17 Z M58.728,8.864 L58.728,26 L60.36,26 L60.36,18.392 L66.552,18.392 C67.3200038,18.3599998 67.9239978,18.4879986 68.364,18.776 C68.8040022,19.0640014 69.1399988,19.4439976 69.372,19.916 C69.6040012,20.3880024 69.7559996,20.923997 69.828,21.524 C69.9000004,22.124003 69.9519998,22.727997 69.984,23.336 C70.0000001,23.5120009 70.0159999,23.7199988 70.032,23.96 C70.0480001,24.2000012 70.0679999,24.4439988 70.092,24.692 C70.1160001,24.9400012 70.1559997,25.1799988 70.212,25.412 C70.2680003,25.6440012 70.3439995,25.8399992 70.44,26 L72.24,26 C72.0639991,25.791999 71.9240005,25.5000019 71.82,25.124 C71.7159995,24.7479981 71.6400002,24.3480021 71.592,23.924 C71.5439998,23.4999979 71.5120001,23.0800021 71.496,22.664 C71.4799999,22.2479979 71.4640001,21.8960014 71.448,21.608 C71.4159998,21.0959974 71.3480005,20.6200022 71.244,20.18 C71.1399995,19.7399978 70.9720012,19.3520017 70.74,19.016 C70.5079988,18.6799983 70.2080018,18.4040011 69.84,18.188 C69.4719982,17.9719989 69.0080028,17.8240004 68.448,17.744 L68.448,17.696 C69.5520055,17.4719989 70.3839972,16.960004 70.944,16.16 C71.5040028,15.359996 71.784,14.4160054 71.784,13.328 C71.784,12.5599962 71.6440014,11.8920028 71.364,11.324 C71.0839986,10.7559972 70.7080024,10.2920018 70.236,9.932 C69.7639976,9.5719982 69.2120032,9.30400088 68.58,9.128 C67.9479968,8.95199912 67.2800035,8.864 66.576,8.864 L58.728,8.864 Z M83.352,18.944 L75.336,18.944 C75.4000003,18.3839972 75.531999,17.8360027 75.732,17.3 C75.932001,16.7639973 76.1999983,16.292002 76.536,15.884 C76.8720017,15.475998 77.2799976,15.1480012 77.76,14.9 C78.2400024,14.6519988 78.7919969,14.528 79.416,14.528 C80.024003,14.528 80.5679976,14.6519988 81.048,14.9 C81.5280024,15.1480012 81.9359983,15.475998 82.272,15.884 C82.6080017,16.292002 82.8679991,16.7599974 83.052,17.288 C83.2360009,17.8160026 83.3359999,18.3679971 83.352,18.944 L83.352,18.944 Z M75.336,20.216 L84.864,20.216 C84.8960002,19.3519957 84.816001,18.5000042 84.624,17.66 C84.431999,16.8199958 84.1160022,16.0760032 83.676,15.428 C83.2359978,14.7799968 82.6640035,14.256002 81.96,13.856 C81.2559965,13.455998 80.408005,13.256 79.416,13.256 C78.4399951,13.256 77.5960036,13.4439981 76.884,13.82 C76.1719964,14.1960019 75.5920022,14.6919969 75.144,15.308 C74.6959978,15.9240031 74.3640011,16.6239961 74.148,17.408 C73.9319989,18.1920039 73.824,18.9919959 73.824,19.808 C73.824,20.6880044 73.9319989,21.523996 74.148,22.316 C74.3640011,23.108004 74.6959978,23.803997 75.144,24.404 C75.5920022,25.004003 76.1719964,25.4759983 76.884,25.82 C77.5960036,26.1640017 78.4399951,26.336 79.416,26.336 C80.9840078,26.336 82.1959957,25.9520038 83.052,25.184 C83.9080043,24.4159962 84.4959984,23.328007 84.816,21.92 L83.304,21.92 C83.0639988,22.8800048 82.6320031,23.6479971 82.008,24.224 C81.3839969,24.8000029 80.5200055,25.088 79.416,25.088 C78.6959964,25.088 78.0800026,24.9360015 77.568,24.632 C77.0559974,24.3279985 76.6320017,23.9440023 76.296,23.48 C75.9599983,23.0159977 75.7160008,22.4920029 75.564,21.908 C75.4119992,21.3239971 75.336,20.7600027 75.336,20.216 L75.336,20.216 Z M85.512,13.616 L90.288,26 L91.896,26 L96.528,13.616 L94.968,13.616 L91.128,24.488 L91.08,24.488 L87.192,13.616 L85.512,13.616 Z M98.04,8.864 L98.04,11.288 L99.552,11.288 L99.552,8.864 L98.04,8.864 Z M98.04,13.616 L98.04,26 L99.552,26 L99.552,13.616 L98.04,13.616 Z M111.36,18.944 L103.344,18.944 C103.408,18.3839972 103.539999,17.8360027 103.74,17.3 C103.940001,16.7639973 104.207998,16.292002 104.544,15.884 C104.880002,15.475998 105.287998,15.1480012 105.768,14.9 C106.248002,14.6519988 106.799997,14.528 107.424,14.528 C108.032003,14.528 108.575998,14.6519988 109.056,14.9 C109.536002,15.1480012 109.943998,15.475998 110.28,15.884 C110.616002,16.292002 110.875999,16.7599974 111.06,17.288 C111.244001,17.8160026 111.344,18.3679971 111.36,18.944 L111.36,18.944 Z M103.344,20.216 L112.872,20.216 C112.904,19.3519957 112.824001,18.5000042 112.632,17.66 C112.439999,16.8199958 112.124002,16.0760032 111.684,15.428 C111.243998,14.7799968 110.672004,14.256002 109.968,13.856 C109.263996,13.455998 108.416005,13.256 107.424,13.256 C106.447995,13.256 105.604004,13.4439981 104.892,13.82 C104.179996,14.1960019 103.600002,14.6919969 103.152,15.308 C102.703998,15.9240031 102.372001,16.6239961 102.156,17.408 C101.939999,18.1920039 101.832,18.9919959 101.832,19.808 C101.832,20.6880044 101.939999,21.523996 102.156,22.316 C102.372001,23.108004 102.703998,23.803997 103.152,24.404 C103.600002,25.004003 104.179996,25.4759983 104.892,25.82 C105.604004,26.1640017 106.447995,26.336 107.424,26.336 C108.992008,26.336 110.203996,25.9520038 111.06,25.184 C111.916004,24.4159962 112.503998,23.328007 112.824,21.92 L111.312,21.92 C111.071999,22.8800048 110.640003,23.6479971 110.016,24.224 C109.391997,24.8000029 108.528006,25.088 107.424,25.088 C106.703996,25.088 106.088003,24.9360015 105.576,24.632 C105.063997,24.3279985 104.640002,23.9440023 104.304,23.48 C103.967998,23.0159977 103.724001,22.4920029 103.572,21.908 C103.419999,21.3239971 103.344,20.7600027 103.344,20.216 L103.344,20.216 Z M113.664,13.616 L117.648,26 L119.304,26 L122.328,15.584 L122.376,15.584 L125.424,26 L127.08,26 L131.064,13.616 L129.456,13.616 L126.288,24.224 L126.24,24.224 L123.216,13.616 L121.512,13.616 L118.488,24.224 L118.44,24.224 L115.272,13.616 L113.664,13.616 Z M140.112,17.24 L141.624,17.24 C141.592,16.5679966 141.456001,15.9840025 141.216,15.488 C140.975999,14.9919975 140.652002,14.5760017 140.244,14.24 C139.835998,13.9039983 139.364003,13.6560008 138.828,13.496 C138.291997,13.3359992 137.712003,13.256 137.088,13.256 C136.543997,13.256 135.996003,13.3199994 135.444,13.448 C134.891997,13.5760006 134.392002,13.7759986 133.944,14.048 C133.495998,14.3200014 133.132001,14.6799978 132.852,15.128 C132.571999,15.5760022 132.432,16.1119969 132.432,16.736 C132.432,17.2640026 132.519999,17.7079982 132.696,18.068 C132.872001,18.4280018 133.115998,18.7319988 133.428,18.98 C133.740002,19.2280012 134.103998,19.4359992 134.52,19.604 C134.936002,19.7720008 135.391998,19.9199994 135.888,20.048 L137.832,20.48 C138.168002,20.5600004 138.499998,20.6559994 138.828,20.768 C139.156002,20.8800006 139.447999,21.0199992 139.704,21.188 C139.960001,21.3560008 140.163999,21.5639988 140.316,21.812 C140.468001,22.0600012 140.544,22.3679982 140.544,22.736 C140.544,23.1680022 140.436001,23.5319985 140.22,23.828 C140.003999,24.1240015 139.728002,24.367999 139.392,24.56 C139.055998,24.752001 138.692002,24.8879996 138.3,24.968 C137.907998,25.0480004 137.528002,25.088 137.16,25.088 C136.151995,25.088 135.308003,24.8280026 134.628,24.308 C133.947997,23.7879974 133.576,23.0160051 133.512,21.992 L132,21.992 C132.128001,23.5120076 132.643995,24.6159966 133.548,25.304 C134.452005,25.9920034 135.631993,26.336 137.088,26.336 C137.664003,26.336 138.247997,26.2720006 138.84,26.144 C139.432003,26.0159994 139.963998,25.8040015 140.436,25.508 C140.908002,25.2119985 141.295998,24.8280024 141.6,24.356 C141.904002,23.8839976 142.056,23.3120034 142.056,22.64 C142.056,22.0959973 141.952001,21.624002 141.744,21.224 C141.535999,20.823998 141.268002,20.4880014 140.94,20.216 C140.611998,19.9439986 140.236002,19.7240008 139.812,19.556 C139.387998,19.3879992 138.960002,19.2720003 138.528,19.208 L136.512,18.752 C136.255999,18.6879997 135.976002,18.6040005 135.672,18.5 C135.367998,18.3959995 135.088001,18.2640008 134.832,18.104 C134.575999,17.9439992 134.364001,17.7480012 134.196,17.516 C134.027999,17.2839988 133.944,17.0000017 133.944,16.664 C133.944,16.263998 134.031999,15.9280014 134.208,15.656 C134.384001,15.3839986 134.615999,15.1640008 134.904,14.996 C135.192001,14.8279992 135.507998,14.7080004 135.852,14.636 C136.196002,14.5639996 136.535998,14.528 136.872,14.528 C137.304002,14.528 137.711998,14.5799995 138.096,14.684 C138.480002,14.7880005 138.819999,14.9519989 139.116,15.176 C139.412001,15.4000011 139.647999,15.6839983 139.824,16.028 C140.000001,16.3720017 140.096,16.7759977 140.112,17.24 L140.112,17.24 Z" id="Reviews-Copy" fill="#4A4A4A" sketch:type="MSShapeGroup"></path>
        </g>
    </g>
</svg>