<?xml version="1.0" standalone="no"?>
<!DOCTYPE svg PUBLIC "-//W3C//DTD SVG 1.1//EN" "http://www.w3.org/Graphics/SVG/1.1/DTD/svg11.dtd">
<svg width="100%" height="100%" viewBox="0 0 617 100" version="1.1" xmlns="http://www.w3.org/2000/svg" xmlns:xlink="http://www.w3.org/1999/xlink" xml:space="preserve" style="fill-rule:evenodd;clip-rule:evenodd;stroke-linejoin:round;stroke-miterlimit:1.41421;">
    <rect x="0" y="0" width="617" height="100" style="fill:rgb(40,120,159);"/>
    <g transform="matrix(1,0,0,1,-55.2182,9.4244)">
        <path d="M159.158,43.948L157.526,43.948C157.478,45.004 157.618,45.908 157.946,46.66C158.274,47.412 158.742,48.028 159.35,48.508C159.958,48.988 160.694,49.344 161.558,49.576C162.422,49.808 163.358,49.924 164.366,49.924C165.374,49.924 166.238,49.832 166.958,49.648C167.678,49.464 168.282,49.224 168.77,48.928C169.258,48.632 169.642,48.3 169.922,47.932C170.202,47.564 170.418,47.2 170.57,46.84C170.722,46.48 170.818,46.14 170.858,45.82C170.898,45.5 170.918,45.244 170.918,45.052C170.918,44.348 170.802,43.748 170.57,43.252C170.338,42.756 170.018,42.336 169.61,41.992C169.202,41.648 168.73,41.36 168.194,41.128C167.658,40.896 167.086,40.7 166.478,40.54L162.302,39.508C161.95,39.428 161.618,39.324 161.306,39.196C160.994,39.068 160.718,38.9 160.478,38.692C160.238,38.484 160.05,38.232 159.914,37.936C159.778,37.64 159.71,37.292 159.71,36.892C159.71,36.252 159.83,35.716 160.07,35.284C160.31,34.852 160.626,34.504 161.018,34.24C161.41,33.976 161.866,33.784 162.386,33.664C162.906,33.544 163.446,33.484 164.006,33.484C164.614,33.484 165.194,33.568 165.746,33.736C166.298,33.904 166.786,34.152 167.21,34.48C167.634,34.808 167.978,35.216 168.242,35.704C168.506,36.192 168.654,36.764 168.686,37.42L170.318,37.42C170.318,36.54 170.146,35.768 169.802,35.104C169.458,34.44 168.998,33.884 168.422,33.436C167.846,32.988 167.174,32.652 166.406,32.428C165.638,32.204 164.83,32.092 163.982,32.092C162.782,32.092 161.798,32.264 161.03,32.608C160.262,32.952 159.658,33.372 159.218,33.868C158.778,34.364 158.478,34.892 158.318,35.452C158.158,36.012 158.078,36.5 158.078,36.916C158.078,37.588 158.186,38.156 158.402,38.62C158.618,39.084 158.902,39.476 159.254,39.796C159.606,40.116 160.018,40.372 160.49,40.564C160.962,40.756 161.446,40.916 161.942,41.044L165.758,41.98C166.158,42.076 166.566,42.2 166.982,42.352C167.398,42.504 167.778,42.7 168.122,42.94C168.466,43.18 168.746,43.476 168.962,43.828C169.178,44.18 169.286,44.596 169.286,45.076C169.286,45.7 169.134,46.232 168.83,46.672C168.526,47.112 168.146,47.472 167.69,47.752C167.234,48.032 166.742,48.236 166.214,48.364C165.686,48.492 165.198,48.556 164.75,48.556C163.966,48.556 163.23,48.48 162.542,48.328C161.854,48.176 161.258,47.924 160.754,47.572C160.25,47.22 159.854,46.748 159.566,46.156C159.278,45.564 159.142,44.828 159.158,43.948Z" style="fill:white;fill-rule:nonzero;"/>
        <path d="M178.454,38.116C179.174,38.116 179.806,38.268 180.35,38.572C180.894,38.876 181.346,39.276 181.706,39.772C182.066,40.268 182.338,40.832 182.522,41.464C182.706,42.096 182.798,42.74 182.798,43.396C182.798,44.052 182.706,44.696 182.522,45.328C182.338,45.96 182.066,46.524 181.706,47.02C181.346,47.516 180.894,47.916 180.35,48.22C179.806,48.524 179.174,48.676 178.454,48.676C177.734,48.676 177.102,48.524 176.558,48.22C176.014,47.916 175.562,47.516 175.202,47.02C174.842,46.524 174.57,45.96 174.386,45.328C174.202,44.696 174.11,44.052 174.11,43.396C174.11,42.74 174.202,42.096 174.386,41.464C174.57,40.832 174.842,40.268 175.202,39.772C175.562,39.276 176.014,38.876 176.558,38.572C177.102,38.268 177.734,38.116 178.454,38.116ZM178.454,36.844C177.51,36.844 176.674,37.02 175.946,37.372C175.218,37.724 174.606,38.196 174.11,38.788C173.614,39.38 173.238,40.072 172.982,40.864C172.726,41.656 172.598,42.5 172.598,43.396C172.598,44.292 172.726,45.136 172.982,45.928C173.238,46.72 173.614,47.412 174.11,48.004C174.606,48.596 175.218,49.064 175.946,49.408C176.674,49.752 177.51,49.924 178.454,49.924C179.398,49.924 180.234,49.752 180.962,49.408C181.69,49.064 182.302,48.596 182.798,48.004C183.294,47.412 183.67,46.72 183.926,45.928C184.182,45.136 184.31,44.292 184.31,43.396C184.31,42.5 184.182,41.656 183.926,40.864C183.67,40.072 183.294,39.38 182.798,38.788C182.302,38.196 181.69,37.724 180.962,37.372C180.234,37.02 179.398,36.844 178.454,36.844Z" style="fill:white;fill-rule:nonzero;"/>
        <path d="M191.798,38.116C192.518,38.116 193.15,38.268 193.694,38.572C194.238,38.876 194.69,39.276 195.05,39.772C195.41,40.268 195.682,40.832 195.866,41.464C196.05,42.096 196.142,42.74 196.142,43.396C196.142,44.052 196.05,44.696 195.866,45.328C195.682,45.96 195.41,46.524 195.05,47.02C194.69,47.516 194.238,47.916 193.694,48.22C193.15,48.524 192.518,48.676 191.798,48.676C191.078,48.676 190.446,48.524 189.902,48.22C189.358,47.916 188.906,47.516 188.546,47.02C188.186,46.524 187.914,45.96 187.73,45.328C187.546,44.696 187.454,44.052 187.454,43.396C187.454,42.74 187.546,42.096 187.73,41.464C187.914,40.832 188.186,40.268 188.546,39.772C188.906,39.276 189.358,38.876 189.902,38.572C190.446,38.268 191.078,38.116 191.798,38.116ZM191.798,36.844C190.854,36.844 190.018,37.02 189.29,37.372C188.562,37.724 187.95,38.196 187.454,38.788C186.958,39.38 186.582,40.072 186.326,40.864C186.07,41.656 185.942,42.5 185.942,43.396C185.942,44.292 186.07,45.136 186.326,45.928C186.582,46.72 186.958,47.412 187.454,48.004C187.95,48.596 188.562,49.064 189.29,49.408C190.018,49.752 190.854,49.924 191.798,49.924C192.742,49.924 193.578,49.752 194.306,49.408C195.034,49.064 195.646,48.596 196.142,48.004C196.638,47.412 197.014,46.72 197.27,45.928C197.526,45.136 197.654,44.292 197.654,43.396C197.654,42.5 197.526,41.656 197.27,40.864C197.014,40.072 196.638,39.38 196.142,38.788C195.646,38.196 195.034,37.724 194.306,37.372C193.578,37.02 192.742,36.844 191.798,36.844Z" style="fill:white;fill-rule:nonzero;"/>
        <path d="M199.886,37.204L199.886,49.588L201.398,49.588L201.398,42.364C201.414,41.756 201.514,41.192 201.698,40.672C201.882,40.152 202.138,39.704 202.466,39.328C202.794,38.952 203.194,38.656 203.666,38.44C204.138,38.224 204.678,38.116 205.286,38.116C205.894,38.116 206.402,38.212 206.81,38.404C207.218,38.596 207.542,38.86 207.782,39.196C208.022,39.532 208.19,39.928 208.286,40.384C208.382,40.84 208.43,41.332 208.43,41.86L208.43,49.588L209.942,49.588L209.942,41.62C209.942,40.884 209.87,40.22 209.726,39.628C209.582,39.036 209.334,38.536 208.982,38.128C208.63,37.72 208.162,37.404 207.578,37.18C206.994,36.956 206.27,36.844 205.406,36.844C204.526,36.844 203.718,37.072 202.982,37.528C202.246,37.984 201.734,38.588 201.446,39.34L201.398,39.34L201.398,37.204L199.886,37.204Z" style="fill:white;fill-rule:nonzero;"/>
        <path d="M224.246,38.476L224.246,37.204L221.798,37.204L221.798,36.124C221.798,35.788 221.806,35.476 221.822,35.188C221.838,34.9 221.898,34.648 222.002,34.432C222.106,34.216 222.27,34.044 222.494,33.916C222.718,33.788 223.038,33.724 223.454,33.724C223.63,33.724 223.806,33.736 223.982,33.76C224.158,33.784 224.35,33.812 224.558,33.844L224.558,32.548C224.318,32.516 224.102,32.492 223.91,32.476C223.718,32.46 223.51,32.452 223.286,32.452C222.678,32.452 222.178,32.54 221.786,32.716C221.394,32.892 221.086,33.14 220.862,33.46C220.638,33.78 220.486,34.164 220.406,34.612C220.326,35.06 220.286,35.548 220.286,36.076L220.286,37.204L218.174,37.204L218.174,38.476L220.286,38.476L220.286,49.588L221.798,49.588L221.798,38.476L224.246,38.476Z" style="fill:white;fill-rule:nonzero;"/>
        <path d="M230.918,38.116C231.638,38.116 232.27,38.268 232.814,38.572C233.358,38.876 233.81,39.276 234.17,39.772C234.53,40.268 234.802,40.832 234.986,41.464C235.17,42.096 235.262,42.74 235.262,43.396C235.262,44.052 235.17,44.696 234.986,45.328C234.802,45.96 234.53,46.524 234.17,47.02C233.81,47.516 233.358,47.916 232.814,48.22C232.27,48.524 231.638,48.676 230.918,48.676C230.198,48.676 229.566,48.524 229.022,48.22C228.478,47.916 228.026,47.516 227.666,47.02C227.306,46.524 227.034,45.96 226.85,45.328C226.666,44.696 226.574,44.052 226.574,43.396C226.574,42.74 226.666,42.096 226.85,41.464C227.034,40.832 227.306,40.268 227.666,39.772C228.026,39.276 228.478,38.876 229.022,38.572C229.566,38.268 230.198,38.116 230.918,38.116ZM230.918,36.844C229.974,36.844 229.138,37.02 228.41,37.372C227.682,37.724 227.07,38.196 226.574,38.788C226.078,39.38 225.702,40.072 225.446,40.864C225.19,41.656 225.062,42.5 225.062,43.396C225.062,44.292 225.19,45.136 225.446,45.928C225.702,46.72 226.078,47.412 226.574,48.004C227.07,48.596 227.682,49.064 228.41,49.408C229.138,49.752 229.974,49.924 230.918,49.924C231.862,49.924 232.698,49.752 233.426,49.408C234.154,49.064 234.766,48.596 235.262,48.004C235.758,47.412 236.134,46.72 236.39,45.928C236.646,45.136 236.774,44.292 236.774,43.396C236.774,42.5 236.646,41.656 236.39,40.864C236.134,40.072 235.758,39.38 235.262,38.788C234.766,38.196 234.154,37.724 233.426,37.372C232.698,37.02 231.862,36.844 230.918,36.844Z" style="fill:white;fill-rule:nonzero;"/>
        <path d="M239.03,37.204L239.03,49.588L240.542,49.588L240.542,42.988C240.542,42.332 240.654,41.728 240.878,41.176C241.102,40.624 241.418,40.148 241.826,39.748C242.234,39.348 242.718,39.04 243.278,38.824C243.838,38.608 244.462,38.516 245.15,38.548L245.15,37.036C244.03,36.988 243.066,37.236 242.258,37.78C241.45,38.324 240.854,39.1 240.47,40.108L240.422,40.108L240.422,37.204L239.03,37.204Z" style="fill:white;fill-rule:nonzero;"/>
        <path d="M251.822,32.452L256.574,49.588L258.35,49.588L262.67,34.252L262.718,34.252L267.062,49.588L268.79,49.588L273.518,32.452L271.886,32.452L267.974,47.452L267.926,47.452L263.726,32.452L261.686,32.452L257.51,47.452L257.462,47.452L253.574,32.452L251.822,32.452Z" style="fill:white;fill-rule:nonzero;"/>
        <path d="M279.83,38.116C280.55,38.116 281.182,38.268 281.726,38.572C282.27,38.876 282.722,39.276 283.082,39.772C283.442,40.268 283.714,40.832 283.898,41.464C284.082,42.096 284.174,42.74 284.174,43.396C284.174,44.052 284.082,44.696 283.898,45.328C283.714,45.96 283.442,46.524 283.082,47.02C282.722,47.516 282.27,47.916 281.726,48.22C281.182,48.524 280.55,48.676 279.83,48.676C279.11,48.676 278.478,48.524 277.934,48.22C277.39,47.916 276.938,47.516 276.578,47.02C276.218,46.524 275.946,45.96 275.762,45.328C275.578,44.696 275.486,44.052 275.486,43.396C275.486,42.74 275.578,42.096 275.762,41.464C275.946,40.832 276.218,40.268 276.578,39.772C276.938,39.276 277.39,38.876 277.934,38.572C278.478,38.268 279.11,38.116 279.83,38.116ZM279.83,36.844C278.886,36.844 278.05,37.02 277.322,37.372C276.594,37.724 275.982,38.196 275.486,38.788C274.99,39.38 274.614,40.072 274.358,40.864C274.102,41.656 273.974,42.5 273.974,43.396C273.974,44.292 274.102,45.136 274.358,45.928C274.614,46.72 274.99,47.412 275.486,48.004C275.982,48.596 276.594,49.064 277.322,49.408C278.05,49.752 278.886,49.924 279.83,49.924C280.774,49.924 281.61,49.752 282.338,49.408C283.066,49.064 283.678,48.596 284.174,48.004C284.67,47.412 285.046,46.72 285.302,45.928C285.558,45.136 285.686,44.292 285.686,43.396C285.686,42.5 285.558,41.656 285.302,40.864C285.046,40.072 284.67,39.38 284.174,38.788C283.678,38.196 283.066,37.724 282.338,37.372C281.61,37.02 280.774,36.844 279.83,36.844Z" style="fill:white;fill-rule:nonzero;"/>
        <path d="M287.942,37.204L287.942,49.588L289.454,49.588L289.454,42.988C289.454,42.332 289.566,41.728 289.79,41.176C290.014,40.624 290.33,40.148 290.738,39.748C291.146,39.348 291.63,39.04 292.19,38.824C292.75,38.608 293.374,38.516 294.062,38.548L294.062,37.036C292.942,36.988 291.978,37.236 291.17,37.78C290.362,38.324 289.766,39.1 289.382,40.108L289.334,40.108L289.334,37.204L287.942,37.204Z" style="fill:white;fill-rule:nonzero;"/>
        <path d="M305.966,49.588L305.966,32.452L304.454,32.452L304.454,39.556L304.406,39.556C304.246,39.108 304.018,38.716 303.722,38.38C303.426,38.044 303.086,37.76 302.702,37.528C302.318,37.296 301.906,37.124 301.466,37.012C301.026,36.9 300.574,36.844 300.11,36.844C299.166,36.844 298.346,37.02 297.65,37.372C296.954,37.724 296.374,38.2 295.91,38.8C295.446,39.4 295.102,40.096 294.878,40.888C294.654,41.68 294.542,42.516 294.542,43.396C294.542,44.276 294.654,45.112 294.878,45.904C295.102,46.696 295.446,47.392 295.91,47.992C296.374,48.592 296.954,49.064 297.65,49.408C298.346,49.752 299.166,49.924 300.11,49.924C300.558,49.924 301.01,49.86 301.466,49.732C301.922,49.604 302.35,49.424 302.75,49.192C303.15,48.96 303.506,48.676 303.818,48.34C304.13,48.004 304.366,47.636 304.526,47.236L304.574,47.236L304.574,49.588L305.966,49.588ZM296.054,43.396C296.054,42.756 296.13,42.12 296.282,41.488C296.434,40.856 296.674,40.292 297.002,39.796C297.33,39.3 297.75,38.896 298.262,38.584C298.774,38.272 299.39,38.116 300.11,38.116C300.91,38.116 301.586,38.272 302.138,38.584C302.69,38.896 303.138,39.3 303.482,39.796C303.826,40.292 304.074,40.856 304.226,41.488C304.378,42.12 304.454,42.756 304.454,43.396C304.454,44.036 304.378,44.672 304.226,45.304C304.074,45.936 303.826,46.5 303.482,46.996C303.138,47.492 302.69,47.896 302.138,48.208C301.586,48.52 300.91,48.676 300.11,48.676C299.39,48.676 298.774,48.52 298.262,48.208C297.75,47.896 297.33,47.492 297.002,46.996C296.674,46.5 296.434,45.936 296.282,45.304C296.13,44.672 296.054,44.036 296.054,43.396Z" style="fill:white;fill-rule:nonzero;"/>
        <path d="M310.766,40.852L310.766,33.844L316.382,33.844C317.518,33.844 318.438,34.132 319.142,34.708C319.846,35.284 320.198,36.164 320.198,37.348C320.198,38.532 319.846,39.412 319.142,39.988C318.438,40.564 317.518,40.852 316.382,40.852L310.766,40.852ZM309.134,32.452L309.134,49.588L310.766,49.588L310.766,42.244L316.742,42.244C317.51,42.244 318.206,42.136 318.83,41.92C319.454,41.704 319.99,41.384 320.438,40.96C320.886,40.536 321.23,40.02 321.47,39.412C321.71,38.804 321.83,38.116 321.83,37.348C321.83,36.58 321.71,35.892 321.47,35.284C321.23,34.676 320.886,34.16 320.438,33.736C319.99,33.312 319.454,32.992 318.83,32.776C318.206,32.56 317.51,32.452 316.742,32.452L309.134,32.452Z" style="fill:white;fill-rule:nonzero;"/>
        <path d="M323.966,37.204L323.966,49.588L325.478,49.588L325.478,42.988C325.478,42.332 325.59,41.728 325.814,41.176C326.038,40.624 326.354,40.148 326.762,39.748C327.17,39.348 327.654,39.04 328.214,38.824C328.774,38.608 329.398,38.516 330.086,38.548L330.086,37.036C328.966,36.988 328.002,37.236 327.194,37.78C326.386,38.324 325.79,39.1 325.406,40.108L325.358,40.108L325.358,37.204L323.966,37.204Z" style="fill:white;fill-rule:nonzero;"/>
        <path d="M339.998,42.532L331.982,42.532C332.046,41.972 332.178,41.424 332.378,40.888C332.578,40.352 332.846,39.88 333.182,39.472C333.518,39.064 333.926,38.736 334.406,38.488C334.886,38.24 335.438,38.116 336.062,38.116C336.67,38.116 337.214,38.24 337.694,38.488C338.174,38.736 338.582,39.064 338.918,39.472C339.254,39.88 339.514,40.348 339.698,40.876C339.882,41.404 339.982,41.956 339.998,42.532ZM331.982,43.804L341.51,43.804C341.542,42.94 341.462,42.088 341.27,41.248C341.078,40.408 340.762,39.664 340.322,39.016C339.882,38.368 339.31,37.844 338.606,37.444C337.902,37.044 337.054,36.844 336.062,36.844C335.086,36.844 334.242,37.032 333.53,37.408C332.818,37.784 332.238,38.28 331.79,38.896C331.342,39.512 331.01,40.212 330.794,40.996C330.578,41.78 330.47,42.58 330.47,43.396C330.47,44.276 330.578,45.112 330.794,45.904C331.01,46.696 331.342,47.392 331.79,47.992C332.238,48.592 332.818,49.064 333.53,49.408C334.242,49.752 335.086,49.924 336.062,49.924C337.63,49.924 338.842,49.54 339.698,48.772C340.554,48.004 341.142,46.916 341.462,45.508L339.95,45.508C339.71,46.468 339.278,47.236 338.654,47.812C338.03,48.388 337.166,48.676 336.062,48.676C335.342,48.676 334.726,48.524 334.214,48.22C333.702,47.916 333.278,47.532 332.942,47.068C332.606,46.604 332.362,46.08 332.21,45.496C332.058,44.912 331.982,44.348 331.982,43.804Z" style="fill:white;fill-rule:nonzero;"/>
        <path d="M350.966,40.828L352.478,40.828C352.446,40.156 352.31,39.572 352.07,39.076C351.83,38.58 351.506,38.164 351.098,37.828C350.69,37.492 350.218,37.244 349.682,37.084C349.146,36.924 348.566,36.844 347.942,36.844C347.398,36.844 346.85,36.908 346.298,37.036C345.746,37.164 345.246,37.364 344.798,37.636C344.35,37.908 343.986,38.268 343.706,38.716C343.426,39.164 343.286,39.7 343.286,40.324C343.286,40.852 343.374,41.296 343.55,41.656C343.726,42.016 343.97,42.32 344.282,42.568C344.594,42.816 344.958,43.024 345.374,43.192C345.79,43.36 346.246,43.508 346.742,43.636L348.686,44.068C349.022,44.148 349.354,44.244 349.682,44.356C350.01,44.468 350.302,44.608 350.558,44.776C350.814,44.944 351.018,45.152 351.17,45.4C351.322,45.648 351.398,45.956 351.398,46.324C351.398,46.756 351.29,47.12 351.074,47.416C350.858,47.712 350.582,47.956 350.246,48.148C349.91,48.34 349.546,48.476 349.154,48.556C348.762,48.636 348.382,48.676 348.014,48.676C347.006,48.676 346.162,48.416 345.482,47.896C344.802,47.376 344.43,46.604 344.366,45.58L342.854,45.58C342.982,47.1 343.498,48.204 344.402,48.892C345.306,49.58 346.486,49.924 347.942,49.924C348.518,49.924 349.102,49.86 349.694,49.732C350.286,49.604 350.818,49.392 351.29,49.096C351.762,48.8 352.15,48.416 352.454,47.944C352.758,47.472 352.91,46.9 352.91,46.228C352.91,45.684 352.806,45.212 352.598,44.812C352.39,44.412 352.122,44.076 351.794,43.804C351.466,43.532 351.09,43.312 350.666,43.144C350.242,42.976 349.814,42.86 349.382,42.796L347.366,42.34C347.11,42.276 346.83,42.192 346.526,42.088C346.222,41.984 345.942,41.852 345.686,41.692C345.43,41.532 345.218,41.336 345.05,41.104C344.882,40.872 344.798,40.588 344.798,40.252C344.798,39.852 344.886,39.516 345.062,39.244C345.238,38.972 345.47,38.752 345.758,38.584C346.046,38.416 346.362,38.296 346.706,38.224C347.05,38.152 347.39,38.116 347.726,38.116C348.158,38.116 348.566,38.168 348.95,38.272C349.334,38.376 349.674,38.54 349.97,38.764C350.266,38.988 350.502,39.272 350.678,39.616C350.854,39.96 350.95,40.364 350.966,40.828Z" style="fill:white;fill-rule:nonzero;"/>
        <path d="M362.51,40.828L364.022,40.828C363.99,40.156 363.854,39.572 363.614,39.076C363.374,38.58 363.05,38.164 362.642,37.828C362.234,37.492 361.762,37.244 361.226,37.084C360.69,36.924 360.11,36.844 359.486,36.844C358.942,36.844 358.394,36.908 357.842,37.036C357.29,37.164 356.79,37.364 356.342,37.636C355.894,37.908 355.53,38.268 355.25,38.716C354.97,39.164 354.83,39.7 354.83,40.324C354.83,40.852 354.918,41.296 355.094,41.656C355.27,42.016 355.514,42.32 355.826,42.568C356.138,42.816 356.502,43.024 356.918,43.192C357.334,43.36 357.79,43.508 358.286,43.636L360.23,44.068C360.566,44.148 360.898,44.244 361.226,44.356C361.554,44.468 361.846,44.608 362.102,44.776C362.358,44.944 362.562,45.152 362.714,45.4C362.866,45.648 362.942,45.956 362.942,46.324C362.942,46.756 362.834,47.12 362.618,47.416C362.402,47.712 362.126,47.956 361.79,48.148C361.454,48.34 361.09,48.476 360.698,48.556C360.306,48.636 359.926,48.676 359.558,48.676C358.55,48.676 357.706,48.416 357.026,47.896C356.346,47.376 355.974,46.604 355.91,45.58L354.398,45.58C354.526,47.1 355.042,48.204 355.946,48.892C356.85,49.58 358.03,49.924 359.486,49.924C360.062,49.924 360.646,49.86 361.238,49.732C361.83,49.604 362.362,49.392 362.834,49.096C363.306,48.8 363.694,48.416 363.998,47.944C364.302,47.472 364.454,46.9 364.454,46.228C364.454,45.684 364.35,45.212 364.142,44.812C363.934,44.412 363.666,44.076 363.338,43.804C363.01,43.532 362.634,43.312 362.21,43.144C361.786,42.976 361.358,42.86 360.926,42.796L358.91,42.34C358.654,42.276 358.374,42.192 358.07,42.088C357.766,41.984 357.486,41.852 357.23,41.692C356.974,41.532 356.762,41.336 356.594,41.104C356.426,40.872 356.342,40.588 356.342,40.252C356.342,39.852 356.43,39.516 356.606,39.244C356.782,38.972 357.014,38.752 357.302,38.584C357.59,38.416 357.906,38.296 358.25,38.224C358.594,38.152 358.934,38.116 359.27,38.116C359.702,38.116 360.11,38.168 360.494,38.272C360.878,38.376 361.218,38.54 361.514,38.764C361.81,38.988 362.046,39.272 362.222,39.616C362.398,39.96 362.494,40.364 362.51,40.828Z" style="fill:white;fill-rule:nonzero;"/>
        <path d="M373.334,32.452L373.334,34.876L374.846,34.876L374.846,32.452L373.334,32.452ZM373.334,37.204L373.334,49.588L374.846,49.588L374.846,37.204L373.334,37.204Z" style="fill:white;fill-rule:nonzero;"/>
        <path d="M385.166,40.828L386.678,40.828C386.646,40.156 386.51,39.572 386.27,39.076C386.03,38.58 385.706,38.164 385.298,37.828C384.89,37.492 384.418,37.244 383.882,37.084C383.346,36.924 382.766,36.844 382.142,36.844C381.598,36.844 381.05,36.908 380.498,37.036C379.946,37.164 379.446,37.364 378.998,37.636C378.55,37.908 378.186,38.268 377.906,38.716C377.626,39.164 377.486,39.7 377.486,40.324C377.486,40.852 377.574,41.296 377.75,41.656C377.926,42.016 378.17,42.32 378.482,42.568C378.794,42.816 379.158,43.024 379.574,43.192C379.99,43.36 380.446,43.508 380.942,43.636L382.886,44.068C383.222,44.148 383.554,44.244 383.882,44.356C384.21,44.468 384.502,44.608 384.758,44.776C385.014,44.944 385.218,45.152 385.37,45.4C385.522,45.648 385.598,45.956 385.598,46.324C385.598,46.756 385.49,47.12 385.274,47.416C385.058,47.712 384.782,47.956 384.446,48.148C384.11,48.34 383.746,48.476 383.354,48.556C382.962,48.636 382.582,48.676 382.214,48.676C381.206,48.676 380.362,48.416 379.682,47.896C379.002,47.376 378.63,46.604 378.566,45.58L377.054,45.58C377.182,47.1 377.698,48.204 378.602,48.892C379.506,49.58 380.686,49.924 382.142,49.924C382.718,49.924 383.302,49.86 383.894,49.732C384.486,49.604 385.018,49.392 385.49,49.096C385.962,48.8 386.35,48.416 386.654,47.944C386.958,47.472 387.11,46.9 387.11,46.228C387.11,45.684 387.006,45.212 386.798,44.812C386.59,44.412 386.322,44.076 385.994,43.804C385.666,43.532 385.29,43.312 384.866,43.144C384.442,42.976 384.014,42.86 383.582,42.796L381.566,42.34C381.31,42.276 381.03,42.192 380.726,42.088C380.422,41.984 380.142,41.852 379.886,41.692C379.63,41.532 379.418,41.336 379.25,41.104C379.082,40.872 378.998,40.588 378.998,40.252C378.998,39.852 379.086,39.516 379.262,39.244C379.438,38.972 379.67,38.752 379.958,38.584C380.246,38.416 380.562,38.296 380.906,38.224C381.25,38.152 381.59,38.116 381.926,38.116C382.358,38.116 382.766,38.168 383.15,38.272C383.534,38.376 383.874,38.54 384.17,38.764C384.466,38.988 384.702,39.272 384.878,39.616C385.054,39.96 385.15,40.364 385.166,40.828Z" style="fill:white;fill-rule:nonzero;"/>
        <path d="M395.822,40.996L397.334,40.996C397.366,39.988 397.686,39.256 398.294,38.8C398.902,38.344 399.686,38.116 400.646,38.116C401.094,38.116 401.514,38.152 401.906,38.224C402.298,38.296 402.642,38.428 402.938,38.62C403.234,38.812 403.466,39.072 403.634,39.4C403.802,39.728 403.886,40.148 403.886,40.66C403.886,40.996 403.842,41.268 403.754,41.476C403.666,41.684 403.542,41.848 403.382,41.968C403.222,42.088 403.022,42.172 402.782,42.22C402.542,42.268 402.262,42.308 401.942,42.34C401.126,42.436 400.322,42.536 399.53,42.64C398.738,42.744 398.026,42.924 397.394,43.18C396.762,43.436 396.254,43.808 395.87,44.296C395.486,44.784 395.294,45.46 395.294,46.324C395.294,46.948 395.402,47.488 395.618,47.944C395.834,48.4 396.13,48.776 396.506,49.072C396.882,49.368 397.322,49.584 397.826,49.72C398.33,49.856 398.87,49.924 399.446,49.924C400.054,49.924 400.578,49.868 401.018,49.756C401.458,49.644 401.85,49.484 402.194,49.276C402.538,49.068 402.85,48.808 403.13,48.496C403.41,48.184 403.686,47.828 403.958,47.428L404.006,47.428C404.006,47.748 404.026,48.04 404.066,48.304C404.106,48.568 404.19,48.796 404.318,48.988C404.446,49.18 404.626,49.328 404.858,49.432C405.09,49.536 405.398,49.588 405.782,49.588C405.99,49.588 406.162,49.58 406.298,49.564C406.434,49.548 406.59,49.524 406.766,49.492L406.766,48.22C406.622,48.284 406.462,48.316 406.286,48.316C405.694,48.316 405.398,48.012 405.398,47.404L405.398,40.828C405.398,39.996 405.262,39.32 404.99,38.8C404.718,38.28 404.366,37.876 403.934,37.588C403.502,37.3 403.014,37.104 402.47,37C401.926,36.896 401.382,36.844 400.838,36.844C400.118,36.844 399.462,36.924 398.87,37.084C398.278,37.244 397.762,37.492 397.322,37.828C396.882,38.164 396.534,38.596 396.278,39.124C396.022,39.652 395.87,40.276 395.822,40.996ZM403.886,42.82L403.886,44.788C403.886,45.396 403.77,45.94 403.538,46.42C403.306,46.9 402.994,47.308 402.602,47.644C402.21,47.98 401.75,48.236 401.222,48.412C400.694,48.588 400.142,48.676 399.566,48.676C399.214,48.676 398.87,48.62 398.534,48.508C398.198,48.396 397.902,48.232 397.646,48.016C397.39,47.8 397.186,47.544 397.034,47.248C396.882,46.952 396.806,46.612 396.806,46.228C396.806,45.62 396.986,45.152 397.346,44.824C397.706,44.496 398.166,44.244 398.726,44.068C399.286,43.892 399.906,43.76 400.586,43.672C401.266,43.584 401.926,43.484 402.566,43.372C402.774,43.34 403.014,43.284 403.286,43.204C403.558,43.124 403.742,42.996 403.838,42.82L403.886,42.82Z" style="fill:white;fill-rule:nonzero;"/>
        <path d="M407.03,37.204L411.806,49.588L413.414,49.588L418.046,37.204L416.486,37.204L412.646,48.076L412.598,48.076L408.71,37.204L407.03,37.204Z" style="fill:white;fill-rule:nonzero;"/>
        <path d="M419.39,40.996L420.902,40.996C420.934,39.988 421.254,39.256 421.862,38.8C422.47,38.344 423.254,38.116 424.214,38.116C424.662,38.116 425.082,38.152 425.474,38.224C425.866,38.296 426.21,38.428 426.506,38.62C426.802,38.812 427.034,39.072 427.202,39.4C427.37,39.728 427.454,40.148 427.454,40.66C427.454,40.996 427.41,41.268 427.322,41.476C427.234,41.684 427.11,41.848 426.95,41.968C426.79,42.088 426.59,42.172 426.35,42.22C426.11,42.268 425.83,42.308 425.51,42.34C424.694,42.436 423.89,42.536 423.098,42.64C422.306,42.744 421.594,42.924 420.962,43.18C420.33,43.436 419.822,43.808 419.438,44.296C419.054,44.784 418.862,45.46 418.862,46.324C418.862,46.948 418.97,47.488 419.186,47.944C419.402,48.4 419.698,48.776 420.074,49.072C420.45,49.368 420.89,49.584 421.394,49.72C421.898,49.856 422.438,49.924 423.014,49.924C423.622,49.924 424.146,49.868 424.586,49.756C425.026,49.644 425.418,49.484 425.762,49.276C426.106,49.068 426.418,48.808 426.698,48.496C426.978,48.184 427.254,47.828 427.526,47.428L427.574,47.428C427.574,47.748 427.594,48.04 427.634,48.304C427.674,48.568 427.758,48.796 427.886,48.988C428.014,49.18 428.194,49.328 428.426,49.432C428.658,49.536 428.966,49.588 429.35,49.588C429.558,49.588 429.73,49.58 429.866,49.564C430.002,49.548 430.158,49.524 430.334,49.492L430.334,48.22C430.19,48.284 430.03,48.316 429.854,48.316C429.262,48.316 428.966,48.012 428.966,47.404L428.966,40.828C428.966,39.996 428.83,39.32 428.558,38.8C428.286,38.28 427.934,37.876 427.502,37.588C427.07,37.3 426.582,37.104 426.038,37C425.494,36.896 424.95,36.844 424.406,36.844C423.686,36.844 423.03,36.924 422.438,37.084C421.846,37.244 421.33,37.492 420.89,37.828C420.45,38.164 420.102,38.596 419.846,39.124C419.59,39.652 419.438,40.276 419.39,40.996ZM427.454,42.82L427.454,44.788C427.454,45.396 427.338,45.94 427.106,46.42C426.874,46.9 426.562,47.308 426.17,47.644C425.778,47.98 425.318,48.236 424.79,48.412C424.262,48.588 423.71,48.676 423.134,48.676C422.782,48.676 422.438,48.62 422.102,48.508C421.766,48.396 421.47,48.232 421.214,48.016C420.958,47.8 420.754,47.544 420.602,47.248C420.45,46.952 420.374,46.612 420.374,46.228C420.374,45.62 420.554,45.152 420.914,44.824C421.274,44.496 421.734,44.244 422.294,44.068C422.854,43.892 423.474,43.76 424.154,43.672C424.834,43.584 425.494,43.484 426.134,43.372C426.342,43.34 426.582,43.284 426.854,43.204C427.126,43.124 427.31,42.996 427.406,42.82L427.454,42.82Z" style="fill:white;fill-rule:nonzero;"/>
        <path d="M432.014,32.452L432.014,34.876L433.526,34.876L433.526,32.452L432.014,32.452ZM432.014,37.204L432.014,49.588L433.526,49.588L433.526,37.204L432.014,37.204Z" style="fill:white;fill-rule:nonzero;"/>
        <rect x="436.454" y="32.452" width="1.512" height="17.136" style="fill:white;fill-rule:nonzero;"/>
        <path d="M440.726,40.996L442.238,40.996C442.27,39.988 442.59,39.256 443.198,38.8C443.806,38.344 444.59,38.116 445.55,38.116C445.998,38.116 446.418,38.152 446.81,38.224C447.202,38.296 447.546,38.428 447.842,38.62C448.138,38.812 448.37,39.072 448.538,39.4C448.706,39.728 448.79,40.148 448.79,40.66C448.79,40.996 448.746,41.268 448.658,41.476C448.57,41.684 448.446,41.848 448.286,41.968C448.126,42.088 447.926,42.172 447.686,42.22C447.446,42.268 447.166,42.308 446.846,42.34C446.03,42.436 445.226,42.536 444.434,42.64C443.642,42.744 442.93,42.924 442.298,43.18C441.666,43.436 441.158,43.808 440.774,44.296C440.39,44.784 440.198,45.46 440.198,46.324C440.198,46.948 440.306,47.488 440.522,47.944C440.738,48.4 441.034,48.776 441.41,49.072C441.786,49.368 442.226,49.584 442.73,49.72C443.234,49.856 443.774,49.924 444.35,49.924C444.958,49.924 445.482,49.868 445.922,49.756C446.362,49.644 446.754,49.484 447.098,49.276C447.442,49.068 447.754,48.808 448.034,48.496C448.314,48.184 448.59,47.828 448.862,47.428L448.91,47.428C448.91,47.748 448.93,48.04 448.97,48.304C449.01,48.568 449.094,48.796 449.222,48.988C449.35,49.18 449.53,49.328 449.762,49.432C449.994,49.536 450.302,49.588 450.686,49.588C450.894,49.588 451.066,49.58 451.202,49.564C451.338,49.548 451.494,49.524 451.67,49.492L451.67,48.22C451.526,48.284 451.366,48.316 451.19,48.316C450.598,48.316 450.302,48.012 450.302,47.404L450.302,40.828C450.302,39.996 450.166,39.32 449.894,38.8C449.622,38.28 449.27,37.876 448.838,37.588C448.406,37.3 447.918,37.104 447.374,37C446.83,36.896 446.286,36.844 445.742,36.844C445.022,36.844 444.366,36.924 443.774,37.084C443.182,37.244 442.666,37.492 442.226,37.828C441.786,38.164 441.438,38.596 441.182,39.124C440.926,39.652 440.774,40.276 440.726,40.996ZM448.79,42.82L448.79,44.788C448.79,45.396 448.674,45.94 448.442,46.42C448.21,46.9 447.898,47.308 447.506,47.644C447.114,47.98 446.654,48.236 446.126,48.412C445.598,48.588 445.046,48.676 444.47,48.676C444.118,48.676 443.774,48.62 443.438,48.508C443.102,48.396 442.806,48.232 442.55,48.016C442.294,47.8 442.09,47.544 441.938,47.248C441.786,46.952 441.71,46.612 441.71,46.228C441.71,45.62 441.89,45.152 442.25,44.824C442.61,44.496 443.07,44.244 443.63,44.068C444.19,43.892 444.81,43.76 445.49,43.672C446.17,43.584 446.83,43.484 447.47,43.372C447.678,43.34 447.918,43.284 448.19,43.204C448.462,43.124 448.646,42.996 448.742,42.82L448.79,42.82Z" style="fill:white;fill-rule:nonzero;"/>
        <path d="M453.326,32.452L453.326,49.588L454.718,49.588L454.718,47.236L454.766,47.236C455.118,48.1 455.69,48.764 456.482,49.228C457.274,49.692 458.174,49.924 459.182,49.924C460.126,49.924 460.946,49.752 461.642,49.408C462.338,49.064 462.918,48.592 463.382,47.992C463.846,47.392 464.19,46.696 464.414,45.904C464.638,45.112 464.75,44.276 464.75,43.396C464.75,42.516 464.638,41.68 464.414,40.888C464.19,40.096 463.846,39.4 463.382,38.8C462.918,38.2 462.338,37.724 461.642,37.372C460.946,37.02 460.126,36.844 459.182,36.844C458.734,36.844 458.286,36.9 457.838,37.012C457.39,37.124 456.974,37.296 456.59,37.528C456.206,37.76 455.866,38.044 455.57,38.38C455.274,38.716 455.046,39.108 454.886,39.556L454.838,39.556L454.838,32.452L453.326,32.452ZM463.238,43.396C463.238,44.036 463.162,44.672 463.01,45.304C462.858,45.936 462.618,46.5 462.29,46.996C461.962,47.492 461.542,47.896 461.03,48.208C460.518,48.52 459.902,48.676 459.182,48.676C458.382,48.676 457.706,48.52 457.154,48.208C456.602,47.896 456.154,47.492 455.81,46.996C455.466,46.5 455.218,45.936 455.066,45.304C454.914,44.672 454.838,44.036 454.838,43.396C454.838,42.756 454.914,42.12 455.066,41.488C455.218,40.856 455.466,40.292 455.81,39.796C456.154,39.3 456.602,38.896 457.154,38.584C457.706,38.272 458.382,38.116 459.182,38.116C459.902,38.116 460.518,38.272 461.03,38.584C461.542,38.896 461.962,39.3 462.29,39.796C462.618,40.292 462.858,40.856 463.01,41.488C463.162,42.12 463.238,42.756 463.238,43.396Z" style="fill:white;fill-rule:nonzero;"/>
        <rect x="467.126" y="32.452" width="1.512" height="17.136" style="fill:white;fill-rule:nonzero;"/>
        <path d="M480.446,42.532L472.43,42.532C472.494,41.972 472.626,41.424 472.826,40.888C473.026,40.352 473.294,39.88 473.63,39.472C473.966,39.064 474.374,38.736 474.854,38.488C475.334,38.24 475.886,38.116 476.51,38.116C477.118,38.116 477.662,38.24 478.142,38.488C478.622,38.736 479.03,39.064 479.366,39.472C479.702,39.88 479.962,40.348 480.146,40.876C480.33,41.404 480.43,41.956 480.446,42.532ZM472.43,43.804L481.958,43.804C481.99,42.94 481.91,42.088 481.718,41.248C481.526,40.408 481.21,39.664 480.77,39.016C480.33,38.368 479.758,37.844 479.054,37.444C478.35,37.044 477.502,36.844 476.51,36.844C475.534,36.844 474.69,37.032 473.978,37.408C473.266,37.784 472.686,38.28 472.238,38.896C471.79,39.512 471.458,40.212 471.242,40.996C471.026,41.78 470.918,42.58 470.918,43.396C470.918,44.276 471.026,45.112 471.242,45.904C471.458,46.696 471.79,47.392 472.238,47.992C472.686,48.592 473.266,49.064 473.978,49.408C474.69,49.752 475.534,49.924 476.51,49.924C478.078,49.924 479.29,49.54 480.146,48.772C481.002,48.004 481.59,46.916 481.91,45.508L480.398,45.508C480.158,46.468 479.726,47.236 479.102,47.812C478.478,48.388 477.614,48.676 476.51,48.676C475.79,48.676 475.174,48.524 474.662,48.22C474.15,47.916 473.726,47.532 473.39,47.068C473.054,46.604 472.81,46.08 472.658,45.496C472.506,44.912 472.43,44.348 472.43,43.804Z" style="fill:white;fill-rule:nonzero;"/>
        <path d="M490.526,40.996L492.038,40.996C492.07,39.988 492.39,39.256 492.998,38.8C493.606,38.344 494.39,38.116 495.35,38.116C495.798,38.116 496.218,38.152 496.61,38.224C497.002,38.296 497.346,38.428 497.642,38.62C497.938,38.812 498.17,39.072 498.338,39.4C498.506,39.728 498.59,40.148 498.59,40.66C498.59,40.996 498.546,41.268 498.458,41.476C498.37,41.684 498.246,41.848 498.086,41.968C497.926,42.088 497.726,42.172 497.486,42.22C497.246,42.268 496.966,42.308 496.646,42.34C495.83,42.436 495.026,42.536 494.234,42.64C493.442,42.744 492.73,42.924 492.098,43.18C491.466,43.436 490.958,43.808 490.574,44.296C490.19,44.784 489.998,45.46 489.998,46.324C489.998,46.948 490.106,47.488 490.322,47.944C490.538,48.4 490.834,48.776 491.21,49.072C491.586,49.368 492.026,49.584 492.53,49.72C493.034,49.856 493.574,49.924 494.15,49.924C494.758,49.924 495.282,49.868 495.722,49.756C496.162,49.644 496.554,49.484 496.898,49.276C497.242,49.068 497.554,48.808 497.834,48.496C498.114,48.184 498.39,47.828 498.662,47.428L498.71,47.428C498.71,47.748 498.73,48.04 498.77,48.304C498.81,48.568 498.894,48.796 499.022,48.988C499.15,49.18 499.33,49.328 499.562,49.432C499.794,49.536 500.102,49.588 500.486,49.588C500.694,49.588 500.866,49.58 501.002,49.564C501.138,49.548 501.294,49.524 501.47,49.492L501.47,48.22C501.326,48.284 501.166,48.316 500.99,48.316C500.398,48.316 500.102,48.012 500.102,47.404L500.102,40.828C500.102,39.996 499.966,39.32 499.694,38.8C499.422,38.28 499.07,37.876 498.638,37.588C498.206,37.3 497.718,37.104 497.174,37C496.63,36.896 496.086,36.844 495.542,36.844C494.822,36.844 494.166,36.924 493.574,37.084C492.982,37.244 492.466,37.492 492.026,37.828C491.586,38.164 491.238,38.596 490.982,39.124C490.726,39.652 490.574,40.276 490.526,40.996ZM498.59,42.82L498.59,44.788C498.59,45.396 498.474,45.94 498.242,46.42C498.01,46.9 497.698,47.308 497.306,47.644C496.914,47.98 496.454,48.236 495.926,48.412C495.398,48.588 494.846,48.676 494.27,48.676C493.918,48.676 493.574,48.62 493.238,48.508C492.902,48.396 492.606,48.232 492.35,48.016C492.094,47.8 491.89,47.544 491.738,47.248C491.586,46.952 491.51,46.612 491.51,46.228C491.51,45.62 491.69,45.152 492.05,44.824C492.41,44.496 492.87,44.244 493.43,44.068C493.99,43.892 494.61,43.76 495.29,43.672C495.97,43.584 496.63,43.484 497.27,43.372C497.478,43.34 497.718,43.284 497.99,43.204C498.262,43.124 498.446,42.996 498.542,42.82L498.59,42.82Z" style="fill:white;fill-rule:nonzero;"/>
        <path d="M510.542,40.828L512.054,40.828C512.022,40.156 511.886,39.572 511.646,39.076C511.406,38.58 511.082,38.164 510.674,37.828C510.266,37.492 509.794,37.244 509.258,37.084C508.722,36.924 508.142,36.844 507.518,36.844C506.974,36.844 506.426,36.908 505.874,37.036C505.322,37.164 504.822,37.364 504.374,37.636C503.926,37.908 503.562,38.268 503.282,38.716C503.002,39.164 502.862,39.7 502.862,40.324C502.862,40.852 502.95,41.296 503.126,41.656C503.302,42.016 503.546,42.32 503.858,42.568C504.17,42.816 504.534,43.024 504.95,43.192C505.366,43.36 505.822,43.508 506.318,43.636L508.262,44.068C508.598,44.148 508.93,44.244 509.258,44.356C509.586,44.468 509.878,44.608 510.134,44.776C510.39,44.944 510.594,45.152 510.746,45.4C510.898,45.648 510.974,45.956 510.974,46.324C510.974,46.756 510.866,47.12 510.65,47.416C510.434,47.712 510.158,47.956 509.822,48.148C509.486,48.34 509.122,48.476 508.73,48.556C508.338,48.636 507.958,48.676 507.59,48.676C506.582,48.676 505.738,48.416 505.058,47.896C504.378,47.376 504.006,46.604 503.942,45.58L502.43,45.58C502.558,47.1 503.074,48.204 503.978,48.892C504.882,49.58 506.062,49.924 507.518,49.924C508.094,49.924 508.678,49.86 509.27,49.732C509.862,49.604 510.394,49.392 510.866,49.096C511.338,48.8 511.726,48.416 512.03,47.944C512.334,47.472 512.486,46.9 512.486,46.228C512.486,45.684 512.382,45.212 512.174,44.812C511.966,44.412 511.698,44.076 511.37,43.804C511.042,43.532 510.666,43.312 510.242,43.144C509.818,42.976 509.39,42.86 508.958,42.796L506.942,42.34C506.686,42.276 506.406,42.192 506.102,42.088C505.798,41.984 505.518,41.852 505.262,41.692C505.006,41.532 504.794,41.336 504.626,41.104C504.458,40.872 504.374,40.588 504.374,40.252C504.374,39.852 504.462,39.516 504.638,39.244C504.814,38.972 505.046,38.752 505.334,38.584C505.622,38.416 505.938,38.296 506.282,38.224C506.626,38.152 506.966,38.116 507.302,38.116C507.734,38.116 508.142,38.168 508.526,38.272C508.91,38.376 509.25,38.54 509.546,38.764C509.842,38.988 510.078,39.272 510.254,39.616C510.43,39.96 510.526,40.364 510.542,40.828Z" style="fill:white;fill-rule:nonzero;"/>
        <path d="M520.094,37.204L524.078,49.588L525.734,49.588L528.758,39.172L528.806,39.172L531.854,49.588L533.51,49.588L537.494,37.204L535.886,37.204L532.718,47.812L532.67,47.812L529.646,37.204L527.942,37.204L524.918,47.812L524.87,47.812L521.702,37.204L520.094,37.204Z" style="fill:white;fill-rule:nonzero;"/>
        <path d="M548.03,42.532L540.014,42.532C540.078,41.972 540.21,41.424 540.41,40.888C540.61,40.352 540.878,39.88 541.214,39.472C541.55,39.064 541.958,38.736 542.438,38.488C542.918,38.24 543.47,38.116 544.094,38.116C544.702,38.116 545.246,38.24 545.726,38.488C546.206,38.736 546.614,39.064 546.95,39.472C547.286,39.88 547.546,40.348 547.73,40.876C547.914,41.404 548.014,41.956 548.03,42.532ZM540.014,43.804L549.542,43.804C549.574,42.94 549.494,42.088 549.302,41.248C549.11,40.408 548.794,39.664 548.354,39.016C547.914,38.368 547.342,37.844 546.638,37.444C545.934,37.044 545.086,36.844 544.094,36.844C543.118,36.844 542.274,37.032 541.562,37.408C540.85,37.784 540.27,38.28 539.822,38.896C539.374,39.512 539.042,40.212 538.826,40.996C538.61,41.78 538.502,42.58 538.502,43.396C538.502,44.276 538.61,45.112 538.826,45.904C539.042,46.696 539.374,47.392 539.822,47.992C540.27,48.592 540.85,49.064 541.562,49.408C542.274,49.752 543.118,49.924 544.094,49.924C545.662,49.924 546.874,49.54 547.73,48.772C548.586,48.004 549.174,46.916 549.494,45.508L547.982,45.508C547.742,46.468 547.31,47.236 546.686,47.812C546.062,48.388 545.198,48.676 544.094,48.676C543.374,48.676 542.758,48.524 542.246,48.22C541.734,47.916 541.31,47.532 540.974,47.068C540.638,46.604 540.394,46.08 540.242,45.496C540.09,44.912 540.014,44.348 540.014,43.804Z" style="fill:white;fill-rule:nonzero;"/>
        <rect x="551.606" y="32.452" width="1.512" height="17.136" style="fill:white;fill-rule:nonzero;"/>
        <rect x="556.046" y="32.452" width="1.512" height="17.136" style="fill:white;fill-rule:nonzero;"/>
        <path d="M560.918,49.588L562.934,49.588L562.934,47.044L560.918,47.044L560.918,49.588ZM561.11,37.564L561.47,45.316L562.382,45.316L562.742,37.564L562.742,32.452L561.11,32.452L561.11,37.564Z" style="fill:white;fill-rule:nonzero;"/>
    </g>
    <g id="Fixed" transform="matrix(0.246476,0,0,0.246476,21.2163,18.6355)">
        <path d="M41.647,126.607C41.647,160.236 61.189,189.302 89.533,203.071L49.004,92.029C44.29,102.595 41.647,114.289 41.647,126.607" style="fill:white;fill-rule:nonzero;"/>
        <path d="M183.965,122.322C183.965,111.818 180.192,104.549 176.96,98.89C172.654,91.888 168.614,85.965 168.614,78.963C168.614,71.154 174.536,63.884 182.882,63.884C183.259,63.884 183.616,63.929 183.983,63.952C168.867,50.102 148.728,41.645 126.609,41.645C96.925,41.645 70.813,56.876 55.621,79.94C57.616,80.004 59.495,80.043 61.089,80.043C69.974,80.043 83.733,78.963 83.733,78.963C88.311,78.695 88.852,85.423 84.277,85.965C84.277,85.965 79.672,86.503 74.553,86.772L105.491,178.804L124.087,123.041L110.851,86.772C106.273,86.503 101.939,85.965 101.939,85.965C97.36,85.694 97.897,78.695 102.478,78.963C102.478,78.963 116.507,80.043 124.855,80.043C133.738,80.043 147.5,78.963 147.5,78.963C152.08,78.695 152.62,85.423 148.042,85.965C148.042,85.965 143.433,86.503 138.319,86.772L169.024,178.103L177.5,149.788C181.168,138.031 183.965,129.593 183.965,122.322" style="fill:white;fill-rule:nonzero;"/>
        <path d="M128.101,134.039L102.606,208.113C110.22,210.352 118.27,211.575 126.609,211.575C136.503,211.575 145.993,209.867 154.824,206.759C154.598,206.394 154.387,206.008 154.215,205.588L128.101,134.039Z" style="fill:white;fill-rule:nonzero;"/>
        <path d="M201.164,85.847C201.529,88.553 201.735,91.456 201.735,94.584C201.735,103.202 200.121,112.894 195.274,125.015L169.324,200.045C194.583,185.318 211.57,157.952 211.57,126.607C211.57,111.835 207.796,97.948 201.164,85.847" style="fill:white;fill-rule:nonzero;"/>
        <path d="M126.609,221.11C74.503,221.11 32.11,178.714 32.11,126.607C32.11,74.501 74.503,32.11 126.609,32.11C178.715,32.11 221.109,74.501 221.109,126.607C221.109,178.714 178.715,221.11 126.609,221.11M126.609,27.568C71.997,27.568 27.568,71.996 27.568,126.607C27.568,181.221 71.997,225.651 126.609,225.651C181.221,225.651 225.652,181.221 225.652,126.607C225.652,71.996 181.221,27.568 126.609,27.568" style="fill:white;fill-rule:nonzero;"/>
    </g>
</svg>
