<?xml version="1.0" encoding="UTF-8" standalone="no"?>
<svg width="160px" height="65px" viewBox="0 0 160 65" version="1.1" xmlns="http://www.w3.org/2000/svg" xmlns:xlink="http://www.w3.org/1999/xlink" xmlns:sketch="http://www.bohemiancoding.com/sketch/ns">
    <!-- Generator: Sketch 3.3.2 (12043) - http://www.bohemiancoding.com/sketch -->
    <title>soon-header-accuracy</title>
    <desc>Created with Sketch.</desc>
    <defs></defs>
    <g id="Page-1" stroke="none" stroke-width="1" fill="none" fill-rule="evenodd" sketch:type="MSPage">
        <g id="soon-header-accuracy" sketch:type="MSLayerGroup" transform="translate(4.000000, 23.000000)">
            <g id="ruler" sketch:type="MSShapeGroup">
                <rect id="Rectangle-path" fill="#FFA000" transform="translate(21.000000, 21.005000) rotate(225.000000) translate(-21.000000, -21.005000) " x="13.7011024" y="-1.39161734" width="14.5977952" height="44.7932347"></rect>
                <g id="Group" transform="translate(3.000000, 3.000000)" fill="#9E6400">
                    <rect id="Rectangle-path" transform="translate(15.177000, 15.148200) rotate(225.000000) translate(-15.177000, -15.148200) " x="11.8774983" y="14.148351" width="6.59900332" height="1.99969798"></rect>
                    <rect id="Rectangle-path" transform="translate(18.212350, 10.182550) rotate(225.000000) translate(-18.212350, -10.182550) " x="16.3626294" y="9.18270101" width="3.69944126" height="1.99969798"></rect>
                    <rect id="Rectangle-path" transform="translate(23.178000, 7.148200) rotate(225.000000) translate(-23.178000, -7.148200) " x="19.8784983" y="6.14835101" width="6.59900332" height="1.99969798"></rect>
                    <rect id="Rectangle-path" transform="translate(26.170450, 2.143650) rotate(-45.000000) translate(-26.170450, -2.143650) " x="25.170601" y="0.293929371" width="1.99969798" height="3.69944126"></rect>
                    <rect id="Rectangle-path" transform="translate(2.209350, 26.182550) rotate(225.000000) translate(-2.209350, -26.182550) " x="0.359629371" y="25.182701" width="3.69944126" height="1.99969798"></rect>
                    <rect id="Rectangle-path" transform="translate(7.175000, 23.148200) rotate(225.000000) translate(-7.175000, -23.148200) " x="3.87549834" y="22.148351" width="6.59900332" height="1.99969798"></rect>
                    <rect id="Rectangle-path" transform="translate(10.211350, 18.182550) rotate(225.000000) translate(-10.211350, -18.182550) " x="8.36162937" y="17.182701" width="3.69944126" height="1.99969798"></rect>
                </g>
            </g>
            <path d="M63.152,24.28 L66.584,15.496 L69.896,24.28 L63.152,24.28 Z M65.744,13.864 L58.856,31 L60.584,31 L62.648,25.672 L70.448,25.672 L72.536,31 L74.288,31 L67.568,13.864 L65.744,13.864 Z M84.296,22.504 L85.808,22.504 C85.6319991,21.0799929 85.0840046,20.0160035 84.164,19.312 C83.2439954,18.6079965 82.1200066,18.256 80.792,18.256 C79.8479953,18.256 79.0120036,18.4319982 78.284,18.784 C77.5559964,19.1360018 76.9440025,19.607997 76.448,20.2 C75.9519975,20.792003 75.5760013,21.483996 75.32,22.276 C75.0639987,23.068004 74.936,23.9119955 74.936,24.808 C74.936,25.7040045 75.0639987,26.547996 75.32,27.34 C75.5760013,28.132004 75.9519975,28.823997 76.448,29.416 C76.9440025,30.008003 77.5559964,30.4759983 78.284,30.82 C79.0120036,31.1640017 79.8479953,31.336 80.792,31.336 C82.200007,31.336 83.3519955,30.9160042 84.248,30.076 C85.1440045,29.2359958 85.695999,28.0640075 85.904,26.56 L84.392,26.56 C84.3439998,27.0720026 84.216001,27.5439978 84.008,27.976 C83.799999,28.4080022 83.5360016,28.7799984 83.216,29.092 C82.8959984,29.4040016 82.5280021,29.6479991 82.112,29.824 C81.6959979,30.0000009 81.2560023,30.088 80.792,30.088 C80.0719964,30.088 79.4400027,29.9360015 78.896,29.632 C78.3519973,29.3279985 77.9000018,28.9280025 77.54,28.432 C77.1799982,27.9359975 76.9080009,27.3720032 76.724,26.74 C76.5399991,26.1079968 76.448,25.4640033 76.448,24.808 C76.448,24.1519967 76.5399991,23.5080032 76.724,22.876 C76.9080009,22.2439968 77.1799982,21.6800025 77.54,21.184 C77.9000018,20.6879975 78.3519973,20.2880015 78.896,19.984 C79.4400027,19.6799985 80.0719964,19.528 80.792,19.528 C81.800005,19.528 82.5839972,19.7919974 83.144,20.32 C83.7040028,20.8480026 84.087999,21.5759954 84.296,22.504 L84.296,22.504 Z M96.752,22.504 L98.264,22.504 C98.0879991,21.0799929 97.5400046,20.0160035 96.62,19.312 C95.6999954,18.6079965 94.5760066,18.256 93.248,18.256 C92.3039953,18.256 91.4680036,18.4319982 90.74,18.784 C90.0119964,19.1360018 89.4000025,19.607997 88.904,20.2 C88.4079975,20.792003 88.0320013,21.483996 87.776,22.276 C87.5199987,23.068004 87.392,23.9119955 87.392,24.808 C87.392,25.7040045 87.5199987,26.547996 87.776,27.34 C88.0320013,28.132004 88.4079975,28.823997 88.904,29.416 C89.4000025,30.008003 90.0119964,30.4759983 90.74,30.82 C91.4680036,31.1640017 92.3039953,31.336 93.248,31.336 C94.656007,31.336 95.8079955,30.9160042 96.704,30.076 C97.6000045,29.2359958 98.151999,28.0640075 98.36,26.56 L96.848,26.56 C96.7999998,27.0720026 96.672001,27.5439978 96.464,27.976 C96.255999,28.4080022 95.9920016,28.7799984 95.672,29.092 C95.3519984,29.4040016 94.9840021,29.6479991 94.568,29.824 C94.1519979,30.0000009 93.7120023,30.088 93.248,30.088 C92.5279964,30.088 91.8960027,29.9360015 91.352,29.632 C90.8079973,29.3279985 90.3560018,28.9280025 89.996,28.432 C89.6359982,27.9359975 89.3640009,27.3720032 89.18,26.74 C88.9959991,26.1079968 88.904,25.4640033 88.904,24.808 C88.904,24.1519967 88.9959991,23.5080032 89.18,22.876 C89.3640009,22.2439968 89.6359982,21.6800025 89.996,21.184 C90.3560018,20.6879975 90.8079973,20.2880015 91.352,19.984 C91.8960027,19.6799985 92.5279964,19.528 93.248,19.528 C94.256005,19.528 95.0399972,19.7919974 95.6,20.32 C96.1600028,20.8480026 96.543999,21.5759954 96.752,22.504 L96.752,22.504 Z M110.504,31 L110.504,18.616 L108.992,18.616 L108.992,25.12 C108.992,25.7440031 108.920001,26.355997 108.776,26.956 C108.631999,27.556003 108.408002,28.0879977 108.104,28.552 C107.799998,29.0160023 107.416002,29.3879986 106.952,29.668 C106.487998,29.9480014 105.928003,30.088 105.272,30.088 C104.071994,30.088 103.228002,29.8000029 102.74,29.224 C102.251998,28.6479971 101.992,27.8000056 101.96,26.68 L101.96,18.616 L100.448,18.616 L100.448,26.656 C100.448,27.3920037 100.527999,28.0479971 100.688,28.624 C100.848001,29.2000029 101.099998,29.687998 101.444,30.088 C101.788002,30.488002 102.235997,30.7959989 102.788,31.012 C103.340003,31.2280011 104.007996,31.336 104.792,31.336 C105.720005,31.336 106.563996,31.1160022 107.324,30.676 C108.084004,30.2359978 108.663998,29.6000042 109.064,28.768 L109.112,28.768 L109.112,31 L110.504,31 Z M113.36,18.616 L113.36,31 L114.872,31 L114.872,24.4 C114.872,23.7439967 114.983999,23.1400028 115.208,22.588 C115.432001,22.0359972 115.747998,21.560002 116.156,21.16 C116.564002,20.759998 117.047997,20.4520011 117.608,20.236 C118.168003,20.0199989 118.791997,19.9279998 119.48,19.96 L119.48,18.448 C118.359994,18.3999998 117.396004,18.6479973 116.588,19.192 C115.779996,19.7360027 115.184002,20.511995 114.8,21.52 L114.752,21.52 L114.752,18.616 L113.36,18.616 Z M120.776,22.408 L122.288,22.408 C122.32,21.399995 122.639997,20.6680023 123.248,20.212 C123.856003,19.7559977 124.639995,19.528 125.6,19.528 C126.048002,19.528 126.467998,19.5639996 126.86,19.636 C127.252002,19.7080004 127.595999,19.839999 127.892,20.032 C128.188001,20.224001 128.419999,20.4839984 128.588,20.812 C128.756001,21.1400016 128.84,21.5599974 128.84,22.072 C128.84,22.4080017 128.796,22.679999 128.708,22.888 C128.62,23.096001 128.496001,23.2599994 128.336,23.38 C128.175999,23.5000006 127.976001,23.5839998 127.736,23.632 C127.495999,23.6800002 127.216002,23.7199998 126.896,23.752 C126.079996,23.8480005 125.276004,23.9479995 124.484,24.052 C123.691996,24.1560005 122.980003,24.3359987 122.348,24.592 C121.715997,24.8480013 121.208002,25.2199976 120.824,25.708 C120.439998,26.1960024 120.248,26.8719957 120.248,27.736 C120.248,28.3600031 120.355999,28.8999977 120.572,29.356 C120.788001,29.8120023 121.083998,30.1879985 121.46,30.484 C121.836002,30.7800015 122.275997,30.9959993 122.78,31.132 C123.284003,31.2680007 123.823997,31.336 124.4,31.336 C125.008003,31.336 125.531998,31.2800006 125.972,31.168 C126.412002,31.0559994 126.803998,30.896001 127.148,30.688 C127.492002,30.479999 127.803999,30.2200016 128.084,29.908 C128.364001,29.5959984 128.639999,29.240002 128.912,28.84 L128.96,28.84 C128.96,29.1600016 128.98,29.4519987 129.02,29.716 C129.06,29.9800013 129.143999,30.207999 129.272,30.4 C129.400001,30.592001 129.579999,30.7399995 129.812,30.844 C130.044001,30.9480005 130.351998,31 130.736,31 C130.944001,31 131.115999,30.9920001 131.252,30.976 C131.388001,30.9599999 131.543999,30.9360002 131.72,30.904 L131.72,29.632 C131.575999,29.6960003 131.416001,29.728 131.24,29.728 C130.647997,29.728 130.352,29.424003 130.352,28.816 L130.352,22.24 C130.352,21.4079958 130.216001,20.7320026 129.944,20.212 C129.671999,19.6919974 129.320002,19.2880014 128.888,19 C128.455998,18.7119986 127.968003,18.5160005 127.424,18.412 C126.879997,18.3079995 126.336003,18.256 125.792,18.256 C125.071996,18.256 124.416003,18.3359992 123.824,18.496 C123.231997,18.6560008 122.716002,18.9039983 122.276,19.24 C121.835998,19.5760017 121.488001,20.0079974 121.232,20.536 C120.975999,21.0640026 120.824,21.6879964 120.776,22.408 L120.776,22.408 Z M128.84,24.232 L128.84,26.2 C128.84,26.808003 128.724001,27.3519976 128.492,27.832 C128.259999,28.3120024 127.948002,28.7199983 127.556,29.056 C127.163998,29.3920017 126.704003,29.6479991 126.176,29.824 C125.647997,30.0000009 125.096003,30.088 124.52,30.088 C124.167998,30.088 123.824002,30.0320006 123.488,29.92 C123.151998,29.8079994 122.856001,29.6440011 122.6,29.428 C122.343999,29.2119989 122.140001,28.9560015 121.988,28.66 C121.835999,28.3639985 121.76,28.0240019 121.76,27.64 C121.76,27.031997 121.939998,26.5640016 122.3,26.236 C122.660002,25.9079984 123.119997,25.6560009 123.68,25.48 C124.240003,25.3039991 124.859997,25.1720004 125.54,25.084 C126.220003,24.9959996 126.879997,24.8960006 127.52,24.784 C127.728001,24.7519998 127.967999,24.6960004 128.24,24.616 C128.512001,24.5359996 128.696,24.4080009 128.792,24.232 L128.84,24.232 Z M142.112,22.504 L143.624,22.504 C143.447999,21.0799929 142.900005,20.0160035 141.98,19.312 C141.059995,18.6079965 139.936007,18.256 138.608,18.256 C137.663995,18.256 136.828004,18.4319982 136.1,18.784 C135.371996,19.1360018 134.760002,19.607997 134.264,20.2 C133.767998,20.792003 133.392001,21.483996 133.136,22.276 C132.879999,23.068004 132.752,23.9119955 132.752,24.808 C132.752,25.7040045 132.879999,26.547996 133.136,27.34 C133.392001,28.132004 133.767998,28.823997 134.264,29.416 C134.760002,30.008003 135.371996,30.4759983 136.1,30.82 C136.828004,31.1640017 137.663995,31.336 138.608,31.336 C140.016007,31.336 141.167996,30.9160042 142.064,30.076 C142.960004,29.2359958 143.511999,28.0640075 143.72,26.56 L142.208,26.56 C142.16,27.0720026 142.032001,27.5439978 141.824,27.976 C141.615999,28.4080022 141.352002,28.7799984 141.032,29.092 C140.711998,29.4040016 140.344002,29.6479991 139.928,29.824 C139.511998,30.0000009 139.072002,30.088 138.608,30.088 C137.887996,30.088 137.256003,29.9360015 136.712,29.632 C136.167997,29.3279985 135.716002,28.9280025 135.356,28.432 C134.995998,27.9359975 134.724001,27.3720032 134.54,26.74 C134.355999,26.1079968 134.264,25.4640033 134.264,24.808 C134.264,24.1519967 134.355999,23.5080032 134.54,22.876 C134.724001,22.2439968 134.995998,21.6800025 135.356,21.184 C135.716002,20.6879975 136.167997,20.2880015 136.712,19.984 C137.256003,19.6799985 137.887996,19.528 138.608,19.528 C139.616005,19.528 140.399997,19.7919974 140.96,20.32 C141.520003,20.8480026 141.903999,21.5759954 142.112,22.504 L142.112,22.504 Z M144.44,18.616 L149.384,30.952 L148.856,32.344 C148.727999,32.6320014 148.608001,32.8959988 148.496,33.136 C148.383999,33.3760012 148.248001,33.5799992 148.088,33.748 C147.927999,33.9160008 147.740001,34.0479995 147.524,34.144 C147.307999,34.2400005 147.032002,34.288 146.696,34.288 C146.519999,34.288 146.348001,34.2760001 146.18,34.252 C146.011999,34.2279999 145.840001,34.2000002 145.664,34.168 L145.664,35.44 C145.792001,35.4880002 145.939999,35.516 146.108,35.524 C146.276001,35.532 146.511998,35.5439999 146.816,35.56 C147.296002,35.56 147.691998,35.5160004 148.004,35.428 C148.316002,35.3399996 148.587999,35.196001 148.82,34.996 C149.052001,34.795999 149.263999,34.5240017 149.456,34.18 C149.648001,33.8359983 149.855999,33.4000026 150.08,32.872 L155.456,18.616 L153.944,18.616 L150.128,29.176 L146.048,18.616 L144.44,18.616 Z" id="Accuracy-Copy" fill="#4A4A4A" sketch:type="MSShapeGroup"></path>
        </g>
    </g>
</svg>