<?xml version="1.0" encoding="UTF-8" standalone="no"?>
<svg width="181px" height="65px" viewBox="0 0 181 65" version="1.1" xmlns="http://www.w3.org/2000/svg" xmlns:xlink="http://www.w3.org/1999/xlink" xmlns:sketch="http://www.bohemiancoding.com/sketch/ns">
    <!-- Generator: Sketch 3.3.2 (12043) - http://www.bohemiancoding.com/sketch -->
    <title>soon-header-responsive</title>
    <desc>Created with Sketch.</desc>
    <defs></defs>
    <g id="Page-1" stroke="none" stroke-width="1" fill="none" fill-rule="evenodd" sketch:type="MSPage">
        <g id="soon-header-responsive" sketch:type="MSLayerGroup" transform="translate(3.000000, 25.000000)">
            <g id="multiple_devices" sketch:type="MSShapeGroup">
                <path d="M2,24 L2,4 C2,1.8 3.8,0 6,0 L34,0 C36.2,0 38,1.8 38,4 L38,24 C38,26.2 36.2,28 34,28 L6,28 C3.8,28 2,26.2 2,24 L2,24 Z" id="Shape" fill="#546E7A"></path>
                <path d="M34,3 L6,3 C5.4,3 5,3.4 5,4 L5,24 C5,24.6 5.4,25 6,25 L34,25 C34.6,25 35,24.6 35,24 L35,4 C35,3.4 34.6,3 34,3 L34,3 Z" id="Shape" fill="#BBDEFB"></path>
                <path d="M36,29 L4,29 C1.8,29 0,27.2 0,25 L0,25 L40,25 C40,27.2 38.2,29 36,29 L36,29 Z" id="Shape" fill="#37474F"></path>
                <path d="M22,36 L22,12 C22,9.8 23.8,8 26,8 L38,8 C40.2,8 42,9.8 42,12 L42,36 C42,38.2 40.2,40 38,40 L26,40 C23.8,40 22,38.2 22,36 L22,36 Z" id="Shape" fill="#F57C00"></path>
                <path d="M38,11 L26,11 C25.4,11 25,11.4 25,12 L25,34 C25,34.6 25.4,35 26,35 L38,35 C38.6,35 39,34.6 39,34 L39,12 C39,11.4 38.6,11 38,11 L38,11 Z" id="Shape" fill="#FFF9C4"></path>
                <circle id="Oval" fill="#942A09" cx="32" cy="37.5" r="1.5"></circle>
            </g>
            <path d="M62.36,20 L62.36,13.256 L68.456,13.256 C69.7040062,13.256 70.631997,13.559997 71.24,14.168 C71.848003,14.776003 72.152,15.6079947 72.152,16.664 C72.152,17.1920026 72.052001,17.659998 71.852,18.068 C71.651999,18.476002 71.3840017,18.8239986 71.048,19.112 C70.7119983,19.4000014 70.3200022,19.6199992 69.872,19.772 C69.4239978,19.9240008 68.9520025,20 68.456,20 L62.36,20 Z M60.728,11.864 L60.728,29 L62.36,29 L62.36,21.392 L68.552,21.392 C69.3200038,21.3599998 69.9239978,21.4879986 70.364,21.776 C70.8040022,22.0640014 71.1399988,22.4439976 71.372,22.916 C71.6040012,23.3880024 71.7559996,23.923997 71.828,24.524 C71.9000004,25.124003 71.9519998,25.727997 71.984,26.336 C72.0000001,26.5120009 72.0159999,26.7199988 72.032,26.96 C72.0480001,27.2000012 72.0679999,27.4439988 72.092,27.692 C72.1160001,27.9400012 72.1559997,28.1799988 72.212,28.412 C72.2680003,28.6440012 72.3439995,28.8399992 72.44,29 L74.24,29 C74.0639991,28.791999 73.9240005,28.5000019 73.82,28.124 C73.7159995,27.7479981 73.6400002,27.3480021 73.592,26.924 C73.5439998,26.4999979 73.5120001,26.0800021 73.496,25.664 C73.4799999,25.2479979 73.4640001,24.8960014 73.448,24.608 C73.4159998,24.0959974 73.3480005,23.6200022 73.244,23.18 C73.1399995,22.7399978 72.9720012,22.3520017 72.74,22.016 C72.5079988,21.6799983 72.2080018,21.4040011 71.84,21.188 C71.4719982,20.9719989 71.0080028,20.8240004 70.448,20.744 L70.448,20.696 C71.5520055,20.4719989 72.3839972,19.960004 72.944,19.16 C73.5040028,18.359996 73.784,17.4160054 73.784,16.328 C73.784,15.5599962 73.6440014,14.8920028 73.364,14.324 C73.0839986,13.7559972 72.7080024,13.2920018 72.236,12.932 C71.7639976,12.5719982 71.2120032,12.3040009 70.58,12.128 C69.9479968,11.9519991 69.2800035,11.864 68.576,11.864 L60.728,11.864 Z M85.352,21.944 L77.336,21.944 C77.4000003,21.3839972 77.531999,20.8360027 77.732,20.3 C77.932001,19.7639973 78.1999983,19.292002 78.536,18.884 C78.8720017,18.475998 79.2799976,18.1480012 79.76,17.9 C80.2400024,17.6519988 80.7919969,17.528 81.416,17.528 C82.024003,17.528 82.5679976,17.6519988 83.048,17.9 C83.5280024,18.1480012 83.9359983,18.475998 84.272,18.884 C84.6080017,19.292002 84.8679991,19.7599974 85.052,20.288 C85.2360009,20.8160026 85.3359999,21.3679971 85.352,21.944 L85.352,21.944 Z M77.336,23.216 L86.864,23.216 C86.8960002,22.3519957 86.816001,21.5000042 86.624,20.66 C86.431999,19.8199958 86.1160022,19.0760032 85.676,18.428 C85.2359978,17.7799968 84.6640035,17.256002 83.96,16.856 C83.2559965,16.455998 82.408005,16.256 81.416,16.256 C80.4399951,16.256 79.5960036,16.4439981 78.884,16.82 C78.1719964,17.1960019 77.5920022,17.6919969 77.144,18.308 C76.6959978,18.9240031 76.3640011,19.6239961 76.148,20.408 C75.9319989,21.1920039 75.824,21.9919959 75.824,22.808 C75.824,23.6880044 75.9319989,24.523996 76.148,25.316 C76.3640011,26.108004 76.6959978,26.803997 77.144,27.404 C77.5920022,28.004003 78.1719964,28.4759983 78.884,28.82 C79.5960036,29.1640017 80.4399951,29.336 81.416,29.336 C82.9840078,29.336 84.1959957,28.9520038 85.052,28.184 C85.9080043,27.4159962 86.4959984,26.328007 86.816,24.92 L85.304,24.92 C85.0639988,25.8800048 84.6320031,26.6479971 84.008,27.224 C83.3839969,27.8000029 82.5200055,28.088 81.416,28.088 C80.6959964,28.088 80.0800026,27.9360015 79.568,27.632 C79.0559974,27.3279985 78.6320017,26.9440023 78.296,26.48 C77.9599983,26.0159977 77.7160008,25.4920029 77.564,24.908 C77.4119992,24.3239971 77.336,23.7600027 77.336,23.216 L77.336,23.216 Z M96.32,20.24 L97.832,20.24 C97.7999998,19.5679966 97.6640012,18.9840025 97.424,18.488 C97.1839988,17.9919975 96.860002,17.5760017 96.452,17.24 C96.043998,16.9039983 95.5720027,16.6560008 95.036,16.496 C94.4999973,16.3359992 93.9200031,16.256 93.296,16.256 C92.7519973,16.256 92.2040028,16.3199994 91.652,16.448 C91.0999972,16.5760006 90.6000022,16.7759986 90.152,17.048 C89.7039978,17.3200014 89.3400014,17.6799978 89.06,18.128 C88.7799986,18.5760022 88.64,19.1119969 88.64,19.736 C88.64,20.2640026 88.7279991,20.7079982 88.904,21.068 C89.0800009,21.4280018 89.3239984,21.7319988 89.636,21.98 C89.9480016,22.2280012 90.3119979,22.4359992 90.728,22.604 C91.1440021,22.7720008 91.5999975,22.9199994 92.096,23.048 L94.04,23.48 C94.3760017,23.5600004 94.7079984,23.6559994 95.036,23.768 C95.3640016,23.8800006 95.6559987,24.0199992 95.912,24.188 C96.1680013,24.3560008 96.3719992,24.5639988 96.524,24.812 C96.6760008,25.0600012 96.752,25.3679982 96.752,25.736 C96.752,26.1680022 96.6440011,26.5319985 96.428,26.828 C96.2119989,27.1240015 95.9360017,27.367999 95.6,27.56 C95.2639983,27.752001 94.900002,27.8879996 94.508,27.968 C94.115998,28.0480004 93.7360018,28.088 93.368,28.088 C92.359995,28.088 91.5160034,27.8280026 90.836,27.308 C90.1559966,26.7879974 89.7840003,26.0160051 89.72,24.992 L88.208,24.992 C88.3360006,26.5120076 88.8519955,27.6159966 89.756,28.304 C90.6600045,28.9920034 91.8399927,29.336 93.296,29.336 C93.8720029,29.336 94.455997,29.2720006 95.048,29.144 C95.640003,29.0159994 96.1719976,28.8040015 96.644,28.508 C97.1160024,28.2119985 97.5039985,27.8280024 97.808,27.356 C98.1120015,26.8839976 98.264,26.3120034 98.264,25.64 C98.264,25.0959973 98.160001,24.624002 97.952,24.224 C97.743999,23.823998 97.4760016,23.4880014 97.148,23.216 C96.8199984,22.9439986 96.4440021,22.7240008 96.02,22.556 C95.5959979,22.3879992 95.1680022,22.2720003 94.736,22.208 L92.72,21.752 C92.4639987,21.6879997 92.1840015,21.6040005 91.88,21.5 C91.5759985,21.3959995 91.2960013,21.2640008 91.04,21.104 C90.7839987,20.9439992 90.5720008,20.7480012 90.404,20.516 C90.2359992,20.2839988 90.152,20.0000017 90.152,19.664 C90.152,19.263998 90.2399991,18.9280014 90.416,18.656 C90.5920009,18.3839986 90.8239986,18.1640008 91.112,17.996 C91.4000014,17.8279992 91.7159983,17.7080004 92.06,17.636 C92.4040017,17.5639996 92.7439983,17.528 93.08,17.528 C93.5120022,17.528 93.9199981,17.5799995 94.304,17.684 C94.6880019,17.7880005 95.0279985,17.9519989 95.324,18.176 C95.6200015,18.4000011 95.8559991,18.6839983 96.032,19.028 C96.2080009,19.3720017 96.3039999,19.7759977 96.32,20.24 L96.32,20.24 Z M100.448,16.616 L100.448,33.56 L101.96,33.56 L101.96,26.648 L102.008,26.648 C102.168001,27.0960022 102.395999,27.4879983 102.692,27.824 C102.988001,28.1600017 103.327998,28.4399989 103.712,28.664 C104.096002,28.8880011 104.511998,29.0559994 104.96,29.168 C105.408002,29.2800006 105.855998,29.336 106.304,29.336 C107.248005,29.336 108.067997,29.1640017 108.764,28.82 C109.460003,28.4759983 110.039998,28.004003 110.504,27.404 C110.968002,26.803997 111.311999,26.108004 111.536,25.316 C111.760001,24.523996 111.872,23.6880044 111.872,22.808 C111.872,21.9279956 111.760001,21.092004 111.536,20.3 C111.311999,19.507996 110.968002,18.812003 110.504,18.212 C110.039998,17.611997 109.460003,17.1360018 108.764,16.784 C108.067997,16.4319982 107.248005,16.256 106.304,16.256 C105.295995,16.256 104.396004,16.4919976 103.604,16.964 C102.811996,17.4360024 102.240002,18.1039957 101.888,18.968 L101.84,18.968 L101.84,16.616 L100.448,16.616 Z M110.36,22.808 C110.36,23.4480032 110.284001,24.0839968 110.132,24.716 C109.979999,25.3480032 109.740002,25.9119975 109.412,26.408 C109.083998,26.9040025 108.664003,27.3079984 108.152,27.62 C107.639997,27.9320016 107.024004,28.088 106.304,28.088 C105.503996,28.088 104.828003,27.9320016 104.276,27.62 C103.723997,27.3079984 103.276002,26.9040025 102.932,26.408 C102.587998,25.9119975 102.340001,25.3480032 102.188,24.716 C102.035999,24.0839968 101.96,23.4480032 101.96,22.808 C101.96,22.1039965 102.027999,21.4320032 102.164,20.792 C102.300001,20.1519968 102.535998,19.5920024 102.872,19.112 C103.208002,18.6319976 103.655997,18.2480014 104.216,17.96 C104.776003,17.6719986 105.471996,17.528 106.304,17.528 C107.024004,17.528 107.639997,17.6839984 108.152,17.996 C108.664003,18.3080016 109.083998,18.7119975 109.412,19.208 C109.740002,19.7040025 109.979999,20.2679968 110.132,20.9 C110.284001,21.5320032 110.36,22.1679968 110.36,22.808 L110.36,22.808 Z M119.456,17.528 C120.176004,17.528 120.807997,17.6799985 121.352,17.984 C121.896003,18.2880015 122.347998,18.6879975 122.708,19.184 C123.068002,19.6800025 123.339999,20.2439968 123.524,20.876 C123.708001,21.5080032 123.8,22.1519967 123.8,22.808 C123.8,23.4640033 123.708001,24.1079968 123.524,24.74 C123.339999,25.3720032 123.068002,25.9359975 122.708,26.432 C122.347998,26.9280025 121.896003,27.3279985 121.352,27.632 C120.807997,27.9360015 120.176004,28.088 119.456,28.088 C118.735996,28.088 118.104003,27.9360015 117.56,27.632 C117.015997,27.3279985 116.564002,26.9280025 116.204,26.432 C115.843998,25.9359975 115.572001,25.3720032 115.388,24.74 C115.203999,24.1079968 115.112,23.4640033 115.112,22.808 C115.112,22.1519967 115.203999,21.5080032 115.388,20.876 C115.572001,20.2439968 115.843998,19.6800025 116.204,19.184 C116.564002,18.6879975 117.015997,18.2880015 117.56,17.984 C118.104003,17.6799985 118.735996,17.528 119.456,17.528 L119.456,17.528 Z M119.456,16.256 C118.511995,16.256 117.676004,16.4319982 116.948,16.784 C116.219996,17.1360018 115.608002,17.607997 115.112,18.2 C114.615998,18.792003 114.240001,19.483996 113.984,20.276 C113.727999,21.068004 113.6,21.9119955 113.6,22.808 C113.6,23.7040045 113.727999,24.547996 113.984,25.34 C114.240001,26.132004 114.615998,26.823997 115.112,27.416 C115.608002,28.008003 116.219996,28.4759983 116.948,28.82 C117.676004,29.1640017 118.511995,29.336 119.456,29.336 C120.400005,29.336 121.235996,29.1640017 121.964,28.82 C122.692004,28.4759983 123.303998,28.008003 123.8,27.416 C124.296002,26.823997 124.671999,26.132004 124.928,25.34 C125.184001,24.547996 125.312,23.7040045 125.312,22.808 C125.312,21.9119955 125.184001,21.068004 124.928,20.276 C124.671999,19.483996 124.296002,18.792003 123.8,18.2 C123.303998,17.607997 122.692004,17.1360018 121.964,16.784 C121.235996,16.4319982 120.400005,16.256 119.456,16.256 L119.456,16.256 Z M127.544,16.616 L127.544,29 L129.056,29 L129.056,21.776 C129.072,21.167997 129.171999,20.6040026 129.356,20.084 C129.540001,19.5639974 129.795998,19.1160019 130.124,18.74 C130.452002,18.3639981 130.851998,18.0680011 131.324,17.852 C131.796002,17.6359989 132.335997,17.528 132.944,17.528 C133.552003,17.528 134.059998,17.623999 134.468,17.816 C134.876002,18.008001 135.199999,18.2719983 135.44,18.608 C135.680001,18.9440017 135.848,19.3399977 135.944,19.796 C136.04,20.2520023 136.088,20.7439974 136.088,21.272 L136.088,29 L137.6,29 L137.6,21.032 C137.6,20.2959963 137.528001,19.632003 137.384,19.04 C137.239999,18.447997 136.992002,17.948002 136.64,17.54 C136.287998,17.131998 135.820003,16.8160011 135.236,16.592 C134.651997,16.3679989 133.928004,16.256 133.064,16.256 C132.183996,16.256 131.376004,16.4839977 130.64,16.94 C129.903996,17.3960023 129.392001,17.9999962 129.104,18.752 L129.056,18.752 L129.056,16.616 L127.544,16.616 Z M147.872,20.24 L149.384,20.24 C149.352,19.5679966 149.216001,18.9840025 148.976,18.488 C148.735999,17.9919975 148.412002,17.5760017 148.004,17.24 C147.595998,16.9039983 147.124003,16.6560008 146.588,16.496 C146.051997,16.3359992 145.472003,16.256 144.848,16.256 C144.303997,16.256 143.756003,16.3199994 143.204,16.448 C142.651997,16.5760006 142.152002,16.7759986 141.704,17.048 C141.255998,17.3200014 140.892001,17.6799978 140.612,18.128 C140.331999,18.5760022 140.192,19.1119969 140.192,19.736 C140.192,20.2640026 140.279999,20.7079982 140.456,21.068 C140.632001,21.4280018 140.875998,21.7319988 141.188,21.98 C141.500002,22.2280012 141.863998,22.4359992 142.28,22.604 C142.696002,22.7720008 143.151998,22.9199994 143.648,23.048 L145.592,23.48 C145.928002,23.5600004 146.259998,23.6559994 146.588,23.768 C146.916002,23.8800006 147.207999,24.0199992 147.464,24.188 C147.720001,24.3560008 147.923999,24.5639988 148.076,24.812 C148.228001,25.0600012 148.304,25.3679982 148.304,25.736 C148.304,26.1680022 148.196001,26.5319985 147.98,26.828 C147.763999,27.1240015 147.488002,27.367999 147.152,27.56 C146.815998,27.752001 146.452002,27.8879996 146.06,27.968 C145.667998,28.0480004 145.288002,28.088 144.92,28.088 C143.911995,28.088 143.068003,27.8280026 142.388,27.308 C141.707997,26.7879974 141.336,26.0160051 141.272,24.992 L139.76,24.992 C139.888001,26.5120076 140.403995,27.6159966 141.308,28.304 C142.212005,28.9920034 143.391993,29.336 144.848,29.336 C145.424003,29.336 146.007997,29.2720006 146.6,29.144 C147.192003,29.0159994 147.723998,28.8040015 148.196,28.508 C148.668002,28.2119985 149.055998,27.8280024 149.36,27.356 C149.664002,26.8839976 149.816,26.3120034 149.816,25.64 C149.816,25.0959973 149.712001,24.624002 149.504,24.224 C149.295999,23.823998 149.028002,23.4880014 148.7,23.216 C148.371998,22.9439986 147.996002,22.7240008 147.572,22.556 C147.147998,22.3879992 146.720002,22.2720003 146.288,22.208 L144.272,21.752 C144.015999,21.6879997 143.736002,21.6040005 143.432,21.5 C143.127998,21.3959995 142.848001,21.2640008 142.592,21.104 C142.335999,20.9439992 142.124001,20.7480012 141.956,20.516 C141.787999,20.2839988 141.704,20.0000017 141.704,19.664 C141.704,19.263998 141.791999,18.9280014 141.968,18.656 C142.144001,18.3839986 142.375999,18.1640008 142.664,17.996 C142.952001,17.8279992 143.267998,17.7080004 143.612,17.636 C143.956002,17.5639996 144.295998,17.528 144.632,17.528 C145.064002,17.528 145.471998,17.5799995 145.856,17.684 C146.240002,17.7880005 146.579999,17.9519989 146.876,18.176 C147.172001,18.4000011 147.407999,18.6839983 147.584,19.028 C147.760001,19.3720017 147.856,19.7759977 147.872,20.24 L147.872,20.24 Z M152.024,11.864 L152.024,14.288 L153.536,14.288 L153.536,11.864 L152.024,11.864 Z M152.024,16.616 L152.024,29 L153.536,29 L153.536,16.616 L152.024,16.616 Z M155.048,16.616 L159.824,29 L161.432,29 L166.064,16.616 L164.504,16.616 L160.664,27.488 L160.616,27.488 L156.728,16.616 L155.048,16.616 Z M176.456,21.944 L168.44,21.944 C168.504,21.3839972 168.635999,20.8360027 168.836,20.3 C169.036001,19.7639973 169.303998,19.292002 169.64,18.884 C169.976002,18.475998 170.383998,18.1480012 170.864,17.9 C171.344002,17.6519988 171.895997,17.528 172.52,17.528 C173.128003,17.528 173.671998,17.6519988 174.152,17.9 C174.632002,18.1480012 175.039998,18.475998 175.376,18.884 C175.712002,19.292002 175.971999,19.7599974 176.156,20.288 C176.340001,20.8160026 176.44,21.3679971 176.456,21.944 L176.456,21.944 Z M168.44,23.216 L177.968,23.216 C178,22.3519957 177.920001,21.5000042 177.728,20.66 C177.535999,19.8199958 177.220002,19.0760032 176.78,18.428 C176.339998,17.7799968 175.768004,17.256002 175.064,16.856 C174.359996,16.455998 173.512005,16.256 172.52,16.256 C171.543995,16.256 170.700004,16.4439981 169.988,16.82 C169.275996,17.1960019 168.696002,17.6919969 168.248,18.308 C167.799998,18.9240031 167.468001,19.6239961 167.252,20.408 C167.035999,21.1920039 166.928,21.9919959 166.928,22.808 C166.928,23.6880044 167.035999,24.523996 167.252,25.316 C167.468001,26.108004 167.799998,26.803997 168.248,27.404 C168.696002,28.004003 169.275996,28.4759983 169.988,28.82 C170.700004,29.1640017 171.543995,29.336 172.52,29.336 C174.088008,29.336 175.299996,28.9520038 176.156,28.184 C177.012004,27.4159962 177.599998,26.328007 177.92,24.92 L176.408,24.92 C176.167999,25.8800048 175.736003,26.6479971 175.112,27.224 C174.487997,27.8000029 173.624006,28.088 172.52,28.088 C171.799996,28.088 171.184003,27.9360015 170.672,27.632 C170.159997,27.3279985 169.736002,26.9440023 169.4,26.48 C169.063998,26.0159977 168.820001,25.4920029 168.668,24.908 C168.515999,24.3239971 168.44,23.7600027 168.44,23.216 L168.44,23.216 Z" id="Responsive-Copy" fill="#4A4A4A" sketch:type="MSShapeGroup"></path>
        </g>
    </g>
</svg>