<?xml version="1.0" encoding="UTF-8" standalone="no"?>
<svg width="202px" height="41px" viewBox="0 0 202 41" version="1.1" xmlns="http://www.w3.org/2000/svg" xmlns:xlink="http://www.w3.org/1999/xlink" xmlns:sketch="http://www.bohemiancoding.com/sketch/ns">
    <!-- Generator: Sketch 3.3.2 (12043) - http://www.bohemiancoding.com/sketch -->
    <title>soon-header-visual-builder</title>
    <desc>Created with Sketch.</desc>
    <defs></defs>
    <g id="Page-1" stroke="none" stroke-width="1" fill="none" fill-rule="evenodd" sketch:type="MSPage">
        <g id="soon-header-visual-builder" sketch:type="MSLayerGroup" transform="translate(4.000000, 0.000000)">
            <g id="edit_image" sketch:type="MSShapeGroup">
                <path d="M27,34 L4,34 C1.8,34 0,32.2 0,30 L0,4 C0,1.8 1.8,0 4,0 L36,0 C38.2,0 40,1.8 40,4 L40,21 C40,28.2 34.2,34 27,34 L27,34 Z" id="Shape" fill="#8CBCD6"></path>
                <circle id="Oval" fill="#B3DDF5" cx="31" cy="9" r="3"></circle>
                <path d="M16,9 L5,25 L27,25 L16,9 Z" id="Shape" fill="#9AC9E3"></path>
                <path d="M27,15 L19,25 L35,25 L27,15 Z" id="Shape" fill="#B3DDF5"></path>
                <path d="M43.7,22.1 L40.9,19.3 C40.5,18.9 39.8,18.9 39.3,19.3 L38,20.6 L42.4,25 L43.7,23.7 C44.1,23.3 44.1,22.6 43.7,22.1 L43.7,22.1 Z" id="Shape" fill="#E57373"></path>
                <rect id="Rectangle-path" fill="#FF9800" transform="translate(31.810000, 31.207800) rotate(-45.000000) translate(-31.810000, -31.207800) " x="23.1113138" y="28.1082681" width="17.3973724" height="6.19906373"></rect>
                <rect id="Rectangle-path" fill="#B0BEC5" transform="translate(39.112350, 23.942050) rotate(135.000000) translate(-39.112350, -23.942050) " x="37.5625841" y="20.8425181" width="3.09953186" height="6.19906373"></rect>
                <path d="M23.5,35.2 L22,41 L27.8,39.5 L23.5,35.2 Z" id="Shape" fill="#FFC107"></path>
                <path d="M22.7,38 L22,41 L25,40.3 L22.7,38 Z" id="Shape" fill="#37474F"></path>
            </g>
            <path d="M58.856,11.864 L65.192,29 L67.088,29 L73.448,11.864 L71.72,11.864 L66.2,27.2 L66.152,27.2 L60.584,11.864 L58.856,11.864 Z M74.84,11.864 L74.84,14.288 L76.352,14.288 L76.352,11.864 L74.84,11.864 Z M74.84,16.616 L74.84,29 L76.352,29 L76.352,16.616 L74.84,16.616 Z M86.672,20.24 L88.184,20.24 C88.1519998,19.5679966 88.0160012,18.9840025 87.776,18.488 C87.5359988,17.9919975 87.212002,17.5760017 86.804,17.24 C86.395998,16.9039983 85.9240027,16.6560008 85.388,16.496 C84.8519973,16.3359992 84.2720031,16.256 83.648,16.256 C83.1039973,16.256 82.5560028,16.3199994 82.004,16.448 C81.4519972,16.5760006 80.9520022,16.7759986 80.504,17.048 C80.0559978,17.3200014 79.6920014,17.6799978 79.412,18.128 C79.1319986,18.5760022 78.992,19.1119969 78.992,19.736 C78.992,20.2640026 79.0799991,20.7079982 79.256,21.068 C79.4320009,21.4280018 79.6759984,21.7319988 79.988,21.98 C80.3000016,22.2280012 80.6639979,22.4359992 81.08,22.604 C81.4960021,22.7720008 81.9519975,22.9199994 82.448,23.048 L84.392,23.48 C84.7280017,23.5600004 85.0599984,23.6559994 85.388,23.768 C85.7160016,23.8800006 86.0079987,24.0199992 86.264,24.188 C86.5200013,24.3560008 86.7239992,24.5639988 86.876,24.812 C87.0280008,25.0600012 87.104,25.3679982 87.104,25.736 C87.104,26.1680022 86.9960011,26.5319985 86.78,26.828 C86.5639989,27.1240015 86.2880017,27.367999 85.952,27.56 C85.6159983,27.752001 85.252002,27.8879996 84.86,27.968 C84.467998,28.0480004 84.0880018,28.088 83.72,28.088 C82.711995,28.088 81.8680034,27.8280026 81.188,27.308 C80.5079966,26.7879974 80.1360003,26.0160051 80.072,24.992 L78.56,24.992 C78.6880006,26.5120076 79.2039955,27.6159966 80.108,28.304 C81.0120045,28.9920034 82.1919927,29.336 83.648,29.336 C84.2240029,29.336 84.807997,29.2720006 85.4,29.144 C85.992003,29.0159994 86.5239976,28.8040015 86.996,28.508 C87.4680024,28.2119985 87.8559985,27.8280024 88.16,27.356 C88.4640015,26.8839976 88.616,26.3120034 88.616,25.64 C88.616,25.0959973 88.512001,24.624002 88.304,24.224 C88.095999,23.823998 87.8280016,23.4880014 87.5,23.216 C87.1719984,22.9439986 86.7960021,22.7240008 86.372,22.556 C85.9479979,22.3879992 85.5200022,22.2720003 85.088,22.208 L83.072,21.752 C82.8159987,21.6879997 82.5360015,21.6040005 82.232,21.5 C81.9279985,21.3959995 81.6480013,21.2640008 81.392,21.104 C81.1359987,20.9439992 80.9240008,20.7480012 80.756,20.516 C80.5879992,20.2839988 80.504,20.0000017 80.504,19.664 C80.504,19.263998 80.5919991,18.9280014 80.768,18.656 C80.9440009,18.3839986 81.1759986,18.1640008 81.464,17.996 C81.7520014,17.8279992 82.0679983,17.7080004 82.412,17.636 C82.7560017,17.5639996 83.0959983,17.528 83.432,17.528 C83.8640022,17.528 84.2719981,17.5799995 84.656,17.684 C85.0400019,17.7880005 85.3799985,17.9519989 85.676,18.176 C85.9720015,18.4000011 86.2079991,18.6839983 86.384,19.028 C86.5600009,19.3720017 86.6559999,19.7759977 86.672,20.24 L86.672,20.24 Z M100.832,29 L100.832,16.616 L99.32,16.616 L99.32,23.12 C99.32,23.7440031 99.2480007,24.355997 99.104,24.956 C98.9599993,25.556003 98.7360015,26.0879977 98.432,26.552 C98.1279985,27.0160023 97.7440023,27.3879986 97.28,27.668 C96.8159977,27.9480014 96.2560033,28.088 95.6,28.088 C94.399994,28.088 93.5560024,27.8000029 93.068,27.224 C92.5799976,26.6479971 92.3200002,25.8000056 92.288,24.68 L92.288,16.616 L90.776,16.616 L90.776,24.656 C90.776,25.3920037 90.8559992,26.0479971 91.016,26.624 C91.1760008,27.2000029 91.4279983,27.687998 91.772,28.088 C92.1160017,28.488002 92.5639972,28.7959989 93.116,29.012 C93.6680028,29.2280011 94.3359961,29.336 95.12,29.336 C96.0480046,29.336 96.8919962,29.1160022 97.652,28.676 C98.4120038,28.2359978 98.991998,27.6000042 99.392,26.768 L99.44,26.768 L99.44,29 L100.832,29 Z M103.544,20.408 L105.056,20.408 C105.088,19.399995 105.407997,18.6680023 106.016,18.212 C106.624003,17.7559977 107.407995,17.528 108.368,17.528 C108.816002,17.528 109.235998,17.5639996 109.628,17.636 C110.020002,17.7080004 110.363999,17.839999 110.66,18.032 C110.956001,18.224001 111.187999,18.4839984 111.356,18.812 C111.524001,19.1400016 111.608,19.5599974 111.608,20.072 C111.608,20.4080017 111.564,20.679999 111.476,20.888 C111.388,21.096001 111.264001,21.2599994 111.104,21.38 C110.943999,21.5000006 110.744001,21.5839998 110.504,21.632 C110.263999,21.6800002 109.984002,21.7199998 109.664,21.752 C108.847996,21.8480005 108.044004,21.9479995 107.252,22.052 C106.459996,22.1560005 105.748003,22.3359987 105.116,22.592 C104.483997,22.8480013 103.976002,23.2199976 103.592,23.708 C103.207998,24.1960024 103.016,24.8719957 103.016,25.736 C103.016,26.3600031 103.123999,26.8999977 103.34,27.356 C103.556001,27.8120023 103.851998,28.1879985 104.228,28.484 C104.604002,28.7800015 105.043997,28.9959993 105.548,29.132 C106.052003,29.2680007 106.591997,29.336 107.168,29.336 C107.776003,29.336 108.299998,29.2800006 108.74,29.168 C109.180002,29.0559994 109.571998,28.896001 109.916,28.688 C110.260002,28.479999 110.571999,28.2200016 110.852,27.908 C111.132001,27.5959984 111.407999,27.240002 111.68,26.84 L111.728,26.84 C111.728,27.1600016 111.748,27.4519987 111.788,27.716 C111.828,27.9800013 111.911999,28.207999 112.04,28.4 C112.168001,28.592001 112.347999,28.7399995 112.58,28.844 C112.812001,28.9480005 113.119998,29 113.504,29 C113.712001,29 113.883999,28.9920001 114.02,28.976 C114.156001,28.9599999 114.311999,28.9360002 114.488,28.904 L114.488,27.632 C114.343999,27.6960003 114.184001,27.728 114.008,27.728 C113.415997,27.728 113.12,27.424003 113.12,26.816 L113.12,20.24 C113.12,19.4079958 112.984001,18.7320026 112.712,18.212 C112.439999,17.6919974 112.088002,17.2880014 111.656,17 C111.223998,16.7119986 110.736003,16.5160005 110.192,16.412 C109.647997,16.3079995 109.104003,16.256 108.56,16.256 C107.839996,16.256 107.184003,16.3359992 106.592,16.496 C105.999997,16.6560008 105.484002,16.9039983 105.044,17.24 C104.603998,17.5760017 104.256001,18.0079974 104,18.536 C103.743999,19.0640026 103.592,19.6879964 103.544,20.408 L103.544,20.408 Z M111.608,22.232 L111.608,24.2 C111.608,24.808003 111.492001,25.3519976 111.26,25.832 C111.027999,26.3120024 110.716002,26.7199983 110.324,27.056 C109.931998,27.3920017 109.472003,27.6479991 108.944,27.824 C108.415997,28.0000009 107.864003,28.088 107.288,28.088 C106.935998,28.088 106.592002,28.0320006 106.256,27.92 C105.919998,27.8079994 105.624001,27.6440011 105.368,27.428 C105.111999,27.2119989 104.908001,26.9560015 104.756,26.66 C104.603999,26.3639985 104.528,26.0240019 104.528,25.64 C104.528,25.031997 104.707998,24.5640016 105.068,24.236 C105.428002,23.9079984 105.887997,23.6560009 106.448,23.48 C107.008003,23.3039991 107.627997,23.1720004 108.308,23.084 C108.988003,22.9959996 109.647997,22.8960006 110.288,22.784 C110.496001,22.7519998 110.735999,22.6960004 111.008,22.616 C111.280001,22.5359996 111.464,22.4080009 111.56,22.232 L111.608,22.232 Z M116.168,11.864 L116.168,29 L117.68,29 L117.68,11.864 L116.168,11.864 Z M129.176,19.376 L129.176,13.256 L134.792,13.256 C137.368013,13.256 138.656,14.3279893 138.656,16.472 C138.656,16.872002 138.576001,17.2479982 138.416,17.6 C138.255999,17.9520018 138.016002,18.2599987 137.696,18.524 C137.375998,18.7880013 136.976002,18.9959992 136.496,19.148 C136.015998,19.3000008 135.448003,19.376 134.792,19.376 L129.176,19.376 Z M127.544,11.864 L127.544,29 L134.792,29 C135.720005,29 136.515997,28.9160008 137.18,28.748 C137.844003,28.5799992 138.403998,28.3640013 138.86,28.1 C139.316002,27.8359987 139.679999,27.5280018 139.952,27.176 C140.224001,26.8239982 140.431999,26.4680018 140.576,26.108 C140.720001,25.7479982 140.816,25.3960017 140.864,25.052 C140.912,24.7079983 140.936,24.4000014 140.936,24.128 C140.936,23.0079944 140.608003,22.0680038 139.952,21.308 C139.295997,20.5479962 138.416006,20.0960007 137.312,19.952 L137.312,19.904 C137.760002,19.8079995 138.163998,19.6400012 138.524,19.4 C138.884002,19.1599988 139.195999,18.8680017 139.46,18.524 C139.724001,18.1799983 139.927999,17.7960021 140.072,17.372 C140.216001,16.9479979 140.288,16.5120022 140.288,16.064 C140.288,15.263996 140.136002,14.5960027 139.832,14.06 C139.527998,13.5239973 139.124003,13.0920016 138.62,12.764 C138.115997,12.4359984 137.532003,12.2040007 136.868,12.068 C136.203997,11.9319993 135.512004,11.864 134.792,11.864 L127.544,11.864 Z M129.176,27.608 L129.176,20.768 L134.792,20.768 C136.248007,20.768 137.363996,21.0439972 138.14,21.596 C138.916004,22.1480028 139.304,22.9759945 139.304,24.08 C139.304,24.7680034 139.184001,25.3399977 138.944,25.796 C138.703999,26.2520023 138.376002,26.6159986 137.96,26.888 C137.543998,27.1600014 137.064003,27.3479995 136.52,27.452 C135.975997,27.5560005 135.400003,27.608 134.792,27.608 L129.176,27.608 Z M153.296,29 L153.296,16.616 L151.784,16.616 L151.784,23.12 C151.784,23.7440031 151.712001,24.355997 151.568,24.956 C151.423999,25.556003 151.200002,26.0879977 150.896,26.552 C150.591998,27.0160023 150.208002,27.3879986 149.744,27.668 C149.279998,27.9480014 148.720003,28.088 148.064,28.088 C146.863994,28.088 146.020002,27.8000029 145.532,27.224 C145.043998,26.6479971 144.784,25.8000056 144.752,24.68 L144.752,16.616 L143.24,16.616 L143.24,24.656 C143.24,25.3920037 143.319999,26.0479971 143.48,26.624 C143.640001,27.2000029 143.891998,27.687998 144.236,28.088 C144.580002,28.488002 145.027997,28.7959989 145.58,29.012 C146.132003,29.2280011 146.799996,29.336 147.584,29.336 C148.512005,29.336 149.355996,29.1160022 150.116,28.676 C150.876004,28.2359978 151.455998,27.6000042 151.856,26.768 L151.904,26.768 L151.904,29 L153.296,29 Z M156.176,11.864 L156.176,14.288 L157.688,14.288 L157.688,11.864 L156.176,11.864 Z M156.176,16.616 L156.176,29 L157.688,29 L157.688,16.616 L156.176,16.616 Z M160.616,11.864 L160.616,29 L162.128,29 L162.128,11.864 L160.616,11.864 Z M175.928,29 L175.928,11.864 L174.416,11.864 L174.416,18.968 L174.368,18.968 C174.207999,18.5199978 173.980001,18.1280017 173.684,17.792 C173.387999,17.4559983 173.048002,17.1720012 172.664,16.94 C172.279998,16.7079988 171.868002,16.5360006 171.428,16.424 C170.987998,16.3119994 170.536002,16.256 170.072,16.256 C169.127995,16.256 168.308003,16.4319982 167.612,16.784 C166.915997,17.1360018 166.336002,17.611997 165.872,18.212 C165.407998,18.812003 165.064001,19.507996 164.84,20.3 C164.615999,21.092004 164.504,21.9279956 164.504,22.808 C164.504,23.6880044 164.615999,24.523996 164.84,25.316 C165.064001,26.108004 165.407998,26.803997 165.872,27.404 C166.336002,28.004003 166.915997,28.4759983 167.612,28.82 C168.308003,29.1640017 169.127995,29.336 170.072,29.336 C170.520002,29.336 170.971998,29.2720006 171.428,29.144 C171.884002,29.0159994 172.311998,28.8360012 172.712,28.604 C173.112002,28.3719988 173.467998,28.0880017 173.78,27.752 C174.092002,27.4159983 174.327999,27.048002 174.488,26.648 L174.536,26.648 L174.536,29 L175.928,29 Z M166.016,22.808 C166.016,22.1679968 166.091999,21.5320032 166.244,20.9 C166.396001,20.2679968 166.635998,19.7040025 166.964,19.208 C167.292002,18.7119975 167.711997,18.3080016 168.224,17.996 C168.736003,17.6839984 169.351996,17.528 170.072,17.528 C170.872004,17.528 171.547997,17.6839984 172.1,17.996 C172.652003,18.3080016 173.099998,18.7119975 173.444,19.208 C173.788002,19.7040025 174.035999,20.2679968 174.188,20.9 C174.340001,21.5320032 174.416,22.1679968 174.416,22.808 C174.416,23.4480032 174.340001,24.0839968 174.188,24.716 C174.035999,25.3480032 173.788002,25.9119975 173.444,26.408 C173.099998,26.9040025 172.652003,27.3079984 172.1,27.62 C171.547997,27.9320016 170.872004,28.088 170.072,28.088 C169.351996,28.088 168.736003,27.9320016 168.224,27.62 C167.711997,27.3079984 167.292002,26.9040025 166.964,26.408 C166.635998,25.9119975 166.396001,25.3480032 166.244,24.716 C166.091999,24.0839968 166.016,23.4480032 166.016,22.808 L166.016,22.808 Z M187.712,21.944 L179.696,21.944 C179.76,21.3839972 179.891999,20.8360027 180.092,20.3 C180.292001,19.7639973 180.559998,19.292002 180.896,18.884 C181.232002,18.475998 181.639998,18.1480012 182.12,17.9 C182.600002,17.6519988 183.151997,17.528 183.776,17.528 C184.384003,17.528 184.927998,17.6519988 185.408,17.9 C185.888002,18.1480012 186.295998,18.475998 186.632,18.884 C186.968002,19.292002 187.227999,19.7599974 187.412,20.288 C187.596001,20.8160026 187.696,21.3679971 187.712,21.944 L187.712,21.944 Z M179.696,23.216 L189.224,23.216 C189.256,22.3519957 189.176001,21.5000042 188.984,20.66 C188.791999,19.8199958 188.476002,19.0760032 188.036,18.428 C187.595998,17.7799968 187.024004,17.256002 186.32,16.856 C185.615996,16.455998 184.768005,16.256 183.776,16.256 C182.799995,16.256 181.956004,16.4439981 181.244,16.82 C180.531996,17.1960019 179.952002,17.6919969 179.504,18.308 C179.055998,18.9240031 178.724001,19.6239961 178.508,20.408 C178.291999,21.1920039 178.184,21.9919959 178.184,22.808 C178.184,23.6880044 178.291999,24.523996 178.508,25.316 C178.724001,26.108004 179.055998,26.803997 179.504,27.404 C179.952002,28.004003 180.531996,28.4759983 181.244,28.82 C181.956004,29.1640017 182.799995,29.336 183.776,29.336 C185.344008,29.336 186.555996,28.9520038 187.412,28.184 C188.268004,27.4159962 188.855998,26.328007 189.176,24.92 L187.664,24.92 C187.423999,25.8800048 186.992003,26.6479971 186.368,27.224 C185.743997,27.8000029 184.880006,28.088 183.776,28.088 C183.055996,28.088 182.440003,27.9360015 181.928,27.632 C181.415997,27.3279985 180.992002,26.9440023 180.656,26.48 C180.319998,26.0159977 180.076001,25.4920029 179.924,24.908 C179.771999,24.3239971 179.696,23.7600027 179.696,23.216 L179.696,23.216 Z M191.264,16.616 L191.264,29 L192.776,29 L192.776,22.4 C192.776,21.7439967 192.887999,21.1400028 193.112,20.588 C193.336001,20.0359972 193.651998,19.560002 194.06,19.16 C194.468002,18.759998 194.951997,18.4520011 195.512,18.236 C196.072003,18.0199989 196.695997,17.9279998 197.384,17.96 L197.384,16.448 C196.263994,16.3999998 195.300004,16.6479973 194.492,17.192 C193.683996,17.7360027 193.088002,18.511995 192.704,19.52 L192.656,19.52 L192.656,16.616 L191.264,16.616 Z" id="Visual-Builder-Copy" fill="#4A4A4A" sketch:type="MSShapeGroup"></path>
        </g>
    </g>
</svg>